<svg width="24" height="24" viewBox="0 0 24 24" fill="none" xmlns="http://www.w3.org/2000/svg">
<g clip-path="url(#clip0_159_129)">
<path d="M0.732727 1.00697C4.29742 1.00697 13.0784 1.05385 13.0784 1.05385C13.0784 1.05385 12.8524 1.2099 12.7396 1.28822C12.3186 1.5802 11.57 2.27201 11.5599 2.28139L9.17706 2.28529C9.17706 2.28529 9.04433 2.41361 8.98663 2.47865C7.58642 4.05727 7.08144 6.22307 7.17999 8.29115C7.20472 8.80975 7.2565 9.3146 7.39386 9.81361C7.47173 10.1001 7.575 10.379 7.70148 10.6476C7.96384 11.2039 8.28933 11.6796 8.34113 12.3156C8.38575 12.8637 8.24117 13.3684 8.04034 13.8712C7.95574 14.0832 7.86781 14.2563 7.82648 14.4826C7.76817 14.8027 7.87971 15.0757 8.06964 15.3331C8.5204 15.9442 9.37595 16.3983 10.0775 16.6691C11.1216 17.0723 12.4238 17.3285 13.5452 17.2062C14.2087 17.1337 15.0679 16.7476 15.721 16.5246C16.7785 16.1636 18.6439 15.5372 20.2952 15.2023C20.1644 15.0089 20.0334 14.8156 19.9026 14.6222L18.6634 12.7921L17.2591 10.715C17.0227 10.3656 16.7682 10.0028 16.5394 9.65053C16.4469 9.71581 16.2172 9.9389 16.1243 10.0246L15.3079 10.7794L14.2952 11.713C14.158 11.8399 13.9214 12.0457 13.8021 12.1749C13.8375 12.4318 13.8912 12.7163 13.9349 12.9747L14.1829 14.4415L14.2747 14.9826C14.2926 15.0879 14.3158 15.1992 14.3196 15.3087C14.3258 15.4867 14.1268 15.652 14.0228 15.7843C13.9403 15.8892 13.8255 16.0288 13.7161 16.091H13.6448C13.5486 16.0205 13.3586 15.6793 13.2835 15.5607L12.4085 14.1779L12.1458 13.7609C12.0986 13.686 12.0352 13.5794 11.9818 13.5119C11.7104 13.7635 11.2351 14.0782 10.8724 14.1622C10.8075 14.1773 10.5854 14.2223 10.5286 14.1876C10.5239 14.1773 10.5199 14.1671 10.5198 14.1554C10.5165 13.6193 10.8726 13.1198 11.2054 12.7306C10.9874 12.5863 10.755 12.4447 10.5335 12.3048L9.37628 11.5724L8.89679 11.2697C8.81622 11.2191 8.6809 11.1489 8.62531 11.0763V10.9953C8.64079 10.9745 8.65649 10.9407 8.67511 10.921C8.81004 10.7748 8.98423 10.6539 9.12921 10.5206C9.32828 10.3377 9.46811 10.3957 9.70929 10.4367L10.1175 10.506L11.7191 10.7775L12.223 10.8624C12.323 10.8794 12.4455 10.9032 12.5452 10.9122C12.7319 10.7135 12.9171 10.513 13.0999 10.3107L14.0892 9.23842L14.7435 8.53041C14.8467 8.41838 14.9739 8.2921 15.0677 8.17592C14.921 8.09139 14.6669 7.90823 14.5198 7.80873L13.4583 7.08998L10.1976 4.88393C10.0607 4.79132 9.13106 4.18112 9.08038 4.11342C9.06141 4.08757 9.05231 4.05745 9.05792 4.02553C9.06445 3.98901 9.08658 3.95628 9.11163 3.92982C9.20095 3.83559 9.37983 3.70977 9.48956 3.62221L9.80988 3.36732C9.87302 3.31705 9.94384 3.25678 10.0101 3.21303C10.075 3.2203 10.182 3.25311 10.2474 3.27162L10.5843 3.36732L11.7864 3.70522L16.2386 4.95619L17.2425 5.23842C17.3355 5.2646 17.6334 5.35578 17.7103 5.36342C17.8525 5.20259 18.0046 5.04619 18.1517 4.88979L18.9769 4.00697L19.6898 3.24525C19.7756 3.15464 19.9104 2.99651 19.9984 2.91908C20.2023 2.73947 20.47 2.54781 20.7064 2.4142C20.902 2.30112 21.1111 2.21243 21.3284 2.15053C21.4055 2.12873 21.5124 2.11866 21.5823 2.09096H21.9193C21.9783 2.11422 22.0488 2.12062 22.1058 2.13686C22.2836 2.18764 22.4417 2.27307 22.5159 2.45131C22.5857 2.59114 22.5845 2.70431 22.6253 2.80971V3.12025C22.5983 3.19555 22.5924 3.28493 22.5716 3.36244C22.4369 3.86179 22.1403 4.30723 21.8099 4.69838C21.7407 4.78026 21.6388 4.86698 21.5589 4.94154L21.1546 5.3185L20.0052 6.39565C19.7959 6.59104 19.5469 6.81248 19.348 7.01381L20.7845 12.1242L21.2581 13.8078L21.4095 14.3468C21.4364 14.4419 21.4646 14.5384 21.4896 14.6339C21.4983 14.6675 21.5046 14.6944 21.4857 14.7238C21.4461 14.7849 21.3947 14.8445 21.3489 14.9015L21.2347 15.0431C21.8009 14.9696 22.3105 14.9504 22.7112 15.0158L22.7278 15.0187C22.7219 14.6159 22.7107 14.1361 22.7435 13.7374C22.7731 13.3781 23.176 13.1363 23.5237 13.2365C23.8479 13.3298 23.999 13.5777 23.9964 13.9132C23.9977 14.1634 23.9978 14.4163 23.9974 14.6671L23.9964 16.0578L23.9974 20.3732V22.2833C23.9974 22.5766 24.0122 22.9705 23.9749 23.2579C23.958 23.3894 23.8133 23.5752 23.6917 23.6417C23.5265 23.7322 23.3695 23.7351 23.1829 23.7355C15.7808 23.751 8.37265 23.8179 0.971008 23.7365C0.797928 23.7345 0.618684 23.7444 0.449524 23.7003C0.297396 23.6607 0.147042 23.529 0.0755005 23.3908C0.00853336 23.2611 0.00830275 23.1173 0.00616455 22.9757C-0.00131447 16.6924 0.0413208 1.43764 0.0413208 1.43764C0.0453246 1.43068 0.209737 1.14574 0.358704 1.07338C0.476384 1.01752 0.604333 1.00784 0.732727 1.00697ZM3.38312 16.4913C2.67761 16.5525 1.88961 16.8098 1.2757 17.1622C1.27516 17.4945 1.28555 17.896 1.27472 18.2228C2.1876 18.0879 3.34845 18.2564 4.09698 18.8097C4.4072 19.036 4.6641 19.3278 4.85089 19.6632C5.01683 19.9657 5.09918 20.319 5.38409 20.5304C5.60989 20.6977 5.94744 20.7819 6.22003 20.8273C6.98895 20.9556 7.74511 21.0715 8.28448 21.7003C8.46111 21.9064 8.70831 22.4738 8.70831 22.4738L16.4642 22.4601C16.4707 22.4543 16.7006 22.2471 16.8196 22.1456C17.889 21.2347 19.2925 20.4697 20.6956 20.256C21.3879 20.1304 22.0341 20.1367 22.7288 20.2189C22.7265 19.8216 22.7346 19.4027 22.7259 19.0079C21.3936 18.4481 20.8059 18.8832 19.6146 19.4064C19.2237 19.5781 18.8267 19.7357 18.4241 19.8781C17.3364 20.2551 16.2186 20.5399 15.0833 20.7306C12.8177 21.1291 10.5698 21.2558 8.39581 20.341C7.0957 19.7955 5.97178 18.9008 5.14874 17.756C4.59982 17.0078 4.50168 16.4344 3.38312 16.4913ZM1.80402 19.4503C1.61402 19.4633 1.45998 19.4788 1.27081 19.5011C1.28057 20.4906 1.27506 21.4804 1.27374 22.4699L7.39386 22.4601C7.37971 22.454 6.88096 22.2393 6.64386 22.1925C6.41426 22.1473 6.17179 22.1036 5.94464 22.0656C5.16225 21.9349 4.42702 21.5901 4.02765 20.8703C3.92533 20.6857 3.83789 20.485 3.74249 20.296C3.53695 19.9017 3.15736 19.6565 2.73468 19.5451C2.45982 19.4726 2.08931 19.4281 1.80402 19.4503ZM21.6468 21.4357C20.452 21.5141 18.5704 22.4485 18.5433 22.4621L22.7327 22.4679C22.7327 22.4679 22.7251 21.8256 22.7298 21.504C22.3346 21.4501 22.0489 21.4196 21.6468 21.4357ZM5.50519 2.28334C5.50689 2.30154 5.56097 2.877 5.57062 3.09389C5.62445 4.3046 5.55655 5.60721 5.2132 6.77553C4.98695 7.54513 4.63695 8.1149 4.69952 8.96889C4.72998 9.38409 4.8191 9.72126 4.89679 10.1212C5.00806 10.6943 5.13354 11.645 5.00909 12.215C4.94855 12.4836 4.83656 12.738 4.67902 12.964C3.95114 14.0094 2.45822 14.3155 1.27179 14.4435C1.2776 14.8247 1.28822 15.3772 1.27081 15.755C2.81206 15.0684 4.82749 14.8018 5.82843 16.4874C5.91145 16.6272 6.01668 16.7825 6.10968 16.9162C6.32311 17.2216 6.55979 17.5105 6.81866 17.7785C8.21982 19.2196 10.1179 19.7716 12.0892 19.7697C13.0687 19.7687 13.9228 19.644 14.8792 19.4777C16.3973 19.2138 17.7321 18.8444 19.1409 18.2247L19.9593 17.8615C20.9078 17.4617 21.7214 17.3364 22.7298 17.672C22.7232 17.24 22.721 16.7583 22.7298 16.3263C21.4968 15.9323 17.7308 17.1785 16.4202 17.6271C16.0327 17.7589 15.6464 17.8964 15.263 18.0392C14.973 18.145 14.5742 18.3 14.2747 18.3644C12.6372 18.7168 10.6629 18.3195 9.15948 17.6456C8.24436 17.2354 7.26894 16.5979 6.80402 15.6964C6.51796 15.1418 6.4517 14.4871 6.65656 13.9093C6.93257 13.131 7.31323 12.6376 6.8714 11.8253C6.65553 11.4285 6.38077 10.8662 6.24738 10.4288C5.69915 8.63115 5.81312 6.29179 6.39777 4.52748C6.61311 3.87765 6.90365 3.25505 7.26398 2.67299C7.33789 2.55449 7.53075 2.28564 7.53448 2.28041L5.50519 2.28334ZM3.46027 2.28139C3.50357 2.51118 3.51218 2.82818 3.52081 3.06654C3.5598 4.14401 3.4519 5.30247 2.83624 6.22084C2.48984 6.73754 1.27179 7.27553 1.27179 7.27553L1.27374 13.1671C1.27374 13.1671 1.86549 13.086 2.12628 13.0187C2.63892 12.919 3.3251 12.6698 3.63605 12.2277C3.81855 11.9718 3.79047 11.6787 3.77863 11.382C3.74217 10.4698 3.41922 9.6375 3.4173 8.72084C3.41521 7.72155 3.88217 6.9383 4.09894 5.99721C4.31043 5.07887 4.33252 4.0877 4.29718 3.14955C4.28567 2.86395 4.24359 2.54095 4.23663 2.27357C3.9779 2.27493 3.71896 2.27657 3.46027 2.28139ZM1.2796 2.2765C1.27943 2.28364 1.27219 2.58074 1.27277 2.67397L1.2757 3.381C1.27457 4.21959 1.25872 5.13036 1.27863 5.96498C1.51118 5.80272 1.62272 5.73615 1.78644 5.50014C2.26615 4.74903 2.2741 3.77314 2.23859 2.90932C2.23041 2.71077 2.18878 2.2726 2.18878 2.2726L1.2796 2.2765Z" fill="white"/>
</g>
<defs>
<clipPath id="clip0_159_129">
<rect width="24" height="24" fill="white"/>
</clipPath>
</defs>
</svg>
