<svg width="24" height="24" viewBox="0 0 24 24" fill="none" xmlns="http://www.w3.org/2000/svg">
<g clip-path="url(#clip0_159_133)">
<path d="M0.727264 1.00014C4.28401 1.00014 13.0341 1.04778 13.073 1.04799C13.0644 1.0539 12.8447 1.20562 12.7341 1.28236C12.3118 1.57538 11.5601 2.26926 11.5544 2.27455L9.1716 2.27846L7.52902 2.27357L5.5007 2.2765L4.23117 2.26772H4.21945C3.96485 2.26905 3.71034 2.26981 3.45578 2.27455C3.49907 2.50428 3.50769 2.82136 3.51633 3.05971C3.55532 4.13718 3.44643 5.29563 2.83078 6.214C2.48437 6.7307 1.26633 7.26869 1.26633 7.26869L1.26828 13.1603L1.26633 14.4367C1.27214 14.8178 1.28373 15.3704 1.26633 15.7482C2.80756 15.0616 4.82312 14.795 5.82394 16.4806C5.907 16.6204 6.01119 16.7766 6.10422 16.9103C6.31762 17.2157 6.55535 17.5037 6.81418 17.7716C8.21531 19.2126 10.1125 19.7648 12.0837 19.7628C13.0633 19.7619 13.9173 19.6371 14.8737 19.4708C16.3918 19.2069 17.7267 18.8384 19.1355 18.2189L19.9538 17.8546C20.9022 17.4549 21.7161 17.3298 22.7243 17.6652C22.7178 17.2332 22.7155 16.7514 22.7243 16.3195L22.7234 15.0119C22.7174 14.6092 22.7063 14.1302 22.739 13.7316C22.7684 13.3722 23.1706 13.1297 23.5183 13.2296C23.8426 13.323 23.9937 13.5717 23.9909 13.9074C23.9922 14.1574 23.9933 14.4096 23.9929 14.6603L23.9919 16.0509V20.3663L23.9929 22.2765C23.9929 22.5696 24.0077 22.9637 23.9704 23.2511C23.9535 23.3826 23.8079 23.5684 23.6862 23.6349C23.521 23.7252 23.364 23.7283 23.1775 23.7287C15.7755 23.7442 8.36708 23.811 0.965546 23.7296C0.792568 23.7277 0.613113 23.7385 0.444061 23.6945C0.29201 23.6548 0.142556 23.5221 0.0710144 23.3839C0.00544234 23.257 0.00276774 23.1164 0.000701904 22.9777V22.9689C-0.00677712 16.6856 0.0358582 1.4308 0.0358582 1.4308C0.0401245 1.42339 0.205374 1.13982 0.354218 1.06752C0.471742 1.0118 0.599055 1.00102 0.727264 1.00014ZM3.37863 16.4845C2.67288 16.5457 1.8843 16.8037 1.27023 17.1564C1.27005 17.2694 1.27101 17.3905 1.27219 17.5138C1.27447 17.7528 1.27737 18.0005 1.27023 18.216C2.18305 18.0812 3.3431 18.2506 4.09152 18.8038C4.40167 19.0301 4.65964 19.321 4.84641 19.6564C4.89383 19.7428 4.93394 19.8337 4.97433 19.924C5.07529 20.1496 5.17593 20.3736 5.37961 20.5246C5.60537 20.6916 5.94212 20.7751 6.21457 20.8204L6.25851 20.8283C7.01221 20.9538 7.74988 21.0769 8.27902 21.6935C8.45367 21.8972 8.69741 22.4545 8.70285 22.4669L16.4587 22.4533C16.4631 22.4493 16.6956 22.2407 16.8152 22.1388C17.8846 21.2279 19.2881 20.4638 20.6911 20.2501C21.3834 20.1246 22.0287 20.1309 22.7234 20.213C22.7224 20.058 22.7235 19.8993 22.7243 19.7404C22.7256 19.4921 22.7267 19.2419 22.7214 19.0011C21.5542 18.5106 20.9585 18.7841 20.028 19.2111C19.8964 19.2715 19.7577 19.3347 19.6101 19.3996C19.2191 19.5713 18.8213 19.7288 18.4187 19.8712C17.3311 20.2482 16.214 20.5341 15.0788 20.7247C12.813 21.1233 10.5645 21.2491 8.39035 20.3341C7.09027 19.7887 5.96629 18.8939 5.14328 17.7492C5.0383 17.6061 4.95016 17.4691 4.86789 17.3419C4.52016 16.8046 4.2828 16.4386 3.37863 16.4845ZM1.79953 19.4435C1.60954 19.4565 1.45544 19.4719 1.26633 19.4943C1.27382 20.2543 1.2721 21.0145 1.27023 21.7746C1.26967 22.004 1.26858 22.2335 1.26828 22.463L7.38937 22.4533C7.38937 22.4533 6.8788 22.233 6.6384 22.1857C6.40869 22.1405 6.16641 22.0967 5.93918 22.0587C5.15695 21.9281 4.42259 21.5839 4.02316 20.8644C3.9589 20.7486 3.89974 20.6257 3.84152 20.504C3.80707 20.4321 3.77248 20.3604 3.73703 20.2902C3.53158 19.8958 3.15278 19.6498 2.73019 19.5382C2.45548 19.4658 2.0848 19.4214 1.79953 19.4435ZM21.6423 21.4298C20.4443 21.5084 18.555 22.4467 18.5378 22.4552L22.7273 22.4611C22.7271 22.4502 22.7196 21.8159 22.7243 21.4972C22.3293 21.4433 22.0442 21.4138 21.6423 21.4298ZM21.2937 3.00014C21.3527 3.02342 21.4232 3.02982 21.4802 3.04604C21.658 3.09682 21.8161 3.18225 21.8904 3.36049C21.9601 3.50033 21.9589 3.61348 21.9997 3.71889V4.02943C21.9727 4.10477 21.9669 4.19408 21.946 4.27162C21.8114 4.77087 21.5147 5.21549 21.1843 5.60658C21.115 5.68858 21.0133 5.77607 20.9333 5.85072L20.529 6.22768L19.3796 7.30385C19.1703 7.49925 18.9214 7.72164 18.7224 7.92299L20.1589 13.0324L20.6325 14.7169L20.7839 15.256C20.8108 15.351 20.8391 15.4476 20.864 15.5431C20.8728 15.5767 20.8791 15.6035 20.8601 15.6329C20.8205 15.6941 20.7691 15.7537 20.7234 15.8107L20.4675 16.129C20.3702 16.2503 20.2752 16.3807 20.1726 16.4972C20.0827 16.5992 19.9948 16.5915 19.9187 16.4796C19.7041 16.1643 19.4909 15.8476 19.2771 15.5314L18.0388 13.7013L16.6335 11.6242C16.3972 11.2748 16.1426 10.912 15.9138 10.5597C15.8214 10.625 15.5916 10.8481 15.4987 10.9337L14.6823 11.6876L13.6696 12.6222C13.5324 12.7492 13.2957 12.9549 13.1765 13.0841C13.2119 13.341 13.2656 13.6255 13.3093 13.8839L13.5573 15.3497L13.6491 15.8917C13.667 15.9971 13.6902 16.1084 13.6941 16.2179C13.7003 16.3959 13.5012 16.5612 13.3972 16.6935C13.3148 16.7984 13.1999 16.938 13.0905 17.0001H13.0193C12.9231 16.9298 12.7341 16.5887 12.6589 16.4699L11.7829 15.0861L11.5202 14.6691C11.473 14.5942 11.4095 14.4885 11.3562 14.421C11.0848 14.6726 10.6095 14.9874 10.2468 15.0714C10.1817 15.0865 9.96134 15.131 9.90402 15.0968C9.89928 15.0864 9.8953 15.0763 9.89523 15.0646C9.89187 14.5284 10.248 14.029 10.5808 13.6398C10.3628 13.4954 10.1305 13.353 9.90891 13.213L8.75168 12.4816L8.27121 12.1788C8.19054 12.1282 8.0552 12.0572 7.99973 11.9845V11.9035C8.01524 11.8827 8.03183 11.8499 8.05051 11.8302C8.18543 11.684 8.35965 11.563 8.50461 11.4298C8.70351 11.2472 8.84265 11.3049 9.08371 11.3458L9.49191 11.4152L11.0935 11.6867L11.5984 11.7716C11.6983 11.7885 11.8201 11.8124 11.9196 11.8214C12.1063 11.6227 12.2916 11.4222 12.4743 11.2199L13.4636 10.1476L14.1179 9.43959C14.2211 9.32762 14.3483 9.20122 14.4421 9.0851C14.2956 9.00062 14.0424 8.81746 13.8952 8.71791L12.8327 7.99916L9.57199 5.79311C9.43477 5.70029 8.50533 5.0902 8.4548 5.0226C8.43583 4.99674 8.42673 4.96663 8.43234 4.93471C8.43883 4.89812 8.46096 4.8655 8.48605 4.839C8.57531 4.74475 8.75418 4.619 8.86398 4.53139L9.1843 4.2765C9.24745 4.22622 9.31824 4.16599 9.38449 4.12221C9.44929 4.12943 9.55636 4.16226 9.6218 4.1808L9.95871 4.2765L11.1609 4.6144L15.613 5.86537L16.6169 6.1476C16.7098 6.17376 17.0075 6.26481 17.0847 6.2726C17.2268 6.11182 17.3791 5.95531 17.5261 5.79897L18.3513 4.91615L19.0642 4.15346C19.15 4.06278 19.2859 3.90561 19.3737 3.82826C19.5776 3.64877 19.8445 3.45693 20.0808 3.32338C20.2764 3.2103 20.4855 3.12161 20.7029 3.05971C20.7799 3.03786 20.8868 3.02787 20.9568 3.00014H21.2937ZM1.27414 2.26967C1.27414 2.26967 1.26672 2.57277 1.2673 2.66713L1.27023 3.37416C1.26991 3.61485 1.26884 3.86146 1.2673 4.11049C1.26348 4.72909 1.25897 5.3631 1.27316 5.95815L1.32883 5.92006C1.5249 5.78409 1.63079 5.7098 1.78098 5.4933C2.26069 4.74219 2.26962 3.76631 2.2341 2.90248C2.22604 2.70712 2.18563 2.28075 2.1843 2.26674L1.27414 2.26967Z" fill="white"/>
</g>
<defs>
<clipPath id="clip0_159_133">
<rect width="24" height="24" fill="white"/>
</clipPath>
</defs>
</svg>
