<svg width="24" height="24" viewBox="0 0 24 24" fill="none" xmlns="http://www.w3.org/2000/svg">
<g clip-path="url(#clip0_159_141)">
<path d="M9.08203 20.1192C9.13916 20.1794 9.59724 20.9349 9.67871 21.0664L11.2842 23.6573H9.12207C8.38857 23.6568 7.62443 23.6468 6.89355 23.6621C7.47856 22.7685 8.01534 21.824 8.59375 20.9248C8.7598 20.6666 8.93266 20.3869 9.08203 20.1192ZM14.9102 20.1201C15.0659 20.349 15.2474 20.6776 15.4004 20.9219C15.9625 21.8374 16.5305 22.7496 17.1035 23.6582C16.3933 23.6462 15.6494 23.6575 14.9365 23.6573L12.7051 23.6592C12.882 23.4058 13.0852 23.0569 13.251 22.7891L14.3701 20.9893C14.5446 20.7083 14.7255 20.3916 14.9102 20.1201ZM11.9893 2.47073C12.0659 2.49311 12.563 2.74531 12.6592 2.793L14.2354 3.57425L17.2168 5.043C17.6476 5.25483 18.3988 5.59686 18.793 5.82913C18.8709 5.97258 19.0401 6.4603 19.1055 6.63675L19.6943 8.2178L20.8477 11.3116C21.0378 11.8178 21.3385 12.5398 21.46 13.0537C21.4863 13.1652 21.4758 13.9948 21.4756 14.1563L21.4736 16.3047L21.4746 23.6563L18.1836 23.6573C18.2071 21.6958 18.1837 19.6907 18.1846 17.7256L18.1865 15.7256C18.1867 15.3752 18.1963 15.0124 18.1768 14.668C18.1625 14.42 17.9443 14.366 17.749 14.3575C17.5243 14.3477 17.2877 14.3497 17.0645 14.3496H15.8467L12.0303 14.3506L8.18555 14.3496H6.59082C6.47365 14.3504 6.35563 14.3519 6.2373 14.3575C6.03475 14.367 5.83426 14.4327 5.82031 14.6748C5.80213 14.995 5.81125 15.3253 5.81152 15.6475L5.81348 17.5362L5.8125 23.6553L2.52832 23.6563C2.50802 22.8436 2.52541 21.9569 2.52539 21.1397V16.2461L2.52441 14.1289C2.52414 13.8091 2.50385 13.2716 2.55371 12.9727C2.58531 12.7833 2.77913 12.3012 2.8584 12.0899L3.42871 10.5703L4.55762 7.53714C4.76177 6.98946 4.97732 6.36899 5.20117 5.83401C5.38683 5.71532 5.76102 5.5435 5.9707 5.44046L7.3584 4.75784L11.9893 2.47073ZM12.3721 16.0625C12.5014 16.1397 14.1424 18.9658 14.4756 19.4092C14.0457 20.0723 13.6245 20.777 13.2041 21.4502C12.932 21.9097 12.6337 22.3572 12.3633 22.8233C12.4019 22.1553 12.3731 21.1706 12.373 20.4805L12.3721 16.0625ZM11.6064 16.045C11.6641 16.1816 11.6132 22.1215 11.6299 22.8145C11.3624 22.3685 11.0897 21.9249 10.8115 21.4854L10.0029 20.1778C9.86562 19.9562 9.66905 19.6166 9.52246 19.417C9.6195 19.2829 9.7473 19.0771 9.83008 18.9317C10.3769 17.9712 11.0889 17.0121 11.6064 16.045ZM6.55664 16.0616C6.65123 16.1067 8.41174 19.0574 8.66211 19.4121C8.23239 20.071 7.80625 20.7809 7.39062 21.4522L6.54883 22.8135C6.58188 22.0969 6.55669 21.1903 6.55664 20.4619V16.0616ZM17.4248 16.0459C17.4866 16.1853 17.4101 22.0862 17.4482 22.8116C17.1821 22.415 16.8844 21.8994 16.625 21.4854C16.2476 20.8669 15.7384 19.9939 15.3359 19.4141C15.5472 19.1218 15.847 18.6044 16.0439 18.2862C16.5081 17.542 16.9685 16.7949 17.4248 16.0459ZM17.1426 15.0918C16.7344 15.8035 16.2102 16.604 15.7725 17.3096C15.6227 17.549 14.9809 18.5457 14.916 18.7383C14.7611 18.4375 14.494 18.0612 14.3174 17.7588C13.8083 16.8876 13.1676 15.9767 12.6787 15.1026C13.7222 15.0823 14.7867 15.1098 15.832 15.0987C16.2643 15.0941 16.713 15.1104 17.1426 15.0918ZM6.86914 15.1035C7.93023 15.0618 9.09069 15.1251 10.1602 15.0996C10.5438 15.0905 10.9464 15.1128 11.3301 15.0909C10.9117 15.8122 10.3973 16.602 9.95508 17.3155L9.08691 18.7159C8.96252 18.4657 8.63958 17.9769 8.48047 17.7207L7.42578 16.0166C7.26543 15.7622 6.99468 15.3626 6.86914 15.1035ZM11.9277 0.400421C12.1826 0.384738 13.0141 0.846266 13.2881 0.981476L15.2979 1.97269C16.9461 2.78554 18.6889 3.61173 20.3154 4.45218C20.5661 5.02593 20.8539 5.87815 21.0801 6.48538L22.5039 10.3028C22.7014 10.8341 22.8998 11.3761 23.1006 11.9063C23.2262 12.2377 23.8831 12.4617 24 12.795C23.9789 12.9781 23.5 13.5055 23.3545 13.6328C23.1297 13.5196 22.3574 12.9192 22.1836 12.6992C22.1139 12.6111 21.9381 12.114 21.8867 11.9746L21.4434 10.7744L19.3896 5.27737C19.1967 5.20225 18.8076 4.99763 18.6104 4.90042L17.0537 4.13187L12.0469 1.66409C11.9227 1.64457 11.2677 1.99937 11.1221 2.07132L9.66016 2.79105L4.60547 5.28128C4.37313 5.86202 4.14797 6.5037 3.92773 7.0928L2.58984 10.6778L2.14453 11.8848C2.08202 12.0546 1.89178 12.6012 1.80078 12.7129C1.61938 12.9354 0.88021 13.5085 0.641602 13.6309C0.478502 13.4955 0.057677 13.0112 0 12.8155C0.0210959 12.5694 0.631276 12.2461 0.817383 12.0362C0.951755 11.8845 1.48358 10.328 1.61719 9.96976L2.88379 6.57523C3.14502 5.87234 3.4037 5.14281 3.68164 4.44925C5.52004 3.51788 7.41758 2.60313 9.26953 1.69144L10.9531 0.859406C11.2204 0.727127 11.6664 0.48979 11.9277 0.400421ZM14.7607 7.89359C14.4521 7.79688 9.88416 7.83833 9.26953 7.85941C9.21543 7.91617 9.21205 7.93973 9.2041 8.01761C9.19599 8.09725 9.19442 8.18585 9.19434 8.26859C9.1934 9.1499 9.19077 10.0318 9.19629 10.9131C9.19694 11.0149 9.20487 11.1088 9.22754 11.208C9.64314 11.2406 10.1383 11.2372 10.5596 11.2276C11.9327 11.1964 13.3468 11.2721 14.7158 11.2159C14.7736 11.1699 14.7976 11.1417 14.7988 11.0586C14.8126 10.0823 14.8034 9.10283 14.8018 8.12601C14.8016 8.05456 14.789 7.9588 14.7607 7.89359Z" fill="white"/>
</g>
<defs>
<clipPath id="clip0_159_141">
<rect width="24" height="24" fill="white"/>
</clipPath>
</defs>
</svg>
