<svg width="24" height="24" viewBox="0 0 24 24" fill="none" xmlns="http://www.w3.org/2000/svg">
<g clip-path="url(#clip0_113_1435)">
<path d="M11.1935 0.0273168C17.8058 -0.417956 23.5269 4.58201 23.9719 11.1943C24.4168 17.8067 19.4173 23.5282 12.8049 23.9726C6.19298 24.4172 0.472464 19.4175 0.0275287 12.8056C-0.417309 6.19386 4.58179 0.472723 11.1935 0.0273168ZM18.9699 4.99997C18.1762 5.5087 17.2998 6.00324 16.4836 6.48239L12.5256 8.81052C11.9375 9.15673 10.6916 9.84553 10.2199 10.2304C9.98172 10.4249 9.18744 11.8884 8.95917 12.2666L5.00018 18.915C5.00866 18.9855 4.99126 18.9648 5.03046 19C5.81094 18.4922 6.68161 18.0019 7.48944 17.5263L11.3947 15.2275C11.8202 14.9771 13.6318 13.9799 13.843 13.6865C14.3918 12.921 15.0625 11.6908 15.5627 10.8476L19.0002 5.07907C18.9922 5.01354 19.0079 5.03421 18.9699 4.99997ZM11.7228 10.7217C12.4327 10.5702 13.1312 11.0229 13.2805 11.7304C13.4296 12.4382 12.9722 13.1318 12.2609 13.2773C11.5539 13.4218 10.8622 12.9701 10.7141 12.2666C10.5661 11.5632 11.0172 10.8722 11.7228 10.7217Z" fill="white"/>
</g>
<defs>
<clipPath id="clip0_113_1435">
<rect width="24" height="24" fill="white"/>
</clipPath>
</defs>
</svg>
