<svg width="24" height="24" viewBox="0 0 24 24" fill="none" xmlns="http://www.w3.org/2000/svg">
<g clip-path="url(#clip0_159_105)">
<path d="M12.1693 1.00405C12.4084 1.00407 12.8701 0.97889 13.0785 1.05386C12.967 1.1341 12.8523 1.21 12.7396 1.28823C12.3158 1.58218 11.935 1.92867 11.5599 2.2814C11.2135 2.25944 10.6973 2.27714 10.3402 2.27456C10.0251 2.27228 9.47892 2.25959 9.17709 2.2853C9.11004 2.33868 9.04436 2.41362 8.98666 2.47866C7.58644 4.05728 7.08146 6.22307 7.18002 8.29116C7.20475 8.80976 7.25653 9.31461 7.39388 9.81362C7.47176 10.1001 7.57503 10.379 7.7015 10.6476C7.96386 11.2039 8.28935 11.6796 8.34115 12.3156C8.38577 12.8637 8.2412 13.3684 8.04037 13.8712C7.95576 14.0832 7.86783 14.2563 7.8265 14.4826C7.76819 14.8027 7.87973 15.0757 8.06967 15.3332C8.52042 15.9442 9.37597 16.3983 10.0775 16.6691C11.1216 17.0723 12.4238 17.3285 13.5453 17.2062C14.2087 17.1338 15.0679 16.7476 15.721 16.5246C17.3778 15.9591 21.0167 14.7394 22.7113 15.0158L22.7279 15.0187C22.722 14.6159 22.7108 14.1361 22.7435 13.7375C22.7731 13.3781 23.1761 13.1363 23.5238 13.2365C23.8479 13.3298 23.9991 13.5777 23.9964 13.9132C23.9977 14.1635 23.9978 14.4163 23.9974 14.6671L23.9964 16.0578L23.9974 20.3722V22.2834C23.9974 22.5766 24.0123 22.9706 23.9749 23.258C23.958 23.3895 23.8134 23.5752 23.6917 23.6417C23.5265 23.7322 23.3695 23.7351 23.1829 23.7355C22.5569 23.7368 21.9303 23.7355 21.304 23.7355L17.5521 23.7345L6.19174 23.7355H2.25326L1.2601 23.7365C1.16401 23.7365 1.06667 23.7375 0.971033 23.7365C0.79794 23.7345 0.618722 23.7444 0.449549 23.7003C0.297416 23.6608 0.147077 23.529 0.0755252 23.3908C0.00855964 23.2611 0.00832737 23.1173 0.00618929 22.9757C0.00403287 21.1641 0.00519946 19.3518 0.00521272 17.5402V6.89077L0.00423616 3.24038C0.00412527 2.9641 -0.0183464 1.62501 0.0413455 1.43765C0.0934199 1.27834 0.207973 1.14662 0.358728 1.07339C0.476401 1.01754 0.604368 1.00785 0.732752 1.00698C1.44818 1.00216 2.16681 1.00503 2.88217 1.00503H10.9173L12.1693 1.00405ZM3.38314 16.4914C2.67763 16.5525 1.88964 16.8098 1.27572 17.1623C1.27518 17.4945 1.28558 17.896 1.27474 18.2228C2.18762 18.0879 3.34848 18.2564 4.09701 18.8097C4.40721 19.036 4.66413 19.3278 4.85092 19.6632C5.01686 19.9657 5.09919 20.319 5.38412 20.5304C5.60991 20.6977 5.94746 20.7819 6.22006 20.8273C6.98898 20.9556 7.74514 21.0715 8.28451 21.7003C8.46114 21.9064 8.63569 22.2103 8.70834 22.4738C8.94891 22.457 9.23809 22.465 9.48275 22.465H14.4954C15.1152 22.465 15.8509 22.4835 16.4642 22.4601C16.5878 22.3596 16.6991 22.2484 16.8197 22.1457C17.8891 21.2347 19.2925 20.4697 20.6956 20.256C21.388 20.1304 22.0341 20.1367 22.7288 20.2189C22.7265 19.8216 22.7346 19.4027 22.7259 19.008C21.3936 18.4481 20.806 18.8832 19.6146 19.4064C19.2237 19.5781 18.8267 19.7357 18.4242 19.8781C17.3364 20.2551 16.2187 20.5399 15.0833 20.7306C12.8177 21.1291 10.5699 21.2558 8.39584 20.341C7.09574 19.7955 5.9718 18.9008 5.14877 17.756C4.59985 17.0078 4.50171 16.4344 3.38314 16.4914ZM21.6468 21.4357C20.4436 21.5146 19.5734 21.8314 18.5433 22.4621C18.8721 22.4812 19.3311 22.4649 19.6732 22.465C20.6699 22.4647 21.7423 22.4433 22.7328 22.4679C22.7259 22.1467 22.7251 21.8253 22.7298 21.5041C22.3347 21.4501 22.0489 21.4197 21.6468 21.4357ZM1.80404 19.4503C1.61403 19.4634 1.46001 19.4788 1.27084 19.5011C1.27578 20.0024 1.27719 20.5038 1.27474 21.005C1.27464 21.4891 1.28087 21.9867 1.27377 22.4699C1.92201 22.4552 2.60665 22.4651 3.25814 22.465H6.74349L7.27767 22.464C7.08391 22.3105 6.88414 22.2399 6.64388 22.1925C6.41413 22.1473 6.17097 22.1036 5.94369 22.0656C5.16147 21.9348 4.42696 21.5899 4.02767 20.8703C3.92535 20.6857 3.83792 20.485 3.74252 20.296C3.53698 19.9017 3.1574 19.6566 2.7347 19.5451C2.45985 19.4726 2.08935 19.4281 1.80404 19.4503ZM5.72201 2.27847L5.50521 2.28237C5.54379 2.49469 5.56085 2.87357 5.57064 3.0939C5.62448 4.30461 5.55657 5.60722 5.21322 6.77554C4.98698 7.54514 4.63698 8.11491 4.69955 8.9689C4.73001 9.3841 4.81913 9.72126 4.89681 10.1212C5.00809 10.6943 5.13357 11.6451 5.00912 12.215C4.94857 12.4836 4.83658 12.7381 4.67904 12.964C3.95117 14.0094 2.45824 14.3155 1.27181 14.4435C1.27763 14.8247 1.28825 15.3772 1.27084 15.755C2.8121 15.0684 4.82752 14.8018 5.82845 16.4875C5.91148 16.6272 6.0167 16.7825 6.1097 16.9162C6.32314 17.2216 6.55981 17.5105 6.81869 17.7785C8.21984 19.2196 10.1179 19.7717 12.0892 19.7697C13.0688 19.7687 13.9228 19.644 14.8792 19.4777C16.3974 19.2138 17.7321 18.8444 19.141 18.2248L19.9593 17.8615C20.9078 17.4617 21.7214 17.3364 22.7298 17.672C22.7232 17.2401 22.721 16.7583 22.7298 16.3263C21.4968 15.9323 17.7308 17.1785 16.4203 17.6271C16.0327 17.7589 15.6465 17.8964 15.263 18.0392C14.973 18.145 14.5742 18.3 14.2747 18.3644C12.6372 18.7168 10.6629 18.3195 9.15951 17.6457C8.2444 17.2354 7.26897 16.5979 6.80404 15.6964C6.51798 15.1418 6.45172 14.4871 6.65658 13.9093C6.93259 13.131 7.31323 12.6376 6.87142 11.8253C6.65556 11.4285 6.3808 10.8662 6.2474 10.4289C5.69918 8.63116 5.81315 6.2918 6.39779 4.52749C6.61313 3.87766 6.90367 3.25506 7.264 2.673C7.33863 2.55335 7.44446 2.38496 7.53451 2.28042C6.97954 2.26284 6.27903 2.2662 5.72201 2.27847ZM14.6019 1.00698L17.098 1.00796H22.5872C22.8362 1.00734 23.0889 1.00368 23.3372 1.00991C23.4684 1.0158 23.6147 1.03689 23.723 1.11538C23.8221 1.18752 23.9416 1.31153 23.9652 1.43569C24.0088 1.66747 23.9968 1.91298 23.9964 2.14858L23.9954 2.99917V6.06753L23.9964 8.39566C23.9966 8.67653 24.0098 9.29013 23.9759 9.53433C23.9304 9.86005 23.5369 10.5691 23.3382 10.8537C21.8814 12.9401 19.3246 14.5503 16.8304 15.0343C15.8155 15.2312 14.7259 15.2423 13.7259 14.9943C13.1828 14.8511 12.646 14.6769 12.1126 14.5011C11.5966 14.3312 11.0433 14.1402 10.5863 13.8429C9.72525 13.2825 9.73711 12.1127 9.66537 11.1916C9.63559 10.8283 9.59816 10.4653 9.55306 10.1037C9.48364 9.5391 9.37102 8.98048 9.30209 8.41519C9.03205 6.19964 9.85868 3.99628 11.4222 2.42202C11.4661 2.37781 11.52 2.3296 11.5599 2.28237C11.7476 2.10586 11.937 1.93041 12.1322 1.76284C12.327 1.59573 12.528 1.43602 12.7396 1.28921C12.8522 1.21111 12.9662 1.13492 13.0775 1.05483C13.4417 0.97868 14.2038 1.00663 14.6019 1.00698ZM3.639 2.27847L3.46029 2.2814C3.50359 2.51119 3.5122 2.82819 3.52084 3.06655C3.55983 4.14402 3.45192 5.30248 2.83627 6.22085C2.48987 6.73755 1.89261 7.17074 1.27181 7.27554L1.27474 11.0578V12.4572C1.27477 12.6747 1.28336 12.9558 1.27377 13.1671C1.54416 13.1252 1.86564 13.086 2.12631 13.0187C2.63895 12.919 3.32513 12.6698 3.63607 12.2277C3.81857 11.9718 3.7905 11.6787 3.77865 11.382C3.7422 10.4698 3.41924 9.63751 3.41732 8.72085C3.41523 7.72155 3.8822 6.93831 4.09896 5.99722C4.31045 5.07888 4.33255 4.08771 4.2972 3.14956C4.2857 2.86396 4.24361 2.54096 4.23666 2.27358C4.03877 2.27462 3.83647 2.27426 3.639 2.27847ZM17.5785 2.81753C15.8137 2.83883 13.8853 3.4852 12.6546 4.77749C11.9131 5.52791 11.373 6.43093 11.3939 7.5187C11.389 8.16616 11.5895 8.77768 11.8079 9.37905C11.9515 9.77471 12.1351 10.2093 12.098 10.6378C12.0684 10.9784 11.956 11.2315 12.0404 11.5802C12.3342 12.7906 13.9371 12.8487 14.931 12.6896C15.0162 12.6761 15.1744 12.6415 15.2513 12.6359C16.9191 12.309 18.4061 11.4829 19.6556 10.339C21.0294 9.08124 21.9929 7.37742 21.599 5.4562C21.403 4.50098 20.7089 3.36434 19.7357 3.02358C19.141 2.81553 18.2126 2.80437 17.5785 2.81753ZM17.7298 4.06655C18.1133 4.05185 19.1818 4.07151 19.474 4.27749C20.7678 5.19149 20.6407 7.03194 19.8656 8.20718C18.7973 9.82636 17.0335 10.9594 15.1927 11.3927C14.7165 11.4863 13.6538 11.6571 13.2669 11.3234C13.2427 11.2674 13.266 11.155 13.2806 11.0968C13.5951 9.85168 12.6941 8.78894 12.6312 7.58706C12.5921 6.83799 13.0024 6.16259 13.514 5.64077C14.6255 4.50772 16.2039 4.10275 17.7298 4.06655ZM16.8216 5.05386C15.9394 5.14918 15.1075 5.50886 14.5033 6.20913C13.4494 7.43105 13.1963 10.0849 15.4867 9.88687C15.518 9.88412 15.555 9.87489 15.5863 9.86733C17.1223 9.63403 18.9648 8.01958 18.6829 6.3273C18.539 5.46481 17.662 4.95825 16.8216 5.05386ZM16.9632 6.28726C17.1531 6.25825 17.4578 6.37336 17.471 6.58999C17.5298 7.55735 16.2828 8.5131 15.4378 8.64566C15.2436 8.6692 14.9725 8.72982 14.9603 8.44644C14.9401 7.96764 15.1171 7.4168 15.4154 7.04312C15.8086 6.55123 16.3573 6.356 16.9632 6.28726ZM2.18881 2.27261C1.91272 2.27473 1.5494 2.28809 1.27963 2.27651C1.26589 2.36389 1.27221 2.57965 1.27279 2.67398L1.27572 3.38101C1.2746 4.2196 1.25874 5.13038 1.27865 5.96499C1.51121 5.80273 1.62274 5.73617 1.78646 5.50015C2.26618 4.74904 2.27413 3.77315 2.23861 2.90933C2.23044 2.71081 2.19154 2.45408 2.18881 2.27261Z" fill="white"/>
</g>
<defs>
<clipPath id="clip0_159_105">
<rect width="24" height="24" fill="white"/>
</clipPath>
</defs>
</svg>
