<svg width="24" height="24" viewBox="0 0 24 24" fill="none" xmlns="http://www.w3.org/2000/svg">
<g clip-path="url(#clip0_154_92)">
<path d="M6 0.0104904C5.92318 0.89139 5.99514 1.80386 5.99023 2.68725C5.84409 2.67312 5.65324 2.68046 5.50293 2.68041L4.67578 2.68139C4.56159 2.68184 4.39427 2.69306 4.28613 2.68237C4.27788 3.28053 4.28315 3.89916 4.2832 4.49975V7.59643L4.28418 8.75854C4.2842 9.13353 4.29635 9.54977 4.24121 9.91381C4.06668 11.0657 3.48611 11.8237 2.75 11.9988C2.70478 11.9951 2.66706 11.999 2.62207 11.9978L2.6123 12.0339C2.68205 12.0537 2.75368 12.0465 2.82422 12.0437C3.4922 12.149 4.11803 13.0925 4.24316 14.1111C4.29561 14.5383 4.28411 14.9908 4.28418 15.4255V19.7869C4.28415 20.287 4.29033 20.8264 4.28223 21.324C4.84999 21.3436 5.42284 21.3227 5.99121 21.3337C5.99186 22.2158 5.94494 23.1118 5.99414 23.9929L4.86426 23.9939C4.71762 23.9942 4.3783 24.0173 4.24512 23.9705C3.58233 23.7372 2.8168 23.0486 2.62598 21.9665C2.54668 21.5167 2.56838 20.8916 2.56836 20.4158L2.56934 17.446C2.56936 16.8202 2.60529 15.9123 2.5127 15.3249C2.33313 14.1863 1.60653 13.3215 0.850586 13.3533C0.625772 13.3626 0.212308 13.3871 0 13.3455V10.6667C0.813294 10.6495 1.44874 10.8576 2.08301 9.85326C2.68279 8.90336 2.56932 7.79668 2.56934 6.58373V3.95385C2.5693 3.40099 2.54601 2.68845 2.60547 2.1599C2.70635 1.26391 3.17951 0.431489 3.73438 0.155022C3.94492 0.0459447 4.19348 0.000509039 4.41895 0.00463104C4.94353 0.0141919 5.47573 -0.0146869 6 0.0104904ZM18.1777 0.00365448C18.7291 0.0182025 19.2994 -0.0244654 19.8486 0.0231857C20.5657 0.0855511 21.2251 0.973462 21.3838 2.05834C21.4518 2.52379 21.4309 3.08621 21.4307 3.57006V6.45873C21.4301 7.69623 21.3095 8.89097 21.9219 9.8601C22.5567 10.8647 23.1884 10.6377 24 10.6697V13.3464C23.2215 13.3905 22.5547 13.1498 21.9434 14.115C21.4523 14.8907 21.4298 15.5712 21.4307 16.5847V21.2781C21.4258 22.512 20.9334 23.5682 20.1543 23.9099C19.8663 24.0361 19.4329 23.9929 19.126 23.9929L18 23.989C18.0173 23.8231 18.0089 23.3259 18.0088 23.1257C18.0074 22.5265 18.0079 21.927 18.0107 21.3279C18.5731 21.3475 19.1546 21.31 19.7178 21.3328C19.7074 20.8431 19.7176 20.3267 19.7178 19.8347V16.9714L19.7168 15.5203C19.7168 15.0305 19.7077 14.5526 19.7676 14.0681C19.8865 13.1066 20.5484 12.0718 21.2002 12.0466C21.2691 12.0496 21.3367 12.0599 21.4023 12.031L21.3965 12.0154C21.3506 12.0093 21.3057 12.0029 21.2598 11.9997C20.8356 11.9017 20.5159 11.6688 20.2119 11.1941C19.7142 10.4167 19.7166 9.63268 19.7168 8.61791L19.7178 7.20483C19.7179 5.70829 19.7066 4.17898 19.7188 2.6853C19.3623 2.67957 19.0058 2.67842 18.6494 2.68041C18.4515 2.68072 18.1944 2.67017 18.0029 2.6892C18.0166 2.49666 18.0109 1.87219 18.0088 1.64721C18.0038 1.12276 18.0196 0.533148 18.0059 0.0153732C18.0586 0.00598299 18.125 0.00226545 18.1777 0.00365448ZM11.8818 11.0076C12.4266 10.9423 12.9224 11.3289 12.9912 11.8728C13.0599 12.417 12.6758 12.9148 12.1318 12.9871C11.583 13.0596 11.0802 12.6717 11.0107 12.1228C10.9415 11.5739 11.3322 11.0735 11.8818 11.0076ZM15.8857 11.0066C16.4309 10.9428 16.9259 11.3313 16.9932 11.8757C17.0602 12.4202 16.6743 12.9165 16.1299 12.9871C15.5809 13.0581 15.0785 12.6691 15.0107 12.1199C14.9432 11.5706 15.3358 11.071 15.8857 11.0066ZM7.87695 11.0076C8.42325 10.9409 8.92062 11.3299 8.98828 11.8757C9.05555 12.4215 8.66801 12.9186 8.12207 12.9871C7.5747 13.0554 7.07548 12.667 7.00781 12.1199C6.9404 11.5729 7.32961 11.0744 7.87695 11.0076Z" fill="white"/>
</g>
<defs>
<clipPath id="clip0_154_92">
<rect width="24" height="24" fill="white"/>
</clipPath>
</defs>
</svg>
