<svg width="24" height="24" viewBox="0 0 24 24" fill="none" xmlns="http://www.w3.org/2000/svg">
<path d="M11.8603 1.00192C12.6627 0.96823 13.1284 1.19199 13.8148 1.53L14.7614 1.99655L17.7898 3.48746L20.8289 4.9839L21.6574 5.39076C21.9214 5.52037 22.2662 5.67048 22.4832 5.85612C22.7878 6.11655 22.9617 6.48758 22.9916 6.88473C23.0248 7.28396 22.8973 7.67991 22.6373 7.98471C22.3615 8.30412 21.9799 8.45108 21.609 8.63356L20.5754 9.1417L17.3984 10.7052L14.5602 12.1027C14.1082 12.3241 13.6459 12.5646 13.1872 12.769C12.8464 12.9209 12.4972 12.9734 12.1289 12.9993L12.1129 13.0003C11.405 13.0437 10.864 12.8054 10.2506 12.5023L9.43606 12.1002L6.81619 10.8106L3.38334 9.11976L2.37896 8.62725C2.09561 8.48858 1.74327 8.34087 1.50918 8.13629C1.19543 7.8621 1.02389 7.49083 1.00363 7.07422C0.983182 6.66438 1.12698 6.26331 1.40317 5.95983C1.64539 5.69444 2.05615 5.53034 2.38015 5.37101L3.45023 4.84471L6.74227 3.22363L9.37514 1.92739L10.2349 1.50376C10.4049 1.42005 10.5984 1.31899 10.7718 1.24729C11.1174 1.10216 11.4859 1.0191 11.8603 1.00192Z" fill="white"/>
<path d="M2.04668 15.5664C2.13901 15.5602 2.23474 15.5636 2.32007 15.6019C2.56785 15.7132 2.81797 15.8409 3.06168 15.9611L4.50639 16.6725L9.09671 18.9322L10.1655 19.4592C10.4616 19.605 10.7613 19.7658 11.0768 19.8608C11.5464 20.0022 12.0422 20.0337 12.5259 19.953C13.1293 19.8502 13.6134 19.5661 14.1571 19.2979L15.3814 18.6953L19.0158 16.9057L20.8364 16.0085C21.0209 15.9173 21.206 15.825 21.3899 15.735C21.6059 15.6306 21.8058 15.5029 22.0534 15.5957C22.3901 15.7218 22.6793 15.994 22.8384 16.3146C23.0187 16.686 23.0459 17.1132 22.9143 17.5044C22.7249 18.0557 22.3555 18.2663 21.8707 18.5048L15.7005 21.5416L14.1008 22.3301C13.6894 22.5328 13.2 22.7993 12.7636 22.9097C12.2036 23.0511 11.6151 23.0338 11.0644 22.8596C10.7614 22.766 10.4846 22.6181 10.2012 22.4782L9.25471 22.0112L5.99134 20.4035L3.06501 18.9631L2.25171 18.5634C1.66546 18.2774 1.20911 18.0659 1.04417 17.3638C0.947342 16.9601 1.01604 16.5345 1.23495 16.1817C1.41424 15.8967 1.71312 15.6424 2.04668 15.5664Z" fill="white"/>
<path d="M2.06774 10.5624C2.17735 10.5581 2.2707 10.5771 2.36968 10.623C2.62488 10.7412 2.88176 10.8719 3.13377 10.9967L4.54391 11.6906L9.11807 13.9426L10.1576 14.4552C10.4748 14.6114 10.7682 14.7704 11.1095 14.8705C11.585 15.0076 12.0858 15.033 12.5727 14.9447C13.1419 14.8402 13.6345 14.5566 14.1509 14.3017L15.4512 13.6604L19.1088 11.8595L20.846 11.0045C21.1092 10.874 21.4782 10.6684 21.7454 10.5795C22.1516 10.4443 22.6853 11.0022 22.8416 11.321C23.0196 11.6915 23.0453 12.1171 22.9131 12.5064C22.7217 13.0583 22.3596 13.2644 21.873 13.5023L16.1877 16.3016L14.407 17.1789C13.8694 17.4437 13.1744 17.8327 12.6053 17.9447C12.0807 18.0457 11.5391 18.0128 11.0306 17.8488C10.7343 17.7524 10.4428 17.5972 10.1625 17.4589L9.1125 16.9421L5.45613 15.1417L2.90424 13.8853L2.13745 13.5076C1.99361 13.4366 1.78061 13.3377 1.6521 13.25C1.32186 13.0263 1.09663 12.6782 1.02805 12.2852C0.951135 11.8758 1.0426 11.4527 1.28174 11.1116C1.45565 10.865 1.76338 10.6136 2.06774 10.5624Z" fill="white"/>
</svg>
