<svg width="24" height="24" viewBox="0 0 24 24" fill="none" xmlns="http://www.w3.org/2000/svg">
<path d="M4 11C4.39556 11 4.78224 10.8827 5.11114 10.6629C5.44004 10.4432 5.69638 10.1308 5.84776 9.76537C5.99913 9.39991 6.03874 8.99778 5.96157 8.60982C5.8844 8.22186 5.69392 7.86549 5.41421 7.58579C5.13451 7.30608 4.77814 7.1156 4.39018 7.03843C4.00222 6.96126 3.60009 7.00087 3.23463 7.15224C2.86918 7.30362 2.55682 7.55996 2.33706 7.88886C2.1173 8.21776 2 8.60444 2 9C2 9.53043 2.21071 10.0391 2.58579 10.4142C2.96086 10.7893 3.46957 11 4 11ZM9 2.5H22V4H9V2.5ZM9 8.60982H22V10H9V8.60982ZM9 14.5H22V16H9L9 14.5ZM9 20.5H22V22H9V20.5ZM1.937 23H6.063L4 19.209L1.937 23ZM6 1H2V5H6V1ZM6 13H2V17H6V13Z" fill="white"/>
</svg>
