<svg width="24" height="24" viewBox="0 0 24 24" fill="none" xmlns="http://www.w3.org/2000/svg">
<path d="M12.0005 4.6858C12.4547 4.38458 12.9266 4.04871 13.378 3.73808L15.793 2.08383L16.7306 1.44031C16.874 1.34155 17.1109 1.1693 17.2559 1.0891C17.3104 1.05885 17.3688 1.03614 17.4293 1.02156C17.6608 0.964042 17.8675 1.02583 18.0589 1.15679C18.5103 1.46563 18.964 1.77552 19.4137 2.08634L21.5781 3.5691L22.9365 4.49881C23.1145 4.62013 23.5598 4.91093 23.7021 5.03764C23.835 5.15533 23.9267 5.31391 23.9633 5.48944C24.0078 5.69219 23.9987 6.03035 23.9988 6.24816V7.19297V10.6961L23.9987 17.6078L23.9992 19.8562C23.9995 20.2711 24.0027 20.6853 23.9937 21.1C23.9852 21.4984 23.7611 21.9002 23.3527 21.98C23.1994 22.011 23.0402 21.989 22.9006 21.9172C22.7405 21.8361 22.4632 21.6326 22.3028 21.5223L21.2248 20.783L18.7533 19.0891C18.3954 18.8432 18.0229 18.5975 17.6698 18.347C17.6649 18.3432 17.6183 18.3107 17.6087 18.3152C17.5241 18.3548 17.4403 18.4181 17.3626 18.4712L13.9558 20.8055L12.938 21.5035C11.943 22.1834 12.0054 22.1557 11.0233 21.4777L9.90349 20.7086L7.78774 19.2602C7.33038 18.9478 6.84426 18.6243 6.39601 18.3041L2.91247 20.6907L1.84674 21.4223C1.63215 21.5704 1.41983 21.7192 1.20136 21.8616C0.958513 22.0227 0.639905 22.0414 0.394328 21.8728C-0.0375836 21.5763 0.000826753 21.1307 0.000907082 20.6675L0.00164333 19.8137L0.00192452 16.6112L0.00129533 9.37155L0.00109451 6.96995C0.0011079 6.54441 -0.00222585 6.11587 0.00523129 5.6906C0.0100778 5.41433 0.143275 5.13847 0.366869 4.97783C0.691328 4.74473 1.02607 4.522 1.3567 4.29593L3.23307 3.01037L5.12882 1.7112C5.40966 1.51966 5.68843 1.31842 5.97349 1.1341C6.08881 1.05952 6.16303 1.03037 6.2954 1.00568C6.69374 0.976081 6.93808 1.21525 7.2514 1.4315L8.15666 2.05289C9.43305 2.92099 10.7189 3.83311 12.0005 4.6858ZM12.8648 12.39C12.9835 12.3717 13.0892 12.3568 13.2086 12.3451L13.3454 13.2259C13.184 13.2313 13.0237 13.2558 12.8633 13.2768C12.8481 13.4874 12.8592 13.8533 12.8592 14.0793L12.86 15.6492L12.8598 18.0267C12.8598 18.4932 12.8529 18.9831 12.8663 19.4482C13.0894 19.2926 13.3136 19.1383 13.5386 18.9857L15.8343 17.4107C16.1058 17.223 16.52 16.9657 16.7658 16.766C16.7509 15.4075 16.7634 14.0266 16.7637 12.6664V11.47C16.7635 11.2854 16.7722 11.0033 16.7582 10.8271C16.6422 10.9626 16.4934 11.1468 16.3745 11.2729C16.1795 11.0955 15.9193 10.8751 15.7367 10.6975C15.819 10.5605 16.3522 9.94253 16.4772 9.82424C16.5772 9.90811 16.6682 9.99367 16.7635 10.0827V5.37698C16.7635 5.20215 16.7795 3.66414 16.7473 3.5799C16.4003 3.83585 16.0023 4.09557 15.645 4.33939L14.0014 5.46629L13.3406 5.92233C13.2093 6.01113 13.0655 6.0965 12.9418 6.19451C12.8884 6.2369 12.8748 6.26505 12.8695 6.33505C12.8527 6.55186 12.8594 6.79069 12.8596 7.00848L12.8597 8.31956V10.866C12.8597 11.369 12.8538 11.8883 12.8648 12.39ZM7.24294 3.58122C7.23033 3.93448 7.23671 4.31313 7.23673 4.66899L7.23667 6.45454V8.10731C7.23662 8.4178 7.22906 8.77297 7.24155 9.08012C7.46914 9.2231 7.66818 9.34001 7.8925 9.49349C7.75304 9.69436 7.53132 10.0349 7.38264 10.2154C7.33497 10.1764 7.29001 10.14 7.24445 10.0981C7.22449 10.4181 7.23662 10.832 7.23662 11.1604L7.23666 13.0526L7.23674 15.4421C7.23666 15.8712 7.22528 16.3573 7.24145 16.782C7.53393 17.0121 8.0129 17.3147 8.3351 17.5342L10.2683 18.8579C10.5086 19.0215 10.9236 19.284 11.1407 19.4556L11.1406 17.815L11.1405 14.1915L11.1407 13.0604C11.1407 12.8545 11.1489 12.5896 11.1312 12.3914C11.048 12.6021 10.9999 12.8277 10.9191 13.0428C10.3942 12.8456 10.284 12.7688 9.81093 12.5124C9.93698 12.256 10.118 12.0043 10.2579 11.7533C10.5927 11.9463 10.7775 12.0457 11.1377 12.1846C11.152 10.887 11.1409 9.56912 11.1407 8.27008L11.1407 6.96772C11.1407 6.77299 11.1499 6.44125 11.1328 6.25619C11.0109 6.15132 10.7728 5.99731 10.6332 5.90161L9.65152 5.23061L7.9814 4.08698C7.78309 3.95208 7.43119 3.68912 7.24294 3.58122ZM5.51797 16.792L5.51731 7.92515L5.51758 5.07753C5.5176 4.88999 5.52841 3.68652 5.50383 3.63294L5.48501 3.62255C5.20757 3.84266 4.82364 4.0983 4.52507 4.3103L2.73583 5.58051L2.13048 6.01001C2.01163 6.09441 1.88546 6.18038 1.77299 6.27312C1.73874 6.30135 1.73364 6.31282 1.73155 6.35463C1.71304 6.72492 1.7208 7.12253 1.72076 7.4936L1.72061 9.80758L1.72094 17.5012C1.72096 17.7204 1.69662 19.4277 1.74414 19.4888C2.58445 18.8565 3.53817 18.2068 4.40308 17.5938L5.09429 17.1038C5.21837 17.0157 5.40923 16.8876 5.51797 16.792ZM18.4876 8.37086C18.6419 8.31573 18.7507 8.29601 18.9013 8.25317C18.9677 8.54212 19.0257 8.83299 19.0752 9.12543C18.8391 9.18719 18.7109 9.22207 18.4839 9.32364L18.4827 14.234L18.4825 15.896C18.4825 16.1718 18.4724 16.5458 18.4888 16.8151L21.8372 19.1453C21.9764 19.2415 22.1475 19.3538 22.2795 19.4555V10.7895L22.2797 7.97685C22.2797 7.78129 22.2957 6.40785 22.2538 6.24484C22.247 6.21811 21.631 5.79543 21.5413 5.7329L19.8796 4.57475L18.9087 3.89791C18.8424 3.85179 18.5398 3.6361 18.488 3.61425C18.4765 3.95787 18.4785 4.31857 18.4827 4.66307C18.4978 5.89532 18.4601 7.13994 18.4876 8.37086Z" fill="white"/>
<path d="M14.5966 11.9864C14.654 11.9975 15.0728 12.4707 15.0926 12.5396C15.0471 12.6598 14.4949 13.0003 14.3611 13.0768L14.2216 13.1603C14.1089 12.9354 14.0015 12.7059 13.8861 12.483C13.9289 12.4518 13.9834 12.4195 14.0298 12.3932C14.2368 12.2756 14.4152 12.139 14.5966 11.9864Z" fill="white"/>
<path d="M9.1101 10.9871C9.16354 10.9905 9.34486 11.2259 9.38647 11.2743C9.50656 11.4137 9.62986 11.5502 9.75631 11.6837C9.69206 11.7656 9.29999 12.1861 9.23115 12.2279C9.03099 12.0428 8.7235 11.6766 8.55627 11.4619C8.72877 11.3257 8.94174 11.1336 9.1101 10.9871Z" fill="white"/>
<path d="M5.81998 9.57594C5.84326 9.57338 5.83111 9.57205 5.85601 9.58269C5.88369 9.63108 6.08895 10.2161 6.06369 10.2946C6.06151 10.3215 6.02991 10.3731 6.00297 10.3855C5.78017 10.4885 5.59053 10.5584 5.38556 10.7017C5.34838 10.664 5.30868 10.6184 5.2725 10.5789C5.13751 10.4376 5.00453 10.2943 4.8736 10.1492C5.17956 9.85306 5.42979 9.72224 5.81998 9.57594Z" fill="white"/>
<path d="M4.33954 10.8215C4.41464 10.8401 4.85714 11.1584 4.96882 11.2273C4.89235 11.3807 4.8286 11.4886 4.7616 11.6552C4.722 11.7537 4.66344 11.955 4.62346 12.0333C4.58391 12.0436 4.60444 12.0411 4.55551 12.0239C4.39517 11.9602 4.07491 11.8685 3.89798 11.8114C3.94748 11.6875 3.99018 11.5422 4.04064 11.4122C4.13293 11.1745 4.2114 11.0337 4.33954 10.8215Z" fill="white"/>
<path d="M20.0824 8.72917C20.2588 8.90796 20.4374 9.08471 20.618 9.25936C20.4872 9.40885 20.2775 9.60834 20.1333 9.75364C20.2678 9.88521 20.4901 10.097 20.6098 10.2349C20.4592 10.4093 20.2409 10.5789 20.0872 10.7709C19.932 10.6415 19.7493 10.4379 19.5914 10.2925C19.4469 10.4425 19.264 10.6276 19.1123 10.7679C18.9492 10.6006 18.7526 10.3967 18.5817 10.2415C18.6515 10.1392 18.9524 9.84896 19.0511 9.74991C18.9135 9.58983 18.7198 9.4263 18.5714 9.25976C18.7002 9.1516 18.9613 8.87055 19.0968 8.73862C19.1643 8.76498 19.5046 9.124 19.5989 9.20997C19.7521 9.05056 19.9184 8.87663 20.0824 8.72917Z" fill="white"/>
</svg>
