<svg width="24" height="24" viewBox="0 0 24 24" fill="none" xmlns="http://www.w3.org/2000/svg">
  <path fill-rule="evenodd" clip-rule="evenodd" d="M10.5 2C5.806 2 2 5.806 2 10.5C2 15.194 5.806 19 10.5 19C12.549 19 14.431 18.285 15.916 17.087L20.293 21.464C20.684 21.855 21.316 21.855 21.707 21.464C22.098 21.073 22.098 20.441 21.707 20.05L17.33 15.673C18.434 14.231 19.093 12.439 19.093 10.5C19.093 5.806 15.194 2 10.5 2ZM4 10.5C4 6.91 6.91 4 10.5 4C14.09 4 17 6.91 17 10.5C17 14.09 14.09 17 10.5 17C6.91 17 4 14.09 4 10.5Z" fill="white"/>
</svg>
