<svg width="24" height="24" viewBox="0 0 24 24" fill="none" xmlns="http://www.w3.org/2000/svg">
<path d="M2.03228 11.9492C2.55168 12.5363 3.57302 12.7197 4.2979 12.9746C4.54022 13.0598 4.90329 13.1987 5.14165 13.2578C5.10518 13.8901 5.09821 14.3947 5.1436 15.0234C5.21489 16.0109 6.07415 16.127 6.83696 15.8213C6.93123 15.6211 6.93243 15.4756 6.91607 15.2588C6.87842 14.7595 6.89894 14.3043 6.95708 13.8057C7.43193 13.9781 7.89296 14.0571 8.35357 14.2129C9.67014 14.6583 12.4847 15.0222 13.2247 13.4473C13.2116 15.0853 13.035 16.7209 12.9532 18.3564C12.8827 19.765 12.8513 21.1791 12.7364 22.585C12.7145 22.8528 12.6967 23.8582 12.585 24H10.5079C10.1627 23.8717 9.77061 23.8669 9.42095 23.7793C7.80019 23.3725 6.21221 22.6321 4.7188 21.8887C4.06532 21.5633 3.11227 21.0979 2.81157 20.4121C1.90206 18.3378 1.6111 16.0978 1.79595 13.8486C1.8479 13.2051 1.97562 12.5846 2.03228 11.9492ZM16.4639 7.5957C16.7051 7.57281 16.8723 7.64403 17.0586 7.80078C17.1338 7.98143 17.2051 8.16394 17.2725 8.34766C17.5343 9.07702 17.7287 10.0192 17.8194 10.7891C17.9531 11.9244 18.0077 13.0817 18.0303 14.2246C18.0436 14.8992 18.0359 15.5746 18.0596 16.249C18.0796 16.8154 18.236 20.0466 18.1338 20.3662C18.0943 20.4885 17.4956 20.7025 17.3604 20.875C17.206 21.0722 17.1717 21.4152 17.0967 21.6523C17.0531 21.7904 16.9957 21.9221 16.9336 22.0527C16.4754 23.017 16.2138 22.9463 15.2881 23.2744C14.8362 23.4181 14.3068 23.5092 13.918 23.6396C13.94 22.5898 14.0168 21.4948 14.0557 20.4414L14.3262 14.417C14.3491 13.9773 14.3528 13.522 14.3848 13.083C14.4238 12.5498 14.4663 12.0034 14.5176 11.4697C14.5852 10.7663 14.5667 9.87965 14.8555 9.2334C15.0848 8.72088 15.5985 8.07448 16.0704 7.75586C16.1334 7.71333 16.3526 7.62997 16.4317 7.59961C16.4423 7.59818 16.4532 7.59676 16.4639 7.5957ZM18.8584 3.87695C19.3685 3.84468 19.8603 3.97618 20.2608 4.34082C21.7144 5.67235 21.5239 7.79865 21.7208 9.58984C21.7869 10.1918 21.8636 10.7934 21.8956 11.4004C22.0028 13.4369 22.5696 15.4096 21.9864 17.4248C21.4499 19.2784 21.0064 19.6943 19.2247 20.1797C19.229 19.8774 19.2168 19.5939 19.2051 19.292C19.1841 18.9992 19.1702 18.7056 19.1641 18.4121C20.1832 17.9123 20.3639 17.0926 20.4952 16.0234C20.6346 14.8873 20.4599 13.7382 20.3907 12.6055C20.3329 11.6608 20.2938 10.7113 20.21 9.76758C20.1515 8.97666 20.1797 8.17063 20.0401 7.38672C19.9375 6.9244 19.7696 6.36549 19.4805 5.98633C18.9826 5.33345 18.1033 5.60391 17.5733 6.03711C17.2971 5.70289 16.9298 5.34677 16.625 5.02441C16.6367 5.00379 16.6822 4.92089 16.6934 4.91016C17.218 4.40688 18.1754 3.9283 18.8584 3.87695ZM9.77251 3.83887C10.1038 3.83763 10.4344 3.87059 10.7588 3.9375C11.0507 3.99841 11.3 4.09078 11.5821 4.16797C12.4772 4.38612 13.3344 4.71646 14.1944 5.02246C15.3171 5.42191 15.5912 5.53461 16.4288 6.36523C15.8817 6.39519 15.649 6.48376 15.1895 6.74609C13.9001 7.47706 13.5658 8.85693 13.2032 10.1729C13.0108 10.8709 12.8797 11.7132 12.5967 12.3604C12.4287 12.7446 11.8481 13.1227 11.4463 13.2197C10.2919 13.4984 9.19955 13.0936 8.09771 12.8027C7.89801 12.751 7.40198 12.6455 7.26763 12.5693C7.24037 12.4937 7.25224 12.5035 7.26958 12.4141C7.39535 12.0558 7.627 11.5957 7.80669 11.2549C7.96673 10.9513 8.218 10.5714 8.33501 10.251C8.17436 10.0408 8.09503 9.95327 7.83306 9.86426C7.6203 9.79181 6.90299 9.6891 6.73149 9.84375C6.20203 10.3212 5.66695 11.3417 5.46587 12C5.20848 11.9472 4.95807 11.8551 4.70903 11.7725C4.07829 11.5633 3.43358 11.3612 2.91704 10.9219C2.73388 10.7661 2.54976 10.5742 2.53228 10.3223C2.48671 9.66375 3.5777 7.54715 3.94732 6.9541C4.16397 6.60655 4.43168 6.26446 4.69927 5.9541C5.79419 4.68417 7.73812 3.97787 9.3731 3.85352C9.49173 3.8448 9.65261 3.83959 9.77251 3.83887ZM13.0489 0C13.5019 0.250826 14.6452 0.28637 14.9854 0.668945C15.5537 1.30886 15.7004 3.80357 15.6485 4.69727C15.1366 4.32177 14.4179 4.3565 13.9717 3.91895C13.9709 3.45001 13.9388 1.71649 13.6592 1.40625C13.5211 1.25323 12.9053 1.23424 12.6875 1.21875C12.5721 1.21057 12.4036 1.21854 12.3145 1.30371C12.1164 1.49344 12.1385 3.04023 12.1329 3.39062C11.9427 3.34305 10.8307 3.08257 10.8135 2.99609C10.7284 2.5653 11.0363 1.47395 11.1338 1.01953C11.2395 0.526865 11.4468 0.229531 11.835 0H13.0489ZM9.67485 1.6543C9.70117 1.70887 9.66499 1.78201 9.65142 1.8457C9.58181 2.17265 9.58641 2.51504 9.57036 2.84961C9.22588 2.88791 8.8451 2.9712 8.48638 3.01465C8.4631 2.99121 8.46252 2.98355 8.44829 2.95312C8.57818 2.33332 9.05098 1.82293 9.65923 1.64941L9.67485 1.6543Z" fill="white"/>
</svg>
