<svg width="24" height="24" viewBox="0 0 24 24" fill="none" xmlns="http://www.w3.org/2000/svg">
<g clip-path="url(#clip0_2_40)">
<path fill-rule="evenodd" clip-rule="evenodd" d="M4.71485 0.99999C5.7151 0.978745 6.92167 1.91114 7.48926 2.66894C8.03625 2.54203 8.91034 2.4276 9.46973 2.36718C11.8132 2.114 13.8521 2.08417 16.1445 2.66405C16.4818 2.32981 17.0728 1.98906 17.5029 1.75585C18.2985 1.32449 19.8493 0.933818 20.3477 1.98632C20.6651 2.65765 20.3746 3.62926 20.1377 4.30468C22.2311 8.14495 23.7006 11.8234 24 16.209C22.6853 17.5782 20.3412 19.2338 18.7256 20.208C18.7151 20.2146 18.7048 20.2213 18.6943 20.2275C16.9566 21.2556 15.0764 22.0958 13.1094 22.5693C12.4194 22.7354 12.0242 22.8547 11.3154 22.666C7.25733 21.5856 2.2177 19.2965 0.000978203 15.5273C-0.0111421 15.1072 0.074513 14.2651 0.13672 13.831C0.593027 10.6467 2.00725 6.95947 3.6875 4.21874C3.44861 3.13541 3.19754 1.22942 4.71485 0.99999ZM11.8125 8.55858C11.7425 8.56219 11.672 8.56704 11.6025 8.57323C8.77555 8.99558 7.74581 11.7186 7.4541 14.248C7.31853 15.4241 7.39339 16.2921 8.43946 17.0381C9.58242 17.8529 11.1238 17.9468 12.4844 17.9326C13.6764 17.8896 15.0582 17.7196 15.9287 16.8135C16.392 16.3311 16.6855 15.391 16.6152 14.7295C16.3575 12.3076 14.7718 8.41086 11.8125 8.55858ZM12.0752 13.7607C12.5901 13.7258 13.4185 13.9341 13.7969 14.29C14.3359 14.7978 14.0346 15.6228 13.5713 16.0664C13.1289 16.4897 12.6144 16.6245 12.0215 16.6142C11.5241 16.5705 11.0506 16.3799 10.6611 16.0674C9.73494 15.3158 9.52229 14.3262 10.876 13.9785C11.31 13.867 11.6237 13.8006 12.0752 13.7607Z" fill="white"/>
</g>
<defs>
<clipPath id="clip0_2_40">
<rect width="24" height="24" fill="white"/>
</clipPath>
</defs>
</svg>
