<svg width="24" height="24" viewBox="0 0 24 24" fill="none" xmlns="http://www.w3.org/2000/svg">
<path d="M1.48244 6.00036C1.84175 5.99589 1.98304 6.0707 1.98146 6.45544C1.98071 6.63595 1.98086 6.8252 1.98048 7.00622C1.97745 7.52237 1.97756 8.0389 1.98048 8.55505L1.98439 9.37341L1.98146 11.8217C1.98143 12.188 1.99403 12.6355 1.97853 12.9945L16.4678 12.9906L21.3262 12.9916H22.8438C23.1045 12.991 23.3689 12.9864 23.6299 12.9896C23.7246 12.9909 23.8303 13.0203 23.9014 13.0873C24.0181 13.1976 23.9964 13.4194 23.9981 13.5756C23.9975 13.6563 23.9948 13.7508 23.9971 13.8304L23.9961 14.1761C23.9965 14.2431 23.9941 14.3255 23.9971 14.391L23.9932 16.8636L23.9951 17.5746C23.996 17.8232 24.0569 18.2937 23.7178 18.3187C23.2853 18.3507 22.8386 18.3161 22.4014 18.3295C22.1797 18.3362 22.0514 18.2403 22.0283 18.0101C21.9989 17.3693 22.0356 16.7204 22.0127 16.0785C22.0168 15.9393 22.016 15.7944 22.0176 15.6547C21.9384 15.6505 21.8259 15.6542 21.7442 15.6547L15.835 15.6517C15.0646 15.6518 14.247 15.6687 13.4824 15.6527C13.1889 15.6553 12.895 15.6555 12.6016 15.6537L7.2754 15.6517H5.62208C5.37758 15.6518 5.06044 15.6648 4.82521 15.6527C4.39962 15.6655 3.93211 15.6559 3.5049 15.6517C3.38228 15.6613 3.11899 15.6529 2.98732 15.6527L1.97853 15.6498C2.00538 16.4222 1.96384 17.245 1.97658 18.0209C1.9801 18.2357 1.77525 18.334 1.57814 18.3285C1.15651 18.3168 0.714928 18.3517 0.293959 18.3207C0.0851751 18.3051 0.00208812 18.1242 0.00196681 17.9379C-0.0027338 17.6942 0.00256199 17.4432 0.00294337 17.1957L0.00391993 15.64L0.0048965 10.7621C0.00572586 10.6421 0.00361875 10.52 0.00294337 10.3998L0.00391993 7.61267L0.00196681 6.77868C0.000619198 6.04134 -0.0324676 5.99492 0.743178 6.00036C0.989571 6.00451 1.23603 6.00414 1.48244 6.00036ZM8.83107 6.44568C9.2945 5.964 9.95124 6.07774 10.5684 6.07849L12.6377 6.07751L21.0869 6.07654C21.202 6.07697 21.3283 6.07541 21.4424 6.08044C21.5329 6.07515 21.6053 6.0814 21.6953 6.08728C21.7754 6.09571 21.9159 6.10589 21.9902 6.12048C22.1989 6.16567 22.3767 6.22393 22.5693 6.31286C23.4158 6.70359 23.9729 7.55163 23.9873 8.48572C23.9951 8.98998 23.9885 9.50025 23.9902 10.0052C23.9908 10.1669 23.9913 10.3307 23.9922 10.4926C23.9873 10.784 24.0431 11.1201 23.8223 11.35C23.7018 11.4753 23.5584 11.5141 23.3877 11.515H14.0029L10.6358 11.514L9.56544 11.515C9.26553 11.5153 8.85366 11.5694 8.62404 11.3539C8.4322 11.1738 8.45869 10.8741 8.45802 10.6322V8.33923C8.45821 7.9391 8.43968 7.43968 8.49318 7.04822C8.53793 6.82037 8.6756 6.60739 8.83107 6.44568ZM5.07912 6.08337C6.57925 5.98981 7.87119 7.13012 7.96486 8.63025C8.05847 10.1304 6.91815 11.4223 5.41798 11.516C3.9178 11.6096 2.62585 10.4693 2.53224 8.96911C2.43876 7.46898 3.57895 6.17695 5.07912 6.08337Z" fill="white"/>
</svg>
