<svg width="24" height="24" viewBox="0 0 24 24" fill="none" xmlns="http://www.w3.org/2000/svg">
<path d="M5.23179 19.244C4.8087 18.367 4.31597 17.4332 3.99333 16.5133C3.2209 14.311 2.72766 12.0042 3.54457 9.73454C4.16522 8.01027 5.37002 6.88445 7.002 6.11659C7.88888 5.69342 8.84747 5.39924 9.80829 5.17365C10.6978 4.9648 11.7919 4.89425 12.6918 4.69871C14.6707 4.26868 17.2367 3.42397 18.2535 1.53271C18.5035 2.02878 18.9021 2.5415 19.0937 3.05469C19.4842 4.10031 19.9194 5.19681 20.1499 6.29167C20.8841 9.79004 21.222 13.5486 20.0995 17.0033C19.7377 18.1029 19.077 19.1805 18.2449 19.9889C17.879 20.3444 17.241 20.7872 16.7891 21.0238C15.7255 21.5808 14.7563 21.7988 13.5685 21.9015C11.7094 22.0595 9.837 21.9308 8.01703 21.5199C7.80286 21.4722 7.4138 21.394 7.20942 21.3302C7.392 20.8849 7.73534 20.527 7.99795 20.1313C10.1438 16.8976 12.3693 13.7174 14.5511 10.5084C14.5807 10.4649 14.6376 10.3826 14.6579 10.3364C14.6831 10.1281 14.8165 10.0947 14.8213 9.8806L14.7724 9.86232L14.8126 9.86075L14.8198 9.87367L14.7665 9.86572L14.7724 9.86314C14.6204 9.97724 14.5515 10.1541 14.3929 10.2369C14.1776 10.4779 14.0052 10.7432 13.7939 10.9836C12.6411 12.2955 11.5568 13.6596 10.4508 15.0068L6.72045 19.471C6.54483 19.6842 6.34029 19.98 6.16969 20.1721C5.57219 20.8449 5.02085 21.5462 4.42664 22.221C4.15767 22.5265 3.90666 22.8943 3.62564 23.181C3.23529 22.8356 2.87946 22.4662 2.5203 22.0892C2.43795 22.0028 2.35678 21.9227 2.26478 21.8463C2.43933 21.7274 2.5872 21.5859 2.7423 21.4439C3.46315 20.784 4.22156 20.163 4.92539 19.4848C5.02005 19.3936 5.118 19.3113 5.23179 19.244Z" fill="white"/>
</svg>
