<svg width="24" height="24" viewBox="0 0 24 24" fill="none" xmlns="http://www.w3.org/2000/svg">
<path d="M9.74792 8.94517C11.2849 8.81417 15.7802 8.68419 17.7061 8.59909C19.5551 5.72694 18.7067 6.5 21.4717 4.94543L20.4734 0C19.6145 0.392932 18.7437 0.774632 17.8854 1.11274L5.14198 1.31105C5.46714 2.02959 5.64145 2.54271 5.80571 3.27667C9.31381 3.37343 12.3392 3.5822 15.7132 3.8785C12.5487 4.02368 9.10765 4.18888 5.90796 4.24731L5.79733 4.94543C8.14556 5.10299 9.60712 5.24977 11.8347 5.52915C9.77138 5.60899 7.7014 5.67495 5.62637 5.72694C5.39172 6.25259 5.13695 6.7883 4.9224 7.31385C3.65869 6.68537 4.0223 7.32991 2.30596 6.5L1.81558 7.70715C1.81558 7.70715 1.7807 8.49646 3.0284 11.0278C3.10215 11.1768 3.17086 11.3259 3.2312 11.4754C6.22809 11.6322 8.52435 11.7911 11.3955 12.1253C8.62659 12.3017 6.47281 12.4208 3.6251 12.4976C3.65862 12.821 3.6737 13.1759 3.7575 13.4961C6.57337 13.475 10.5005 13.8226 13.0398 14.1903C9.99934 14.277 6.95049 14.3028 3.9117 14.3698C3.95025 14.9418 4.03574 15.5132 4.1648 16.0836C6.71985 16.1483 9.35135 16.3629 11.8409 16.5658L11.8732 16.5684C9.44455 16.7211 6.64544 16.8222 4.16312 16.9274C2.73172 16.3652 2.35698 16.0807 0.999999 15.5L0 18.5C1.02147 19.107 1.2625 22.513 1.86535 23.6543C7.57066 23.8271 12.1498 24.1077 17.9776 23.9571C17.9843 22.6857 18.1268 21.4149 18.4017 20.1467C16.6334 20.0436 13.9365 19.8651 12.2302 19.8172C14.1745 19.6557 16.7172 19.4525 18.7067 19.3721C19.7928 17.209 20 16.5684 22.5 14.5L22 10C18.7067 11.3186 17.8871 12.492 17.4698 13C17.5 12 17.5938 12.2563 17.4346 11.3186C15.1165 11.2268 12.5839 11.1201 10.2591 11.067C12.2705 10.8864 15.497 10.5708 17.4429 10.4965L17.4698 9.33972C16.6686 9.30258 9.96246 9.02201 9.74792 8.94517Z" fill="white"/>
</svg>
