<svg width="24" height="24" viewBox="0 0 24 24" fill="none" xmlns="http://www.w3.org/2000/svg">
<g clip-path="url(#clip0_35_574)">
<path d="M23.5963 0.00308224C23.8017 -0.0219669 23.9795 0.107734 23.9982 0.316727C24.0025 0.365537 23.9991 0.414705 23.9879 0.462437C23.968 0.552255 23.9397 0.6455 23.9152 0.734747C23.6354 1.75796 23.3713 2.78566 23.0913 3.80873C23.0712 3.88243 23.016 4.01815 22.9635 4.07381C22.8707 4.17264 22.6513 4.19349 22.5396 4.11196C22.2009 3.82924 21.8875 3.48932 21.5751 3.17436C21.409 3.37937 20.9722 3.79093 20.7631 3.99956L19.1353 5.62834C19.8565 6.40632 20.4582 7.13451 21.0157 8.04544C22.8392 11.017 23.1442 14.6762 21.8377 17.9079C21.6978 18.2554 21.5451 18.5976 21.3799 18.9337C21.035 19.6235 20.6548 20.281 20.4796 21.0421C20.4205 21.2985 20.3347 21.7314 20.4919 21.9654C20.6626 22.2193 20.994 22.1462 21.2519 22.2055C21.4869 22.2593 21.6928 22.3933 21.8176 22.6005C21.9419 22.8094 21.9788 23.0589 21.9205 23.2947C21.8633 23.5286 21.7146 23.7296 21.5078 23.853C21.1343 24.0733 20.5644 24.0064 20.1717 23.9077C19.0734 23.6175 18.6326 22.665 18.6811 21.5973C18.711 20.9401 18.8386 20.4881 19.0102 19.8616L14.1603 15.0207C13.4452 14.3062 12.6711 13.4954 11.9415 12.8109L10.3935 14.3576C10.2439 14.5065 9.6885 15.0375 9.59102 15.1824C9.58016 15.4231 9.60235 16.8103 9.55317 16.8967C9.43019 17.1127 8.353 18.1503 8.11818 18.3848L7.04091 19.4615C6.82856 19.6741 6.61757 19.8867 6.40095 20.0958C6.26507 20.2268 6.14992 20.273 5.9618 20.2071C5.88274 20.1795 5.79116 20.0519 5.7693 19.9758C5.67273 19.6393 5.60528 19.2878 5.53026 18.9451C5.49819 18.8201 5.47121 18.672 5.44473 18.5442C5.10053 18.4365 4.064 18.2955 3.84636 18.1183C3.77885 18.0633 3.74341 17.9624 3.73815 17.8777C3.73008 17.7474 3.80478 17.6558 3.8873 17.5657C4.3353 17.0762 4.85843 16.5926 5.33088 16.1209C5.84191 15.6104 6.34197 15.0726 6.87417 14.5851C6.93432 14.53 7.01375 14.4542 7.09173 14.4289C7.27908 14.3681 8.49318 14.4103 8.80328 14.3971C8.92424 14.3041 9.07983 14.1352 9.19144 14.0234L9.84007 13.3738L10.7137 12.5006C10.8534 12.3599 11.0447 12.1777 11.1693 12.0286C10.8387 11.7115 10.5058 11.3753 10.184 11.0487C8.18558 9.02025 6.12686 7.03965 4.13563 5.00535C3.54254 5.19141 2.93734 5.33717 2.31237 5.34473C1.68779 5.35228 1.06442 5.20532 0.607849 4.75639C0.185115 4.34075 -0.000814231 3.75862 2.67963e-06 3.17403C0.000443811 2.86553 0.0616141 2.56512 0.289761 2.34191C0.465985 2.1695 0.682973 2.08146 0.930268 2.08489C1.11085 2.0874 1.29499 2.13934 1.44575 2.23977C2.00344 2.61123 1.67761 3.19255 1.98911 3.49117C2.57863 4.05632 4.76135 2.79173 5.36859 2.50601C5.79807 2.30676 6.23775 2.13024 6.68583 1.97719C7.68952 1.63637 8.73685 1.4406 9.79602 1.39582C10.8088 1.3551 11.8223 1.45882 12.8057 1.70388C15.0688 2.26402 16.667 3.3069 18.3699 4.85926C18.4756 4.74288 18.6039 4.6111 18.7192 4.50382C19.4304 3.84284 20.0978 3.06623 20.8123 2.41572C20.6117 2.20979 19.8934 1.57635 19.8333 1.34433C19.8121 1.26166 19.8346 1.16455 19.8776 1.09239C19.9132 1.0325 19.9609 0.99175 20.0248 0.964351C20.3375 0.830391 20.9456 0.701783 21.2957 0.608375C22.0602 0.404457 22.8258 0.182359 23.5963 0.00308224ZM12.7115 12.0316C12.8866 12.2253 13.1286 12.4531 13.3189 12.6424L14.328 13.6507L17.5598 16.8789L18.8154 18.1328C19.0138 18.3311 19.2461 18.5517 19.4363 18.7531C19.534 18.512 19.6954 18.2511 19.8196 18.0191C19.987 17.7074 20.1346 17.3854 20.2615 17.0553C21.1484 14.7576 21.0234 12.3439 20.0647 10.0889C19.5302 8.83182 18.8707 7.8611 17.9722 6.842L17.931 6.83172C16.7214 8.01118 15.5161 9.23985 14.3185 10.436L13.2961 11.4576C13.1158 11.6376 12.8999 11.8651 12.7115 12.0316ZM5.24588 4.59712C5.45889 4.77028 5.78629 5.1177 5.98886 5.31992L7.36156 6.69257L11.9436 11.269C12.066 11.1453 12.1892 11.0223 12.3132 10.9001L15.6496 7.5712L16.6385 6.58315C16.7913 6.43044 17.0226 6.18059 17.1787 6.05736C15.2761 4.25457 12.4051 3.0302 9.76187 3.17325C8.54644 3.22483 7.35496 3.5278 6.26282 4.06299C5.9146 4.2298 5.59604 4.43736 5.24588 4.59712Z" fill="white"/>
</g>
<defs>
<clipPath id="clip0_35_574">
<rect width="24" height="24" fill="white"/>
</clipPath>
</defs>
</svg>
