<svg width="24" height="24" viewBox="0 0 24 24" fill="none" xmlns="http://www.w3.org/2000/svg">
<path d="M21.292 13.1445V22.5195H2.70996V13.2285C2.77519 13.1769 8.91984 8.31022 11.998 5.87305L21.292 13.1445ZM9.67773 20.9707L14.3232 20.9697V14.0029L9.67773 14.002V20.9707ZM17.0322 6.05762L17.0332 3.93652H20.5176L20.5166 8.86914C21.6689 9.80295 22.8612 10.7357 24 11.6807C23.66 12.156 23.3316 12.4887 22.7148 12.5459C22.385 12.5765 22.0539 12.4998 21.7705 12.3281C21.6454 12.2523 21.5152 12.14 21.4004 12.0459L20.8838 11.6211L19.1562 10.2012L13.1611 5.27637L12 4.32227C11.3181 4.89493 10.6089 5.46618 9.91992 6.03223L5.90039 9.33398L3.56445 11.2529C3.19119 11.5596 2.71712 11.9727 2.33887 12.2539C2.00906 12.4957 1.59653 12.5969 1.19238 12.5342C0.602734 12.4447 0.327574 12.1248 0 11.6797C0.131764 11.5642 0.310465 11.4282 0.450195 11.3154L1.31348 10.6182L3.92676 8.51172L12 2L17.0322 6.05762Z" fill="white"/>
</svg>
