<svg width="24" height="24" viewBox="0 0 24 24" fill="none" xmlns="http://www.w3.org/2000/svg">
<g clip-path="url(#clip0_3_5)">
<path d="M10.6896 0.0701412C11.8541 0.0630712 13.104 0.0206718 14.2771 0C14.2844 1.16981 14.2887 1.34615 13.9633 2.5C14.4385 3.42608 14.8116 4.10291 16.1884 4.57782C16.6663 4.73515 18.016 5.35035 18.5 5.5C19.6049 5.83525 19.919 6.13903 20.8084 6.67197C21.3614 7.00337 22.0792 7.73711 22.5 8.12044C22.8377 8.42803 23.0916 8.7296 23.5 9C23.6704 9.11278 23.8063 9.54907 24 9.65373C23.2714 9.42816 22.3307 8.8729 21.7422 8.5065C21.5629 8.38376 21.1736 8.12595 21 8C20.6394 7.7381 20.4439 7.64024 19.9877 7.4487C19.1992 7.11764 18.329 6.87335 17.4402 6.67197C16.972 6.56594 16.4898 6.4885 16.0208 6.38446C14.9694 6.15577 14.0244 5.76556 13.2709 5.2489C12.9927 6.08948 12.6926 7.12844 13.2025 7.9664C13.2909 8.1115 13.4533 8.27919 13.5642 8.42258C13.7471 8.66484 13.8812 8.92065 13.9633 9.18402C14.0468 9.45052 14.064 9.72079 14.0647 9.99164C14.0651 10.133 14.0575 10.2824 14.1393 10.4165C14.3877 10.8238 14.5612 10.6602 15 11C15.2117 11.1633 15.9136 11.34 16.1884 11.46C16.6966 11.6797 17.5632 11.8382 17.8844 12.2105C18.4124 12.8222 17.1841 13.7044 17.9536 14.2735L17.8844 14.2926C16.9893 13.7789 17.586 13.3553 16.9334 12.8393C16.6354 12.6037 15.9788 12.4972 15.5611 12.3701C14.9525 12.1849 14.284 11.8051 13.8861 11.46C13.7874 12.6036 14.2659 13.1468 14.8644 14.2037C15.3991 15.1479 16.0362 16.2468 16.1868 17.2515C16.2187 17.4646 16.0908 17.7354 16.1884 17.958C16.5069 18.9663 17.0838 19.9571 17.6197 20.924L17.5435 20.8947C16.9285 20.0393 15.9206 19.9763 15.5 19C15.274 19.287 14.8306 19.2572 14.5 19.5C13.6656 20.113 13.5 20.5 13.2324 21.0364C13.2163 21.0489 13.2098 21.0713 13.2018 21.0882C13.181 21.0925 13.1897 21.0917 13.1762 21.0924C13.1819 21.0374 13.1779 20.9784 13.1763 20.9231C13.2476 20.4871 13.4461 20.096 13.8153 19.7225C14.0325 19.5028 14.3073 19.3118 14.5413 19.1007C14.8305 18.8392 15.078 18.5603 15.28 18.268C15.3645 18.1468 15.5238 17.9265 15.5412 17.8015C15.5662 17.6212 15.5592 17.3358 15.4978 17.1622C15.3392 16.7138 15.0391 16.2398 14.7543 15.8163C14.3644 15.2427 13.9514 14.6754 13.516 14.115C13.1666 13.6617 12.8397 13.2692 12.5859 12.7924C12.0331 11.7538 12.3903 10.7034 12.1094 9.65182C11.999 9.23859 11.5744 8.91779 11.2476 8.56992C11.064 8.37238 10.878 8.04162 10.7763 7.82172C10.4361 8.02902 10.0546 8.24515 9.76468 8.48448C8.33819 9.66198 8.78546 11.2008 8.72411 12.5775C8.71083 12.8755 8.61728 13.2082 8.63382 13.5074C8.79768 14.0248 9.15164 14.691 9.52827 15.1664C9.62071 15.283 9.79499 15.4732 9.91618 15.5634C10.2355 15.8012 10.5793 15.9565 10.6388 16.293C10.7361 16.8428 10.146 16.9925 10 17.5C9.97044 17.6028 9.86471 17.7439 9.9297 18.1339C9.49285 17.4859 10.3333 16.9315 10.0736 16.293C9.9953 16.1003 9.57648 15.6951 9.35968 15.5634C8.84896 15.2492 8.41693 15.0879 8.10336 14.6863C7.83694 15.0814 7.64853 15.3565 7.27686 15.7229C6.92363 16.0712 6.48909 16.4287 6.1927 16.7906C5.75218 17.3418 5.4685 17.9376 5.35467 18.5508C5.30608 18.8018 5.27591 19.0894 5.2416 19.344C5.21716 19.5251 5.11372 19.8818 5.13452 20.042C5.21096 20.6311 5.406 21.2659 5.74811 21.8181C5.90199 22.0665 6.1226 22.2245 6.31161 22.4411C6.70326 22.89 6.50541 23.5386 6.22098 24L6.17692 23.9517C6.36123 23.5417 6.44587 22.9115 6.05775 22.5527C5.86639 22.3757 5.63367 22.2338 5.45433 22.0329C5.12716 21.6663 4.87062 21.2478 4.69587 20.8432C4.53439 21.1798 4.13146 21.603 3.87845 21.921C3.36934 22.5608 3.07466 23.2497 2.948 23.9593C2.8981 23.9071 2.91629 23.7662 2.91037 23.6899C2.96665 23.0714 3.17092 22.4617 3.51622 21.8818C3.78794 21.4383 4.07213 21.0949 4.25654 20.6218C4.39861 20.2604 4.48196 19.8907 4.50532 19.5186C4.52524 19.1305 4.49021 18.7317 4.5229 18.3425C4.55073 18.0326 4.61754 17.7247 4.72266 17.4217C4.87959 16.9399 5.14475 16.4749 5.51011 16.0406C5.71479 15.7924 5.94793 15.5504 6.14903 15.3046C6.95502 14.3191 7.11685 13.2667 6.93866 12.177C6.86102 11.7024 6.74872 11.1876 6.70531 10.7142C6.06017 11.0983 5.23737 11.4597 4.48121 11.7451C4.05087 11.9075 3.58688 12.0474 3.15108 12.2105C2.12705 12.5938 1.18317 13.1023 0.542233 13.7421C0.317854 13.966 0.169549 14.1883 0 14.4294C0.364714 13.4263 1.3935 12.612 2.64125 11.9764C3.07244 11.7566 3.52899 11.5717 3.97093 11.3626C4.60345 11.0627 5.19079 10.7266 5.72548 10.3585C6.01118 10.1606 6.45774 9.82923 6.6823 9.5996C6.77844 9.50131 6.87098 9.09939 6.92436 8.95363C7.04872 8.60492 7.24179 8.26745 7.49906 7.94911C7.74432 7.64742 7.99807 7.41922 8.3399 7.15485C8.76613 6.82926 9.25197 6.51526 9.5921 6.14934C10.0952 5.60808 10.3677 4.99453 10.5411 4.37963C10.8113 3.41858 10.8529 2.44088 10.81 1.46739C10.7894 0.999311 10.7229 0.536614 10.6896 0.0701412Z" fill="white"/>
</g>
<defs>
<clipPath id="clip0_3_5">
<rect width="24" height="24" fill="white"/>
</clipPath>
</defs>
</svg>
