<svg width="24" height="24" viewBox="0 0 24 24" fill="none" xmlns="http://www.w3.org/2000/svg">
<g clip-path="url(#clip0_8_54)">
<path d="M14.9365 12.8988V22.0433C12.9878 22.0353 9.10252 22.0404 9.0556 22.0404L9.05267 16.5512C9.0526 15.2909 9.0634 12.9008 9.06342 12.8969L14.9365 12.8988ZM4.04877 19.5531C5.42305 19.5535 6.84712 19.5727 8.21771 19.5473L8.23334 19.5619C8.25352 19.7929 8.24209 20.1981 8.24213 20.4398L8.23724 22.0404C6.84013 22.0391 2.1223 21.9612 2.07318 21.9603L1.96283 21.8353L1.96576 19.7601C1.96576 19.7601 2.13812 19.5676 2.30267 19.557C2.88117 19.5199 3.4695 19.5519 4.04877 19.5531ZM21.6796 19.5619C21.6931 19.5645 22.0145 19.627 22.0449 19.7982C22.0914 20.0632 22.0652 20.3518 22.0654 20.6225C22.0657 20.9737 22.0775 21.3266 22.0615 21.6771C22.0567 21.7768 22.0364 21.8632 21.9853 21.9476C21.7648 22.0732 21.1968 22.0384 20.9257 22.0375L15.7704 22.0404C15.7682 21.2237 15.7782 19.5659 15.7783 19.5482L21.6796 19.5619ZM8.23431 16.0853L8.23822 18.5687C8.23822 18.5687 5.5032 18.5655 4.14642 18.5658H2.05853V16.1586C2.10117 16.1583 6.36512 16.1254 8.22162 16.0726L8.23431 16.0853ZM19.9609 16.0795C20.267 16.0793 21.7603 16.047 21.9472 16.141C22.016 16.2225 22.0706 16.3919 22.0634 16.4916C22.0326 16.9172 22.1581 18.136 21.9794 18.4633C21.769 18.6074 21.1871 18.5658 20.9199 18.5658C20.6538 18.5658 15.8258 18.5668 15.7724 18.5668L15.7753 16.0707C15.8126 16.0708 18.6036 16.0796 19.9609 16.0795ZM9.914 17.7963C9.73903 17.8335 9.62653 18.0047 9.66205 18.1801C9.69771 18.3555 9.86821 18.4692 10.0439 18.435C10.2214 18.4001 10.3367 18.2274 10.3007 18.0502C10.2645 17.873 10.0909 17.7592 9.914 17.7963ZM2.48529 12.8744C3.0041 12.8536 3.60442 12.8767 4.13178 12.8715C5.49135 12.8584 6.86829 12.8913 8.2265 12.8685L8.21478 14.184C8.21517 14.4595 8.20768 14.7963 8.2265 15.0678L7.69916 15.0687L4.16107 15.0697C3.5674 15.0697 2.97423 15.0739 2.37982 15.0658C2.1457 15.0698 1.96309 14.9978 1.96283 14.724C1.9623 14.1487 1.94751 13.8171 1.97455 13.2426C1.99092 12.8972 2.2045 12.8839 2.48529 12.8744ZM15.7538 12.9183C15.8023 12.9186 19.8811 12.9384 21.9111 12.9721C21.9111 12.9721 21.9877 13.0303 22.0087 13.0795C22.1047 13.3073 22.1066 14.4384 22.0693 14.7494C22.0597 14.828 22.0409 14.8965 22.0087 14.9691C21.814 15.1044 20.8847 15.0648 20.8847 15.0648C20.8488 15.0648 17.4639 15.0629 15.7665 15.0609L15.7538 12.9183ZM11.9287 1.00038C12.2618 0.990281 12.4674 1.20038 12.7177 1.38515C12.8964 1.51699 13.0717 1.65479 13.249 1.78847L15.0908 3.17616C17.3107 4.86628 19.5402 6.54378 21.7792 8.20839C22.3178 8.60213 22.8986 9.0869 23.4306 9.45155C24.2508 10.0135 24.0919 10.3006 23.541 10.9867C23.2204 11.3861 22.8136 12.244 22.1777 11.7914C21.6378 11.4071 21.1308 11.0054 20.6103 10.6117L17.5761 8.32362L13.791 5.47108L12.6142 4.58241C12.417 4.43335 12.2175 4.29406 12.0273 4.13612C11.6165 4.37048 10.9393 4.92144 10.5419 5.22499L4.54974 9.73671L2.9599 10.933C2.57497 11.2283 2.18565 11.5365 1.78607 11.8139C1.69937 11.8703 1.55842 11.9209 1.45306 11.9193C0.998373 11.9119 0.730775 11.3162 0.481385 11.0101C0.334987 10.8305 0.195988 10.6614 0.080994 10.4711C-0.0485765 10.2564 -0.0209657 9.97848 0.151306 9.79823C0.371442 9.5726 0.658355 9.38896 0.911072 9.1996C1.60056 8.69301 2.28389 8.17785 2.96088 7.65468C3.15729 7.50119 3.44913 7.31221 3.61615 7.13808C3.63857 6.93441 3.62513 6.43006 3.62494 6.20937L3.62299 3.95448C3.62277 3.64992 3.58428 2.73647 3.70795 2.51308C3.89321 2.39273 5.85925 2.4856 6.2099 2.46718C6.26721 2.46416 6.36379 2.50664 6.41107 2.55019C6.52596 2.80704 6.4776 4.60494 6.46771 5.00722C6.87298 4.67968 7.38791 4.32465 7.81342 4.00819L9.71967 2.56483L10.9882 1.60683C11.236 1.4198 11.6404 1.06407 11.9287 1.00038ZM9.05951 9.12831H15.3017C15.7999 9.12831 16.3116 9.11651 16.8076 9.14491C17.0235 9.15708 17.3996 9.49902 17.5771 9.63612C17.9384 9.91311 18.2978 10.1929 18.6552 10.475C19.1804 10.8834 19.8656 11.3673 20.3603 11.7894C19.1668 11.7785 17.947 11.793 16.7509 11.7933H8.24799C6.74742 11.7933 5.12479 11.8228 3.63373 11.7826C4.40695 11.1973 5.17658 10.6066 5.94135 10.0101C6.27579 9.75139 6.62497 9.46156 6.96967 9.22011C7.05262 9.16198 7.17714 9.14438 7.27728 9.13222C7.76487 9.10366 8.55445 9.1283 9.05951 9.12831ZM11.9785 5.38222C12.078 5.37825 12.4014 5.65544 12.5009 5.7328L13.2851 6.3412C14.0256 6.91321 14.796 7.47804 15.5204 8.06679C14.3704 8.08019 13.2083 8.07185 12.0576 8.07167L8.49115 8.07265C8.60022 7.95979 8.87147 7.75153 9.00873 7.64589C9.4219 7.32802 9.84065 7.01507 10.2548 6.69765C10.5895 6.44147 10.9219 6.18231 11.2529 5.92128C11.4671 5.75318 11.7516 5.52078 11.9785 5.38222Z" fill="white"/>
</g>
<defs>
<clipPath id="clip0_8_54">
<rect width="24" height="24" fill="white"/>
</clipPath>
</defs>
</svg>
