<svg width="24" height="24" viewBox="0 0 24 24" fill="none" xmlns="http://www.w3.org/2000/svg">
<path d="M12.0418 5.00855C12.6594 4.98417 14.5655 5.00502 15.1544 5.16256C15.5689 5.52889 15.7556 6.15794 16.2097 6.463C16.5034 6.66034 16.9935 6.8087 17.3337 6.93685C18.3919 7.3355 19.4342 7.70113 20.4373 8.23313C20.6524 8.34717 21.0095 8.50669 21.1849 8.67831C21.5958 9.13379 21.6445 9.79493 21.8913 10.3664C22.2089 11.1018 22.6012 11.36 23.0953 11.9452C23.1211 11.9916 23.192 12.0857 23.2062 12.1312C23.3731 12.6705 23.3912 13.3052 23.4708 13.8649L23.8344 16.3903C23.9026 16.8926 23.9904 17.4735 24 17.9769L19.5203 18C18.8283 17.9968 17.9514 17.9459 17.2881 17.9696C17.3274 17.1945 17.1443 16.7188 16.9343 15.9782C16.8011 15.5087 16.709 15.0334 16.5416 14.5719C16.3073 13.9256 15.7264 13.6236 15.2304 13.2011C14.9937 12.9965 14.7252 12.7154 14.5381 12.4659C14.1609 11.9627 13.7925 11.8622 13.186 11.7871C12.8185 11.7416 12.4304 11.6644 12.0503 11.6303C12.0127 11.6265 11.9751 11.6234 11.9374 11.6211C11.3258 11.5825 10.5734 11.5898 10.0865 12.0193C9.57102 12.474 9.41032 13.2302 9.07065 13.8046C8.81745 14.2328 8.46316 14.5186 8.10901 14.8599C7.91452 15.0474 7.72373 15.251 7.61098 15.499C7.40098 15.9608 7.39738 17.3657 7.36322 17.9365C7.17443 17.959 6.84476 17.9596 6.6475 17.9646C6.18872 17.9753 5.7299 17.9835 5.27103 17.9893C3.51392 18.006 1.75667 17.9933 0 17.9512C0.0204883 17.1356 0.10681 16.3841 0.206805 15.5745C0.24479 15.2669 0.286225 14.7529 0.374797 14.4733C0.548336 13.9254 1.27561 13.668 1.53036 13.1694C1.68164 12.8733 1.79937 12.5023 1.92667 12.1919C2.12578 11.7063 2.31824 11.2119 2.51384 10.7268C2.77864 10.0701 3.13519 9.40444 3.47594 8.78551C3.62539 8.51407 3.8868 7.97599 4.12888 7.79143C4.77824 7.29637 5.90975 7.38166 6.61908 6.99796C6.84066 6.84358 7.09704 6.5658 7.26392 6.36456C7.7654 5.75983 8.16925 5.62111 8.90583 5.42808C9.94984 5.1545 10.9605 5.05976 12.0418 5.00855Z" fill="white"/>
</svg>
