<svg width="24" height="24" viewBox="0 0 24 24" fill="none" xmlns="http://www.w3.org/2000/svg">
<path d="M14.7776 2.35837C14.894 2.44131 16.8333 5.57484 17.094 5.98825L17.7249 6.98825C17.8457 7.18027 18.052 7.46883 18.0999 7.68161C18.198 8.11763 18.2772 8.57182 18.3636 9.01072L18.9573 12.0049L19.6233 15.3496C19.7542 16.0027 19.9709 16.9167 19.9964 17.5586C20.0237 18.3105 19.8821 19.0595 19.5813 19.749C19.4355 20.0813 19.2529 20.3965 19.0374 20.6884C18.6845 21.1697 18.0363 21.8656 17.6292 22.332L16.9466 23.1162C16.8273 23.2539 16.5705 23.588 16.4143 23.6484C16.3324 23.5463 16.0392 22.7763 15.9719 22.6084L15.1507 20.5654L12.5198 13.9951C12.0474 12.8152 11.5582 11.6312 11.0979 10.4472C11.1484 10.0962 11.2858 9.53966 11.3743 9.19431C11.9017 7.13669 12.7206 5.08335 13.9329 3.33005C14.1056 3.08023 14.4896 2.54905 14.7053 2.34861L14.7776 2.35837ZM5.89578 8.05661C5.91782 8.05701 5.99014 8.05722 6.00711 8.06931C6.28177 8.28128 6.60409 8.61277 6.85476 8.84275C7.50381 9.43822 8.13784 10.0227 8.78152 10.6211C8.83665 10.6723 8.94111 10.7863 8.97195 10.8476C9.07997 11.0642 9.17497 11.3256 9.26492 11.5517L9.84207 13.0019L11.9065 18.1513L13.4182 21.9218C13.6172 22.4206 13.8234 22.9276 14.0247 23.4258C14.0503 23.4888 14.0407 23.5504 14.0071 23.6074C13.8854 23.6736 13.3676 23.5605 13.1956 23.5342C12.8448 23.4989 12.3958 23.4213 12.0403 23.3711L9.65066 23.0322L6.77761 22.625C6.31893 22.5598 5.85423 22.5076 5.39773 22.4297C5.30339 22.4134 5.15547 22.3892 5.07742 22.3369C5.04348 22.314 5.02001 22.2792 5.01003 22.2402C4.95494 22.0251 5.14359 19.6724 5.16726 19.2968L5.65066 11.4746C5.66984 11.162 5.82548 8.18107 5.89578 8.05661ZM10.5608 0.636692C11.0868 0.622712 11.6508 0.682425 12.18 0.692356C12.2501 0.693757 12.3815 0.720293 12.428 0.777317C12.4054 0.895351 11.9914 1.41839 11.8889 1.56638C11.5035 2.12454 11.1546 2.70755 10.846 3.3115C10.3018 4.37701 9.85366 5.48958 9.50711 6.63474C9.35475 7.12905 9.21625 7.63564 9.09011 8.13767C9.07822 8.18504 9.05191 8.20721 9.00906 8.22263C8.85571 8.18239 8.50458 7.81951 8.37039 7.69236L6.92019 6.35349C6.63276 6.0886 6.23998 5.74566 5.97781 5.46872C5.97756 5.34529 5.9816 5.22179 5.98953 5.09861C6.02938 4.52855 6.28921 4.39008 6.68582 4.04197L7.48269 3.34275L10.5608 0.636692Z" fill="white"/>
</svg>
