<svg width="24" height="24" viewBox="0 0 24 24" fill="none" xmlns="http://www.w3.org/2000/svg">
<g clip-path="url(#clip0_43_744)">
<path d="M14.6391 0.000386132C14.8009 -0.019786 16.1323 0.756517 16.3932 0.8968L19.2324 2.45376C20.3809 3.09521 20.1887 2.87878 20.9607 3.99623C21.5393 4.83377 22.2391 5.72624 22.8371 6.56217L23.5151 7.50374C23.6387 7.67664 23.8481 7.99477 23.9919 8.12965L24 8.13714C23.8339 8.44066 23.7056 8.74787 23.5505 9.05418L22.6748 10.7723L20.6734 14.7192C20.792 14.9507 20.8904 15.1924 21.0081 15.4207C21.3173 16.0202 21.6323 16.5788 21.908 17.1978C22.0593 17.5372 22.2305 17.7099 22.3462 18.1162C22.251 18.4883 22.1165 18.6513 21.9641 18.988C21.6839 19.6068 21.3767 20.2065 21.0701 20.8122C20.928 21.093 20.7791 21.5007 20.614 21.7503C20.1944 21.9559 19.1502 22.1971 18.66 22.3484L13.2886 24C13.0007 23.8955 12.1542 23.3846 11.8645 23.2022C11.6297 23.0936 11.4473 22.974 11.225 22.8495L9.81953 22.0462C8.84694 21.4898 8.8828 21.5381 7.77981 21.4781L5.86771 21.3812C4.89797 21.3388 4.97852 21.3711 4.14405 20.869L2.46016 19.841C2.23837 19.7077 1.995 19.5376 1.76347 19.431C1.71806 18.7305 1.7047 18.0192 1.66323 17.3194C1.64696 17.0449 1.6499 16.2419 1.56139 16.0185C1.13939 14.9534 0.6734 13.8997 0.24005 12.839C0.159661 12.6422 0.0615445 12.4495 0 12.246C0.0129173 12.0379 0.595093 11.1624 0.735402 10.9286L1.81181 9.12786C2.69593 7.67221 3.59164 6.17802 4.44654 4.70551C4.77779 4.58548 5.0442 4.44382 5.36252 4.31103L7.45611 3.44221C8.21043 3.1261 9.21899 2.77097 9.92727 2.41069L13.2639 0.688176C13.6983 0.467457 14.1974 0.166632 14.6391 0.000386132ZM15.5437 18.3173C15.911 18.3143 16.2539 18.2691 16.6192 18.2352C17.2308 18.1804 17.8418 18.1203 18.4524 18.055C19.3003 17.9688 20.1863 17.9253 21.0487 17.8453C20.7395 17.2074 20.3427 16.5806 19.9784 15.9715C19.8779 15.8035 19.4737 15.0805 19.3776 14.9859C19.0506 14.9116 17.1016 15.5439 16.5797 15.5673C16.4493 15.5731 16.1019 15.6919 15.9007 15.7046C15.7449 15.4969 12.1378 12.203 12.0535 12.1633C12.0228 12.1252 11.4363 11.543 11.4184 11.5364C11.4368 11.5946 11.6408 12.0207 11.6961 12.0567C11.8759 12.3858 12.1248 12.7251 12.3207 13.0631C13.1455 14.4864 14.0588 15.8576 14.8832 17.2826C15.0782 17.6197 15.3392 17.9691 15.5437 18.3173ZM14.0957 1.52411C13.8779 1.60878 13.6033 1.77165 13.3919 1.88525L12.1998 2.53225C11.9488 2.67021 11.1782 3.01514 11.0246 3.18311L11.0163 3.22396C11.079 3.24695 11.1176 3.23174 11.1839 3.21854C12.1411 3.1246 13.3554 3.07691 14.3319 3.04397C14.2178 2.74089 14.2143 1.62816 14.1098 1.52766L14.0957 1.52411ZM22.4311 7.79711C21.6949 6.70925 20.8841 5.67566 20.0901 4.62941C19.8189 4.27199 19.4364 3.62196 19.0487 3.4247C18.0073 2.89489 16.9887 2.31274 15.9437 1.79161C15.7905 1.71528 15.5703 1.56735 15.4172 1.52164C15.4161 1.5936 15.5041 2.08118 15.5224 2.2003C15.6777 3.15133 15.8504 4.09938 16.0406 5.04399C16.5589 5.46384 17.0668 5.9117 17.5869 6.3265C17.7428 6.45089 18.3541 7.01703 18.5054 7.07037C19.0835 7.27406 19.9592 7.35482 20.5704 7.46117C21.1607 7.56393 21.8553 7.75851 22.4311 7.79711ZM9.96849 6.24355C9.90802 6.36557 9.86461 6.48875 9.84394 6.6242C9.66932 7.76885 9.39182 8.8917 9.21884 10.0366C9.20044 10.1583 9.17044 10.2862 9.13944 10.4054C9.41203 10.4596 9.76035 10.5279 10.0358 10.5563C10.2109 10.5882 10.561 10.6622 10.7249 10.663C10.7669 10.3849 10.323 8.0774 10.2509 7.64131C10.2024 7.34836 10.1558 6.92844 10.098 6.62253C10.0833 6.54483 10.0389 6.34744 9.9984 6.27127C9.99505 6.26496 9.97479 6.2489 9.96849 6.24355Z" fill="white"/>
</g>
<defs>
<clipPath id="clip0_43_744">
<rect width="24" height="24" fill="white"/>
</clipPath>
</defs>
</svg>
