<svg width="24" height="24" viewBox="0 0 24 24" fill="none" xmlns="http://www.w3.org/2000/svg">
<g clip-path="url(#clip0_49_750)">
<path d="M11.1964 18.9927L14.5489 18.9898C14.6569 19.4827 14.7999 20.0044 14.918 20.5005C15.2498 20.4985 16.1425 20.4699 16.4249 20.5405C16.6045 20.5851 16.7698 20.6751 16.9044 20.8023C17.1476 21.0336 17.2385 21.3155 17.251 21.648C17.2976 22.8752 17.2309 22.7457 16.0811 22.7446L14.5606 22.7417L9.66901 22.7427H8.08307C7.78888 22.7427 7.49504 22.7389 7.19929 22.7378C6.85793 22.7364 6.74642 22.5763 6.74811 22.231C6.7505 21.738 6.68989 21.2121 7.07233 20.8335C7.45106 20.4587 7.83545 20.4933 8.32331 20.4946L9.08698 20.4985C9.19471 20.013 9.36088 19.4759 9.44538 18.9956C10.0035 18.9787 10.6336 18.9927 11.1964 18.9927ZM23.9932 14.4995C23.9952 15.7626 24.1255 16.6121 23.1378 17.5669C22.2171 18.352 21.535 18.2472 20.4063 18.2456L18.3145 18.2446L11.4249 18.2456H3.41608C3.04518 18.2456 2.66039 18.2658 2.29206 18.2241C1.79221 18.1674 1.33168 17.956 0.947332 17.6343C0.404164 17.1797 0.0831712 16.5458 0.0235041 15.8423C0.00865986 15.6675 -0.0302969 14.5929 0.0440119 14.5044L0.15534 14.4985L23.9932 14.4995ZM19.7628 1.00635C20.2424 1.00591 21.37 0.977526 21.8008 1.04444C22.3443 1.12927 22.8461 1.3871 23.2315 1.77979C24.0499 2.60002 23.9927 3.36395 23.9923 4.42432L23.9913 6.35596L23.9932 13.7456C23.1882 13.7592 22.3507 13.7476 21.543 13.7476L0.00885561 13.7456L0.0117853 6.37745L0.0108087 4.43213C0.010677 4.04187 -0.0151723 3.53662 0.0528009 3.15967C0.274734 1.92935 1.28491 1.08989 2.5069 1.01417C2.61588 1.01052 2.725 1.00821 2.83405 1.00733H15.9854L19.7628 1.00635Z" fill="white"/>
</g>
<defs>
<clipPath id="clip0_49_750">
<rect width="24" height="24" fill="white"/>
</clipPath>
</defs>
</svg>
