<svg width="24" height="24" viewBox="0 0 24 24" fill="none" xmlns="http://www.w3.org/2000/svg">
<path fill-rule="evenodd" clip-rule="evenodd" d="M18.4849 0C18.4954 0.0773274 18.5463 0.165015 18.5815 0.236328C18.6393 0.353181 18.6948 0.473037 18.7544 0.588867C19.1308 1.32094 19.4676 2.07167 19.8354 2.80762C19.9444 3.02566 20.0634 3.23858 20.1675 3.45898C20.1672 3.45913 20.154 3.5144 20.147 3.51367C20.1449 3.51588 20.1431 3.5183 20.1411 3.52051C20.045 3.5352 19.422 3.85905 19.2964 3.91992C18.6456 4.23602 17.9858 4.53151 17.3511 4.87988C17.1369 4.99743 16.7449 5.22411 16.7388 5.50293C16.7278 6.00803 17.0792 6.46398 17.2739 6.91211C17.446 7.3083 17.6906 7.77673 17.6831 8.21777C17.6714 8.47028 17.008 8.83488 16.8149 8.99902C16.5271 9.24405 16.203 9.49449 16.0161 9.83398C15.7803 10.3463 16.1716 10.9452 16.2964 11.4053C16.377 11.704 16.3973 12.0157 16.3559 12.3223C16.1659 13.7508 13.9366 15.3642 12.5171 15.3584C11.6633 15.3549 11.3819 15.2197 10.814 14.5918C10.3469 14.1396 10.0095 13.5594 9.32958 13.4561C8.4395 13.3209 7.70832 14.0212 7.43212 14.8125C7.16352 15.5822 7.23234 16.823 7.40771 17.6152C7.52546 18.1472 7.7564 18.766 7.93114 19.2969C8.13858 19.9354 8.35241 20.572 8.57275 21.2061C8.66175 21.4585 8.92651 22.0023 8.89892 22.2158C8.77721 22.4287 7.36631 23.0683 7.05614 23.2402C6.82787 23.3669 5.34004 24.0892 5.16454 23.9902C4.78573 23.7759 4.40912 23.0173 4.17919 22.6201C3.11161 20.7752 2.69585 18.6317 3.23681 16.5479C3.46127 15.6316 3.73649 14.6514 3.75732 13.709C3.76828 13.2127 3.76942 12.5739 3.66259 12.0879C3.60581 11.8301 3.39273 11.3971 3.28368 11.125C3.6064 10.732 4.54313 10.4296 4.70751 9.9375C4.91959 9.30264 5.22775 9.03242 5.60595 8.51758C4.86452 8.08219 4.60127 8.16317 3.76903 8.27246C3.67685 8.16671 3.63333 8.09128 3.56103 7.97168C3.8429 7.77612 4.38408 7.66378 4.72607 7.72266C5.16829 7.79886 5.65112 8.09117 5.87743 7.51074C6.0326 7.11263 6.05662 6.70545 6.10204 6.28809C6.27208 6.27164 6.46006 6.25942 6.61864 6.21875C7.00374 6.11986 6.9201 5.91314 7.06396 5.62793C7.11412 5.52856 7.27197 5.41074 7.37743 5.35938C7.85568 5.12641 8.3435 4.89849 8.81884 4.65918C10.6737 3.72709 12.5386 2.81501 14.4136 1.92383C15.4908 1.39882 16.5676 0.868119 17.6499 0.353516C17.8834 0.2425 18.2379 0.0611842 18.4849 0ZM14.063 10.2139C13.6986 10.247 13.3447 10.3512 12.9927 10.4512C12.9833 10.8127 12.8941 12.0015 12.9556 12.2754C12.9974 12.4597 13.0895 12.629 13.2212 12.7646C13.8468 13.4199 14.6005 13.0864 14.896 13.2705C14.9091 13.2928 14.9308 13.3173 14.9204 13.3389C14.7243 13.7252 13.9134 13.5928 13.646 13.5186C12.8079 13.2856 12.4227 12.6397 12.0024 11.9561C11.7134 12.0676 11.2561 12.0958 10.9477 12.0811C10.6868 12.5194 10.6768 12.7728 10.6899 13.2812C10.775 14.1607 11.5982 15.168 12.5493 15.0293C13.5169 14.888 14.7333 14.1241 15.3608 13.3887C16.4251 12.1407 15.9437 10.0991 14.063 10.2139ZM13.1518 6.04199C12.6373 6.28153 12.1237 6.54051 11.6138 6.79102C10.9525 7.1158 10.2593 7.43303 9.61474 7.78809C9.66978 7.91935 9.89606 8.4815 9.97314 8.5625C9.99183 8.55916 10.0135 8.55782 10.0288 8.54883C10.8848 8.11411 11.7312 7.71667 12.5893 7.29199C12.8512 7.16245 13.355 6.93916 13.5757 6.79492C13.5197 6.66078 13.2737 6.07151 13.1518 6.04199Z" fill="white"/>
</svg>
