<svg width="24" height="24" viewBox="0 0 24 24" fill="none" xmlns="http://www.w3.org/2000/svg">
<path d="M1.68066 21.3877H22.7988C23.1614 21.3876 23.6383 21.3745 23.9912 21.3984C23.9789 22.0199 24.0063 23.0991 23.9824 23.7685C23.9753 23.7769 23.9682 23.7863 23.9609 23.7949L23.9082 23.7988L0.00585938 23.7959C0.0236476 23.0236 -0.0113025 22.2428 0.0117188 21.4697C0.0131381 21.4222 0.0146294 21.4177 0.0478516 21.3906C0.56448 21.3743 1.15907 21.3876 1.68066 21.3877ZM4.83887 5.80074H9.49219L21.5938 5.80172L21.5928 20.1982C21.1913 20.2117 20.7376 20.2013 20.333 20.2011L17.9941 20.1982C18.003 19.3887 17.9951 18.5651 17.9951 17.7548L17.9961 13.0566L17.9971 11.5029C17.9971 11.2244 18.0071 10.8728 17.9873 10.6005C17.4492 10.3662 16.7973 10.1973 16.2344 10.0332C13.5759 9.25778 10.8306 9.20884 8.15527 9.93453C7.47764 10.1183 6.65838 10.322 6.01172 10.6074C5.98967 10.7739 6.00184 11.2981 6.00195 11.4824V17.7441C6.00195 18.5475 6.01838 19.4044 5.99609 20.2021C5.21385 20.1917 4.4111 20.2007 3.62695 20.2011H2.82422C2.6896 20.2007 2.53524 20.1914 2.40332 20.2021C2.41738 19.73 2.40621 19.2017 2.40625 18.7265V15.9736L2.40918 5.79976L4.83887 5.80074ZM13.0342 10.667C12.8575 11.0692 12.7628 11.4685 12.7734 11.9111C12.7799 12.2491 12.8505 12.5834 12.9805 12.8955C13.3507 13.7727 13.9895 14.0007 14.6436 14.6328C14.9598 14.9384 14.9327 14.9584 15.1572 15.3066C15.4935 15.8277 15.6576 16.2605 15.668 16.8974C15.6828 17.7451 15.357 18.5633 14.7627 19.1679C13.4241 20.5495 10.8279 20.5052 9.50684 19.1494C8.96534 18.5935 8.60046 17.9549 8.48926 17.1806C8.45816 16.9641 8.39312 16.7607 8.40332 16.5371C8.39411 15.6472 8.75927 14.558 9.39062 13.917C9.48605 13.8137 9.56463 13.7431 9.67578 13.6552C9.61975 13.7712 9.58577 13.8502 9.5459 13.9736C9.35921 14.6977 9.40405 15.4403 9.79395 16.0898C9.89633 16.2603 10.0815 16.6002 10.3301 16.5117C10.6738 16.3887 10.524 16.1189 10.4463 15.8662C10.1041 14.7747 10.2154 13.5916 10.7549 12.583C11.248 11.6595 12.0244 10.9704 13.0342 10.667ZM12.3018 14.8798C12.048 15.5975 12.2325 15.9629 12.3594 16.6679C12.4684 17.2741 12.0651 17.8623 11.5176 18.1201C11.4276 18.1632 11.3337 18.1975 11.2373 18.2236C11.6744 18.5221 11.9616 18.767 12.5537 18.6914C12.7359 18.6617 12.8272 18.6158 12.9824 18.5214C13.0784 18.4631 13.2047 18.4022 13.292 18.3349C13.7228 18.0029 13.8631 17.38 13.7832 16.8613C13.6909 16.2622 13.0417 15.9264 12.6807 15.497C12.5942 15.3951 12.353 14.9056 12.3018 14.8798ZM1.08496 1.00484H22.1797C22.775 1.00481 23.4071 0.994074 24 1.00973C23.9763 1.22594 23.9913 1.73973 23.9912 1.98434L23.9902 3.89937C23.9902 4.01604 23.9995 4.52466 23.9785 4.59176L23.9492 4.60445C22.964 4.6302 21.8689 4.60736 20.8779 4.60738H14.9111L0 4.60543C0.015956 4.48475 0.00676155 4.06833 0.00683594 3.92476L0.00585938 1.76363C0.00566655 1.65097 -0.00739958 1.07024 0.0263672 1.01168C0.322837 0.990262 0.77358 1.00486 1.08496 1.00484Z" fill="white"/>
</svg>
