<svg width="24" height="24" viewBox="0 0 24 24" fill="none" xmlns="http://www.w3.org/2000/svg">
<g clip-path="url(#clip0_75_967)">
<path d="M10.8982 0.0127112C13.0662 -0.0684887 16.808 0.207975 18.5672 1.64357C18.8615 1.88371 19.1021 2.28265 19.118 2.67189C19.1342 3.07907 18.9505 3.39581 18.6834 3.68947L18.6854 7.79787L18.6834 17.6817L18.6863 20.334C19.2649 20.8677 19.2297 21.552 18.7703 22.1436C17.6806 23.3679 14.8715 23.8268 13.2605 23.9385C11.0208 24.0939 8.50889 23.9808 6.35723 23.2881C5.74142 23.0718 5.08283 22.8118 4.58574 22.377C3.87491 21.7553 3.82446 21.0322 4.43633 20.334C4.45934 19.9418 4.43922 19.3635 4.44023 18.96V3.6758C3.21018 2.34366 4.82783 1.25909 5.99395 0.844742C7.61955 0.267415 9.18806 0.0760437 10.8982 0.0127112ZM12.7107 7.43166C11.5723 7.77977 10.6973 8.57118 10.1414 9.63088C9.5334 10.788 9.40808 12.1452 9.79375 13.3975C9.88131 13.6874 10.0503 13.9976 9.66289 14.1387C9.38257 14.2407 9.17386 13.8501 9.0584 13.6543C8.61892 12.9091 8.5687 12.0574 8.7791 11.2266L8.75762 11.2119L8.73418 11.2334C8.71208 11.196 8.71358 11.1831 8.70391 11.1397C8.67114 11.1508 8.63842 11.1562 8.6043 11.1611C7.89246 11.8967 7.47952 13.1468 7.49004 14.168C7.47855 14.4244 7.55262 14.657 7.5877 14.9053C7.71301 15.7937 8.1238 16.5262 8.73418 17.1641C10.223 18.7202 13.1491 18.7709 14.658 17.1856C15.3278 16.4919 15.6962 15.5536 15.6795 14.5811C15.6678 13.8504 15.4823 13.3537 15.1033 12.7559C14.8502 12.3563 14.8806 12.3341 14.5242 11.9834C13.7867 11.2577 13.0666 10.9954 12.6492 9.9883C12.5028 9.6303 12.4241 9.24718 12.4168 8.85939C12.4048 8.35152 12.5115 7.89331 12.7107 7.43166ZM11.8846 12.2666C11.9426 12.2969 12.2149 12.8566 12.3123 12.9736C12.7192 13.4662 13.4504 13.8517 13.5545 14.5391C13.6446 15.1344 13.4866 15.8495 13.0008 16.2305C12.9024 16.3077 12.7603 16.3775 12.6521 16.4444C12.4772 16.5527 12.3741 16.6047 12.1687 16.6387C11.5015 16.7254 11.1769 16.446 10.6844 16.1035C10.7932 16.0736 10.8991 16.033 11.0008 15.9834C11.6179 15.6877 12.0729 15.0128 11.95 14.3174C11.807 13.5086 11.5986 13.0899 11.8846 12.2666ZM11.2303 0.696305C9.62934 0.73783 8.01247 0.898483 6.49492 1.4756C6.15734 1.60406 5.79584 1.78238 5.50566 1.99904C5.27319 2.17273 4.98634 2.42423 4.99883 2.74904C5.00738 2.96002 5.17295 3.16618 5.31914 3.29787C6.80986 4.53469 9.92845 4.77437 11.7605 4.75099C13.4808 4.73146 15.3914 4.49998 16.9754 3.75295C17.4099 3.548 17.8762 3.22928 17.9988 2.71681C17.59 1.01949 12.6754 0.628521 11.2303 0.696305ZM7.46758 2.02248C7.89324 1.99186 8.50388 2.08977 8.83477 2.37502C9.18653 2.67833 8.98169 3.05259 8.63555 3.21291C8.32677 3.35579 8.07356 3.40179 7.74395 3.41994C5.7889 3.4496 5.54673 2.13662 7.46758 2.02248Z" fill="white"/>
</g>
<defs>
<clipPath id="clip0_75_967">
<rect width="24" height="24" fill="white"/>
</clipPath>
</defs>
</svg>
