<svg width="24" height="24" viewBox="0 0 24 24" fill="none" xmlns="http://www.w3.org/2000/svg">
<path d="M20.5732 5.13917C21.2371 5.15075 21.6905 5.12597 22.3311 5.45362C23.0239 5.8127 23.5782 6.42517 23.8398 7.16261C23.9192 7.38643 23.929 7.6311 24 7.83058V19.6109C23.9559 19.7134 23.9326 19.9346 23.9023 20.0532C23.6154 21.1789 22.5518 22.1381 21.3887 22.2642C21.2275 22.2816 21.0653 22.2923 20.9033 22.2964C20.7937 22.2984 20.6835 22.2895 20.5742 22.3003L20.5732 5.13917ZM9.03613 1.71046L10.8779 1.71144H14.1562C14.6962 1.71139 15.2373 1.70955 15.7773 1.71046C16.1785 1.7112 16.5054 1.82358 16.7871 2.11476C16.9171 2.24917 17.057 2.46825 17.0947 2.65284C17.1662 3.00316 17.143 3.47289 17.1436 3.83937C17.1443 4.26601 17.1501 4.71323 17.1406 5.13624C17.2345 5.13433 17.3377 5.13724 17.4316 5.14015C18.0407 5.15906 18.6787 5.11309 19.2852 5.14894L19.2861 16.3394V20.2026C19.2861 20.8689 19.3043 21.6364 19.2803 22.2954L15.9434 22.2974L8.37793 22.2964L5.77539 22.2974C5.4425 22.2978 5.03542 22.2856 4.71094 22.2944V7.19874C4.7107 6.51849 4.70436 5.8255 4.71387 5.14601C5.03396 5.12869 5.45011 5.13866 5.77734 5.13917C6.10888 5.13968 6.52309 5.12815 6.84863 5.14405C6.87167 4.63322 6.84558 4.08582 6.85547 3.57179C6.86071 3.29847 6.83638 2.97105 6.89355 2.70753C6.93618 2.51397 7.02415 2.3328 7.14941 2.17921C7.40767 1.86319 7.6981 1.75722 8.08984 1.71534C8.31742 1.69627 8.79537 1.71025 9.03613 1.71046ZM3.42773 5.14503V20.2066C3.42775 20.8677 3.44739 21.6408 3.42188 22.2915C2.4582 22.3261 1.69022 22.1596 0.960938 21.4751C0.55826 21.0972 0.25618 20.6415 0.110352 20.104C0.086839 20.0173 0.0282462 19.6839 0 19.6284V7.79445C0.0394815 7.70684 0.0590841 7.55067 0.0800781 7.4507C0.105435 7.33294 0.139201 7.2171 0.180664 7.10402C0.443646 6.37358 1.08815 5.69586 1.80078 5.38722C2.34036 5.15355 2.85211 5.1215 3.42773 5.14503ZM10.6826 8.58155C10.2086 8.65789 10.2858 9.04203 10.2861 9.41749V10.1128C10.2862 10.7276 10.2726 11.3924 10.2852 12.0034H8.23047C7.88572 12.0034 7.50038 11.9874 7.15918 12.0288C6.99618 12.0486 6.87208 12.2397 6.86523 12.3911C6.85135 12.5274 6.8533 12.6569 6.85352 12.7925L6.85449 13.395C6.85555 13.9005 6.85396 14.4078 6.85449 14.9116C6.85478 15.1508 6.95101 15.3896 7.21387 15.4136C7.53954 15.4434 7.89084 15.4262 8.21777 15.4282C8.90783 15.4325 9.59844 15.4214 10.2881 15.4302C10.2684 16.0271 10.2872 16.7291 10.2871 17.3374L10.2861 18.021C10.2858 18.1722 10.2777 18.3293 10.2959 18.479C10.3451 18.8828 10.7041 18.8573 11.0059 18.8569C11.7499 18.8561 12.4871 18.8583 13.2305 18.855C13.2528 18.855 13.2747 18.8529 13.2969 18.8511C13.6128 18.8136 13.7094 18.6374 13.71 18.3413C13.7104 18.0667 13.712 17.7908 13.7119 17.5161V15.4351C13.9735 15.42 14.2828 15.4284 14.5488 15.4282L15.9668 15.4273C16.2305 15.4274 16.5359 15.446 16.7939 15.4136C17.2118 15.3609 17.1449 14.8277 17.1445 14.5317L17.1436 13.7476L17.1455 12.9165C17.146 12.6042 17.2189 12.0328 16.7637 12.0181C15.7471 11.9848 14.7259 12.014 13.708 12.0015C13.7182 11.7924 13.7121 11.5368 13.7119 11.3237L13.7109 10.148L13.7119 9.41163C13.7135 9.01106 13.781 8.58442 13.2314 8.57862C12.5634 8.57156 11.8948 8.57642 11.2266 8.5757C11.0473 8.5755 10.8611 8.57107 10.6826 8.58155ZM8.57324 3.42628C8.56762 3.98005 8.58847 4.59168 8.57129 5.1382C8.91101 5.13307 9.27581 5.14011 9.61816 5.14015H15.4229C15.4388 4.5757 15.4133 3.99545 15.4307 3.43605C14.8337 3.43021 14.2366 3.42839 13.6396 3.43116H10.6201L9.27148 3.43214C9.09603 3.43232 8.73696 3.4428 8.57324 3.42628Z" fill="white"/>
</svg>
