<svg width="24" height="24" viewBox="0 0 24 24" fill="none" xmlns="http://www.w3.org/2000/svg">
<path d="M11.6446 0.000732422L21.5 5V7L11.6446 2L2.22836 7V5L11.6446 0.000732422Z" fill="white"/>
<path d="M17.0102 7.02458C16.9168 6.99151 16.7488 6.9921 16.6573 7.02458C16.5658 7.05705 16.4781 7.0768 16.3876 7.11259C16.1235 7.2172 15.8981 7.41269 15.7764 7.66297C15.7116 7.79902 15.6721 7.94499 15.6599 8.0942C15.6559 10.3136 15.6599 7.38129 15.6559 10.0021C15.6582 10.1465 15.6851 10.2834 15.7322 10.4199C15.8042 10.6286 15.9218 10.7249 16.0288 10.894L16.0304 16.1003L16.0306 17.6533C16.0307 18.1833 16.052 18.7624 15.9325 19.2793C15.7579 20.0518 15.3583 20.7606 14.7804 21.3225C13.9853 22.0977 12.9019 22.5361 11.77 22.5404C10.6418 22.5405 9.56029 22.1065 8.76627 21.3351C8.14849 20.7501 7.56095 19.1811 7.56095 19.1811H9.02081L6 14.8695C6 14.8695 6 17.087 6 18.9842C6.28747 21.5576 8.50325 23.7152 11.1884 23.9665C11.2417 23.9714 11.3505 23.9833 11.3986 24H12.1637C12.2622 23.9709 12.4572 23.9574 12.568 23.9435C13.4488 23.833 14.2992 23.5259 15.046 23.0405C16.445 22.1353 17.3683 20.6916 17.5779 19.0819C17.6288 18.6923 17.6249 18.273 17.6251 17.8806V16.5982C17.6249 14.7022 17.6084 12.8055 17.6277 10.9096C17.6279 10.8891 17.7639 10.7148 17.7859 10.6837C17.8395 10.6077 17.8832 10.5256 17.9162 10.4394C17.9629 10.3186 17.9968 10.1569 18 10.0279C18 7.82571 17.9995 10.3136 17.9995 8.13684C17.9843 7.70386 17.716 7.28063 17.2904 7.11902C17.1986 7.08415 17.1036 7.05765 17.0102 7.02458Z" fill="white"/>
</svg>
