<svg width="24" height="24" viewBox="0 0 24 24" fill="none" xmlns="http://www.w3.org/2000/svg">
<g clip-path="url(#clip0_73_925)">
<path d="M14.0644 17.5889C14.3811 17.5891 14.712 17.5737 15.0272 17.5938C15.1082 17.5989 15.2055 17.6209 15.2685 17.666C15.3555 17.7285 15.3888 17.8463 15.3593 17.9375C15.3212 18.054 15.1982 18.1494 15.122 18.25C14.7978 18.6781 14.6161 19.1904 14.6561 19.6992C14.7712 21.16 16.3997 22.1048 17.869 22.6094C18.0431 22.6691 18.6628 22.8148 18.7567 22.9014C18.8145 22.9548 18.8327 23.0557 18.8358 23.125C18.8425 23.2732 18.8628 23.6973 18.8114 23.8242C18.7986 23.8554 18.7692 23.886 18.7421 23.9092C18.6918 23.9522 18.6292 23.9773 18.5585 23.9854C18.4241 24.0004 18.2828 23.9928 18.1474 23.9922C17.9342 23.9909 17.7209 23.9908 17.5077 23.9912H8.05263L5.45498 23.9902C5.04524 23.9901 4.62437 24.0106 4.21572 23.9922C4.1329 23.9884 4.05736 23.9785 3.98818 23.9375C3.91168 23.8919 3.87499 23.8267 3.8622 23.75C3.83818 23.6061 3.82454 23.0127 3.93252 22.9092C4.01998 22.8254 4.77853 22.6236 4.96279 22.5586C5.90496 22.2264 6.84334 21.727 7.45009 21.0215C8.11769 20.2451 8.24767 19.2913 7.69912 18.4365C7.60537 18.2906 7.35153 18.0447 7.32802 17.8945C7.31738 17.8264 7.33435 17.7509 7.38759 17.6973C7.46648 17.6178 7.5805 17.6017 7.69521 17.5918C8.16601 17.5835 8.65802 17.5902 9.13076 17.5898H12.1591L14.0644 17.5889ZM20.0233 13.0039C20.3285 13.0051 20.6585 12.9888 20.9608 13.0137C21.1704 13.031 21.3263 13.2322 21.3192 13.4365C21.3102 13.6994 21.3966 14.0873 21.1337 14.2646C20.9856 14.3566 20.7059 14.3384 20.536 14.3643C20.3424 14.3886 20.1424 14.4073 19.9501 14.4414C18.7574 14.6525 17.4628 15.176 16.7919 16.2021C16.6686 16.3909 16.6168 16.6411 16.3222 16.6543C15.5756 16.6764 14.8288 16.6522 14.0819 16.6592L7.67861 16.6582C7.359 16.655 6.99864 16.6824 6.68252 16.6523C6.48857 16.6337 6.33389 16.4441 6.33291 16.2549C6.33186 16.0566 6.33122 15.8474 6.32998 15.6436C6.32643 15.2148 6.32466 14.7861 6.32607 14.3574L6.329 13.7412C6.3297 13.6158 6.32251 13.4443 6.34658 13.3242C6.42551 12.9325 6.90881 13.0057 7.20986 13.0059L8.07021 13.0068H10.7753L20.0233 13.0039ZM1.07216 13.5234L2.41298 13.5254L3.79873 13.5244C4.0667 13.5241 4.33693 13.519 4.60439 13.5312C4.77098 13.5389 4.95525 13.6105 4.98427 13.7783C5.01147 13.9355 5.003 14.1011 5.00283 14.2607L5.00185 15.0508C5.00222 15.3105 5.01398 15.5752 5.00185 15.834C4.99192 16.0415 4.83349 16.1277 4.63662 16.1621C4.53935 16.1661 4.43913 16.1445 4.35341 16.1025C4.06175 15.9594 3.76705 15.8168 3.47548 15.6738L1.82705 14.8672L0.710837 14.3271C0.523667 14.2358 0.334184 14.1464 0.153219 14.0459C0.0103053 13.9666 -0.0535242 13.8117 0.05361 13.6816C0.144635 13.5713 0.23795 13.5469 0.376852 13.5264C0.564047 13.5143 0.874625 13.5232 1.07216 13.5234ZM12.8046 0C12.61 0.464957 12.5058 0.926 12.5175 1.4375C12.5246 1.82825 12.6019 2.21449 12.745 2.5752C13.1527 3.58941 13.8558 3.85307 14.5761 4.58398C14.9242 4.93722 14.8943 4.95986 15.1415 5.3623C15.5116 5.96438 15.6926 6.46429 15.704 7.2002C15.7204 8.17986 15.3612 9.12543 14.7069 9.82422C13.2333 11.4209 10.375 11.3698 8.9208 9.80273C8.32464 9.16025 7.92307 8.42221 7.80068 7.52734C7.76643 7.27714 7.69472 7.04251 7.70595 6.78418C7.69576 5.75571 8.09866 4.49669 8.79384 3.75586C8.82703 3.75086 8.85867 3.74544 8.89052 3.73438C8.90001 3.77831 8.89903 3.79118 8.9208 3.8291L8.94423 3.80762L8.96474 3.82129C8.75925 4.65803 8.80815 5.51605 9.2372 6.2666C9.34997 6.46376 9.55419 6.85769 9.82802 6.75488C10.2062 6.61275 10.0405 6.30075 9.95498 6.00879C9.57823 4.74737 9.70091 3.37946 10.2948 2.21387C10.8378 1.14669 11.6928 0.350585 12.8046 0ZM11.9979 4.86914C11.7185 5.69855 11.9217 6.12075 12.0614 6.93555C12.1813 7.6359 11.7373 8.31547 11.1347 8.61328C11.0355 8.66316 10.9322 8.70324 10.8261 8.7334C11.3071 9.07828 11.6236 9.3608 12.2753 9.27344C12.4758 9.23918 12.5762 9.18618 12.747 9.07715C12.8525 9.00981 12.9917 8.94001 13.0878 8.8623C13.5623 8.47854 13.7168 7.75781 13.6288 7.1582C13.5271 6.46593 12.8124 6.07816 12.4149 5.58203C12.3198 5.46426 12.0548 4.90004 11.9979 4.86914Z" fill="white"/>
</g>
<defs>
<clipPath id="clip0_73_925">
<rect width="24" height="24" fill="white"/>
</clipPath>
</defs>
</svg>
