<svg width="24" height="24" viewBox="0 0 24 24" fill="none" xmlns="http://www.w3.org/2000/svg">
<path d="M4.45476 21V10.7224H19.4896V21H22.1624V9.56467L11.9722 5.98739L1.7819 9.56467V21H4.45476Z" fill="white"/>
<path d="M11.9722 2L0 6.20189V8.67823H1.11369V7.99685L11.9722 4.19243L22.942 7.99685V8.67823H24V6.20189L11.9722 2Z" fill="white"/>
<path d="M13.5021 12.0127C13.8305 12.0163 14.1592 12.0242 14.4874 12.0381C14.9225 12.0585 15.3334 12.0642 15.6554 12.4072C15.8018 12.5633 15.8904 12.7803 15.9864 12.9707L16.5177 14.0244C16.5959 14.1808 16.7485 14.5106 16.8448 14.6416C16.9155 14.6012 16.9629 14.5454 17.0157 14.4853C17.0118 14.4457 17.0083 14.406 17.006 14.3662C16.9909 14.0994 17.1254 14.0682 17.3624 14.0557C17.7057 14.0382 18.1378 14.0823 18.4171 14.3008C18.5619 14.4142 18.4989 14.6463 18.3692 14.7471C18.2303 14.8549 18.1135 14.9254 17.9405 14.9707C17.7385 15.0233 17.4478 14.9866 17.2862 15.1348C17.1571 15.2532 17.3495 15.4081 17.4278 15.4922C17.5717 15.6466 17.7423 15.774 17.8458 15.9619C17.9054 16.0703 17.9165 16.1758 17.921 16.2978C17.9235 16.6123 17.9222 16.9277 17.922 17.2422V20.0976C17.9221 20.2782 17.925 20.467 17.9181 20.6475C17.9162 20.6974 17.8896 20.7586 17.8546 20.7939C17.7863 20.8625 17.7248 20.8696 17.6319 20.8701C17.3627 20.8713 17.0958 20.8733 16.8263 20.8721C16.658 20.8678 16.4844 20.881 16.3175 20.8594C16.2483 20.8438 16.1679 20.7689 16.1554 20.6973C16.1356 20.5821 16.1414 20.4541 16.1417 20.3369L16.1427 19.7529L13.2013 19.7539L7.86045 19.7529C7.85975 19.9523 7.8609 20.1522 7.86241 20.3516C7.86304 20.554 7.90637 20.862 7.61436 20.8682C7.21892 20.8764 6.82826 20.8687 6.43174 20.8711C6.24868 20.8722 6.09672 20.8463 6.08506 20.6221C6.08164 20.2772 6.08415 19.927 6.08409 19.582L6.08311 17.6221L6.08409 16.749C6.08414 16.5636 6.07396 16.2583 6.10655 16.0898C6.20218 15.5961 7.4541 15.1211 6.21787 14.9941C6.01508 14.9733 5.77555 14.8879 5.6251 14.7412C5.0447 14.1229 6.65584 13.9033 6.94834 14.1465C7.01837 14.205 6.99767 14.4002 6.99327 14.4951C7.03605 14.5433 7.08055 14.599 7.13975 14.625C7.18337 14.6216 7.20803 14.573 7.22764 14.5361C7.29238 14.4145 7.35285 14.2884 7.41416 14.165L7.921 13.1582C8.00149 12.9981 8.13016 12.7228 8.21983 12.5781C8.26015 12.5121 8.30765 12.4501 8.36143 12.3945C8.70363 12.0432 9.14399 12.0542 9.5958 12.0351C10.0145 12.0206 10.4337 12.0112 10.8526 12.0068C11.7357 11.996 12.6191 11.9981 13.5021 12.0127ZM7.08897 15.875C6.61909 15.9762 6.58487 16.4137 6.63975 16.8115C6.64927 16.8805 6.69508 16.9507 6.7462 16.9961C6.85762 17.0218 7.00042 17.0386 7.11534 17.0517C7.57201 17.1038 8.02042 17.2094 8.48155 17.1543C8.67079 17.1284 9.00543 17.1039 8.95225 16.832C8.90963 16.6149 8.77472 16.4694 8.5753 16.3955C8.14462 16.2361 7.72821 16.0524 7.296 15.8994C7.22642 15.8746 7.16111 15.8708 7.08897 15.875ZM16.8058 15.875C16.6721 15.9014 16.5154 15.9693 16.3858 16.0205L15.8878 16.2168C15.6989 16.2911 15.4647 16.3711 15.2882 16.4619C15.1263 16.5452 14.9208 16.9521 15.1593 17.0713C15.2616 17.1275 15.5061 17.1599 15.6261 17.165C16.0353 17.1861 16.3835 17.1165 16.7882 17.0644C16.9077 17.0491 17.1595 17.0216 17.2647 16.9922C17.4122 16.832 17.3834 16.6427 17.379 16.4385C17.372 16.114 17.1313 15.8578 16.8058 15.875ZM11.6124 12.6172C10.7544 12.6235 9.88426 12.618 9.03037 12.6914C8.91909 12.701 8.79059 12.8075 8.74229 12.9043C8.45098 13.4888 8.14343 14.0793 7.86631 14.6699H14.797C15.2405 14.6699 15.6943 14.6654 16.1368 14.6719L15.5411 13.4609C15.1823 12.732 15.2496 12.6519 14.4132 12.6514C14.3004 12.6513 14.1588 12.6436 14.044 12.6406C13.2338 12.621 12.4229 12.6129 11.6124 12.6172Z" fill="white"/>
</svg>
