<svg width="24" height="24" viewBox="0 0 24 24" fill="none" xmlns="http://www.w3.org/2000/svg">
<path d="M5.88066 1.50485C5.95049 1.50201 6.02036 1.50034 6.09025 1.49983L11.8913 1.49953L13.5107 1.49919C14.428 1.49916 15.1235 1.4455 15.8381 2.15805C16.1479 2.46609 16.3604 2.85821 16.4495 3.28586C16.5158 3.60569 16.5012 3.97312 16.5011 4.3035L16.5007 5.3879L16.5002 9.42079C16.6635 9.44752 16.8204 9.48082 16.9777 9.53284C17.8967 9.83157 18.5694 10.622 18.7174 11.5769C18.7697 11.9295 18.751 12.6067 18.751 12.989L18.7506 14.8507C18.7492 15.126 18.6604 15.8037 19.0125 15.8746C19.6329 15.9995 19.5012 15.1785 19.5011 14.7904L19.5001 13.1551V9.30528C19.5001 8.66331 19.5015 8.02126 19.4994 7.37931C19.4988 7.17325 19.4446 6.98986 19.3027 6.83632C19.1368 6.65705 18.9594 6.48635 18.7867 6.31347L17.8051 5.33159C17.487 5.0143 17.1858 4.80527 17.3079 4.29003C17.4317 3.76797 18.1098 3.56963 18.5015 3.9169C18.7574 4.14384 19.02 4.42263 19.2668 4.66934L19.9481 5.35121C20.2269 5.63041 20.5157 5.88625 20.71 6.23248C20.8649 6.50623 20.9595 6.80991 20.9876 7.12319C21.0183 7.44146 21.0005 8.00684 21.0004 8.34856L21.0005 10.6032L21.0008 13.766L21.0011 14.8423C21.0011 15.2188 21.027 15.6907 20.9229 16.0436C20.7726 16.5536 20.444 16.9267 19.9858 17.1826C19.9265 17.2125 19.8543 17.2454 19.7927 17.2696C19.3331 17.4459 18.8226 17.4338 18.372 17.2355C18.1275 17.1267 17.9087 16.9677 17.7297 16.7688C17.279 16.2733 17.2497 15.8132 17.25 15.19L17.2502 14.4652L17.2505 12.6093C17.2517 11.8281 17.3283 11.3134 16.5054 10.9503C16.4923 11.2835 16.5005 11.6604 16.5006 11.996L16.5005 13.8234C16.5004 15.2727 16.4834 16.7554 16.5027 18.2005C16.5643 18.2413 16.6241 18.2848 16.6819 18.3307C17.4627 18.9532 17.2068 19.8233 17.2512 20.697C17.2615 20.9002 17.2508 21.1693 17.2034 21.365C17.149 21.5801 17.0476 21.7804 16.9064 21.9513C16.6538 22.2605 16.288 22.4559 15.8905 22.4941C15.6741 22.5133 15.3531 22.5043 15.1294 22.5042L13.8363 22.5036H9.66143L6.08831 22.5039L5.01996 22.5045C4.8081 22.5045 4.52542 22.5127 4.32 22.4893C4.02616 22.4547 3.74933 22.3331 3.52489 22.1402C3.08961 21.7695 2.98427 21.3218 3.00008 20.7741C3.00961 20.3472 2.98132 19.7677 3.01211 19.3535C3.05217 18.8145 3.34975 18.4965 3.73477 18.1784C3.76211 18.1558 3.75195 17.7812 3.7515 17.6897L3.7503 16.9661L3.75036 14.5443L3.75048 6.86198L3.75 4.6905C3.74974 4.34301 3.73164 3.71898 3.78042 3.39665C3.8463 2.97214 4.03252 2.57541 4.31699 2.2535C4.7213 1.79083 5.27385 1.5477 5.88066 1.50485ZM13.4917 8.99818C13.8702 8.96932 14.1771 8.7577 14.2349 8.35585C14.2648 8.1472 14.2511 7.90339 14.2511 7.69052L14.2502 6.57002L14.2509 5.22098C14.2513 4.97411 14.2543 4.72906 14.2456 4.48194C14.2328 4.12806 13.9719 3.80026 13.6085 3.76849C13.3126 3.74263 13.0026 3.75307 12.703 3.75316L11.1245 3.75391L8.25717 3.75354C7.77957 3.75347 7.24952 3.74232 6.7763 3.75525C5.93149 3.81792 5.99944 4.41351 6.00005 5.0664L6.00107 6.25687L6 7.61243C5.99957 7.94354 5.94226 8.40894 6.14205 8.68844C6.40275 9.05318 6.816 9.00009 7.2093 9.00044C7.29751 9.00096 7.38711 9.00035 7.47588 9.00029L8.98888 8.99942L11.9409 8.99949C12.4534 8.9995 12.9802 9.00576 13.4917 8.99818Z" fill="white"/>
</svg>
