<svg width="24" height="24" viewBox="0 0 24 24" fill="none" xmlns="http://www.w3.org/2000/svg">
<g clip-path="url(#clip0_135_19)">
<path d="M20.6913 4.31976C20.7861 4.35797 21.5035 4.97955 21.6161 5.07893C21.592 5.22262 21.5642 5.42651 21.5126 5.55834C21.2856 5.66865 21.0226 5.73435 20.7966 5.84149C20.7318 5.87223 20.6394 5.96728 20.6128 6.03372C20.5157 6.2759 20.5021 6.57522 20.4312 6.83172L20.426 6.84997C20.2679 6.95035 19.899 7.0475 19.7064 7.14815C19.3838 7.30637 19.4493 7.76014 19.3527 8.05789C19.2618 8.30865 18.8245 8.31777 18.6053 8.45134C18.2828 8.64783 18.3351 9.10203 18.2303 9.44819L18.2254 9.46392C18.0392 9.5759 17.6966 9.65614 17.4954 9.764C17.1867 9.93015 17.2459 10.3996 17.153 10.6754C17.054 10.969 16.3549 10.9283 16.2254 11.2359C16.1179 11.4914 16.1002 11.809 16.0243 12.0808C15.8286 12.1971 15.55 12.2572 15.3395 12.3569C14.9668 12.5334 15.0474 13.0243 14.9217 13.3755L14.9163 13.3904C14.5575 13.5908 14.0214 13.5905 13.95 14.0649C13.9199 14.265 13.872 14.4994 13.8215 14.6947C13.5932 14.831 13.0479 14.9236 12.9254 15.151C12.8101 15.365 12.8043 15.751 12.7174 15.9963L12.7119 16.0115C12.532 16.1032 11.902 16.2773 11.8301 16.44C11.7273 16.6723 11.6879 17.0504 11.6176 17.311C11.3934 17.4553 10.8099 17.5411 10.7046 17.7939C10.6107 18.0192 10.5985 18.3778 10.5098 18.6258C10.2808 18.7643 9.66836 18.8591 9.5851 19.1346C9.53163 19.3115 9.54165 19.6419 9.51308 19.8453C9.38022 19.9226 9.22517 19.9537 9.09884 20.0324C9.0812 19.7096 8.97175 19.2726 8.88781 18.9578C8.84624 18.8019 8.78424 18.6512 8.75204 18.4899C8.85481 18.3412 9.07349 18.0978 9.1971 17.9514L10.0477 16.9434L12.8358 13.6349L18.2417 7.22128C19.0502 6.26394 19.8695 5.2619 20.6913 4.31976Z" fill="white"/>
<path d="M3.38658 13.8557C3.57222 13.9835 3.80264 14.1902 3.98004 14.3398L4.96279 15.1679L5.80935 15.8818C6.0199 16.0596 6.24416 16.2435 6.44043 16.4358C7.35287 17.3277 7.9668 18.4802 8.19788 19.735C8.39865 20.8155 8.30735 21.93 7.93342 22.9633C7.79348 23.3518 7.64428 23.7901 7.21824 23.9318C7.17297 23.9468 7.08139 23.9791 7.04256 24H6.68287L6.67385 23.9957C6.55892 23.9412 6.39025 23.8983 6.29049 23.8239C6.20432 23.7595 6.10163 23.6689 6.01777 23.598L5.50596 23.1657L3.84117 21.7612L1.52832 19.8101L0.80453 19.2007C0.669011 19.0867 0.500589 18.9514 0.374974 18.8313C0.269644 18.7301 0.188703 18.6063 0.138278 18.4692C0.0480672 18.2124 0.0648815 17.9301 0.18494 17.6858C0.26786 17.5158 0.77195 16.9426 0.923966 16.7624L2.28776 15.1457L2.99421 14.3051C3.09321 14.1874 3.28176 13.9498 3.38658 13.8557ZM5.73444 21.38C6.23379 21.6967 6.7888 21.5889 7.11633 21.096C7.36201 20.7262 7.22187 20.0708 7.1234 19.6642C6.89549 18.7247 6.41248 17.8664 5.72764 17.184C5.47024 16.9294 5.17854 16.7051 4.90391 16.4695C4.69928 16.294 4.48779 16.1217 4.28295 15.9469C4.03992 15.7396 3.84171 15.6554 3.5203 15.6834C3.38367 15.6989 3.22075 15.7394 3.11317 15.8282C2.8691 16.0294 2.62764 16.3423 2.4269 16.5883C2.14326 16.9362 1.74767 17.2566 1.81191 17.7469C1.86485 18.1941 2.16655 18.3773 2.48651 18.6462L3.26079 19.2978L4.85815 20.6442C5.1393 20.8814 5.44787 21.1534 5.73444 21.38Z" fill="white"/>
<path d="M17.2758 0H18.075C18.1635 0.0344306 18.4625 0.0660345 18.6009 0.0983279C19.1228 0.214648 19.6187 0.426424 20.0637 0.722988C20.3463 0.908072 20.6801 1.20544 20.9432 1.42724L22.2264 2.50922L23.2664 3.38409C23.4395 3.52928 23.6187 3.67386 23.7857 3.82546C23.9768 3.99885 23.9445 4.27704 23.7823 4.4562C23.4942 4.77449 23.2214 5.33348 22.7355 4.91107C22.6533 4.83952 22.5582 4.76126 22.4739 4.68889C22.3213 4.55766 22.1674 4.42791 22.0123 4.29968L20.5185 3.03973C20.2732 2.83305 20.0224 2.61482 19.7728 2.41472C19.0629 1.84568 18.2127 1.62525 17.315 1.73261C16.6939 1.80688 16.1084 2.06215 15.6312 2.46667C15.3596 2.69899 15.1754 2.93316 14.947 3.20387L14.2842 3.99014L12.0038 6.69435L7.66651 11.8372L6.2387 13.5302C5.98879 13.8265 5.69827 14.1558 5.46116 14.4579C5.34423 14.3796 5.14832 14.2064 5.03814 14.1136L4.30432 13.4937C4.52409 13.2066 4.83493 12.8559 5.07223 12.5748L6.4547 10.9348L10.8128 5.76449L13.2848 2.83059L14.0577 1.91254C14.3827 1.52746 14.6132 1.2309 15.0134 0.917101C15.5176 0.512946 16.11 0.247646 16.7371 0.1008C16.8911 0.0647522 17.1382 0.0482589 17.2758 0Z" fill="white"/>
</g>
<defs>
<clipPath id="clip0_135_19">
<rect width="24" height="24" fill="white"/>
</clipPath>
</defs>
</svg>
