<svg width="24" height="24" viewBox="0 0 24 24" fill="none" xmlns="http://www.w3.org/2000/svg">
<g clip-path="url(#clip0_2_433)">
<path fill-rule="evenodd" clip-rule="evenodd" d="M13.249 6.92871C13.6082 7.03442 14.6541 8.16698 14.9385 8.48535C14.6077 8.80271 14.1872 9.27828 13.8662 9.62012L11.7129 11.9209L5.5791 18.4756L3.60937 20.5781C3.2621 20.9485 2.91937 21.3267 2.55664 21.6816C2.30669 21.9263 2.13737 21.8055 1.92285 21.6123L0.785155 20.4844C0.573338 20.2735 -0.0145778 19.7436 -7.57835e-07 19.5078C0.0167446 19.2437 1.17931 18.2553 1.3916 18.0566L3.71387 15.877L10.3115 9.69824C10.9247 9.13095 11.5341 8.55966 12.1406 7.98535C12.4774 7.67141 12.9474 7.26117 13.249 6.92871ZM15.8271 3.00098C15.9532 3.06196 16.5089 3.90152 16.6562 4.09277C18.2919 6.21278 21.3789 7.5954 24.002 7.90625C23.2082 10.0162 21.6381 11.8012 19.8164 13.0957C19.0014 13.66 18.5353 13.8991 17.6377 14.2754C17.6326 14.1773 17.6214 14.0809 17.6055 13.9834C17.1572 11.2442 15.8918 8.44403 13.6172 6.75098C13.3081 6.52088 13.0196 6.36698 12.7363 6.09961C12.7466 5.91354 14.2216 4.47678 14.4482 4.26953C14.7882 3.95867 15.4185 3.21672 15.7637 3L15.8271 3.00098ZM17.4697 3.10547C17.7568 3.11853 18.5861 3.97089 18.6729 4.26953C18.7346 4.48303 18.2122 5.04593 18.0762 5.05762C17.5824 4.6758 17.1332 4.14707 16.7402 3.66504C17.0395 3.43597 17.0952 3.27581 17.4697 3.10547Z" fill="white"/>
</g>
<defs>
<clipPath id="clip0_2_433">
<rect width="24" height="24" fill="white"/>
</clipPath>
</defs>
</svg>
