<svg width="24" height="24" viewBox="0 0 24 24" fill="none" xmlns="http://www.w3.org/2000/svg">
<g clip-path="url(#clip0_2_428)">
<path d="M20.9421 0.654911C21.058 0.592352 21.1792 0.536466 21.2967 0.479302C21.7473 0.260003 21.9736 0.289136 22.2337 0.722377C22.4186 0.66745 22.6199 0.626842 22.7171 0.840945C22.9146 1.275 23.1021 1.72016 23.3031 2.15353C23.3339 2.22009 23.3413 2.32039 23.3242 2.39182C23.1468 2.5845 21.2284 3.42936 20.8966 3.58374L17.0067 5.39836L14.0858 6.75738C13.6429 6.9635 13.0707 7.25398 12.6315 7.43319C12.6589 7.50685 12.6854 7.59275 12.7107 7.66818C13.676 7.24944 14.7041 6.74839 15.6636 6.30205C17.4756 5.47444 19.2737 4.61657 21.0572 3.72881C21.1843 4.01165 21.3222 4.29483 21.4509 4.57904C21.065 4.78046 20.4065 5.04207 19.9938 5.22658C19.1797 5.59737 18.3675 5.97263 17.5576 6.35222L14.5841 7.73611C14.1669 7.93043 13.531 8.25575 13.1241 8.41507C13.1281 8.49448 13.1381 8.5836 13.1248 8.66198C13.0739 8.95915 12.738 9.20888 12.6343 9.53896C12.4722 10.0554 12.7772 10.396 12.3899 10.9015C12.1687 11.1901 10.9547 12.2883 10.9164 12.5288C10.8879 12.7088 11.1442 13.0252 11.2111 13.2065C11.3039 13.4581 11.357 13.7182 11.3527 13.9868C11.3423 14.6409 11.0188 15.2278 10.5563 15.6755C9.81079 16.3971 8.69776 16.6621 7.76268 16.1431C7.54225 16.0208 7.3135 15.7052 7.04876 15.7094C6.85656 15.7126 6.65939 15.8646 6.52914 15.9968C5.95076 16.5839 5.84084 17.3407 5.84679 18.1297C5.94366 19.3308 6.32069 20.2346 7.06142 21.1669C7.11411 21.2396 7.3491 21.5304 7.26556 21.6208C7.07589 21.8264 6.54021 22.034 6.29519 22.148L4.89197 22.8005L3.42668 23.4832C3.13079 23.621 2.76661 23.8127 2.45277 23.8952C2.40792 23.9071 2.35978 23.9008 2.32885 23.8648C2.20859 23.7252 2.13317 23.381 2.08896 23.2105C1.74438 21.882 1.53943 20.5603 1.59117 19.1864C1.6887 16.6007 2.48729 14.5743 4.37832 12.8021C4.26526 12.5892 4.15703 12.3828 4.05131 12.1662C3.82826 11.7091 4.09353 11.3938 4.25463 10.9661C3.8586 10.717 2.5086 10.026 2.25775 9.74122C3.19799 9.35913 3.53296 10.0744 4.33403 9.7787C4.5908 9.64354 4.6322 9.18465 4.70157 8.94722C4.98847 7.96518 5.93015 7.64314 6.77446 7.27958C7.14629 7.11894 7.51594 6.95326 7.88333 6.78263C8.33554 6.56961 8.78651 6.35392 9.23623 6.13557C9.62508 5.95012 9.86364 5.81799 10.2808 5.70097C10.8589 5.53883 11.2895 5.85173 11.8004 5.61771C12.3542 5.36401 12.9075 5.10276 13.4594 4.84596L16.81 3.28751L19.383 2.09115C19.8116 1.89182 20.3778 1.64833 20.7834 1.4288C20.6501 1.10405 20.6378 0.87226 20.9421 0.654911ZM7.8503 15.5739C8.24064 15.8419 8.59981 15.928 9.07221 15.8398C10.0784 15.6503 10.992 14.6262 10.7856 13.568C10.7023 13.1404 10.42 12.7968 10.0077 12.6482C9.66124 12.5234 9.47683 12.5141 9.14563 12.7011C8.89664 12.9134 8.77403 13.2392 8.74488 13.5599C8.69722 14.0829 9.04279 14.539 9.35342 14.9227C9.42608 15.0125 9.55417 15.1592 9.46733 15.2662C9.36751 15.3005 9.30172 15.2819 9.20589 15.2408C8.95533 15.1333 8.82141 14.8899 8.63569 14.7153C8.38854 14.483 7.97653 14.1691 7.61817 14.2827C7.2925 14.386 7.38153 14.7649 7.46401 15.0103C7.54183 15.238 7.67261 15.4112 7.8503 15.5739ZM10.1149 9.26519C10.1766 9.21857 10.2378 9.17431 10.2953 9.12259C10.3868 8.84468 10.3333 8.66725 10.0584 8.54059C9.81416 8.55348 9.33121 8.78711 9.10368 8.90482C8.5395 9.19669 7.86074 9.43799 7.31635 9.74677C7.22531 9.79561 7.06689 9.89958 7.06063 10.0058C7.03557 10.4304 7.3428 10.5605 7.67204 10.4025C8.47757 10.0159 9.32609 9.67143 10.1149 9.26519ZM10.3795 10.6015C10.5187 10.5366 10.8504 10.4032 10.8692 10.2658C10.9211 9.8871 10.6632 9.65969 10.304 9.81498C10.0207 9.93742 9.78332 10.0449 9.52535 10.1649L8.13138 10.8136C7.98029 10.8871 7.64617 11.0219 7.60872 11.1841C7.54433 11.463 7.76414 11.7651 8.07303 11.6565C8.35672 11.5568 8.60005 11.4315 8.86369 11.3086L10.3795 10.6015ZM9.60775 8.02973C9.84249 7.84378 9.81209 7.50523 9.4856 7.38258C9.4316 7.3623 9.22764 7.43412 9.16712 7.45357C8.58253 7.70773 8.00528 7.98527 7.42686 8.25349C7.1752 8.37018 6.88918 8.49365 6.65237 8.63349C6.38919 8.84437 6.48543 9.22053 6.81701 9.27921C6.88968 9.29207 7.05683 9.22478 7.12961 9.20172C7.71327 8.94174 8.29191 8.66592 8.87134 8.39637C9.10887 8.28587 9.38878 8.16853 9.60775 8.02973Z" fill="white"/>
</g>
<defs>
<clipPath id="clip0_2_428">
<rect width="24" height="24" fill="white"/>
</clipPath>
</defs>
</svg>
