<svg width="24" height="24" viewBox="0 0 24 24" fill="none" xmlns="http://www.w3.org/2000/svg">
<g clip-path="url(#clip0_2_120)">
<path d="M22.4688 0H22.6255L22.6537 0.0205846C22.7051 0.0577066 22.7537 0.0921404 22.7753 0.155153C22.8302 0.315708 22.8336 0.496007 22.8469 0.664247C22.9372 1.76537 22.866 2.8738 22.6354 3.95427C22.1955 5.90516 21.3853 7.75349 20.2487 9.39892C19.9274 9.87275 19.5868 10.3323 19.2108 10.7649C18.7567 11.2871 18.2708 11.7632 17.7831 12.2531L15.8897 14.1565L14.4186 15.6333C14.2764 15.7765 13.7996 16.2771 13.6629 16.3607C13.5264 16.4455 13.3614 16.4716 13.2054 16.4327C12.9356 16.367 12.6387 16.0059 12.4443 15.8094L11.719 15.0866L10.5036 13.8713C10.3096 13.6772 10.034 13.4222 9.87253 13.2041C9.78928 13.0918 9.78372 12.8363 9.8258 12.7007C9.85727 12.5992 9.97001 12.4586 10.0462 12.3802C10.4151 12.0006 10.7893 11.6243 11.1616 11.248L13.4064 8.98441L19.5587 2.79989L21.4504 0.934129C21.6225 0.764177 22.2244 0.144895 22.3836 0.0510309L22.4688 0Z" fill="white"/>
<path d="M2.91264 24C2.76734 23.95 2.60827 23.9189 2.46939 23.8644C1.95781 23.6581 1.54047 23.2701 1.29747 22.7748C0.974758 22.1099 1.06939 21.3736 1.5779 20.834C1.75358 20.6475 1.93524 20.4694 2.11644 20.2885L3.0418 19.363L5.95574 16.4454L7.79146 14.6072L8.34941 14.0481C8.44211 13.9553 8.59893 13.7921 8.69856 13.7145C8.83275 14.0853 9.441 14.6328 9.74036 14.9317L11.0674 16.2566C10.9734 16.3726 10.8392 16.5021 10.7327 16.611L10.1855 17.17C9.22375 18.1534 8.29577 19.1248 7.09562 19.8271C6.77063 20.025 6.41617 20.1773 6.07544 20.3423C5.77829 20.4862 5.45958 20.6179 5.20623 20.8301C5.02539 20.9816 4.81886 21.1687 4.82665 21.4224C4.83301 21.6294 4.86938 21.8284 4.8877 22.0335C4.95828 22.8235 4.41218 23.5937 3.70131 23.8976C3.60137 23.9403 3.45254 23.9558 3.34851 24H2.91264Z" fill="white"/>
</g>
<defs>
<clipPath id="clip0_2_120">
<rect width="24" height="24" fill="white"/>
</clipPath>
</defs>
</svg>
