<svg width="24" height="24" viewBox="0 0 24 24" fill="none" xmlns="http://www.w3.org/2000/svg">
<g clip-path="url(#clip0_136_26)">
<path d="M6.70742 22.8769H17.3207C17.4503 22.8788 17.5781 22.8851 17.6635 22.9014C17.8858 22.9443 17.8179 23.6472 17.7934 23.8115C17.7816 23.8901 17.6759 23.9528 17.6166 23.9834C17.5548 23.995 17.4746 23.9987 17.3939 24H16.5404L14.2562 23.999L9.01406 24C8.11074 24.0001 7.20733 24.0006 6.3041 23.999C6.24361 23.9989 6.05873 23.9913 6.01113 23.9629C5.87953 23.8843 5.86405 23.6376 5.87344 23.5078C5.88968 23.2815 5.80836 22.9842 6.06875 22.8838C6.24208 22.8685 6.526 22.8771 6.70742 22.8769ZM13.5902 17.1924C13.8418 17.1924 14.096 17.1915 14.348 17.1943C14.6748 17.1981 14.6823 17.3536 14.6801 17.6416C14.6791 17.7697 14.6787 17.9086 14.6791 18.0381C14.9263 18.0409 15.1125 18.0973 15.2904 18.2773C15.5532 18.5434 15.526 18.8391 15.5248 19.1846C15.9482 19.1867 16.2033 19.2652 16.5141 19.5596C17.0213 20.0403 16.9451 20.5591 16.9447 21.1914L16.9457 22.3008H14.432L6.72695 22.3017L6.72597 21.2627C6.72575 20.9686 6.70667 20.5232 6.77383 20.2549C6.83547 20.0122 6.95702 19.7881 7.12734 19.6045C7.43091 19.2763 7.72045 19.1984 8.14492 19.1836C8.14601 18.8504 8.14308 18.5479 8.38906 18.2891C8.57824 18.0899 8.74978 18.0463 9.01406 18.04C9.01148 17.7719 8.91671 17.2562 9.24258 17.1933C9.55957 17.1834 9.92178 17.1915 10.2416 17.1914H12.1137L13.5902 17.1924ZM11.7357 19.4853C11.1237 19.5058 10.6435 20.0179 10.6625 20.6299C10.6816 21.2421 11.1929 21.7229 11.8051 21.7051C12.419 21.6869 12.9014 21.1744 12.8822 20.5605C12.863 19.9469 12.3495 19.4652 11.7357 19.4853ZM15.5307 5.05175C15.9693 5.14974 16.3792 5.3497 16.726 5.63573C17.4864 6.26571 17.7105 6.99854 17.7797 7.93847C17.8143 8.40854 17.8516 8.89394 17.891 9.36327L18.2631 13.6426C18.2856 13.7605 18.2972 13.9893 18.3051 14.1133C18.3856 15.29 18.5133 16.451 18.5922 17.626C18.6294 18.1807 18.7436 18.7824 18.6605 19.3271C18.583 19.8541 18.3541 20.3479 18.0023 20.748C17.8606 20.9116 17.7 21.0584 17.5248 21.1855C17.5129 20.8137 17.5485 20.4275 17.4486 20.0674C17.3671 19.7737 17.18 19.3967 16.9457 19.1963C17.032 18.8605 16.9515 18.4999 16.932 18.1582C16.9047 17.6769 16.86 17.1985 16.8148 16.7187L16.7094 15.5596C16.696 15.4006 16.6902 15.2041 16.6723 15.0508C16.6642 14.9918 16.6643 14.9234 16.6625 14.8633C16.6486 14.5064 16.602 14.0994 16.5609 13.7441C16.5575 13.7295 16.5526 13.6493 16.5512 13.6299L16.2318 9.95995C16.1725 9.24758 16.1297 8.52995 16.0561 7.8164C16.0066 7.33683 15.8936 7.16078 15.5258 6.86034C15.524 6.78025 15.5247 6.69435 15.5258 6.61425C15.5334 6.09539 15.5133 5.56991 15.5307 5.05175ZM8.14101 5.05858C8.14748 5.64124 8.15097 6.27706 8.14297 6.86034C8.09483 6.92597 8.0245 6.98354 7.96426 7.03905C7.56445 7.40763 7.63518 7.92076 7.58633 8.42284C7.52847 9.00906 7.47476 9.59569 7.42422 10.1826C7.39882 10.4952 7.38382 10.811 7.35683 11.123L6.88418 16.6631L6.77383 17.8916C6.72445 18.404 6.67533 18.6908 6.71914 19.207C6.12506 19.9427 6.16364 20.2758 6.17226 21.1826C5.95164 21.0602 5.70571 20.7798 5.55312 20.5781C5.21109 20.1261 5.00971 19.5465 5.00039 18.9795C4.9937 18.5266 5.06322 18.0688 5.09902 17.6172C5.16295 16.7226 5.23998 15.8289 5.32949 14.9365C5.33018 14.9034 5.33321 14.8745 5.33633 14.8418C5.34109 14.7823 5.34512 14.7225 5.34902 14.6631C5.3509 14.6056 5.35472 14.5553 5.35976 14.498C5.49679 12.7693 5.645 11.0413 5.8041 9.31444C5.84712 8.82991 5.86489 8.34753 5.92226 7.86132C5.9568 7.56863 5.94905 7.35025 6.03555 7.05468C6.18641 6.52751 6.48569 6.05415 6.89687 5.6914C7.2416 5.39031 7.6902 5.15038 8.14101 5.05858ZM11.8539 13.7666C11.9893 13.9073 12.1682 14.0735 12.2943 14.2129C12.3256 14.2425 12.4137 14.3228 12.4379 14.3516L12.5619 14.4766C12.5855 14.5004 12.6363 14.5495 12.6557 14.5732C13.264 15.182 13.9397 15.8292 14.5287 16.4502C14.3869 16.5083 14.1872 16.5999 14.0375 16.6113C13.7886 16.63 13.5204 16.6251 13.2699 16.625L12.0023 16.624H10.56C10.1871 16.6245 9.68222 16.6665 9.34023 16.5234C9.28235 16.4994 9.22518 16.4729 9.16933 16.4443C9.65463 15.9272 10.2344 15.3689 10.7426 14.8603L11.0668 14.5371L11.2973 14.3076C11.3257 14.2725 11.3939 14.2098 11.4281 14.1758C11.4804 14.1272 11.5372 14.0667 11.5883 14.0156C11.6077 13.9892 11.6635 13.9373 11.6889 13.9121C11.7421 13.8624 11.7954 13.8096 11.8539 13.7666ZM8.74453 10.6426C8.82991 10.7582 8.99762 10.9169 9.10488 11.0234L9.70449 11.6172C10.2854 12.1943 10.8577 12.7858 11.4437 13.3574C11.3548 13.4455 11.2659 13.535 11.1781 13.624C11.0977 13.7058 10.9877 13.8237 10.9057 13.8994C10.7341 14.0667 10.5637 14.2359 10.3949 14.4062L10.2758 14.5303L10.1732 14.6328C10.1275 14.6788 10.08 14.7295 10.0316 14.7724C9.70541 15.1232 9.33604 15.4556 9.00234 15.8008C8.91545 15.8906 8.82548 15.9711 8.74453 16.0674C8.5725 15.8633 8.46948 15.609 8.45058 15.3428C8.43233 15.0841 8.44281 14.7235 8.44277 14.458L8.4418 12.9375L8.44277 11.9238C8.44287 11.4582 8.41536 11.0243 8.74453 10.6426ZM14.9555 10.6465C15.1427 10.9366 15.2435 11.1356 15.2436 11.4814C15.2573 11.6025 15.2515 11.7729 15.2514 11.8984L15.2504 12.5517V13.3555C15.2497 13.4455 15.2548 13.5851 15.2494 13.6709C15.2467 14.1756 15.2459 14.6818 15.2494 15.1865C15.2521 15.574 15.1543 15.7501 14.9555 16.0674C14.6049 15.7018 14.2039 15.3156 13.8422 14.957L13.7533 14.8652C13.4762 14.5916 13.2003 14.3157 12.9262 14.0391L12.7934 13.9043L12.6029 13.7158L12.5463 13.6611C12.4435 13.5589 12.3422 13.455 12.2426 13.3496C12.3567 13.2561 12.5071 13.0968 12.6127 12.9912L13.1928 12.4121C13.7835 11.8272 14.3713 11.2382 14.9555 10.6465ZM10.7221 10.0889L12.225 10.0898L13.265 10.0889C13.8017 10.0886 14.0166 10.0682 14.5277 10.2627C14.4594 10.3607 14.1179 10.6892 14.018 10.7891L12.8353 11.9678C12.5208 12.2771 12.142 12.6419 11.849 12.9639C11.2593 12.344 10.5829 11.6947 9.97207 11.0849L9.49648 10.6113C9.38996 10.5052 9.2596 10.3819 9.16933 10.2646C9.46242 10.1424 9.60552 10.1067 9.92129 10.0918C10.1678 10.0806 10.4703 10.0887 10.7221 10.0889ZM14.3949 7.82714C14.4123 7.89336 14.4066 8.4194 14.4027 8.52245C14.3944 8.7444 14.43 9.21286 14.3686 9.40038C14.2864 9.48361 14.2216 9.51272 14.1049 9.51464C13.8266 9.51901 13.5472 9.51662 13.2689 9.51659H11.6869L10.4467 9.51757C10.2339 9.51776 9.60187 9.53887 9.42324 9.48241L9.33047 9.42675C9.25282 9.20568 9.28778 8.12406 9.29238 7.82128C10.9618 7.82324 12.6652 7.83803 14.3324 7.81835C14.365 7.81746 14.364 7.81696 14.3949 7.82714ZM10.391 8.24999C10.2388 8.26208 10.105 8.35576 10.0404 8.49413C9.97598 8.63278 9.99048 8.79559 10.0795 8.91991C10.1686 9.04412 10.3182 9.11111 10.4701 9.09472C10.7001 9.06949 10.8683 8.86411 10.8471 8.63378C10.8254 8.40334 10.6218 8.23222 10.391 8.24999ZM11.8119 8.24999C11.6596 8.26195 11.525 8.35564 11.4603 8.49413C11.396 8.63274 11.4114 8.79565 11.5004 8.91991C11.5895 9.04407 11.7391 9.11118 11.891 9.09472C12.1209 9.0694 12.2882 8.86406 12.267 8.63378C12.2454 8.40334 12.0427 8.23222 11.8119 8.24999ZM13.391 8.24999C13.2388 8.26205 13.105 8.35574 13.0404 8.49413C12.9759 8.6328 12.9905 8.79556 13.0795 8.91991C13.1686 9.04414 13.3182 9.11114 13.4701 9.09472C13.7001 9.06949 13.8683 8.86414 13.8471 8.63378C13.8254 8.40334 13.6218 8.23222 13.391 8.24999ZM11.3852 2.74608C12.4041 2.68888 15.4718 2.81315 16.0639 3.71972C16.0268 3.79079 16.0178 3.81078 15.9643 3.87011C15.678 3.88632 15.2744 3.87085 14.973 3.87401L14.9721 5.98046C14.9722 6.25367 14.9739 6.52725 14.974 6.80077C14.9741 7.00771 14.9741 7.22617 14.7084 7.24315C14.4526 7.25938 14.1919 7.24918 13.935 7.24901H9.36855C9.08175 7.24906 8.7283 7.3244 8.72109 6.93651C8.71494 6.60485 8.71708 6.27411 8.71719 5.94237L8.71621 3.87597C8.54318 3.87075 7.77927 3.89607 7.68789 3.84276C7.62273 3.75446 7.61572 3.67696 7.70449 3.59276C7.78351 3.51783 7.87616 3.44474 7.97402 3.39354C8.97101 2.87219 10.2946 2.79367 11.3852 2.74608ZM11.7201 0.00780132C12.2157 -0.0520025 12.7134 0.251738 12.8988 0.714833C13.0037 0.977107 12.9805 1.22282 12.9799 1.49999L12.9779 2.20604C12.7854 2.20465 12.6054 2.18056 12.4086 2.18847C12.4037 1.89837 12.4576 1.12498 12.351 0.896473C12.2708 0.725338 12.139 0.650264 11.9691 0.589833C11.7888 0.548264 11.5807 0.60497 11.4486 0.73534C11.3779 0.805186 11.3281 0.893564 11.3051 0.990223C11.2726 1.12246 11.2813 1.37618 11.2816 1.5205C11.2833 1.74116 11.2831 1.96195 11.2807 2.18261C11.0955 2.1856 10.8991 2.19963 10.7133 2.20995C10.7032 1.91916 10.6839 1.13585 10.7396 0.884754C10.7733 0.736269 10.8358 0.595614 10.9242 0.471669C11.1208 0.196293 11.3933 0.0635335 11.7201 0.00780132Z" fill="white"/>
</g>
<defs>
<clipPath id="clip0_136_26">
<rect width="24" height="24" fill="white"/>
</clipPath>
</defs>
</svg>
