<svg width="24" height="24" viewBox="0 0 24 24" fill="none" xmlns="http://www.w3.org/2000/svg">
<g clip-path="url(#clip0_136_26)">
<path d="M6.70748 22.8777H16.9653C17.1515 22.8778 17.4927 22.8685 17.6635 22.9011C17.8861 22.9441 17.8179 23.6487 17.7934 23.8122C17.7814 23.8908 17.6748 23.9526 17.6157 23.9831C17.492 24.0063 17.2968 23.9997 17.1665 23.9997H16.5405L14.2563 23.9988L9.01412 23.9997C8.1108 23.9999 7.20739 24.0003 6.30416 23.9988C6.24365 23.9986 6.05874 23.9911 6.01119 23.9626C5.87973 23.8841 5.86416 23.6384 5.87349 23.5085C5.88988 23.2822 5.80826 22.985 6.06881 22.8845C6.24214 22.8692 6.52605 22.8778 6.70748 22.8777ZM13.5903 17.1921C13.8419 17.1921 14.0961 17.1913 14.3481 17.1941C14.6748 17.1978 14.6823 17.3535 14.6801 17.6413C14.6792 17.7693 14.6788 17.9084 14.6792 18.0378C14.9263 18.0406 15.1126 18.0971 15.2905 18.2771C15.5532 18.5431 15.5261 18.8389 15.5249 19.1843C15.9482 19.1864 16.2034 19.265 16.5141 19.5593C17.0213 20.04 16.9452 20.559 16.9448 21.1911L16.9458 22.3005H14.4321L6.72701 22.3015L6.72603 21.2624C6.7258 20.9684 6.70675 20.5229 6.77388 20.2546C6.83555 20.0119 6.95709 19.7878 7.1274 19.6042C7.43096 19.2761 7.72051 19.1982 8.14498 19.1833C8.14607 18.8502 8.14312 18.5476 8.38912 18.2888C8.57829 18.0897 8.74983 18.046 9.01412 18.0398C9.01149 17.7716 8.91677 17.2558 9.24263 17.1931C9.55963 17.1831 9.92183 17.1913 10.2417 17.1911H12.1137L13.5903 17.1921ZM11.7358 19.4851C11.1238 19.5055 10.6437 20.0177 10.6626 20.6296C10.6817 21.2419 11.1929 21.7227 11.8051 21.7048C12.4191 21.6867 12.9015 21.1741 12.8823 20.5603C12.8629 19.9467 12.3495 19.4649 11.7358 19.4851ZM15.5307 5.05149C15.9694 5.14948 16.3793 5.34945 16.726 5.63547C17.4865 6.26547 17.7105 6.99825 17.7797 7.93821C17.8144 8.40825 17.8507 8.89371 17.8901 9.36301L18.2631 13.6423C18.2857 13.7601 18.2972 13.9889 18.3051 14.113C18.3856 15.2898 18.5133 16.4516 18.5922 17.6267C18.6295 18.1814 18.7438 18.7831 18.6606 19.3279C18.583 19.8547 18.354 20.3477 18.0024 20.7478C17.8606 20.9114 17.7001 21.0581 17.5249 21.1853C17.513 20.8135 17.5485 20.4272 17.4487 20.0671C17.3672 19.7735 17.18 19.3974 16.9458 19.197C17.0322 18.8611 16.9515 18.4998 16.9321 18.1579C16.9047 17.6767 16.86 17.1982 16.8149 16.7185L16.7094 15.5593C16.6961 15.4003 16.6903 15.2039 16.6723 15.0505C16.6643 14.9915 16.6644 14.9231 16.6626 14.863C16.6487 14.5062 16.6021 14.0991 16.561 13.7439C16.5576 13.7287 16.5527 13.6487 16.5512 13.6296L16.2319 9.96067C16.1725 9.24809 16.1298 8.5299 16.0561 7.81614C16.0066 7.33658 15.8936 7.16052 15.5258 6.86008C15.524 6.78013 15.5247 6.69494 15.5258 6.61497C15.5335 6.09591 15.5133 5.56986 15.5307 5.05149ZM8.14107 5.05833C8.14754 5.64097 8.15103 6.27681 8.14303 6.86008C8.09489 6.92575 8.02459 6.98326 7.96431 7.03879C7.56437 7.40738 7.63524 7.92045 7.58638 8.42258C7.5285 9.00904 7.47484 9.59618 7.42428 10.1833C7.39888 10.4959 7.38292 10.8117 7.35592 11.1238L6.88424 16.6628L6.77388 17.8923C6.7245 18.4046 6.67535 18.6914 6.7192 19.2077C6.12526 19.9433 6.1637 20.2756 6.17232 21.1823C5.95167 21.0599 5.70577 20.7795 5.55318 20.5779C5.21116 20.1258 5.00976 19.5462 5.00045 18.9792C4.99378 18.5264 5.06329 18.0685 5.09908 17.6169C5.16301 16.7223 5.24004 15.8287 5.32955 14.9363C5.33024 14.9032 5.33327 14.8742 5.33638 14.8415C5.34114 14.7821 5.34518 14.7222 5.34908 14.6628C5.35096 14.6055 5.35479 14.5549 5.35982 14.4978C5.49684 12.7691 5.64507 11.0409 5.80416 9.31419C5.84717 8.82965 5.86494 8.34727 5.92232 7.86106C5.95685 7.56848 5.94921 7.35081 6.0356 7.0554C6.18644 6.52807 6.48565 6.05496 6.89693 5.69212C7.24171 5.39088 7.6901 5.15015 8.14107 5.05833ZM11.854 13.7673C11.9894 13.9079 12.1684 14.0744 12.2944 14.2136C12.326 14.2436 12.414 14.3237 12.4379 14.3523L12.562 14.4773C12.5857 14.5012 12.6365 14.5504 12.6557 14.574C13.2639 15.1827 13.9399 15.8301 14.5288 16.4509C14.387 16.509 14.1872 16.6006 14.0376 16.612C13.7887 16.6307 13.5204 16.6258 13.27 16.6257L12.0024 16.6247H10.56C10.1872 16.6252 9.68227 16.6671 9.34029 16.5241C9.28253 16.5001 9.22513 16.4735 9.16939 16.445C9.65476 15.9278 10.2343 15.3698 10.7426 14.8611L11.0669 14.5378L11.2973 14.3083C11.3255 14.2733 11.3939 14.2106 11.4282 14.1765C11.4806 14.1279 11.5371 14.0675 11.5883 14.0163C11.6074 13.9901 11.6634 13.9381 11.6889 13.9128C11.7423 13.8631 11.7954 13.8104 11.854 13.7673ZM8.74459 10.6433C8.83007 10.7589 8.99781 10.9178 9.10494 11.0241L9.70455 11.6179C10.2853 12.1949 10.8579 12.7867 11.4438 13.3581C11.3548 13.4463 11.2661 13.5356 11.1782 13.6247C11.0976 13.7067 10.9877 13.8244 10.9057 13.9001C10.734 14.0675 10.5638 14.2365 10.395 14.407L10.2758 14.531L10.1733 14.6335C10.1274 14.6796 10.0801 14.7302 10.0317 14.7732C9.70535 15.124 9.33619 15.4562 9.0024 15.8015C8.91538 15.8915 8.82564 15.9716 8.74459 16.0681C8.57262 15.8641 8.46961 15.6096 8.45064 15.3435C8.43236 15.085 8.44286 14.7243 8.44283 14.4587L8.44185 12.9382L8.44283 11.9245C8.44295 11.4587 8.41532 11.0251 8.74459 10.6433ZM14.9555 10.6472C15.1426 10.9372 15.2437 11.1362 15.2436 11.4822C15.2573 11.6033 15.2516 11.7737 15.2514 11.8991L15.2504 12.5525V13.3562C15.2497 13.4464 15.2549 13.586 15.2495 13.6716C15.2468 14.1763 15.2459 14.6825 15.2495 15.1872C15.2521 15.5746 15.1545 15.7506 14.9555 16.0681C14.6051 15.7026 14.2039 15.3162 13.8422 14.9577L13.7534 14.8659C13.4763 14.5924 13.2002 14.3163 12.9262 14.0398L12.7934 13.905L12.603 13.7165L12.5463 13.6618C12.4437 13.5597 12.3422 13.4556 12.2426 13.3503C12.3568 13.2569 12.507 13.0977 12.6128 12.9919L13.1928 12.4128C13.7837 11.8278 14.3712 11.239 14.9555 10.6472ZM10.7221 10.0896L12.2251 10.0906L13.2651 10.0896C13.8018 10.0893 14.0167 10.0689 14.5278 10.2634C14.4593 10.3616 14.1175 10.6904 14.018 10.7898L12.8354 11.9685C12.5208 12.2779 12.1421 12.6425 11.8491 12.9646C11.2595 12.3449 10.5828 11.6953 9.97213 11.0857L9.49654 10.612C9.39014 10.506 9.25965 10.3825 9.16939 10.2654C9.46265 10.1431 9.60549 10.1074 9.92135 10.0925C10.1679 10.0813 10.4704 10.0894 10.7221 10.0896ZM14.395 7.8259C14.4125 7.89021 14.4067 8.41803 14.4028 8.52219C14.3945 8.74409 14.4299 9.21245 14.3686 9.40012C14.2864 9.48335 14.2217 9.51246 14.1049 9.51438C13.8266 9.51876 13.5473 9.51636 13.269 9.51633H11.687L10.4458 9.51731C10.2324 9.51753 9.60138 9.53773 9.4233 9.48118L9.33053 9.42551C9.25313 9.20293 9.28787 8.12197 9.29244 7.82004C10.9619 7.822 12.6653 7.83777 14.3325 7.81809C14.365 7.8172 14.3641 7.81574 14.395 7.8259ZM13.8129 8.25169C13.4301 8.35872 13.4793 9.08024 13.8647 9.1052C13.986 9.03878 14.0585 8.96647 14.0962 8.83079C14.1614 8.59373 14.0987 8.27574 13.8129 8.25169ZM9.81685 8.25169C9.42538 8.43184 9.5431 9.10947 9.88814 9.10227C9.98587 9.06017 10.0653 8.9876 10.1001 8.88645C10.187 8.63224 10.1405 8.26825 9.81685 8.25169ZM11.812 8.24973C11.6597 8.26167 11.525 8.35545 11.4604 8.49387C11.3961 8.63245 11.4115 8.7954 11.5004 8.91965C11.5896 9.04381 11.7392 9.10995 11.8911 9.09348C12.1211 9.06807 12.2885 8.86298 12.267 8.63254C12.2451 8.40245 12.0425 8.23198 11.812 8.24973ZM11.3852 2.7468C12.4041 2.68961 15.4717 2.81301 16.0639 3.71946C16.0268 3.79053 16.0178 3.81052 15.9643 3.86985C15.678 3.88607 15.2745 3.87059 14.9731 3.87376L14.9721 5.9802C14.9722 6.25341 14.974 6.52699 14.9741 6.80051C14.9742 7.00751 14.9742 7.22588 14.7085 7.2429C14.4527 7.25912 14.192 7.2499 13.935 7.24973L12.3286 7.24876H10.0434L9.36861 7.24973C9.08188 7.24978 8.72854 7.32478 8.72115 6.93723C8.71498 6.60542 8.71713 6.274 8.71724 5.94212L8.71627 3.87571C8.54329 3.87049 7.77933 3.89679 7.68795 3.84348C7.62253 3.75506 7.61585 3.67775 7.70455 3.59348C7.7836 3.5185 7.87615 3.44451 7.97408 3.39329C8.97106 2.87199 10.2947 2.79439 11.3852 2.7468ZM11.7192 0.00754486C12.2148 -0.0524846 12.7133 0.251439 12.8989 0.714576C13.0038 0.976993 12.9805 1.22335 12.9799 1.50071L12.978 2.20579C12.7854 2.2044 12.6055 2.18031 12.4087 2.18821C12.4038 1.89802 12.4577 1.12451 12.351 0.896217C12.2709 0.725173 12.139 0.650967 11.9692 0.590553C11.7889 0.548997 11.5808 0.604798 11.4487 0.735084C11.378 0.80488 11.3282 0.893387 11.3051 0.989967C11.2726 1.12214 11.2814 1.37588 11.2817 1.52024C11.2833 1.74107 11.2832 1.96251 11.2807 2.18333C11.0954 2.18632 10.8983 2.20034 10.7124 2.21067C10.7023 1.92018 10.6839 1.1356 10.7397 0.884498C10.7734 0.736047 10.8359 0.595332 10.9243 0.471412C11.1207 0.196269 11.3927 0.0633129 11.7192 0.00754486Z" fill="white"/>
</g>
<defs>
<clipPath id="clip0_136_26">
<rect width="24" height="24" fill="white"/>
</clipPath>
</defs>
</svg>
