<svg width="24" height="24" viewBox="0 0 24 24" fill="none" xmlns="http://www.w3.org/2000/svg">
<path d="M23.5 22.5017H0.500038V13.0017H23.5V22.5017ZM14.7871 14.3552H9.85551C9.29153 14.3554 8.66216 14.3421 8.10355 14.363C8.045 14.3944 7.93229 14.4599 7.9268 14.5437C7.88522 15.2032 7.91301 15.8922 7.91019 16.5554C7.90936 16.7503 7.96003 16.8724 8.14164 16.8757C8.51719 16.9174 8.91236 16.9016 9.29008 16.9011L11.4873 16.9001H14.3995C14.7687 16.9001 15.5737 16.9237 15.9082 16.8855C15.9831 16.8548 16.0386 16.8266 16.0704 16.7429C16.1216 16.6062 16.1095 14.9565 16.0928 14.7126C16.0878 14.6377 16.0813 14.5277 16.042 14.4636C15.998 14.3929 15.845 14.3795 15.7686 14.3699C15.4498 14.3302 15.1092 14.3552 14.7871 14.3552ZM23.377 11.9998L0.66703 11.9871L4.16898 0.999756H20.2266L23.377 11.9998Z" fill="white"/>
</svg>
