<svg width="24" height="24" viewBox="0 0 24 24" fill="none" xmlns="http://www.w3.org/2000/svg">
<path d="M7.28906 17.2099C8.43608 17.1079 9.44859 17.9555 9.55078 19.1025C9.65287 20.2494 8.80608 21.2618 7.65918 21.3642C6.51197 21.4666 5.49881 20.6199 5.39648 19.4726C5.29427 18.3253 6.14176 17.312 7.28906 17.2099ZM16.3389 17.2099C17.4866 17.1078 18.5003 17.9566 18.6016 19.1044C18.7027 20.2519 17.8537 21.2646 16.7061 21.3652C15.5593 21.4657 14.5474 20.6173 14.4463 19.4706C14.3451 18.324 15.1924 17.312 16.3389 17.2099ZM1.39941 8.33781H23.1943C23.5137 8.33806 23.7639 8.41305 23.9199 8.71867C23.952 8.78154 23.9704 8.85026 24 8.9091V9.1757L23.9961 9.18449C23.9655 9.24856 23.9448 9.31942 23.916 9.37883C23.8471 9.52113 23.6979 9.64682 23.5488 9.69914C23.3758 9.75963 23.0759 9.75829 22.8916 9.74699L21.752 15.412L21.3906 17.2118C21.3461 17.433 21.2676 17.8936 21.209 18.0868C21.4239 18.0919 21.6397 18.0932 21.8545 18.0907C22.017 17.6761 22.4116 17.4912 22.8232 17.6679C22.985 17.7378 23.1117 17.871 23.1738 18.0361C23.2582 18.2547 23.229 18.6127 23.2314 18.8525C23.2337 19.076 23.2513 19.3801 23.1611 19.5839C23.0866 19.7511 22.9473 19.8816 22.7754 19.9443C22.462 20.0599 22.133 19.9589 21.9463 19.6816C21.9077 19.6244 21.8864 19.5696 21.8564 19.5077C21.4893 19.4892 21.0718 19.5049 20.7002 19.5009C20.56 19.4995 20.1349 19.4912 20.0127 19.5038C20.0146 19.4405 20.0165 19.3769 20.0166 19.3134C20.0192 17.3871 18.5124 15.8498 16.5938 15.7997C15.6768 15.7788 14.7884 16.1223 14.124 16.7548C13.4482 17.3903 13.0561 18.2707 13.0342 19.1982C13.0317 19.2984 13.0322 19.3987 13.0361 19.4989C12.3711 19.5036 11.6262 19.5143 10.9639 19.498C10.9656 19.4346 10.9679 19.3709 10.9678 19.3075C10.9653 17.3809 9.45699 15.8454 7.53418 15.7997C6.61211 15.7812 5.72046 16.1312 5.05664 16.7714C4.38871 17.4076 4.00268 18.2847 3.98438 19.207C3.98348 19.3044 3.98385 19.4024 3.98633 19.4999L2.72559 19.5009C2.5537 19.501 2.31096 19.5121 2.14941 19.5048C2.08291 19.6336 2.02721 19.7404 1.91309 19.8339C1.67934 20.0255 1.3822 20.0389 1.12012 19.8945C0.965038 19.8101 0.850644 19.6669 0.802734 19.497C0.748368 19.2987 0.767074 18.9719 0.767578 18.7655C0.768142 18.5282 0.736123 18.1372 0.869141 17.9374C1.20892 17.4289 1.91953 17.5172 2.13867 18.081C2.33092 18.0997 2.58847 18.092 2.79004 18.0966C2.75429 17.9722 2.72172 17.7868 2.69531 17.6552L2.54883 16.9277L2.08887 14.6366L1.44727 11.4452C1.34023 10.9125 1.19473 10.2796 1.11426 9.75578C0.758716 9.73518 0.438354 9.80362 0.173828 9.51262C0.0439475 9.36951 0.0712454 9.30997 0 9.18938V8.88664C0.0315589 8.83282 0.0471313 8.78165 0.0742188 8.72649C0.18596 8.49912 0.366692 8.36535 0.62207 8.34758C0.880154 8.32966 1.14034 8.33771 1.39941 8.33781ZM14.5439 3.00578C14.7498 2.98202 15.1296 3.03765 15.3496 3.06145L16.5742 3.19524L17.917 3.34074C18.185 3.36956 18.4501 3.39551 18.7168 3.43547C19.0773 3.4895 19.2169 3.75736 19.4111 4.02824L19.8779 4.67863C20.4196 5.43387 20.9763 6.19402 21.5078 6.955L19.7988 6.96281H17.3027C16.8782 6.96298 16.3272 6.98048 15.916 6.955C15.8578 6.71388 15.7608 6.42804 15.6855 6.18645C15.6156 5.96165 15.542 5.68522 15.4531 5.4716C14.9261 4.20546 13.8638 4.24968 12.8193 3.81633C12.9306 3.7897 13.0861 3.6978 13.1943 3.6425L13.8789 3.29777C14.0592 3.20734 14.3585 3.04115 14.5439 3.00578ZM7.55566 3.19328C7.84214 3.18817 8.21002 3.42253 8.46484 3.55559L9.60742 4.15422C9.74484 4.22624 10.1047 4.42597 10.2314 4.47453C10.5109 4.58161 10.8886 4.69308 11.1816 4.78606L12.9424 5.34563C13.2227 5.4341 13.5642 5.52959 13.8291 5.64543C14.1205 5.77311 14.1948 6.11448 14.2803 6.39641C14.3356 6.58379 14.3933 6.77102 14.4531 6.95695C13.8152 6.9729 13.1383 6.96275 12.498 6.96281H4.31738L2.87109 6.96379C2.72189 6.96382 2.30806 6.97232 2.17383 6.95695C2.15726 6.90943 2.18539 6.75697 2.2002 6.70988C2.30613 6.37276 2.33057 5.71204 2.5498 5.44817C2.61423 5.37058 2.69544 5.30856 2.78711 5.26652C2.91677 5.20669 3.15258 5.1578 3.2998 5.12102L4.05762 4.93059C4.21209 4.89166 4.70944 4.77825 4.82617 4.71574C4.9923 4.62677 5.28425 4.44702 5.45605 4.34465L6.70898 3.59856C6.95537 3.4517 7.27425 3.21963 7.55566 3.19328Z" fill="white"/>
</svg>
