<svg width="24" height="24" viewBox="0 0 24 24" fill="none" xmlns="http://www.w3.org/2000/svg">
<g clip-path="url(#clip0_33_541)">
<path d="M21.2881 14.0049C21.6874 14.0049 22.7666 13.9746 23.08 14.0645C23.3796 14.1508 23.6341 14.3514 23.7871 14.623C24.0511 15.0983 23.9963 15.5419 23.9941 16.0664V17.3535L23.9951 19.3633C23.997 20.9437 24.1453 22.2125 22.5332 23.0967C22.2605 23.2351 21.9649 23.3234 21.6611 23.3574C21.3109 23.3934 20.783 23.3797 20.4189 23.3799L18.3886 23.3789H5.4277L3.55856 23.3799C3.15407 23.3803 2.69747 23.3993 2.29977 23.3525C1.09974 23.2107 0.109997 22.1674 0.0253573 20.9619C-0.00439019 20.5374 0.00478412 20.1105 0.00484952 19.6836L0.00582609 17.5459V16.0947C0.00321481 15.3916 -0.0862023 14.6678 0.58981 14.2197C0.815707 14.0703 0.991324 14.0371 1.25094 14.0127C1.43844 13.9951 1.80548 14.0049 2.00485 14.0049L3.34762 14.0059L7.65231 14.0068L18.75 14.0059L21.2881 14.0049ZM8.72555 15.3477C8.17334 15.3477 7.72567 15.7955 7.72555 16.3477V16.8477C7.72555 17.3999 8.17327 17.8477 8.72555 17.8477H15.7256C16.2777 17.8474 16.7256 17.3998 16.7256 16.8477V16.3477C16.7254 15.7956 16.2776 15.3479 15.7256 15.3477H8.72555ZM19.4463 1C20.3386 0.999998 21.1233 1.59139 21.3691 2.44922L24.0234 11.7148C24.2064 12.3539 23.7262 12.9904 23.0615 12.9902L0.999967 12.9785C0.323489 12.9779 -0.157358 12.3194 0.0478183 11.6748L3.00583 2.39258C3.27023 1.56334 4.04074 1.00017 4.9111 1H19.4463ZM19.2763 9.70898H7.64254L4.93844 9.70801C4.49446 9.70798 3.93944 9.68607 3.50192 9.71582C3.09229 10.0321 3.28223 10.5703 3.56051 10.6064C3.86842 10.6456 4.41679 10.6115 4.72946 10.6113H8.2236L16.2851 10.6123H18.916C19.419 10.6124 19.9866 10.6315 20.4824 10.5967C20.8825 10.3342 20.6747 9.7576 20.4218 9.72168C20.1143 9.67812 19.5915 9.70885 19.2763 9.70898ZM18.5732 6.35449H8.13864L5.71774 6.35352C5.25804 6.35334 4.74425 6.33689 4.28805 6.36523C3.91958 6.66554 4.15509 7.22363 4.39743 7.23633C4.77434 7.2544 5.27927 7.23654 5.65426 7.23633L9.40133 7.23535H16.4199L18.5107 7.2373C18.7966 7.23827 19.3809 7.26581 19.6504 7.22168C20.0094 6.96261 19.8945 6.42112 19.6211 6.36816C19.3644 6.31893 18.8435 6.35439 18.5732 6.35449ZM5.58786 2.96777C5.29884 3.23735 5.30202 3.73993 5.6611 3.85059C5.77329 3.88494 6.02702 3.86051 6.15622 3.86035L7.16403 3.8584L10.4736 3.85742H15.6836L17.3437 3.85938C17.6755 3.85968 18.0642 3.87324 18.3896 3.8418C18.6891 3.58903 18.6132 3.01523 18.3515 2.97754C18.0416 2.93339 17.6388 2.96098 17.3173 2.96094H14.79L8.80465 2.96191C7.7479 2.96184 6.64172 2.93606 5.58786 2.96777Z" fill="white"/>
</g>
<defs>
<clipPath id="clip0_33_541">
<rect width="24" height="24" fill="white"/>
</clipPath>
</defs>
</svg>
