<svg width="24" height="24" viewBox="0 0 24 24" fill="none" xmlns="http://www.w3.org/2000/svg">
<g clip-path="url(#clip0_129_1526)">
<path d="M24 4.78124C23.6318 5.13679 23.5373 5.44955 22.96 5.11069C22.8666 5.05593 22.694 4.98259 22.5898 4.93273C22.7066 5.21941 22.8654 5.44912 22.9998 5.72666C22.8542 5.96146 22.6493 6.17421 22.4869 6.42983C22.1266 6.01324 21.6907 5.62108 21.31 5.22089C20.7747 4.6582 20.3523 4.44384 20.3329 3.609C19.9473 3.25228 19.3176 2.64086 18.8709 2.40436C18.7563 2.34368 18.6175 2.29868 18.4897 2.34471C18.4139 2.37196 18.3538 2.43599 18.3068 2.49914C17.9041 3.04076 18.4887 4.12436 18.5533 4.72415C18.5873 5.04085 18.5373 5.35773 18.3935 5.64353C18.1456 6.1363 16.419 7.76349 15.9368 8.24246L12.6398 11.5152L7.98428 16.1223L6.3994 17.6789C6.27577 17.7998 6.14001 17.924 6.02166 18.0476C5.17309 18.9358 4.11272 19.5545 3.16627 20.3314C2.69791 20.7159 2.33963 21.1826 1.84415 21.5263C1.58374 21.7069 1.25508 21.8221 0.95376 21.922C0.84006 21.9509 0.72116 21.9751 0.606104 22C0.385033 21.834 0.0138714 21.3778 8.28028e-05 21.0889C-0.00398598 21.0047 0.139098 20.7979 0.18815 20.7237C0.705111 19.9439 1.53289 19.6697 2.31726 19.237C2.64095 19.0602 2.95402 18.8648 3.25488 18.6517C4.28813 17.9307 5.04876 17.1374 5.93705 16.2618L8.44504 13.7889L13.9782 8.32165C14.8762 7.43241 15.7746 6.54267 16.6718 5.65267C16.7866 5.53873 16.9992 5.29622 17.071 5.1529C17.308 4.6816 17.0118 4.20946 16.8944 3.74579C16.6976 2.96818 16.8347 2.0871 17.4156 1.49797C17.7442 1.1648 18.1884 1 18.6571 1C19.257 0.999977 19.7912 1.2979 20.2407 1.66809C20.5668 1.93509 20.8446 2.25663 21.1762 2.51713C21.3258 2.63459 21.5103 2.68641 21.6858 2.75025C21.8065 2.79415 21.9763 2.85021 22.0787 2.92751C22.3638 3.14269 22.6197 3.41294 22.8727 3.6643L24 4.78124Z" fill="white"/>
</g>
<defs>
<clipPath id="clip0_129_1526">
<rect width="24" height="24" fill="white"/>
</clipPath>
</defs>
</svg>
