<svg width="24" height="24" viewBox="0 0 24 24" fill="none" xmlns="http://www.w3.org/2000/svg">
<path d="M10.7798 8.5498H13.4292L15.5757 8.54883C15.9776 8.5488 16.3761 8.54766 16.7798 8.55664C17.2959 8.56812 17.5844 8.80598 17.5972 9.34668C17.6064 9.74261 17.6005 10.1447 17.6001 10.542L17.5972 13.5898V20.0176L17.5981 22.1338C17.5983 22.4868 17.6056 22.8438 17.5972 23.1963C17.587 23.6171 17.4001 23.9096 16.9761 23.9854C16.4563 24.0069 15.8476 23.9924 15.3198 23.9922L12.3384 23.9912L10.3813 23.9922C10.01 23.9932 9.59498 24.0139 9.22901 23.9795C8.48136 23.9088 8.59616 23.0674 8.59619 22.5586V11.9258C8.59573 11.0558 8.5879 10.184 8.60596 9.31445C8.61572 8.85949 8.85421 8.59087 9.31397 8.55469C9.77876 8.5375 10.3113 8.54971 10.7798 8.5498ZM16.0356 20.9795C15.7216 20.7656 14.916 20.8037 14.5425 20.8369C13.3908 20.9948 13.3986 22.9044 14.5796 22.9521C14.9444 22.9667 15.3262 22.9732 15.6899 22.9404C16.3401 22.8413 16.571 22.2468 16.4702 21.6592C16.4221 21.384 16.2652 21.1387 16.0356 20.9795ZM12.0796 21.002C11.7375 20.75 11.0247 20.8177 10.5903 20.8369C9.37066 20.9941 9.40786 22.9456 10.6519 22.9531C10.9928 22.9551 11.3394 22.98 11.6812 22.9443C12.34 22.8596 12.5729 22.2702 12.4849 21.6758C12.4451 21.4063 12.2991 21.1635 12.0796 21.002ZM10.6069 18.8994C10.4245 18.9042 10.1739 18.8852 10.0337 18.9902C9.96233 19.0912 9.95785 19.2079 10.0464 19.2998C10.2186 19.3808 10.7544 19.3719 10.9663 19.3701C12.5278 19.3569 14.0971 19.3913 15.6577 19.3672C15.8329 19.3575 16.013 19.3533 16.1841 19.3154C16.1982 19.2101 16.2196 19.1079 16.1909 19.0059C16.0808 18.8736 15.3989 18.8926 15.2007 18.8955C13.6755 18.9179 12.13 18.8614 10.6069 18.8994ZM10.2231 17.3896C10.1493 17.4034 10.0578 17.4097 10.0112 17.4756C9.97855 17.5223 9.97226 17.5735 9.98194 17.6289C9.99383 17.6962 10.0174 17.7849 10.0757 17.8262C10.1948 17.9072 15.4668 17.8874 16.0103 17.8564C16.1195 17.8259 16.1027 17.8469 16.1733 17.7734C16.2128 17.6423 16.2187 17.5855 16.1763 17.4551C16.0546 17.3541 15.3833 17.3787 15.1968 17.3818C13.5549 17.4096 11.8598 17.3498 10.2231 17.3896ZM16.1177 15.917C15.9738 15.8502 10.7663 15.8589 10.2046 15.8887C10.1209 15.9024 10.0656 15.9027 10.0083 15.9639C9.97326 16.0463 9.97345 16.1335 10.0073 16.2168C10.0298 16.2714 10.0611 16.3088 10.1167 16.3311C10.3511 16.4239 15.3356 16.3848 15.9858 16.3594C16.0634 16.3406 16.129 16.3391 16.1792 16.2695C16.2235 16.2068 16.2095 16.0601 16.1899 15.9893C16.1788 15.9498 16.1544 15.9348 16.1177 15.917ZM12.9731 10.0674C12.2316 10.0681 11.4575 10.0201 10.7202 10.0801C10.3962 10.1787 10.2582 10.3534 10.2378 10.7061C10.2162 11.0826 10.2488 11.4675 10.2427 11.8447C10.2456 12.3155 10.2245 12.7873 10.2407 13.2578C10.255 13.6663 10.4416 13.8952 10.8618 13.9082C11.1721 13.9177 11.4816 13.9141 11.7915 13.9141L13.4878 13.9131C13.8952 13.9126 15.1697 13.9366 15.5142 13.8818C15.6486 13.8519 15.7503 13.8158 15.8276 13.6953C15.8984 13.5846 15.9332 13.4537 15.9478 13.3242C15.9774 13.0571 15.975 10.7126 15.9312 10.5127C15.9054 10.3997 15.8366 10.2482 15.7358 10.1826C15.6214 10.1088 15.429 10.0853 15.2944 10.0752C14.5587 10.0198 13.719 10.0666 12.9731 10.0674ZM18.1362 10.0576C18.3434 10.0579 18.6259 10.0286 18.811 10.1289C18.8866 10.17 18.9254 10.2226 18.9497 10.3047C19.0425 10.6186 19.0243 12.6162 18.9712 12.9922C18.957 13.0922 18.9242 13.1718 18.8755 13.2598C18.6965 13.3632 18.3416 13.3418 18.1265 13.3428C18.1116 12.3411 18.095 11.0401 18.1362 10.0576ZM10.4976 0.0800781C11.2693 0.157713 11.1002 0.866372 11.0991 1.45703L11.0981 2.93945L11.1001 8.05859L10.5308 8.06055L9.96436 8.05957C9.9295 6.61626 9.96066 5.04049 9.95947 3.58691L9.9585 1.71094C9.95838 1.35492 9.95384 1.00133 9.96924 0.645508C9.98288 0.330203 10.1965 0.136436 10.4976 0.0800781ZM14.8462 0.00683594C15.0631 0.0946089 15.2822 0.508224 15.3921 0.694336C16.088 1.87308 16.1447 3.51069 15.8325 4.8125C15.7292 5.24324 15.2366 6.38394 14.8589 6.60449C14.3222 6.606 14.3511 6.18894 14.5933 5.85449C14.6892 5.7219 14.8492 5.46097 14.9116 5.31445C15.4543 4.03219 15.4557 2.58445 14.9165 1.30078C14.7782 0.978805 14.5461 0.70906 14.3999 0.34375C14.4903 0.139325 14.4894 0.111958 14.6851 0.00195312C14.7177 0.000423736 14.8224 -0.00275309 14.8462 0.00683594ZM6.21533 0C6.97143 0.0131077 6.41871 0.826861 6.2417 1.14062C5.50378 2.44886 5.54731 4.26423 6.28858 5.56445C6.44433 5.83757 6.89558 6.40801 6.36768 6.59668C6.03778 6.58331 5.96495 6.45463 5.80811 6.17969C4.83515 4.4743 4.69757 2.52971 5.63233 0.767578C5.78938 0.471544 5.89374 0.163521 6.21533 0ZM7.35791 0.826172C7.56801 0.869112 7.65442 0.984974 7.7876 1.13965C7.68333 1.45089 7.42535 1.81076 7.30615 2.15723C7.05837 2.91107 7.07148 3.81068 7.34717 4.55859C7.45649 4.85505 7.80199 5.23857 7.71338 5.55566C7.68278 5.6648 7.54843 5.71266 7.45166 5.75391C7.19256 5.7721 7.06346 5.53853 6.94385 5.33594C6.38026 4.38121 6.31906 3.12328 6.59717 2.06934C6.70057 1.67754 6.99471 1.03098 7.35791 0.826172ZM13.5659 0.848633C13.9642 0.775817 14.1986 1.42229 14.314 1.70312C14.5924 2.38099 14.6938 3.18683 14.5845 3.91113C14.5077 4.41933 14.205 5.42597 13.7808 5.74219C13.6205 5.76862 13.4104 5.74698 13.3589 5.55859C13.2814 5.2646 13.4852 5.02322 13.5972 4.78418C13.9761 3.9743 14.0615 3.03467 13.7427 2.19141C13.6042 1.8253 13.4228 1.50161 13.3042 1.1416C13.3757 1.01911 13.4559 0.935962 13.5659 0.848633ZM12.4614 1.7002C12.6598 1.68903 12.8145 1.82041 12.9077 1.98828C13.2936 2.68427 13.3544 3.57857 13.0376 4.3125C12.9308 4.55985 12.8137 4.81087 12.5757 4.95703C11.8591 4.7334 12.3104 4.31262 12.4605 3.85645C12.606 3.42854 12.5843 3.05252 12.4194 2.6377C12.2466 2.20291 11.9577 1.97608 12.4614 1.7002ZM8.44971 1.69922C8.79354 1.68701 8.95162 1.92524 8.81983 2.21484C8.47896 2.96283 8.41647 3.50039 8.77295 4.25684C8.90222 4.53108 8.92806 4.80663 8.58545 4.93359C7.71156 4.93304 7.54193 2.13636 8.44971 1.69922Z" fill="white"/>
</svg>
