<svg width="24" height="24" viewBox="0 0 24 24" fill="none" xmlns="http://www.w3.org/2000/svg">
<g clip-path="url(#clip0_2_447)">
<path fill-rule="evenodd" clip-rule="evenodd" d="M11.7519 10.8993C12.5723 10.8669 13.6894 10.9104 14.3173 11.5008C14.9613 12.1066 15.1222 13.1577 15.2284 13.9979C15.2818 14.4201 15.3206 14.8576 15.3642 15.2821C15.4529 16.1097 15.5483 16.9366 15.6503 17.7626L15.9706 20.2792C15.9888 20.4184 16.0042 20.5711 16.0273 20.7079C16.0578 20.8983 16.1058 21.0908 16.1122 21.284C16.1543 22.5378 14.5456 22.8246 13.5868 22.9364C13.1755 22.9843 12.7483 23.0006 12.331 23.0087C11.2097 23.0221 9.30525 22.9932 8.38958 22.2284C8.13264 22.0138 7.9718 21.6927 7.95989 21.3583C7.95057 21.0953 8.00619 20.8607 8.04973 20.6014L8.17376 19.829C8.30667 18.9855 8.4273 18.14 8.53411 17.2928C8.62885 16.5382 8.71037 15.7818 8.77825 15.0243C8.83633 14.3476 8.85247 13.7178 9.00091 13.0497C9.33408 11.5506 10.27 10.9659 11.7519 10.8993ZM11.8534 1.0028C13.1244 0.957288 14.4243 1.46986 15.3359 2.35143C15.5891 2.598 15.7963 2.8823 16.0253 3.15026C16.4619 3.6609 16.9264 4.14344 17.4228 4.59655C17.704 4.8533 18.0196 5.06869 18.3339 5.28307C18.976 5.7209 19.6434 6.12639 20.3359 6.47936C20.5457 6.58634 20.7676 6.67092 20.9823 6.77037C21.2509 6.89788 21.5153 7.03468 21.7743 7.18053C22.0002 7.30621 22.2028 7.46005 22.4042 7.61901C23.0449 8.1246 23.683 8.8075 23.9013 9.61119C24.109 10.3763 23.9843 11.258 23.5878 11.9432C22.6047 13.6419 20.3189 14.4709 18.5243 14.9022C18.227 14.9729 17.9278 15.0359 17.6269 15.0907C17.4325 15.1256 17.1852 15.1561 16.999 15.2108C16.9714 14.8874 16.9272 14.5569 16.8876 14.2342C16.8608 14.0158 16.8694 13.7065 16.7939 13.5126C18.3054 13.1708 20.0056 12.8034 21.1855 11.7137C21.8402 11.109 21.8346 10.2896 21.1952 9.67272C20.7033 9.1981 20.1028 8.8898 19.4706 8.63659C17.1899 7.77576 14.5916 7.49374 12.1659 7.49108C9.54374 7.46615 5.86087 7.83595 3.55169 9.18151C3.10354 9.45594 2.55972 9.90659 2.44719 10.4393C2.25418 11.3545 3.12937 11.9951 3.8593 12.3973C4.91814 12.9808 6.11786 13.2508 7.30364 13.5087C7.29009 13.7084 7.24317 13.9387 7.23821 14.1288C7.22842 14.5052 7.20755 14.8335 7.16106 15.2089C6.98483 15.163 6.74168 15.1285 6.55755 15.0946C6.2638 15.0411 5.97068 14.9805 5.67962 14.9139C3.44385 14.4089 0.131595 13.1532 0.0028578 10.3983C-0.0765902 8.69522 1.51583 7.55473 2.86419 6.86901C3.12087 6.73848 3.39106 6.62657 3.64739 6.49498C4.42535 6.09027 5.1567 5.67 5.86907 5.15612C6.63754 4.60174 7.28257 3.93308 7.90422 3.22057C8.11202 2.98236 8.28739 2.73401 8.50481 2.50182C9.37621 1.57565 10.5822 1.03586 11.8534 1.0028Z" fill="white"/>
</g>
<defs>
<clipPath id="clip0_2_447">
<rect width="24" height="24" fill="white"/>
</clipPath>
</defs>
</svg>
