<svg width="24" height="24" viewBox="0 0 24 24" fill="none" xmlns="http://www.w3.org/2000/svg">
<g clip-path="url(#clip0_2_428)">
<path d="M20.9421 0.654881C21.058 0.592322 21.1792 0.536435 21.2967 0.479272C21.7473 0.259973 21.9736 0.289106 22.2337 0.722346C22.4186 0.667419 22.6199 0.626812 22.7171 0.840914C22.9146 1.27497 23.1021 1.72013 23.3031 2.1535C23.3339 2.22006 23.3413 2.32036 23.3242 2.39179C23.1468 2.58447 21.2284 3.42933 20.8966 3.58371L17.0067 5.39833L14.0858 6.75735C13.6429 6.96347 13.0707 7.25395 12.6315 7.43316C12.6589 7.50682 12.6854 7.59272 12.7107 7.66815C13.676 7.24941 14.7041 6.74836 15.6636 6.30202C17.4756 5.47441 19.2737 4.61654 21.0572 3.72878C21.1843 4.01162 21.3222 4.29479 21.4509 4.57901C21.065 4.78043 20.4065 5.04204 19.9938 5.22655C19.1797 5.59734 18.3675 5.9726 17.5576 6.35219L14.5841 7.73608C14.1669 7.9304 13.531 8.25572 13.1241 8.41504C13.1281 8.49445 13.1381 8.58357 13.1248 8.66195C13.0739 8.95912 12.738 9.20885 12.6343 9.53893C12.4722 10.0554 12.7772 10.396 12.3899 10.9015C12.1687 11.1901 10.9547 12.2882 10.9164 12.5287C10.8879 12.7087 11.1442 13.0252 11.2111 13.2065C11.3039 13.458 11.357 13.7181 11.3527 13.9868C11.3423 14.6409 11.0188 15.2278 10.5563 15.6755C9.81079 16.3971 8.69776 16.662 7.76268 16.1431C7.54225 16.0208 7.3135 15.7051 7.04876 15.7094C6.85656 15.7125 6.65939 15.8646 6.52914 15.9968C5.95076 16.5839 5.84084 17.3407 5.84679 18.1296C5.94366 19.3307 6.32069 20.2346 7.06142 21.1669C7.11411 21.2395 7.3491 21.5304 7.26556 21.6208C7.07589 21.8263 6.54021 22.034 6.29518 22.1479L4.89197 22.8005L3.42668 23.4831C3.13079 23.621 2.76661 23.8126 2.45277 23.8952C2.40792 23.9071 2.35978 23.9008 2.32885 23.8648C2.20859 23.7252 2.13317 23.381 2.08896 23.2104C1.74438 21.8819 1.53943 20.5603 1.59117 19.1864C1.6887 16.6007 2.48729 14.5743 4.37832 12.802C4.26526 12.5891 4.15703 12.3828 4.05131 12.1662C3.82826 11.7091 4.09353 11.3938 4.25463 10.9661C3.8586 10.7169 2.5086 10.026 2.25775 9.74119C3.19799 9.3591 3.53296 10.0744 4.33403 9.77867C4.5908 9.64351 4.6322 9.18462 4.70157 8.94719C4.98847 7.96514 5.93015 7.64311 6.77446 7.27954C7.14629 7.11891 7.51594 6.95323 7.88333 6.7826C8.33554 6.56958 8.78651 6.35389 9.23623 6.13553C9.62508 5.95009 9.86364 5.81796 10.2808 5.70094C10.8589 5.5388 11.2895 5.8517 11.8004 5.61768C12.3542 5.36398 12.9075 5.10273 13.4594 4.84593L16.81 3.28748L19.383 2.09112C19.8116 1.89179 20.3778 1.6483 20.7834 1.42877C20.6501 1.10402 20.6378 0.872229 20.9421 0.654881ZM7.8503 15.5739C8.24064 15.8419 8.59981 15.928 9.07221 15.8398C10.0784 15.6503 10.992 14.6262 10.7856 13.5679C10.7023 13.1404 10.42 12.7968 10.0077 12.6481C9.66124 12.5233 9.47683 12.5141 9.14563 12.7011C8.89664 12.9133 8.77403 13.2392 8.74488 13.5598C8.69722 14.0829 9.04279 14.539 9.35342 14.9227C9.42608 15.0124 9.55417 15.1592 9.46733 15.2662C9.36751 15.3005 9.30172 15.2819 9.20589 15.2408C8.95533 15.1333 8.82141 14.8899 8.63569 14.7153C8.38854 14.483 7.97653 14.1691 7.61817 14.2827C7.2925 14.386 7.38153 14.7648 7.46401 15.0103C7.54183 15.238 7.67261 15.4112 7.8503 15.5739ZM10.1149 9.26516C10.1766 9.21854 10.2378 9.17427 10.2953 9.12256C10.3868 8.84465 10.3333 8.66722 10.0584 8.54056C9.81416 8.55345 9.33121 8.78708 9.10368 8.90479C8.5395 9.19666 7.86074 9.43796 7.31635 9.74674C7.22531 9.79558 7.0669 9.89955 7.06063 10.0058C7.03557 10.4304 7.3428 10.5605 7.67204 10.4025C8.47757 10.0159 9.32609 9.6714 10.1149 9.26516ZM10.3795 10.6015C10.5187 10.5366 10.8504 10.4032 10.8692 10.2658C10.9211 9.88707 10.6632 9.65966 10.304 9.81495C10.0207 9.93739 9.78332 10.0448 9.52535 10.1649L8.13138 10.8136C7.98029 10.887 7.64617 11.0219 7.60872 11.1841C7.54433 11.463 7.76414 11.7651 8.07303 11.6565C8.35672 11.5567 8.60005 11.4315 8.86369 11.3086L10.3795 10.6015ZM9.60775 8.0297C9.84249 7.84375 9.81209 7.5052 9.4856 7.38255C9.4316 7.36226 9.22764 7.43409 9.16712 7.45354C8.58253 7.7077 8.00528 7.98524 7.42686 8.25346C7.1752 8.37015 6.88918 8.49362 6.65237 8.63346C6.38919 8.84434 6.48543 9.2205 6.81701 9.27918C6.88968 9.29204 7.05683 9.22475 7.12961 9.20168C7.71327 8.94171 8.29191 8.66589 8.87134 8.39634C9.10887 8.28584 9.38878 8.1685 9.60775 8.0297Z" fill="white"/>
</g>
<defs>
<clipPath id="clip0_2_428">
<rect width="24" height="24" fill="white"/>
</clipPath>
</defs>
</svg>
