<svg width="24" height="24" viewBox="0 0 24 24" fill="none" xmlns="http://www.w3.org/2000/svg">
<g clip-path="url(#clip0_64_862)">
<path d="M5.70744 12.37C5.79448 12.4431 5.87211 12.5243 5.9506 12.6062C6.52204 13.2031 7.12446 13.7698 7.69104 14.3715C5.26551 15.079 1.79206 16.0723 2.62333 19.4054C2.80123 20.1187 3.42986 20.7916 4.05923 21.1381C4.755 21.5129 5.56929 21.5994 6.32779 21.3791C8.36134 20.7836 9.11051 18.0605 9.60263 16.2517C9.78671 16.4998 10.2812 16.9603 10.5152 17.1836C10.8162 17.4706 11.295 18.0484 11.626 18.2331C10.9108 20.548 9.57676 23.0457 7.06861 23.7483C6.86778 23.8047 6.17697 23.9213 6.04648 24H4.87959C4.75223 23.9213 4.03344 23.7914 3.82306 23.7279C2.24519 23.2514 0.837369 21.9205 0.319136 20.3452C0.234368 20.0843 0.16188 19.8195 0.101932 19.5518C0.0688358 19.4009 0.0508695 19.2335 0.00646192 19.0897L0 19.0693V17.9391C0.049651 17.8324 0.0895313 17.5127 0.121005 17.3757C0.200867 17.0323 0.303782 16.6948 0.429093 16.3654C1.17204 14.4644 3.16621 13.2576 5.00518 12.6032C5.24743 12.517 5.4545 12.4328 5.70744 12.37ZM6.64671 9.68921C6.85317 9.66547 7.2724 9.73908 7.42173 9.86541C7.7396 10.1343 8.07357 10.4882 8.36777 10.7838L10.1666 12.5847L12.7145 15.1355C13.1787 15.5992 13.6765 16.0753 14.1118 16.5647C14.2143 16.6812 14.2541 16.8536 14.2795 17.0041C14.4023 17.7329 13.9698 18.3616 13.2356 18.4721C12.4649 18.5006 12.2634 18.2012 11.7565 17.6955C11.5354 17.4749 11.3081 17.246 11.0872 17.0243L8.82667 14.7606L6.75594 12.6858C6.44329 12.3711 6.10289 12.0629 5.81438 11.7274C5.62598 11.5084 5.54607 11.3468 5.51619 11.0526C5.4797 10.7123 5.57927 10.3714 5.79301 10.1048C6.0354 9.80778 6.28647 9.72235 6.64671 9.68921ZM8.66137 7.55232C9.49445 7.48863 9.70057 7.86997 10.2432 8.40255C10.3164 8.47446 10.3902 8.55074 10.4627 8.62374L11.803 9.96512L14.5337 12.7008C15.0221 13.1894 15.5212 13.6764 15.9998 14.1739C16.1228 14.32 16.3344 14.5259 16.3841 14.7133C16.5991 15.5237 16.1639 16.1549 15.3849 16.3559C14.558 16.4455 14.0862 15.7675 13.5561 15.2368L11.7204 13.3968L8.97332 10.6477C8.25888 9.92099 6.93643 9.03308 7.99215 7.90461C8.18557 7.69788 8.38442 7.60289 8.66137 7.55232ZM10.8092 5.44242C11.6659 5.37202 11.9711 5.91336 12.526 6.44176C12.6038 6.51582 12.6783 6.59529 12.7541 6.67163L14.4646 8.38529L17.0148 10.9334C17.4374 11.3558 17.8758 11.7884 18.2895 12.2201C18.4001 12.3524 18.4591 12.5187 18.4963 12.6815C18.6599 13.397 18.267 14.0678 17.5369 14.2234C17.2898 14.2457 16.9209 14.2398 16.7212 14.0931C16.3677 13.8333 16.0098 13.446 15.7009 13.1365C15.1916 12.6321 14.685 12.1249 14.1812 11.615L11.5118 8.94413C11.0277 8.46038 10.5348 7.97594 10.0611 7.48148C9.94105 7.34129 9.84165 7.2445 9.79742 7.05992C9.60423 6.25358 9.97622 5.61557 10.8092 5.44242ZM19.1208 0C19.1887 0.0448574 19.2608 0.0464023 19.339 0.058803C21.7043 0.43395 23.5781 2.30898 23.9185 4.69828C23.9332 4.80267 23.961 4.97365 24 5.07349V5.87748C23.9654 5.94029 23.8709 6.49805 23.8456 6.6213C23.2853 9.36921 20.9092 10.7515 18.4129 11.5737C17.9497 11.1507 17.5248 10.7076 17.0821 10.2625C16.8426 10.0217 16.5851 9.78888 16.3591 9.53749C17.4392 9.33291 18.4813 8.96213 19.4486 8.43823C20.2886 7.97905 21.0772 7.32536 21.3581 6.37008C21.5664 5.61142 21.5162 4.75444 21.1329 4.05929C20.7806 3.4205 20.1012 2.79303 19.3791 2.61736C16.116 1.82355 15.0873 5.17728 14.3988 7.60547C14.1467 7.31838 12.6623 5.76512 12.3971 5.60732C12.4037 5.58101 12.4108 5.55481 12.4183 5.52874C12.4861 5.29071 12.6028 5.01089 12.6848 4.78889C13.4724 2.6553 14.9155 0.636152 17.2647 0.14052C17.3561 0.121247 17.8454 0.0254698 17.8851 0H19.1208Z" fill="white"/>
</g>
<defs>
<clipPath id="clip0_64_862">
<rect width="24" height="24" fill="white"/>
</clipPath>
</defs>
</svg>
