<svg width="24" height="24" viewBox="0 0 24 24" fill="none" xmlns="http://www.w3.org/2000/svg">
<g clip-path="url(#clip0_59_831)">
<path d="M19.3125 17.5019C19.6244 17.4943 19.9706 17.687 20.2559 17.8115L21.3945 18.3095L22.6211 18.8427C22.8468 18.9408 23.0746 19.0369 23.2969 19.1416C23.4656 19.2212 23.5947 19.3524 23.6816 19.5156C23.7593 19.6612 23.785 19.7835 23.7852 19.9472C23.7862 20.7323 23.7864 21.5176 23.7861 22.3027L23.7852 22.9804C23.785 23.1066 23.794 23.2744 23.7744 23.3955C23.7473 23.5633 23.5669 23.7112 23.3994 23.7187C23.1591 23.7292 22.9234 23.7256 22.6846 23.7256H12.4287V20.8623C12.7629 20.7682 13.1773 20.6166 13.5156 20.5039L15.5879 19.8134L16.6426 19.4629C16.715 19.4388 17.1503 19.3021 17.1924 19.2646C17.5856 18.9113 17.9823 18.4911 18.3613 18.1181C18.5367 17.9455 18.6725 17.7873 18.8574 17.6474C18.984 17.5515 19.1657 17.5158 19.3125 17.5019ZM4.58691 17.5019C5.16873 17.4836 5.36321 17.8734 5.75 18.2324C6.11316 18.5694 6.44822 18.9713 6.83594 19.2773C6.87158 19.3045 7.27118 19.4298 7.33594 19.4511L8.37305 19.7959L10.5303 20.5146C10.8691 20.6277 11.2339 20.7629 11.5713 20.8632L11.5703 23.7256H1.39258C1.14894 23.7254 0.898279 23.7289 0.654297 23.7216C0.567882 23.7191 0.468362 23.7049 0.398438 23.6494C0.315427 23.5834 0.235253 23.4867 0.222656 23.3759C0.20818 23.1511 0.21393 22.9109 0.213867 22.6855V21.3877L0.214844 20.3623C0.214722 19.9881 0.165234 19.6554 0.427734 19.3496C0.492416 19.2745 0.570185 19.2114 0.657227 19.164C0.802019 19.0864 1.06393 18.981 1.21973 18.9131L2.2666 18.457L3.58887 17.8808C3.84688 17.7681 4.32674 17.5237 4.58691 17.5019ZM7.95801 4.15622C8.3038 4.30845 8.74903 4.54689 9.09277 4.71872L11.5693 5.96383C11.5769 6.48501 11.5703 7.02578 11.5703 7.54879V19.9677C10.9885 19.7795 10.4134 19.5733 9.83203 19.3838C9.7186 19.3467 9.60173 19.302 9.48633 19.2744C9.44617 18.7975 9.38606 18.2967 9.33691 17.8193L9.07617 15.2588L8.29297 7.50387C8.183 6.40828 8.0444 5.24729 7.95801 4.15622ZM16.0244 4.16696C16.0456 4.19541 16.039 4.2139 16.0342 4.25973C15.9933 4.65373 15.9531 5.04932 15.9131 5.44333L15.6621 7.91012L14.9258 15.1806L14.668 17.7334C14.6135 18.246 14.5622 18.7592 14.5146 19.2724C13.8275 19.493 13.1382 19.7374 12.4502 19.9638L12.4463 19.9629C12.4227 19.9385 12.4276 19.9255 12.4277 19.8798C12.4291 19.384 12.4287 18.8862 12.4287 18.3906V15.3379L12.4277 5.95602C12.8107 5.78055 13.2559 5.54441 13.6377 5.35348L16.0166 4.16501L16.0244 4.16696ZM3.47461 9.58102C3.51652 9.62122 3.67454 9.90453 3.71973 9.98044L4.34277 11.0273L7.05664 15.5927L8.03613 17.2412C8.1447 17.4241 8.38428 17.8098 8.46875 17.9785C8.53358 18.1091 8.5724 18.7728 8.59863 18.9756C8.36975 18.9031 7.36732 18.5959 7.22949 18.4961C7.12965 18.4238 7.04309 18.3227 6.95605 18.2353L6.51465 17.7929C6.25648 17.5374 6.0126 17.2738 5.73926 17.0341C5.59457 16.9075 5.31234 16.8098 5.22363 16.6982C5.0409 16.4685 4.85271 16.2014 4.67773 15.9638L3.53906 14.4179C2.40106 12.8734 1.21984 11.3072 0.103516 9.75094C0.417025 9.74863 0.846795 9.71366 1.16699 9.69723L3.40234 9.57809C3.43687 9.57298 3.44442 9.56656 3.47461 9.58102ZM20.5234 9.58102C20.8032 9.58435 21.0914 9.61305 21.3711 9.62301C22.1975 9.65248 23.0752 9.73902 23.8984 9.75094C23.5053 10.3078 23.0725 10.8772 22.667 11.4267L20.5371 14.3203L19.3496 15.9316C19.1643 16.1834 18.9679 16.4614 18.7744 16.706C18.7124 16.7842 18.4691 16.8813 18.3525 16.9726C18.0502 17.2096 17.8076 17.4549 17.5381 17.7256C17.3022 17.9552 17.0283 18.3096 16.7734 18.4951C16.6275 18.601 15.6382 18.8986 15.4004 18.9726C15.4301 18.6859 15.4418 18.2713 15.5186 18.0019C15.5339 17.9481 15.6809 17.7099 15.7207 17.6435L16.0771 17.0488L17.3555 14.8984L19.4443 11.3886L20.1094 10.2675C20.238 10.0504 20.386 9.78549 20.5234 9.58102ZM17.877 6.47555C17.9248 6.51704 18.3192 7.0863 18.3955 7.1943L19.7842 9.1611C19.4678 9.67692 19.1561 10.2153 18.8457 10.7363L16.4229 14.8056C16.2238 15.1719 15.9177 15.6667 15.6934 16.0293C15.7158 15.8854 15.7312 15.6863 15.7461 15.5371L15.8369 14.6425L16.1543 11.5341L16.2461 10.6191C16.2953 10.1281 16.2965 10.0919 16.4941 9.64254L16.7871 8.97555L17.877 6.47555ZM6.10645 6.47653C6.15295 6.50902 6.56323 7.48358 6.61719 7.60739L7.34082 9.26364C7.45192 9.51673 7.59831 9.81761 7.68555 10.0771C7.71358 10.1606 7.73741 10.4649 7.74707 10.5634L7.82324 11.3252L8.15137 14.5761L8.24023 15.4677C8.2545 15.6137 8.27226 15.8634 8.30176 15.999L8.30566 16.0175C8.0892 15.7031 7.78432 15.1537 7.58008 14.8105C7.47293 14.6173 7.33861 14.4033 7.22461 14.2119L6.51855 13.0244L4.2168 9.15426L6.10645 6.47653ZM22.1797 4.86618C22.3839 4.85476 22.5178 4.8702 22.6982 4.97165C23.0216 5.15354 23.0739 5.45831 23.1621 5.78805L23.3369 6.44235L24 8.90817C23.6898 8.91113 23.1609 8.86662 22.8389 8.84958L20.5107 8.72262C19.8562 7.76084 19.1417 6.81345 18.4854 5.85055C18.7705 5.78135 19.0851 5.68912 19.3711 5.61227L21.0811 5.15231L21.7383 4.97458C21.8744 4.9378 22.0429 4.88744 22.1797 4.86618ZM1.6709 4.85446C1.85186 4.83538 3.1053 5.19832 3.34766 5.26364L5.51758 5.8486C5.30733 6.12012 5.05413 6.50202 4.85156 6.78903L3.57617 8.59567L3.47852 8.72555C3.20483 8.72606 2.86622 8.7518 2.58887 8.76657L0.949219 8.85348C0.640742 8.8694 0.306537 8.893 0 8.89645L0.616211 6.60251C0.721771 6.20915 0.822637 5.81125 0.938477 5.42087C1.04048 5.07731 1.32833 4.89732 1.6709 4.85446ZM11.8994 0.00484955C12.3995 -0.0405811 12.6104 0.239984 12.9307 0.56149L13.5479 1.18063L15.7285 3.36227L12.0947 5.18063C12.0761 5.19085 12.0113 5.22579 11.9932 5.21676C10.7574 4.59996 9.50038 3.99049 8.27246 3.36032L10.4502 1.18258L11.0898 0.540006C11.3712 0.257754 11.4886 0.0735155 11.8994 0.00484955Z" fill="white"/>
</g>
<defs>
<clipPath id="clip0_59_831">
<rect width="24" height="24" fill="white"/>
</clipPath>
</defs>
</svg>
