<svg width="24" height="24" viewBox="0 0 24 24" fill="none" xmlns="http://www.w3.org/2000/svg">
<g clip-path="url(#clip0_61_848)">
<path d="M18.3733 23.996C19.0014 23.996 19.8701 24.0275 20.4602 23.9139C21.3155 23.7496 22.1018 23.3312 22.7161 22.7137C23.3165 22.1149 23.729 21.3534 23.9026 20.5233C24.0264 19.9391 23.9975 19.2473 23.9973 18.6424L23.9963 16.5438L23.9973 8.7274L21.2112 8.7274C19.4897 8.72855 18.2059 8.89134 16.7707 7.65514C15.8634 6.87374 15.3635 5.79632 15.2805 4.60631C15.2453 3.10938 15.2745 1.50875 15.2756 0.00474546L4.42993 0.00474451C4.13069 0.0114736 3.83358 0.0308337 3.55884 0.0828694C2.79697 0.227366 2.08758 0.57316 1.50415 1.08385C0.634609 1.84012 0.100867 2.91087 0.0207496 4.06041C-0.00557639 4.44399 0.00590245 4.90736 0.00610104 5.29674L0.00707742 7.33092L0.00707687 13.6669L0.00609993 17.9315C0.00602324 18.5728 -0.0288498 19.7859 0.0685997 20.3592C0.204372 21.155 0.55838 21.8982 1.09106 22.5047C1.90646 23.434 2.96861 23.9137 4.19165 23.9901C4.25595 23.9927 4.32066 23.9937 4.38501 23.994L15.3674 23.995L18.3733 23.996ZM23.9202 6.54674C23.7856 5.95209 23.4049 5.58657 22.9866 5.17857C22.7645 4.96183 22.5441 4.73706 22.3245 4.51744L19.8645 2.05748L18.9114 1.10143C18.4174 0.607037 18.1499 0.276023 17.4534 0.079941L17.4514 3.04674C17.4508 3.49846 17.4203 4.45163 17.509 4.85533C17.589 5.20933 17.757 5.53785 17.9973 5.80943C18.4329 6.30137 18.9622 6.51266 19.6057 6.54869C19.7362 6.55329 19.875 6.55141 20.0061 6.55064C21.3101 6.54279 22.6166 6.56283 23.9202 6.54674ZM11.4329 9.27623L8.57055 9.27623C8.25711 9.27604 7.88736 9.28478 7.57739 9.27232C6.93856 9.19373 6.48273 8.71379 6.55981 8.05064C6.595 7.75934 6.74705 7.49451 6.98071 7.31724C7.3413 7.04176 7.7687 7.09259 8.19946 7.09264L9.24243 7.09264C10.1235 7.09264 11.2154 7.06272 12.0823 7.10045C12.3999 7.13704 12.6578 7.25416 12.8596 7.51158C13.0444 7.74897 13.1227 8.05214 13.0774 8.34947C13.0325 8.636 12.8759 8.89297 12.6418 9.06432C12.282 9.32704 11.8568 9.27604 11.4329 9.27623ZM9.3977 13.3622C8.80044 13.3624 8.10435 13.3806 7.51489 13.3553C6.46215 13.1688 6.2047 11.9258 7.06567 11.3475C7.31803 11.1782 7.59697 11.1824 7.88989 11.1805C8.29321 11.178 8.69829 11.1797 9.1018 11.1795L12.0247 11.1795L14.925 11.1805C15.3765 11.1807 16.0978 11.1602 16.5286 11.1971C17.1585 11.3223 17.5661 11.8708 17.4241 12.5106C17.3619 12.793 17.1898 13.0394 16.9456 13.1942C16.8423 13.2587 16.6211 13.349 16.4993 13.3534C16.085 13.3683 15.6574 13.3631 15.2424 13.3631L12.7971 13.3622L9.3977 13.3622ZM8.87133 17.451C8.49572 17.451 7.80715 17.4709 7.45825 17.4383C7.12944 17.3554 6.8807 17.2204 6.70141 16.9149C6.55435 16.6635 6.51349 16.3637 6.58715 16.0819C6.72339 15.5717 7.14418 15.2805 7.65942 15.2772C8.28093 15.2734 8.90211 15.2724 9.52368 15.2723L15.3713 15.2723C15.6666 15.2724 16.298 15.257 16.5686 15.2899C16.8797 15.3699 17.1168 15.5082 17.2883 15.7909C17.4435 16.0413 17.4913 16.3441 17.4192 16.6297C17.3441 16.9175 17.1557 17.1632 16.8977 17.3114C16.7395 17.4032 16.5626 17.4414 16.3811 17.4452C15.8337 17.4566 15.2733 17.4509 14.7258 17.451L8.87133 17.451Z" fill="white"/>
</g>
<defs>
<clipPath id="clip0_61_848">
<rect width="24" height="24" fill="white"/>
</clipPath>
</defs>
</svg>
