<svg width="24" height="24" viewBox="0 0 24 24" fill="none" xmlns="http://www.w3.org/2000/svg">
<g clip-path="url(#clip0_26_471)">
<path d="M7.81531 15.2553C8.1454 15.5119 8.49291 15.8152 8.81628 16.0844L10.7128 17.6596C10.3203 18.1162 9.88739 18.6865 9.50769 19.1635L10.4657 20.437C10.6291 20.6542 10.8758 20.9623 11.0087 21.187C11.0892 21.3235 11.1521 21.4699 11.1952 21.6225C11.4809 22.6369 10.8572 23.6706 9.85046 23.9497C9.34854 24.0665 8.70544 23.9857 8.29089 23.6616C8.16388 23.5627 8.04683 23.4519 7.94226 23.3295C7.78471 23.1448 7.59852 22.8814 7.44812 22.6811L6.57312 21.5151L5.92468 20.6508C5.59013 20.2042 5.33252 19.9176 5.2655 19.3403C5.22347 19.0007 5.2781 18.6553 5.42273 18.3452C5.58413 17.9981 6.11095 17.3885 6.37781 17.0551L7.81531 15.2553ZM16.3876 15.4907C17.0609 16.3392 17.7464 17.1747 18.413 18.0288C18.7054 18.4036 18.811 18.9428 18.744 19.4096C18.6682 19.9366 18.3939 20.2497 18.0848 20.6625L17.41 21.5629L16.5536 22.7036C16.3306 23.0006 16.0275 23.4558 15.7225 23.6684C15.2663 23.9864 14.7585 24.0525 14.2147 23.9643C13.9497 23.8936 13.7384 23.8047 13.5175 23.6391C13.1151 23.3329 12.8497 22.8806 12.7772 22.3803C12.649 21.4755 13.133 20.9965 13.6385 20.3237L14.5106 19.1616C14.1075 18.6691 13.7069 18.1582 13.3085 17.6606L16.1962 15.2543C16.2618 15.3299 16.3252 15.4121 16.3876 15.4907ZM4.69812 5.98872C5.50387 5.88607 6.10594 6.44833 6.7196 6.85981C7.32399 7.26504 7.9331 7.76 8.57312 8.10102C9.63121 8.66782 10.8131 8.96427 12.0135 8.96333C13.2006 8.9632 14.3692 8.67072 15.4169 8.11274C16.1154 7.74006 16.7928 7.19411 17.453 6.74751C17.7542 6.54377 18.1137 6.24659 18.4471 6.11567C18.7692 5.98973 19.1201 5.95408 19.4608 6.01313C19.9524 6.09746 20.3903 6.37519 20.6766 6.78364C20.9653 7.19625 21.0777 7.70686 20.9891 8.20258C20.8526 8.96029 20.4193 9.26926 19.8407 9.67524L19.036 10.2377C18.6879 10.4833 18.3245 10.7456 17.9676 10.976C17.2669 11.4283 16.5428 11.7567 15.7655 12.0522V13.5004H8.25183L8.25085 12.0483C6.96953 11.5538 5.96809 10.9891 4.87488 10.1596C4.51899 9.88961 4.11911 9.63397 3.75574 9.36469C2.36634 8.33493 3.01687 6.17441 4.69812 5.98872ZM11.83 0.00434232C13.9015 -0.094561 15.6593 1.5081 15.7518 3.57954C15.8443 5.65087 14.2368 7.40345 12.1649 7.48969C10.1019 7.57536 8.35758 5.97592 8.2655 3.91352C8.17355 1.85133 9.76771 0.10297 11.83 0.00434232Z" fill="white"/>
</g>
<defs>
<clipPath id="clip0_26_471">
<rect width="24" height="24" fill="white"/>
</clipPath>
</defs>
</svg>
