<svg width="24" height="24" viewBox="0 0 24 24" fill="none" xmlns="http://www.w3.org/2000/svg">
<path d="M7.85957 5.2666C9.23467 4.22834 11.3005 6.56278 12.009 7.50879C12.764 6.56173 14.7361 4.25633 16.1486 5.25488C16.6295 5.59488 17.4329 6.58343 17.8342 7.06445C18.8707 8.29182 19.8819 9.54122 20.8654 10.8115L22.0031 12.2988C22.1918 12.547 22.4731 12.942 22.6779 13.1562C21.9397 13.448 20.8438 13.8914 20.2033 14.3662C21.1352 14.2756 21.842 14.3673 22.6955 14.7783C21.3159 15.0048 20.7282 15.2008 19.5881 16.0713C19.6216 16.232 19.6434 16.2215 19.798 16.2744C20.4126 16.1521 21.1874 15.9975 21.8117 15.9707C21.1689 16.2298 20.6454 16.3993 20.0246 16.748C18.1709 17.7942 16.7364 19.4496 15.9631 21.4326C15.755 21.9608 15.6282 22.4641 15.4758 23.0078C14.4752 23.4042 13.1277 23.6165 12.0139 24C10.9123 23.5948 9.66438 23.4344 8.53828 23.0098C8.48194 22.7748 8.42224 22.5399 8.35762 22.3076C7.62578 19.6763 5.658 17.3532 3.10762 16.333C2.80465 16.2118 2.49702 16.0763 2.19356 15.9492C3.01058 16.0493 4.07013 16.1941 4.86055 16.4287C3.78078 15.3964 2.73318 14.9921 1.3 14.7793C2.09317 14.4057 2.97519 14.2614 3.8459 14.3643C3.12387 13.8736 2.15031 13.4763 1.34102 13.1611C1.53498 12.9622 1.84503 12.532 2.02364 12.2969L3.1584 10.8145C4.14571 9.53788 5.16099 8.28296 6.2043 7.05176C6.62187 6.5517 7.36313 5.64164 7.85957 5.2666ZM11.6467 20.0654C10.883 20.108 9.76147 20.175 9.18282 20.7148C8.63918 21.2229 9.9825 21.9183 10.3176 22.1357L12.0022 23.2334L12.2609 23.085C12.7385 22.7679 13.218 22.4537 13.6994 22.1426C14.0511 21.9152 15.303 21.264 14.8791 20.7754C14.299 20.1081 12.4774 20.0054 11.6467 20.0654ZM12.0002 11.0996L8.0002 8V9.7002L11.2707 12L8.0002 14.2998V16L12.0002 12.9502L16.0002 16V14.2998L12.8957 12L16.0002 9.7002V8L12.0002 11.0996ZM21.4074 0.00878906C21.4131 0.0912105 20.9641 0.855122 20.884 1.02246C19.9636 2.94148 19.945 5.93841 20.302 8.00879C19.4722 6.45814 19.2458 4.67295 19.3283 2.92188C19.3347 2.78582 19.3815 2.62702 19.3684 2.49707C19.2838 2.51052 19.2588 2.57394 19.1887 2.65723C18.4986 3.66252 18.2512 4.40733 18.0295 5.58691C17.5874 5.03162 16.9055 4.41011 16.4074 3.83691C16.4362 3.77574 16.466 3.71475 16.4963 3.6543C17.5571 1.53693 19.3308 0.691776 21.4074 0.00878906ZM2.57442 0C2.69061 0.0200944 3.02017 0.132912 3.14668 0.174805C5.15581 0.840045 6.59515 1.87349 7.57442 3.80957C7.07642 4.38537 6.45825 4.9495 5.98262 5.53516C5.71901 4.36263 5.5261 3.67469 4.8293 2.67773C4.7837 2.59565 4.763 2.53687 4.68379 2.49219C4.66074 2.54026 4.67708 4.15974 4.6584 4.44141C4.57412 5.71349 4.25073 6.85094 3.72383 8C3.93865 4.8397 4.31125 2.9043 2.57442 0Z" fill="white"/>
</svg>
