<svg width="24" height="24" viewBox="0 0 24 24" fill="none" xmlns="http://www.w3.org/2000/svg">
<g clip-path="url(#clip0_43_725)">
<path d="M2.88174 13.1657L2.88076 18.7927L2.88174 20.5573C2.88176 20.8237 2.9109 21.6234 2.81924 21.8259C2.5991 21.9072 0.985937 21.9175 0.798728 21.8015C0.723109 21.6564 0.73525 21.1028 0.737205 20.9157C0.764126 18.3352 0.701726 15.7402 0.745017 13.1608C1.45718 13.1578 2.16961 13.1593 2.88174 13.1657ZM23.1747 13.1628L23.1737 18.8435L23.1747 20.6042C23.1747 20.8551 23.2039 21.627 23.1161 21.8278C22.8704 21.9029 21.3331 21.9085 21.1112 21.8171C20.9959 21.6951 21.0318 20.6929 21.0321 20.4909L21.0331 18.7116L21.0351 13.1608L23.1747 13.1628ZM12.8915 16.8259C13.0614 16.8505 13.5317 16.8416 13.7157 16.8415L15.244 16.8405L20.3456 16.8386L20.3466 19.819C19.5473 19.8323 18.7123 19.821 17.9091 19.821L12.8856 19.8229C12.8727 18.8581 12.8695 17.7882 12.8915 16.8259ZM16.9794 17.9587C16.6512 17.9664 16.3201 17.959 15.9892 17.9743C15.6121 18.1863 15.6404 18.3943 15.9579 18.6472C16.2422 18.6935 16.923 18.6926 17.2187 18.6667C17.6857 18.3818 17.5058 17.9466 16.9794 17.9587ZM20.3476 13.1628C20.3365 14.136 20.3492 15.1208 20.3437 16.0964L15.2138 16.0993C14.446 16.0994 13.6476 16.0892 12.8837 16.1101C12.8798 15.1265 12.8823 14.1424 12.8905 13.1589L20.3476 13.1628ZM16.3085 14.2907C16.1865 14.2933 16.0727 14.2851 15.9589 14.3337C15.6881 14.4495 15.6218 14.6811 15.8524 14.8854C15.876 14.9061 15.9004 14.9272 15.9247 14.947C16.2186 15.0023 16.6437 14.9863 16.9511 14.9841L17.2763 14.9714C17.7574 14.535 17.3739 14.2797 16.8876 14.2849C16.6964 14.2869 16.5005 14.285 16.3085 14.2907ZM18.5927 10.112C19.1314 10.1121 23.6124 10.0632 23.8358 10.156C23.8769 10.1731 23.9044 10.2269 23.9188 10.2673C23.9965 10.4819 24.0117 12.0938 23.9188 12.2907C23.8854 12.3616 23.8419 12.3963 23.7694 12.4226C23.0753 12.4577 22.1301 12.4314 21.4198 12.4313L17.0145 12.4304L3.50381 12.4313C3.11717 12.4313 0.308939 12.4783 0.120017 12.3913C0.085614 12.3754 0.0620618 12.3266 0.0477517 12.2927C-0.0344422 12.096 -0.0384742 10.4192 0.0379861 10.2536C0.0743686 10.1751 0.129207 10.1494 0.205955 10.1208C0.789931 10.0844 1.6945 10.1121 2.30068 10.112H18.5927ZM18.0077 2.73798C19.068 1.40508 21.0288 1.10643 22.4286 2.08271C22.507 2.1374 22.5934 2.21762 22.6796 2.25556L23.0683 2.64423C23.1048 2.71778 23.1685 2.77809 23.2128 2.84638C23.3864 3.11463 23.297 3.47717 23.0106 3.6247C22.853 3.70601 22.6771 3.69341 22.5067 3.69306L21.9394 3.69111C21.5271 3.69051 21.2156 3.6976 20.8974 4.00947C20.7738 4.1308 20.6809 4.28055 20.6269 4.44502C20.5368 4.71516 20.5594 5.01044 20.6903 5.26338C20.8257 5.52978 21.0622 5.73173 21.3466 5.82392C21.641 5.91628 22.1739 5.86091 22.497 5.8747C22.6443 5.88105 22.776 5.86077 22.9286 5.91084C23.0625 5.95346 23.1739 6.04857 23.2382 6.17353C23.3142 6.3181 23.3188 6.46491 23.2694 6.61982C23.2307 6.74102 23.1035 6.84573 23.0507 6.94795L22.704 7.29463C22.587 7.3591 22.483 7.45042 22.372 7.52412C21.5968 8.03809 20.6171 8.19331 19.7216 7.95283C18.8809 7.72537 18.1619 7.1788 17.7187 6.42939L10.4325 6.42744H6.39541C6.35789 6.42753 6.28969 6.42764 6.26455 6.45576C6.18251 6.54754 6.12557 6.66507 6.05166 6.7624C5.43574 7.57351 4.46745 8.05566 3.44912 8.06611C2.83735 8.07213 2.21217 7.89099 1.68935 7.57197C1.60834 7.52267 1.40007 7.34924 1.33486 7.33369L0.931541 6.93037C0.890426 6.84145 0.778139 6.74229 0.736228 6.62959C0.683815 6.48835 0.680789 6.34138 0.744041 6.20381C0.807716 6.06738 0.92481 5.96337 1.06728 5.91474C1.26734 5.84698 1.56629 5.88449 1.78017 5.87568C2.0885 5.86294 2.41578 5.91612 2.71279 5.80927C2.98369 5.70943 3.20471 5.50712 3.32705 5.2458C3.44717 4.98894 3.45922 4.6945 3.36123 4.42841C3.25833 4.14951 3.0222 3.91298 2.75478 3.78681C2.52755 3.67977 2.2866 3.69151 2.04189 3.69209L1.45595 3.69306C1.1409 3.6937 0.855596 3.67692 0.728416 3.32783C0.674428 3.16993 0.686775 2.98942 0.785056 2.85127C0.82757 2.79149 0.896126 2.71432 0.924705 2.65107L1.32119 2.25361C1.36899 2.2401 1.42871 2.19634 1.46865 2.16572C2.87382 1.08826 4.91047 1.36944 6.00478 2.75263C6.10148 2.87492 6.19023 3.01269 6.2792 3.14131L13.578 3.13935H16.2128C16.7157 3.13755 17.2187 3.13938 17.7216 3.14326C17.8154 3.00484 17.904 2.86829 18.0077 2.73798Z" fill="white"/>
</g>
<defs>
<clipPath id="clip0_43_725">
<rect width="24" height="24" fill="white"/>
</clipPath>
</defs>
</svg>
