<svg width="24" height="24" viewBox="0 0 24 24" fill="none" xmlns="http://www.w3.org/2000/svg">
<g clip-path="url(#clip0_88_1267)">
<path d="M22.2112 0H22.7892C22.8906 0.0400155 23.0116 0.0514164 23.1095 0.0793568C23.4143 0.166416 23.6854 0.311585 23.8126 0.617145C23.9325 0.85718 23.9298 1.05162 24 1.2325V1.765C23.9537 1.89415 23.9435 2.04697 23.9078 2.1799C23.6769 3.03593 23.1684 3.7987 22.602 4.46925C22.4831 4.6099 22.3087 4.75951 22.1715 4.88754L21.4786 5.53356L19.5077 7.37871C19.1489 7.71369 18.7226 8.09348 18.3814 8.43865L20.844 17.199L21.6557 20.0862L21.9154 21.0095C21.9615 21.1726 22.0103 21.3377 22.053 21.5017C22.0682 21.5596 22.0789 21.6059 22.0461 21.6565C21.9783 21.7614 21.8907 21.8637 21.8122 21.9614L21.3734 22.5076C21.2066 22.7155 21.0437 22.9389 20.8677 23.1387C20.7136 23.3135 20.5628 23.2999 20.4322 23.1081C20.0643 22.5674 19.6984 22.0242 19.3317 21.482L17.2086 18.3443L14.8002 14.7847C14.395 14.1858 13.9584 13.5638 13.5661 12.9598C13.4077 13.0717 13.0148 13.4539 12.8557 13.6008L11.4558 14.8938L9.72016 16.4957C9.48489 16.7133 9.07805 17.065 8.87354 17.2866C8.93428 17.7271 9.02695 18.215 9.10194 18.6584L9.52748 21.1718L9.68505 22.1004C9.71571 22.2811 9.75548 22.4716 9.76203 22.6595C9.77268 22.9646 9.43131 23.2481 9.25295 23.475C9.11163 23.6548 8.91482 23.8935 8.72727 24H8.60461C8.43961 23.8793 8.11466 23.2944 7.98593 23.0911L6.48525 20.7198L6.03477 20.0048C5.9538 19.8764 5.8455 19.6948 5.75388 19.579C5.28868 20.0104 4.47423 20.5492 3.85243 20.6933C3.74174 20.719 3.36064 20.7967 3.26324 20.7371C3.25512 20.7193 3.24843 20.7025 3.24831 20.6823C3.24248 19.7631 3.85283 18.9068 4.42339 18.2395C4.04963 17.992 3.65181 17.7486 3.27193 17.5087L1.2881 16.2546L0.464977 15.7351C0.326684 15.6483 0.095095 15.5273 0 15.4027V15.2637C0.0266313 15.228 0.0539987 15.1711 0.0860578 15.1373C0.317374 14.8866 0.615716 14.6797 0.864265 14.4513C1.20552 14.1377 1.44404 14.2373 1.85749 14.3075L2.55769 14.4261L5.30352 14.8907L6.16782 15.0369C6.33946 15.066 6.54906 15.107 6.72006 15.1225C7.04013 14.7817 7.35687 14.4379 7.67023 14.091L9.36657 12.2532L10.4883 11.0387C10.6654 10.8466 10.8832 10.6301 11.0441 10.4309C10.7927 10.286 10.3575 9.97286 10.1053 9.80228L8.28443 8.56992L2.69559 4.78806C2.46176 4.62984 0.86334 3.58127 0.779443 3.46697C0.746921 3.42265 0.731255 3.37165 0.740869 3.31692C0.75191 3.25406 0.790365 3.19836 0.833457 3.15286C0.986456 2.99127 1.29282 2.77561 1.48107 2.6254L2.03004 2.18776C2.13834 2.10154 2.25976 1.99852 2.37337 1.92346C2.48462 1.93583 2.66848 1.99295 2.78062 2.02472L3.35779 2.18832L5.41935 2.76777L13.0512 4.9125L14.7725 5.3959C14.9321 5.44083 15.4434 5.59668 15.5746 5.60951C15.8183 5.3338 16.0784 5.06584 16.3304 4.79773L17.7456 3.28511L18.9673 1.97795C19.1145 1.82254 19.3465 1.55256 19.4972 1.41989C19.8469 1.11198 20.305 0.782869 20.7102 0.553829C21.0456 0.359972 21.4037 0.20826 21.7762 0.102135C21.9083 0.0646874 22.0912 0.0475473 22.2112 0Z" fill="white"/>
</g>
<defs>
<clipPath id="clip0_88_1267">
<rect width="24" height="24" fill="white"/>
</clipPath>
</defs>
</svg>
