<svg width="24" height="24" viewBox="0 0 24 24" fill="none" xmlns="http://www.w3.org/2000/svg">
<g clip-path="url(#clip0_75_1026)">
<path d="M3.00015 21.9998H1.00015V12.9998H3.00015V21.9998ZM23.0002 21.9998H21.0002V12.9998H23.0002V21.9998ZM20.0002 19.9998H13.0002V16.9998H20.0002V19.9998ZM16.5002 17.9998C16.2241 17.9998 16.0004 18.2238 16.0002 18.4998C16.0002 18.7759 16.224 18.9998 16.5002 18.9998C16.7762 18.9997 17.0002 18.7759 17.0002 18.4998C16.9999 18.2239 16.7761 17.9999 16.5002 17.9998ZM20.0002 15.9998H13.0002V12.9998H20.0002V15.9998ZM16.5002 13.9998C16.2241 13.9998 16.0003 14.2238 16.0002 14.4998C16.0002 14.7759 16.224 14.9998 16.5002 14.9998C16.7762 14.9997 17.0002 14.7759 17.0002 14.4998C17 14.2238 16.7762 13.9999 16.5002 13.9998ZM24.0002 11.9998H0.000152588V9.9998H24.0002V11.9998ZM6.50015 3.9998C6.51283 4.00232 7.49983 4.20074 7.50015 4.9998C7.50015 5.79779 6.51622 5.99661 6.50015 5.9998H3.00015V3.9998H6.50015ZM13.5002 3.9998C13.5128 4.00232 14.4998 4.20074 14.5002 4.9998C14.5002 5.79779 13.5162 5.99661 13.5002 5.9998H10.0002V3.9998H13.5002ZM20.5002 3.9998C20.5128 4.00232 21.4998 4.20074 21.5002 4.9998C21.5002 5.79779 20.5162 5.99661 20.5002 5.9998H17.0002V3.9998H20.5002Z" fill="white"/>
</g>
<defs>
<clipPath id="clip0_75_1026">
<rect width="24" height="24" fill="white"/>
</clipPath>
</defs>
</svg>
