<svg width="24" height="24" viewBox="0 0 24 24" fill="none" xmlns="http://www.w3.org/2000/svg">
<path d="M4.71502 0.99999C5.71528 0.978745 6.92185 1.91114 7.48944 2.66894C8.03642 2.54203 8.91052 2.4276 9.46991 2.36718C11.8134 2.114 13.8523 2.08417 16.1447 2.66405C16.482 2.32981 17.073 1.98906 17.5031 1.75585C18.2987 1.32449 19.8495 0.933818 20.3478 1.98632C20.6653 2.65765 20.3748 3.62926 20.1379 4.30468C22.2313 8.14494 23.7008 11.8234 24.0002 16.209C22.6854 17.5782 20.3414 19.2338 18.7258 20.208C18.7153 20.2146 18.705 20.2213 18.6945 20.2275C16.9568 21.2556 15.0766 22.0958 13.1096 22.5693C12.4196 22.7354 12.0243 22.8547 11.3156 22.666C7.25751 21.5856 2.21788 19.2965 0.00115749 15.5273C-0.0109628 15.1072 0.0746923 14.2651 0.1369 13.831C0.593207 10.6467 2.00743 6.95947 3.68768 4.21874C3.44879 3.13541 3.19772 1.22942 4.71502 0.99999ZM11.8127 8.55858C11.7426 8.56219 11.6722 8.56704 11.6027 8.57323C8.77573 8.99558 7.74599 11.7186 7.45428 14.248C7.31871 15.4241 7.39357 16.2921 8.43963 17.0381C9.5826 17.8529 11.124 17.9468 12.4846 17.9326C13.6766 17.8896 15.0584 17.7196 15.9289 16.8135C16.3922 16.3311 16.6857 15.391 16.6154 14.7295C16.3577 12.3076 14.772 8.41086 11.8127 8.55858ZM12.0754 13.7607C12.5902 13.7258 13.4186 13.9341 13.7971 14.29C14.3361 14.7978 14.0347 15.6228 13.5715 16.0664C13.1291 16.4897 12.6146 16.6245 12.0217 16.6142C11.5243 16.5705 11.0507 16.3799 10.6613 16.0674C9.73511 15.3158 9.52247 14.3262 10.8762 13.9785C11.3102 13.867 11.6239 13.8006 12.0754 13.7607Z" fill="white"/>
</svg>
