<svg width="24" height="24" viewBox="0 0 24 24" fill="none" xmlns="http://www.w3.org/2000/svg">
<path d="M1.48246 6.00036C1.84178 5.99589 1.98307 6.0707 1.98149 6.45544C1.98074 6.63595 1.98089 6.8252 1.98051 7.00622C1.97748 7.52237 1.97758 8.0389 1.98051 8.55505L1.98442 9.37341L1.98149 11.8217C1.98146 12.188 1.99405 12.6355 1.97856 12.9945L16.4678 12.9906L21.3262 12.9916H22.8438C23.1045 12.991 23.3689 12.9864 23.6299 12.9896C23.7246 12.9909 23.8303 13.0203 23.9014 13.0873C24.0182 13.1976 23.9964 13.4194 23.9981 13.5756C23.9976 13.6563 23.9949 13.7508 23.9971 13.8304L23.9961 14.1761C23.9965 14.2431 23.9941 14.3255 23.9971 14.391L23.9932 16.8636L23.9952 17.5746C23.996 17.8232 24.057 18.2937 23.7178 18.3187C23.2854 18.3507 22.8386 18.3161 22.4014 18.3295C22.1797 18.3362 22.0514 18.2403 22.0284 18.0101C21.999 17.3693 22.0357 16.7204 22.0127 16.0785C22.0168 15.9393 22.016 15.7944 22.0176 15.6547C21.9384 15.6505 21.8259 15.6542 21.7442 15.6547L15.835 15.6517C15.0647 15.6518 14.247 15.6687 13.4825 15.6527C13.1889 15.6553 12.8951 15.6555 12.6016 15.6537L7.27543 15.6517H5.62211C5.37761 15.6518 5.06047 15.6648 4.82524 15.6527C4.39965 15.6655 3.93214 15.6559 3.50493 15.6517C3.38231 15.6613 3.11902 15.6529 2.98735 15.6527L1.97856 15.6498C2.0054 16.4222 1.96387 17.245 1.9766 18.0209C1.98013 18.2357 1.77528 18.334 1.57817 18.3285C1.15654 18.3168 0.714957 18.3517 0.293988 18.3207C0.0852037 18.3051 0.00211673 18.1242 0.00199542 17.9379C-0.00270519 17.6942 0.0025906 17.4432 0.00297198 17.1957L0.00394854 15.64L0.00492511 10.7621C0.00575447 10.6421 0.00364736 10.52 0.00297198 10.3998L0.00394854 7.61267L0.00199542 6.77868C0.000647808 6.04134 -0.032439 5.99492 0.743206 6.00036C0.989599 6.00451 1.23606 6.00414 1.48246 6.00036ZM8.8311 6.44568C9.29453 5.964 9.95127 6.07774 10.5684 6.07849L12.6377 6.07751L21.087 6.07654C21.202 6.07697 21.3283 6.07541 21.4424 6.08044C21.5329 6.07515 21.6054 6.0814 21.6954 6.08728C21.7755 6.09571 21.9159 6.10589 21.9903 6.12048C22.1989 6.16567 22.3767 6.22393 22.5694 6.31286C23.4158 6.70359 23.973 7.55163 23.9873 8.48572C23.9951 8.98998 23.9886 9.50025 23.9903 10.0052C23.9908 10.1669 23.9913 10.3307 23.9922 10.4926C23.9874 10.784 24.0431 11.1201 23.8223 11.35C23.7018 11.4753 23.5584 11.5141 23.3877 11.515H14.003L10.6358 11.514L9.56547 11.515C9.26555 11.5153 8.85369 11.5694 8.62407 11.3539C8.43223 11.1738 8.45872 10.8741 8.45805 10.6322V8.33923C8.45823 7.9391 8.43971 7.43968 8.49321 7.04822C8.53796 6.82037 8.67563 6.60739 8.8311 6.44568ZM5.07914 6.08337C6.57928 5.98981 7.87122 7.13012 7.96489 8.63025C8.0585 10.1304 6.91818 11.4223 5.41801 11.516C3.91783 11.6096 2.62588 10.4693 2.53227 8.96911C2.43879 7.46898 3.57898 6.17695 5.07914 6.08337Z" fill="white"/>
</svg>
