<svg width="24" height="24" viewBox="0 0 24 24" fill="none" xmlns="http://www.w3.org/2000/svg">
<path d="M10.2974 8.94517C11.2388 8.81417 13.9922 8.68419 15.1718 8.59909C15.5329 5.81507 16.1337 3.40909 19.2784 1.31105L16.8668 0C16.3408 0.392932 15.8074 0.774632 15.2817 1.11274L7.47621 1.31105C7.67538 2.02959 7.78214 2.54271 7.88275 3.27667C10.0315 3.37343 11.8846 3.5822 13.9512 3.8785C12.0129 4.02368 9.90522 4.18888 7.94538 4.24731L7.87762 4.94543C9.31593 5.10299 10.2111 5.24977 11.5755 5.52915C10.3118 5.60899 9.04387 5.67495 7.77291 5.72694C7.62918 6.25259 7.47313 6.7883 7.34172 7.31385C6.56768 6.68537 5.96696 6.83626 4.91569 6.00635L4.61533 7.2135C6.64717 9.04672 5.41741 8.49646 6.18163 11.0278C6.2268 11.1768 6.26889 11.3259 6.30585 11.4754C8.14146 11.6322 9.54794 11.7911 11.3066 12.1253C9.61057 12.3017 8.29136 12.4208 6.54711 12.4976C6.56764 12.821 6.57688 13.1759 6.62821 13.4961C8.35295 13.475 10.7583 13.8226 12.3137 14.1903C10.4514 14.277 8.58394 14.3028 6.72266 14.3698C6.74627 14.9418 6.79863 15.5132 6.87768 16.0836C8.44267 16.1483 10.0545 16.3629 11.5793 16.5658L11.5992 16.5684C10.1116 16.7211 8.39709 16.8222 6.87665 16.9274C5.99991 16.3652 5.15787 15.8139 4.32671 15.2332L3 18.2152C3.69102 18.8857 4.22415 19.5943 4.5887 20.3272C5.23938 21.5939 5.09433 22.4954 5.46925 23.6543C8.9638 23.8271 11.7685 24.1077 15.3381 23.9571C15.3422 22.6857 15.4295 21.4149 15.5979 20.1467C14.5148 20.0436 12.8629 19.8651 11.8178 19.8172C13.0087 19.6557 14.5661 19.4525 15.7847 19.3721C16.45 17.209 17.9016 15.4225 21 13.8221L20.234 11.7403C16.9857 13.7662 18.7291 12.0103 15.3422 14.0041C15.1636 13.0624 15.103 12.2563 15.0055 11.3186C13.5857 11.2268 12.0344 11.1201 10.6105 11.067C11.8425 10.8864 13.8187 10.5708 15.0106 10.4965L15.0271 9.33972C14.5363 9.30258 10.4288 9.02201 10.2974 8.94517Z" fill="white"/>
</svg>
