<svg width="24" height="24" viewBox="0 0 24 24" fill="none" xmlns="http://www.w3.org/2000/svg">
<path d="M14.417 10.1271C14.1752 9.70003 13.2891 8.63003 12.9302 8.15082C14.7705 6.05397 16.2584 4.13926 16.6248 1.5386L18.4086 1.46824C18.3176 1.93295 18.2372 2.39232 18.1848 2.81815L20.8173 5.73111C20.2385 6.16844 19.8377 6.49335 19.283 6.9766C18.4513 6.28172 17.6454 5.77108 16.7018 5.24648C17.2877 6.03767 17.9195 6.90319 18.5744 7.6407L18.1049 8.15841C17.4825 7.75889 17.0607 7.54468 16.3785 7.25756C16.771 7.76294 17.1747 8.25998 17.5894 8.74822C17.2688 9.17097 16.9454 9.60521 16.6205 10.0235C17.3399 9.85406 17.4466 10.1742 18.4068 9.96076L17.6599 10.921C15.6419 11.4956 16.4678 11.5433 14.4065 13.0617C14.285 13.1511 14.1647 13.2415 14.0458 13.3342C13.2829 12.793 12.6709 12.4057 11.8099 12.0173C12.2876 12.7445 12.672 13.2973 13.2373 13.9713C13.0013 14.1926 12.7471 14.4403 12.5024 14.6485C11.9047 14.0209 10.8044 13.4122 9.99189 13.1197C10.5922 13.8425 11.2373 14.5241 11.8511 15.2327C11.4383 15.6288 11.0156 16.0143 10.5842 16.3895C9.98247 15.8793 9.25822 15.4585 8.57304 15.0603L8.56413 15.0551C8.98462 15.6915 9.52217 16.372 9.98788 16.9865C10.6968 16.9005 11.3858 16.8097 12.0917 16.6943L10.4544 19.2743C9.73479 19.5029 9.04432 19.8146 8.3966 20.2033C7.26978 20.8678 6.68383 21.5569 5.73119 22.2431C4.36765 21.1239 3.17293 20.326 2.01139 18.9515C2.90889 18.0511 3.77649 17.1215 4.61345 16.1649C5.07114 16.4767 5.7841 16.9373 6.18927 17.2746C5.88038 16.7374 5.47084 16.0405 5.09484 15.5507C6.38803 13.7849 7.13565 12.006 7.16664 9.77369L8.9108 8.57376C8.63218 11.1601 9.25449 9.29923 9.04771 11.9122C9.77709 11.3098 10.3686 10.7613 11.0663 10.1329C11.6355 10.5724 12.2621 11.0479 12.8055 11.5162C12.4955 10.9509 12.0166 10.0257 11.6458 9.54977L12.4579 8.72594C12.6585 8.874 14.316 10.1347 14.417 10.1271Z" fill="white"/>
</svg>
