<svg width="24" height="24" viewBox="0 0 24 24" fill="none" xmlns="http://www.w3.org/2000/svg">
<path d="M5.23178 19.244C4.80868 18.367 4.31596 17.4332 3.99332 16.5133C3.22089 14.311 2.72764 12.0041 3.54456 9.73453C4.16521 8.01026 5.37001 6.88444 7.00199 6.11658C7.88886 5.69341 8.84746 5.39923 9.80828 5.17364C10.6978 4.96479 11.7919 4.89424 12.6917 4.6987C14.6707 4.26867 17.2367 3.42396 18.2534 1.5327C18.5035 2.02877 18.9021 2.54149 19.0937 3.05468C19.4842 4.1003 19.9194 5.1968 20.1499 6.29165C20.8841 9.79003 21.222 13.5486 20.0995 17.0033C19.7377 18.1029 19.077 19.1805 18.2449 19.9889C17.879 20.3444 17.241 20.7872 16.7891 21.0238C15.7255 21.5808 14.7563 21.7988 13.5684 21.9015C11.7093 22.0595 9.83699 21.9308 8.01702 21.5199C7.80285 21.4722 7.41378 21.394 7.20941 21.3302C7.39199 20.8849 7.73532 20.527 7.99794 20.1313C10.1438 16.8976 12.3692 13.7174 14.5511 10.5084C14.5807 10.4648 14.6376 10.3826 14.6579 10.3364C14.6831 10.1281 14.8165 10.0947 14.8213 9.88059L14.7724 9.86231L14.8126 9.86074L14.8198 9.87366L14.7665 9.86571L14.7724 9.86313C14.6204 9.97722 14.5514 10.1541 14.3929 10.2369C14.1776 10.4779 14.0052 10.7432 13.7939 10.9836C12.6411 12.2955 11.5568 13.6596 10.4508 15.0068L6.72043 19.471C6.54482 19.6842 6.34028 19.98 6.16968 20.1721C5.57218 20.8449 5.02084 21.5462 4.42663 22.221C4.15766 22.5265 3.90664 22.8942 3.62563 23.181C3.23528 22.8356 2.87945 22.4662 2.52029 22.0892C2.43793 22.0028 2.35677 21.9227 2.26477 21.8463C2.43932 21.7274 2.58718 21.5858 2.74229 21.4439C3.46314 20.784 4.22155 20.163 4.92538 19.4848C5.02004 19.3936 5.11799 19.3113 5.23178 19.244Z" fill="white"/>
</svg>
