<svg width="24" height="24" viewBox="0 0 24 24" fill="none" xmlns="http://www.w3.org/2000/svg">
<path d="M20.6993 0.642578C20.849 1.49455 21.1513 2.47885 21.3858 3.32227C22.0354 5.3433 21.1208 6.4401 19.2511 6.71875C17.5792 10.7294 16.75 11.1574 14.2423 13.0449C13.4409 14.3614 12.4873 15.5941 12.1358 17.166C11.5997 19.5637 12.1822 21.9132 13.2403 23.9971C12.9039 24.0026 12.5543 23.9974 12.2169 23.9971L11.7276 23.998C9.97635 20.9679 10.2151 17.3595 12.1671 14.5225C13.377 12.7637 14.9293 11.0091 15.2198 8.72168C15.2797 8.24934 15.2919 7.74902 15.2774 7.27344C15.5205 8.19316 15.5668 9.16826 15.4259 10.1074C15.3537 10.5979 15.2201 11.0541 15.047 11.4883C16.6705 9.83604 17.2832 9.59494 18.5167 6.59766C16.0891 3.19711 18.7237 2.76454 20.6993 0.642578ZM13.3292 18.292C12.876 15.7703 14.5238 14.6044 16.8839 15.0996C17.8156 15.2951 18.8681 15.7886 19.7569 16.1523L19.7999 16.2646C19.3489 17.0903 17.5025 19.7128 16.5548 20.083C15.7973 20.3789 14.5777 19.8439 13.8741 19.4785C13.6128 19.0486 13.51 18.7519 13.3292 18.292ZM1.63192 13.5713C3.70746 13.6599 5.63964 13.2111 7.51181 14.1143C8.81783 15.2061 9.23463 16.2114 8.71493 17.876C9.22081 18.2332 9.87679 18.5752 9.98544 19.1553L9.79403 19.2607C9.24459 19.2416 8.76231 18.9671 8.24716 18.7383C6.64445 19.6521 6.1566 19.8679 4.36728 19.166C2.63747 17.7487 2.5693 15.68 1.63192 13.5713Z" fill="white"/>
<path d="M7.05294 7.12115L7.01066 7.01354L7.10932 6.92933C10.5264 7.38824 14.1557 7.35669 12.8146 11.6242C13.1026 11.8997 13.4201 12.1785 13.7169 12.449C13.8301 12.5768 13.9117 12.6871 14.015 12.8219L13.9399 12.9266C13.5027 12.8443 12.4827 12.3013 12.01 12.0806C10.8825 12.2481 9.99516 12.462 8.91274 11.9001C7.52279 11.1785 7.35186 8.61956 7.05294 7.12115Z" fill="white"/>
<path d="M10.0741 2L10 2.08847C10.8258 4.94858 10.5368 6.89628 14.1205 6.53893C14.4246 6.67884 14.6948 6.83634 14.9857 7C15.012 6.87571 15.0026 6.7487 14.952 6.62984C14.6883 6.01025 14.8853 5.455 14.8985 4.79529C14.951 2.01618 12.0898 2.25167 10.0741 2Z" fill="white"/>
</svg>
