<svg width="24" height="24" viewBox="0 0 24 24" fill="none" xmlns="http://www.w3.org/2000/svg">
<path d="M0.612305 5.8413C0.86904 5.78176 1.2175 5.79062 1.48145 5.80712V13.4067L1.48047 15.5835C1.48017 16.5458 1.37763 17.3456 2.11816 18.102C2.41342 18.4012 2.78881 18.6087 3.19922 18.6997C3.53006 18.7747 3.91541 18.7583 4.25391 18.7759C6.44342 18.8899 8.49531 19.4755 10.1426 20.9722C9.12607 20.7025 7.96577 20.5899 6.91504 20.563C6.70704 20.5577 6.49639 20.5415 6.28809 20.5395C5.86231 20.5605 5.41809 20.5543 4.99414 20.5806C4.29476 20.6279 3.59701 20.7024 2.90332 20.8032C2.52707 20.8557 2.13407 20.9329 1.75781 21.0034C1.17294 21.1129 0.531857 21.3947 0.133789 20.7593C0.0765559 20.6679 0.0459149 20.5454 0 20.4702V6.49657C0.050443 6.41384 0.0684567 6.3142 0.111328 6.23778C0.210718 6.06087 0.410448 5.88816 0.612305 5.8413ZM22.5176 5.80419C23.0356 5.78839 23.6076 5.72568 23.8975 6.25536C23.939 6.33142 23.967 6.43463 24 6.51805V20.4458C23.9768 20.4991 23.958 20.5651 23.9346 20.6196C23.5657 21.4378 22.8523 21.1154 22.1914 20.9878C20.1078 20.5855 17.9705 20.4344 15.8564 20.6352C15.1743 20.7 14.5188 20.8312 13.8506 20.9692C14.0718 20.8029 14.2541 20.6082 14.4961 20.4341C15.0557 20.0312 15.6804 19.6884 16.3262 19.4507C17.1583 19.1481 18.0227 18.9429 18.9023 18.8413C19.111 18.8169 19.3362 18.8038 19.5469 18.7866C19.9706 18.7521 20.4638 18.7918 20.8779 18.6802C21.2638 18.5766 21.6149 18.3708 21.8936 18.0845C22.636 17.3168 22.5181 16.4757 22.5176 15.5034V8.30712C22.5176 7.48055 22.5282 6.62866 22.5176 5.80419ZM20.3535 2.83544C20.8204 2.85899 21.1644 3.2066 21.1816 3.6743C21.1908 3.91901 21.1865 4.1626 21.1865 4.4077V15.8559C21.1865 16.1011 21.1895 16.3425 21.1816 16.5864C21.1836 16.9192 20.9313 17.2704 20.6152 17.3774C20.3734 17.4591 19.946 17.4379 19.6807 17.4516C17.4315 17.567 15.08 18.1716 13.3311 19.6548C13.1819 19.7745 12.7786 20.1309 12.6631 20.2817C12.6822 19.9582 12.666 19.4477 12.666 19.1108V7.79247C12.666 7.50006 12.6451 6.76889 12.71 6.53368C12.784 6.26619 13.3572 5.55136 13.5703 5.3247C15.2261 3.56364 17.602 2.93163 19.9346 2.8413C20.0751 2.83566 20.2131 2.82837 20.3535 2.83544ZM3.59473 2.83641C6.21172 2.82154 9.05952 3.57561 10.751 5.70653C10.9255 5.92637 11.2273 6.31912 11.2969 6.55712C11.3542 6.75332 11.334 7.43544 11.334 7.65575L11.333 9.37938L11.334 16.7446V19.0815C11.334 19.4127 11.3152 19.958 11.3379 20.2661C11.2156 20.1609 11.0613 20.0053 10.9414 19.8911C9.19526 18.2451 6.62705 17.5559 4.29492 17.4497C4.05266 17.4387 3.7403 17.4557 3.50879 17.4106C3.39649 17.3885 3.28965 17.3437 3.19531 17.2788C2.76455 16.9878 2.81458 16.5892 2.81445 16.1294V15.3091L2.81543 12.2544V6.53173L2.81445 4.65868C2.81432 4.34152 2.81018 4.01775 2.81738 3.70165C2.82141 3.52521 2.87072 3.3357 2.97461 3.19188C3.13575 2.96881 3.30962 2.88742 3.57031 2.83934C3.57848 2.83861 3.58657 2.83716 3.59473 2.83641Z" fill="white"/>
</svg>
