<svg width="24" height="24" viewBox="0 0 24 24" fill="none" xmlns="http://www.w3.org/2000/svg">
<g clip-path="url(#clip0_2_459)">
<path d="M23.944 0H23.9917L23.9865 0.0114156C23.9245 0.152539 23.8102 0.512239 23.7527 0.671501L23.2355 2.10389C23.1918 2.2255 23.0373 2.69244 22.9809 2.77064C22.8332 2.97585 22.5225 3.21592 22.3535 3.42244C22.3279 2.96663 22.3057 2.51061 22.2871 2.05446C22.0598 2.25239 19.3559 4.9713 19.344 5.00561C19.412 5.12212 19.8721 5.57155 20.0004 5.71712C20.2656 6.01827 20.5308 6.31584 20.7837 6.62788C21.5727 7.60125 22.3616 8.67026 22.8267 9.84207C23.2755 11.0016 23.365 12.251 23.208 13.4773C23.1511 13.9225 23.0664 14.3105 22.962 14.7401C22.5469 16.4475 21.7979 18.0362 21.1829 19.6754C20.9466 20.3054 20.733 20.9587 20.6396 21.6281C20.5774 22.1 20.6239 22.6815 20.8707 23.0917C20.903 23.1454 20.9695 23.2613 21.0107 23.3104C21.1276 23.4502 21.3053 23.5802 21.2503 23.7919C21.2227 23.8979 21.1216 23.9474 21.045 24H20.8999C20.5787 23.7939 20.572 23.6404 20.3445 23.4109C19.9037 22.9665 19.4575 22.523 19.0146 22.0801L13.2496 16.3155L11.5046 14.57L10.9774 14.042C10.8747 13.9391 10.7343 13.7919 10.6236 13.7038C10.538 13.8008 10.4048 13.9264 10.3109 14.0202L9.72349 14.6065C9.62279 14.7069 9.50353 14.8201 9.41326 14.927C9.41779 15.2243 9.47316 15.5737 9.4938 15.8728C9.50476 16.0315 9.52927 16.1694 9.52099 16.3324C9.42589 16.4494 9.26955 16.5874 9.16236 16.6997C8.8766 16.999 8.54904 17.2931 8.2662 17.592C8.26287 17.4313 8.2406 17.2363 8.22693 17.0742C8.20259 16.7787 8.17671 16.4832 8.14932 16.1879C8.07519 16.2544 7.98559 16.3412 7.92275 16.4166C7.91804 16.5457 7.93788 16.705 7.9494 16.836C7.97401 17.1161 8.00443 17.3971 8.02787 17.677C8.03156 17.7212 8.03116 17.8071 8.00568 17.8427C7.94429 17.9286 7.83717 18.0257 7.76115 18.1014L7.29339 18.5662C7.20233 18.6557 7.08988 18.7579 7.00809 18.8518L6.99807 18.8636C6.99496 18.7061 6.97218 18.5075 6.95834 18.347C6.93166 18.0493 6.90735 17.7516 6.88539 17.4536C6.7952 17.5339 6.70945 17.6191 6.62854 17.7088C6.63721 18.0255 6.69336 18.356 6.71273 18.6732C6.71889 18.774 6.77339 19.0636 6.71752 19.1306C6.60403 19.2668 6.45913 19.4029 6.33246 19.5294L5.45367 20.4022C5.45081 20.225 5.42031 19.9616 5.40469 19.7775L5.3121 18.6864L3.61191 18.5612C3.82705 18.3915 4.81233 17.2821 4.95227 17.2772C5.36891 17.2629 5.85862 17.373 6.28178 17.3624L6.29822 17.3619C6.36466 17.2882 6.47657 17.1739 6.55545 17.1179C6.08879 17.0892 5.62252 17.0545 5.15674 17.014C5.24346 16.9478 5.38486 16.7932 5.46807 16.7079L5.94199 16.2292C6.01403 16.157 6.12192 16.0426 6.20331 15.9877C6.33325 15.9821 6.46003 16.0029 6.58665 16.0078C6.89331 16.0199 7.27628 16.0785 7.57794 16.0752C7.65445 15.9998 7.73378 15.917 7.81903 15.8527C7.6584 15.8332 7.45095 15.8251 7.2862 15.8139C6.99848 15.7946 6.71096 15.7727 6.42368 15.7479C6.50872 15.683 6.69667 15.4796 6.78125 15.3936L7.39436 14.7771C7.47014 14.7013 7.61864 14.5438 7.70284 14.4906C8.1513 14.5079 8.63411 14.5747 9.07596 14.5825C9.33491 14.2948 9.67405 13.9993 9.9413 13.7142C10.0277 13.622 10.215 13.4565 10.2769 13.3581C10.2182 13.2766 10.0659 13.1317 9.99009 13.0559L9.50196 12.5675L7.78222 10.8475L1.64973 4.7154C1.26403 4.32967 0.878221 3.94233 0.490853 3.55829C0.380442 3.44884 0.216205 3.36294 0.106513 3.24702C0.0560753 3.19371 0.0360683 3.15632 0 3.09282V2.96787C0.267807 2.51405 0.492033 2.85716 0.798832 3.03239C0.937154 3.11147 1.08437 3.17386 1.23739 3.21825C2.38811 3.54991 4.07317 2.82993 5.1465 2.405C5.80759 2.137 6.47228 1.87793 7.14038 1.62789C7.68722 1.42534 8.24429 1.25156 8.80931 1.10726C9.03461 1.0492 9.26214 0.98659 9.49043 0.938466C11.0202 0.615977 12.6885 0.627783 14.1633 1.20273C15.6844 1.79576 17.0453 2.91912 18.2643 3.98385C18.3982 4.10091 18.8841 4.60429 19.0008 4.64638C19.1786 4.48676 19.3731 4.28161 19.5454 4.10927L20.4845 3.16992L21.4043 2.25115C21.5728 2.08268 21.7846 1.88122 21.9401 1.70578C21.828 1.70378 20.6209 1.63167 20.5717 1.60627C20.5862 1.55305 21.1336 0.998337 21.2055 0.967542C21.3942 0.886853 21.6789 0.796392 21.8782 0.72803L23.3974 0.202012C23.5154 0.16118 23.854 0.0671477 23.944 0ZM10.194 12.5985L10.6246 13.0241C10.8268 12.8488 11.1489 12.5057 11.3451 12.3091L12.7448 10.9093L16.0709 7.58339C16.652 7.00229 17.2441 6.39561 17.8327 5.82499C17.3903 5.36428 16.8101 4.86202 16.3195 4.45438C15.5364 3.80352 14.6243 3.148 13.7113 2.69896C13.2005 2.44772 12.4768 2.22176 11.9217 2.09529C11.358 1.96346 10.7823 1.88943 10.2036 1.87431C9.99134 1.87083 9.77904 1.87274 9.56689 1.88005C7.62538 1.98586 5.96907 2.72238 4.18118 3.397C3.44954 3.67305 2.23954 4.02438 1.46355 3.86721L7.01461 9.41734L9.14433 11.5472C9.47756 11.8804 9.87526 12.2583 10.194 12.5985ZM10.964 13.3747C11.2778 13.6552 11.6805 14.083 11.9845 14.3871L13.8776 16.2802L16.282 18.6847C16.6672 19.0699 17.1318 19.5109 17.4995 19.9041L19.2364 21.6391L19.7514 22.1542C19.8316 22.2343 19.9605 22.37 20.0429 22.4404C20.0234 22.1171 20.0136 21.8177 20.0646 21.4971C20.2796 20.1461 20.8989 18.8611 21.3693 17.5826C22.1039 15.5861 22.4139 13.6765 21.8132 11.5937C21.685 11.1385 21.5173 10.6955 21.312 10.2695C20.9734 9.57577 20.4401 8.81561 19.9713 8.20596C19.5593 7.67631 19.1242 7.16508 18.6671 6.67378C18.6016 6.60381 18.2241 6.18729 18.1589 6.17235L13.3254 11.0052L11.7745 12.5561C11.5406 12.7898 11.1746 13.1333 10.964 13.3747Z" fill="white"/>
</g>
<defs>
<clipPath id="clip0_2_459">
<rect width="24" height="24" fill="white"/>
</clipPath>
</defs>
</svg>
