<svg width="24" height="24" viewBox="0 0 24 24" fill="none" xmlns="http://www.w3.org/2000/svg">
<path d="M6.70312 18.9336C7.30244 18.9398 7.89833 19.0308 8.47266 19.2021C8.96626 19.3483 9.4514 19.5522 9.93457 19.7285C10.7028 20.0253 11.4496 20.1186 12.2598 20.0986C13.5835 20.0659 14.6067 19.44 15.8486 19.1133C16.6066 18.9138 17.4354 18.9089 18.2207 18.9678C18.4316 18.9872 18.5865 19.0073 18.7949 19.041C18.8648 19.0693 19.0156 19.0954 19.0947 19.1162C19.7904 19.2991 20.4341 19.6124 21.1191 19.834C22.0787 20.1445 23.0167 20.0986 23.9932 19.9092C24.0113 20.3128 23.9484 20.6117 23.6514 20.9072C23.2906 21.273 22.8383 21.2044 22.3799 21.1758C20.5517 21.0621 19.0944 19.8979 17.2246 20.0273C15.8815 20.1205 14.8161 20.6841 13.5615 21.0791C13.0728 21.233 12.374 21.2806 11.8643 21.2725C11.3512 21.2648 10.841 21.1911 10.3467 21.0537C10.006 20.957 9.66243 20.8135 9.33008 20.6875C8.30121 20.2979 7.31972 19.9587 6.19922 20.0283C5.22639 20.0889 4.59079 20.3671 3.7002 20.6895C2.85218 20.9867 1.95709 21.2066 1.05469 21.2002C0.526009 21.1962 0.0984177 20.7812 0.0175781 20.2734C-0.00301654 20.144 0.00137577 20.0386 0.00585938 19.9082C1.3424 20.1767 2.3143 20.1069 3.55957 19.5859C4.02073 19.4111 4.4876 19.2112 4.96777 19.0947C5.51322 18.9626 6.14016 18.9227 6.70312 18.9336ZM14.7109 17.1143C16.1473 16.4641 18.305 16.3265 19.7949 16.9473C21.352 17.5962 22.2756 17.835 23.9932 17.5371C24.0013 17.7095 24.0029 17.8428 23.9551 18.0117C23.8759 18.2932 23.6866 18.5305 23.4307 18.6719C22.8786 18.9777 21.5859 18.696 20.999 18.5322C20.9193 18.5059 20.8551 18.4903 20.7734 18.4707L20.6875 18.4355C20.6095 18.4127 20.5453 18.3911 20.4688 18.3633L20.4365 18.3555C20.3318 18.3177 20.227 18.2779 20.123 18.2373C20.0389 18.1878 19.7254 18.0849 19.6104 18.04C18.4593 17.5908 17.2675 17.5312 16.0703 17.8379C14.7587 18.174 13.7895 18.8316 12.3799 18.8672C12.2589 18.8906 11.7585 18.8889 11.6357 18.8682C11.1271 18.8418 10.6233 18.7545 10.1357 18.6074C9.80621 18.5072 9.50446 18.3754 9.18359 18.252C8.31455 17.9171 7.39906 17.6314 6.45801 17.6465C6.00538 17.6537 5.55814 17.7017 5.11719 17.8076C4.6826 17.912 4.33337 18.0683 3.91992 18.2256C3.01706 18.569 2.06946 18.8262 1.0957 18.8037C0.787912 18.8062 0.512996 18.6949 0.303711 18.4668C0.0422648 18.1819 -0.00800613 17.9047 0.00585938 17.5371C0.336088 17.6122 0.769135 17.633 1.09668 17.6592C2.45987 17.8059 3.5496 17.0942 4.79102 16.7559C6.01333 16.45 7.70357 16.4528 8.87012 16.958C10.8926 17.8339 12.6409 18.0513 14.7109 17.1143ZM24 2.7334L23.999 6.2334C22.9092 6.24635 21.905 6.65168 21.1396 7.43555C20.6345 7.95291 20.2791 8.59765 20.1104 9.30078C19.9521 9.95498 20.0005 11.0127 20.001 11.7217L20.002 14.7305L15.998 14.7314L15.999 12.0996V10.4043C15.9943 9.89586 15.9609 9.38251 15.7695 8.90625C15.7375 8.80086 15.7041 8.72512 15.6611 8.625C15.1959 7.61573 14.4338 6.86964 13.3838 6.48047C12.3907 6.1142 11.293 6.15625 10.3311 6.59766C9.40325 7.02383 8.6734 7.78942 8.29199 8.73633C8.26967 8.793 8.25056 8.84259 8.23145 8.90039C8.03837 9.4474 8.00561 9.84345 8.00098 10.3242V12.0127L8.00195 14.7305H3.99707V11.7412C3.99728 11.007 4.05011 9.94572 3.88086 9.26855C3.70529 8.56114 3.33955 7.915 2.82324 7.40039C2.07414 6.65254 1.05864 6.23232 0 6.2334V2.73242L24 2.7334Z" fill="white"/>
</svg>
