<svg width="24" height="24" viewBox="0 0 24 24" fill="none" xmlns="http://www.w3.org/2000/svg">
<g clip-path="url(#clip0_8_54)">
<path d="M14.9365 12.8988V22.0433C12.9878 22.0352 9.10253 22.0403 9.05562 22.0404L9.05269 16.5511C9.05262 15.2909 9.06341 12.9008 9.06343 12.8968L14.9365 12.8988ZM4.04878 19.5531C5.42306 19.5534 6.84713 19.5726 8.21773 19.5472L8.23335 19.5619C8.25354 19.7929 8.2421 20.1981 8.24214 20.4398L8.23726 22.0404C6.84014 22.0391 2.12232 21.9611 2.07319 21.9603L1.96284 21.8353L1.96577 19.7601C1.96577 19.7601 2.13813 19.5676 2.30269 19.557C2.88118 19.5199 3.46951 19.5519 4.04878 19.5531ZM21.6796 19.5619C21.6931 19.5644 22.0145 19.627 22.0449 19.7982C22.0914 20.0632 22.0652 20.3518 22.0654 20.6224C22.0657 20.9737 22.0775 21.3265 22.0615 21.6771C22.0567 21.7768 22.0364 21.8631 21.9853 21.9476C21.7648 22.0731 21.1968 22.0384 20.9257 22.0375L15.7705 22.0404C15.7682 21.2237 15.7782 19.5659 15.7783 19.5482L21.6796 19.5619ZM8.23433 16.0853L8.23823 18.5687C8.23823 18.5687 5.50321 18.5654 4.14644 18.5658H2.05855V16.1586C2.10119 16.1582 6.36513 16.1254 8.22163 16.0726L8.23433 16.0853ZM19.9609 16.0795C20.267 16.0792 21.7603 16.047 21.9472 16.141C22.016 16.2225 22.0707 16.3919 22.0634 16.4916C22.0326 16.9172 22.1581 18.136 21.9794 18.4632C21.769 18.6074 21.1872 18.5658 20.9199 18.5658C20.6539 18.5658 15.8258 18.5667 15.7724 18.5668L15.7753 16.0707C15.8127 16.0708 18.6036 16.0796 19.9609 16.0795ZM9.91401 17.7962C9.73904 17.8335 9.62654 18.0047 9.66206 18.18C9.69772 18.3555 9.86822 18.4692 10.0439 18.4349C10.2214 18.4001 10.3367 18.2274 10.3007 18.0502C10.2645 17.873 10.0909 17.7592 9.91401 17.7962ZM2.4853 12.8744C3.00411 12.8536 3.60443 12.8767 4.13179 12.8714C5.49136 12.8583 6.8683 12.8913 8.22651 12.8685L8.2148 14.1839C8.21518 14.4594 8.2077 14.7962 8.22651 15.0677L7.69917 15.0687L4.16108 15.0697C3.56742 15.0697 2.97424 15.0738 2.37983 15.0658C2.14571 15.0698 1.96311 14.9978 1.96284 14.724C1.96231 14.1486 1.94752 13.8171 1.97456 13.2425C1.99093 12.8972 2.20451 12.8838 2.4853 12.8744ZM15.7539 12.9183C15.8023 12.9186 19.8811 12.9384 21.9111 12.972C21.9111 12.972 21.9877 13.0302 22.0087 13.0795C22.1047 13.3073 22.1066 14.4384 22.0693 14.7494C22.0597 14.828 22.0409 14.8965 22.0087 14.9691C21.814 15.1044 20.8847 15.0648 20.8847 15.0648C20.8488 15.0648 17.4639 15.0629 15.7666 15.0609L15.7539 12.9183ZM11.9287 1.00035C12.2618 0.99025 12.4674 1.20035 12.7177 1.38512C12.8964 1.51696 13.0717 1.65476 13.249 1.78844L15.0908 3.17613C17.3108 4.86624 19.5402 6.54375 21.7792 8.20836C22.3178 8.6021 22.8986 9.08686 23.4306 9.45152C24.2508 10.0134 24.0919 10.3006 23.541 10.9867C23.2204 11.386 22.8136 12.244 22.1777 11.7914C21.6378 11.407 21.1308 11.0054 20.6103 10.6117L17.5761 8.32359L13.791 5.47105L12.6142 4.58238C12.417 4.43332 12.2175 4.29403 12.0273 4.13609C11.6165 4.37045 10.9393 4.92141 10.5419 5.22496L4.54976 9.73668L2.95991 10.933C2.57498 11.2283 2.18566 11.5365 1.78608 11.8138C1.69939 11.8703 1.55844 11.9209 1.45308 11.9193C0.998385 11.9119 0.730787 11.3162 0.481397 11.0101C0.334999 10.8305 0.196001 10.6614 0.0810064 10.4711C-0.0485641 10.2564 -0.0209533 9.97845 0.151319 9.7982C0.371455 9.57257 0.658368 9.38893 0.911084 9.19957C1.60058 8.69298 2.2839 8.17782 2.96089 7.65465C3.1573 7.50116 3.44914 7.31218 3.61616 7.13805C3.63858 6.93438 3.62515 6.43003 3.62495 6.20933L3.623 3.95445C3.62278 3.64989 3.5843 2.73644 3.70796 2.51305C3.89322 2.3927 5.85926 2.48557 6.20991 2.46715C6.26723 2.46413 6.3638 2.50661 6.41108 2.55016C6.52597 2.80701 6.47761 4.60491 6.46773 5.00719C6.87299 4.67965 7.38792 4.32462 7.81343 4.00816L9.71968 2.5648L10.9882 1.6068C11.236 1.41977 11.6404 1.06404 11.9287 1.00035ZM9.05952 9.12828H15.3017C15.7999 9.12828 16.3117 9.11648 16.8076 9.14488C17.0235 9.15705 17.3996 9.49899 17.5771 9.63609C17.9384 9.91308 18.2978 10.1929 18.6552 10.475C19.1804 10.8834 19.8656 11.3673 20.3603 11.7894C19.1668 11.7785 17.9471 11.793 16.7509 11.7933H8.248C6.74743 11.7933 5.1248 11.8228 3.63374 11.7826C4.40696 11.1972 5.17659 10.6066 5.94136 10.0101C6.2758 9.75136 6.62498 9.46153 6.96968 9.22008C7.05263 9.16195 7.17715 9.14435 7.2773 9.13219C7.76488 9.10363 8.55446 9.12827 9.05952 9.12828ZM11.9785 5.38219C12.078 5.37822 12.4014 5.65541 12.5009 5.73277L13.2851 6.34117C14.0256 6.91318 14.7961 7.47801 15.5205 8.06676C14.3704 8.08016 13.2084 8.07182 12.0576 8.07164L8.49116 8.07262C8.60023 7.95976 8.87149 7.7515 9.00874 7.64586C9.42191 7.32799 9.84066 7.01504 10.2548 6.69762C10.5895 6.44144 10.9219 6.18228 11.2529 5.92125C11.4672 5.75315 11.7516 5.52075 11.9785 5.38219Z" fill="white"/>
</g>
<defs>
<clipPath id="clip0_8_54">
<rect width="24" height="24" fill="white"/>
</clipPath>
</defs>
</svg>
