<svg width="24" height="24" viewBox="0 0 24 24" fill="none" xmlns="http://www.w3.org/2000/svg">
<path d="M10.9847 19.8781C11.5265 19.8443 12.0621 19.9644 12.5926 19.9564C14.4544 19.9279 17.3898 20.0613 17.6581 22.3996C17.6875 22.6573 17.692 23.1309 17.4815 23.3318C16.9314 23.8577 15.9548 23.9167 15.2246 23.9698C14.105 24.0589 12.8438 23.9318 11.7275 23.8368C10.9216 23.7683 10.1797 23.6848 9.41545 23.4266C7.67479 22.8383 8.68234 21.4419 9.4783 20.5424C9.94817 20.0136 10.2837 19.923 10.9847 19.8781ZM9.38598 11.8817C10.0514 11.3833 10.8313 11.2133 11.6549 11.3187C12.242 11.3938 12.7989 11.5885 13.3635 11.7526C14.4192 12.0596 15.7659 12.3364 16.4712 13.2411C16.8204 13.6887 17.0082 14.2987 16.9273 14.8584C16.8804 15.1823 16.7375 15.5137 16.4614 15.7153C15.9648 16.078 13.3608 16.3686 12.614 16.4097L12.4723 16.4602C13.0754 16.4441 13.6853 16.5024 14.2899 16.497C14.7335 16.493 15.1776 16.4498 15.6212 16.4362C16.9628 16.3951 18.3579 16.4544 19.6535 16.8143C20.0235 16.9171 20.4377 17.0354 20.7326 17.2843C20.8768 17.406 20.9865 17.5672 20.9988 17.7564C21.0147 18.0027 20.866 18.2298 20.7027 18.4057C20.1694 18.9808 19.2239 19.4175 18.433 19.4913C18.1177 19.5208 17.79 19.4899 17.4737 19.4833C16.9759 19.4733 16.473 19.4801 15.9772 19.524C15.1781 19.5944 14.402 19.8153 13.6017 19.8557C12.2423 19.9247 10.8918 19.6848 9.53649 19.6268C8.40263 19.5783 7.23851 19.7439 6.11829 19.5262C5.557 19.4173 5.03564 19.2027 4.60863 18.8236C4.34682 18.5912 4.01351 18.221 4.00037 17.8564C3.99374 17.6726 4.07676 17.5113 4.20687 17.3815C5.19278 16.3978 9.22311 16.4415 10.6145 16.4356C10.8143 16.4124 10.9478 16.4683 11.1192 16.3646L11.03 16.3539C10.1046 16.2337 9.05314 15.8408 8.46711 15.1185C8.1595 14.7394 8.01339 14.3103 8.07412 13.8281C8.17126 13.0572 8.76832 12.3443 9.38598 11.8817ZM12.4522 0.661763C12.6836 0.0299321 13.0943 -0.102709 13.724 0.068473C14.1513 0.184631 14.7888 0.255962 14.9551 0.739721C15.2261 1.52906 14.6021 2.23337 13.9212 2.50949C13.8893 2.52271 13.8569 2.53515 13.8242 2.54684C14.3962 2.53376 15.9776 2.41676 16.2401 2.78829C16.8816 3.69594 15.3602 4.85979 14.614 5.01112C15.048 5.12782 15.3637 5.32881 15.5883 5.71726C16.0161 6.458 15.8231 7.61292 15.0206 8.04363C14.7621 8.18232 14.4323 8.22466 14.1417 8.227C14.0382 8.24063 13.9345 8.25217 13.8305 8.26162L13.833 8.29239C14.4697 8.29797 15.0749 8.35943 15.7101 8.46419C16.8314 8.64905 17.1883 9.59459 16.9605 10.5883C16.6955 11.7445 14.7534 11.919 13.7735 11.6839C13.4259 11.6004 13.0458 11.4396 12.6929 11.3552C11.8264 11.0838 9.36054 10.9555 9.65965 9.6317C9.90397 8.72064 11.5958 7.86441 12.5366 8.15761L12.7132 8.13063C11.881 7.88155 11.4973 7.37618 11.5398 6.51245C11.5678 5.94549 11.8906 5.54476 12.3962 5.27902C12.8822 5.0237 13.3123 5.04319 13.8197 4.93974C12.926 4.77971 11.4349 4.36304 10.6909 3.85783C9.02377 2.72584 12.6556 2.64259 13.2 2.57256C12.8544 2.4549 12.6444 2.38838 12.4809 2.04214C12.2794 1.61535 12.2905 1.09428 12.4522 0.661763Z" fill="white"/>
</svg>
