<svg width="24" height="24" viewBox="0 0 24 24" fill="none" xmlns="http://www.w3.org/2000/svg">
<path d="M9.88108 4.01302C11.5114 3.99299 13.1424 3.99593 14.7727 4.02278C15.379 4.02949 15.9852 4.04607 16.591 4.07161C17.3947 4.10939 18.1546 4.11848 18.7492 4.75228C19.0195 5.04027 19.1823 5.43991 19.3596 5.79134L20.3401 7.73763C20.4845 8.02642 20.7667 8.63443 20.9446 8.8763C21.075 8.80172 21.1615 8.70008 21.259 8.58919C21.2518 8.51573 21.2458 8.44216 21.2414 8.36849C21.2137 7.87592 21.4622 7.81946 21.8996 7.79622C22.5334 7.764 23.3303 7.84524 23.8459 8.24837C24.1137 8.45775 23.9975 8.88561 23.758 9.07161C23.5016 9.27072 23.2871 9.40203 22.968 9.48567C22.5949 9.58288 22.0574 9.51389 21.759 9.78743C21.5204 10.0061 21.8752 10.2924 22.0197 10.4476C22.2854 10.7327 22.6011 10.9669 22.7922 11.3138C22.9027 11.5144 22.9226 11.71 22.9309 11.9359C22.9354 12.5163 22.9322 13.0975 22.9319 13.6781V16.9427L22.9328 18.9505C22.933 19.2841 22.9378 19.6328 22.925 19.9661C22.9214 20.0582 22.8733 20.1705 22.8088 20.2357C22.6825 20.3626 22.5686 20.3755 22.3967 20.3763C21.8997 20.3785 21.4079 20.3816 20.9104 20.3792C20.5998 20.3713 20.279 20.3967 19.9709 20.3568C19.8432 20.328 19.693 20.1893 19.6701 20.057C19.6337 19.8443 19.6452 19.6083 19.6457 19.3919L19.6477 18.3148H14.218L4.35764 18.3138C4.35635 18.6818 4.3578 19.0503 4.36057 19.4183C4.3617 19.792 4.44278 20.3619 3.90354 20.3734C3.17319 20.3887 2.45133 20.3739 1.71897 20.3783C1.38105 20.3802 1.10166 20.3314 1.0803 19.9173C1.07398 19.2808 1.07748 18.6351 1.07737 17.9984V12.7679C1.07746 12.4255 1.06009 11.8611 1.12034 11.5501C1.29766 10.6388 3.60718 9.76205 1.32541 9.52767C0.951035 9.48922 0.509481 9.33271 0.231664 9.06185C-0.842261 7.91923 2.13593 7.51414 2.67405 7.96419C2.80333 8.07232 2.76519 8.43152 2.75705 8.60677C2.83603 8.69568 2.91731 8.79908 3.02659 8.847C3.10723 8.84096 3.15246 8.75106 3.1887 8.68294C3.30819 8.45836 3.41927 8.22613 3.53245 7.99837L4.46897 6.13899C4.61769 5.84313 4.85612 5.33364 5.0217 5.06673C5.09611 4.945 5.18322 4.83134 5.28245 4.72884C5.9143 4.08006 6.72747 4.10097 7.56174 4.06575C8.33461 4.03891 9.10778 4.02116 9.88108 4.01302ZM2.93381 11.1536C2.06565 11.3403 2.0024 12.1486 2.10373 12.8831C2.1213 13.0103 2.20479 13.1391 2.29905 13.223C2.50485 13.2706 2.76917 13.3023 2.98166 13.3265C3.82478 13.4226 4.65278 13.6176 5.50412 13.5159C5.85347 13.4681 6.47131 13.423 6.37327 12.9212C6.29457 12.5201 6.04451 12.2519 5.676 12.1156C4.88088 11.8213 4.11265 11.482 3.31467 11.1995C3.18626 11.1537 3.06695 11.146 2.93381 11.1536ZM20.8723 11.1536C20.6254 11.2023 20.3352 11.3276 20.0959 11.4222L19.177 11.7855C18.828 11.9227 18.3955 12.07 18.0696 12.2376C17.7707 12.3915 17.3921 13.1436 17.8322 13.3636C18.0214 13.4672 18.4732 13.5271 18.6946 13.5365C19.4498 13.5752 20.0922 13.447 20.8391 13.3509C21.0594 13.3226 21.5232 13.2723 21.718 13.2181C21.9912 12.9221 21.939 12.5722 21.9309 12.1947C21.9181 11.5955 21.4733 11.1218 20.8723 11.1536ZM11.2844 5.13997C9.70027 5.1517 8.0933 5.14112 6.51682 5.27669C6.3114 5.29448 6.0747 5.49058 5.98557 5.66927C5.44764 6.74858 4.8801 7.8394 4.36838 8.93001L12.7043 8.92903H17.1633C17.982 8.92907 18.8201 8.92005 19.6369 8.93196L18.5364 6.69856C17.8739 5.35252 17.9996 5.20441 16.4553 5.20345C16.2468 5.2033 15.9847 5.18842 15.7727 5.18294C14.277 5.14668 12.7805 5.13204 11.2844 5.13997Z" fill="white"/>
</svg>
