<svg width="24" height="24" viewBox="0 0 24 24" fill="none" xmlns="http://www.w3.org/2000/svg">
<g clip-path="url(#clip0_2_147)">
<path d="M15.6411 0.0263672C15.7195 0.129516 15.7249 0.661191 15.7359 0.818359C17.1425 1.24312 16.9068 2.15719 16.9068 3.37695L16.9058 5.94824V8.43457C16.906 9.49646 17.0854 10.567 15.9517 10.9072C15.9875 11.8885 16.0666 12.8811 16.0796 13.8623C16.0846 14.2412 16.1048 14.6824 16.1489 15.0576C16.1597 15.4741 16.1482 17.5003 16.1489 17.918C16.4181 16.7859 16.605 16.0456 16.857 15.4053C16.855 15.3081 16.8546 15.2104 16.8521 15.1133C16.8655 15.174 16.8725 15.2587 16.8784 15.3496C17.3117 14.2749 17.9456 13.4631 19.5005 11.5C17.3666 14.374 16.2554 20.7432 16.2554 20.7432C16.2554 20.7432 18.1409 18.1057 19.728 17.2207C19.3339 17.6805 17.526 19.7559 17.0005 20.5C16.0733 21.8128 16.224 21.4719 16.2554 23.083C16.744 23.0952 18.6026 23.0724 19.0913 23.0713C19.5554 23.0702 19.8327 23.0175 20.2222 23.3057C20.3217 24.1395 19.7196 23.9905 19.105 23.9893L17.7554 23.9863L13.6519 23.9873L8.26809 23.9863C7.39128 23.9864 6.50393 23.9944 5.62746 23.9844C5.5206 23.9831 5.17899 23.9289 5.14016 23.8535C4.7246 23.0392 5.63844 23.0615 5.97902 23.0693C6.89669 23.0903 7.76522 23.0484 8.64894 23.0762C8.53253 20.9172 7.4414 18.9125 6.46633 17.0049C6.09946 16.2872 5.23792 14.7775 4.8257 14.0293C4.74954 13.8893 5.38561 13.3604 5.5425 13.1084C4.11962 13.6432 3.41273 15.1426 2.82473 16.4385C2.66024 16.801 2.58482 17.1236 2.3843 17.459C2.30646 17.0762 2.17817 16.7253 2.10305 16.3281C1.869 15.0903 2.01959 13.7955 2.69973 12.7168C3.04452 12.1464 3.47718 12.1678 4.06691 12.2441C4.70499 12.3287 5.33998 12.4046 5.98 12.4727C6.29846 12.5065 6.40822 12.8075 6.54445 13.0527C7.48088 14.7382 8.24189 16.4769 8.7632 18.3359C8.81525 18.5215 8.87524 18.6947 8.95461 18.8711C8.94449 18.4495 8.97272 17.9648 8.98684 17.5391L9.06887 15.3252C9.08631 14.8074 9.11125 14.2896 9.14211 13.7725C8.50607 13.5955 8.3917 13.089 8.41848 12.3652V9.61914L8.41945 6.91309C8.41961 6.37916 8.36107 5.37748 8.52687 4.85742C8.60996 4.597 9.02828 4.37573 9.3091 4.2998C9.3426 4.06772 9.34104 3.74862 9.44973 3.54688L9.54055 3.58203C9.64261 3.70961 9.61467 4.1237 9.61672 4.30371C10.083 4.4159 10.4781 4.74344 10.5152 5.24414C10.5463 5.66569 10.5373 6.07936 10.5376 6.50195L10.5386 8.81445L10.5376 11.4141C10.5375 11.5925 10.5406 11.7745 10.5376 11.9531C10.5232 12.826 10.6666 13.5053 9.75344 13.7803C9.76548 14.0919 9.7643 14.4725 9.76613 14.6562L9.79152 17.251C9.79332 17.5003 9.77152 18.7128 9.85305 18.8516C9.90195 18.8148 10.1266 18.4672 10.1665 18.4043C10.9069 17.2363 11.1899 17.1281 12.5376 17.0898C11.7022 17.3394 11.1988 17.9169 10.8482 18.6777C10.3447 19.7704 9.93473 21.8555 9.80812 23.0615C10.9629 23.0765 12.1181 23.0812 13.273 23.0742C13.683 23.0739 14.6262 23.045 14.979 23.083C14.979 21.4151 13.9927 20.6916 13.0073 19.9033C13.0073 19.9033 14.6013 20.5715 14.9282 21.1328C14.9522 20.2294 14.7133 18.8161 14.565 17.918C14.4448 17.5457 14.3731 16.8435 14.2554 16.5C14.069 15.9562 13.4824 14.0125 13.1011 13.7529C13.0185 13.502 12.952 13.3936 12.7984 13.1758C12.7099 13.0507 12.4894 12.8764 12.4556 12.75L12.4771 12.7324C12.5711 12.8149 12.7973 12.9573 12.8579 13.0205C13.071 13.2498 13.3423 13.4675 13.5318 13.7139C14.3716 14.8058 14.6769 16.2117 15.0884 17.5C15.1522 17.6996 15.2047 17.9038 15.2573 18.1055C15.3247 17.7759 15.3136 17.3651 15.3169 17.0244L15.3277 15.6074C15.3403 14.1081 15.3509 12.4393 15.4263 10.9434C14.9874 10.8536 14.5188 10.6142 14.4077 10.1602C14.3648 9.98774 14.3396 9.81131 14.3316 9.63379C14.3121 9.18227 14.3265 8.64518 14.3267 8.18555L14.3277 5.47656V3.22852C14.3277 2.80048 14.2968 2.08146 14.3921 1.70215C14.5557 1.05149 14.9855 1.07448 15.3726 0.780273C15.4949 0.687247 15.4158 0.241159 15.5591 0L15.6411 0.0263672Z" fill="white"/>
</g>
<defs>
<clipPath id="clip0_2_147">
<rect width="24" height="24" fill="white"/>
</clipPath>
</defs>
</svg>
