<svg width="24" height="24" viewBox="0 0 24 24" fill="none" xmlns="http://www.w3.org/2000/svg">
<g clip-path="url(#clip0_49_750)">
<path d="M11.1964 18.9927L14.5489 18.9898C14.6569 19.4827 14.7999 20.0044 14.9181 20.5005C15.2498 20.4985 16.1425 20.4699 16.4249 20.5405C16.6045 20.5851 16.7698 20.6751 16.9044 20.8023C17.1476 21.0336 17.2385 21.3155 17.2511 21.648C17.2976 22.8752 17.2309 22.7457 16.0811 22.7446L14.5606 22.7417L9.66903 22.7427H8.08309C7.78889 22.7427 7.49506 22.7389 7.1993 22.7378C6.85795 22.7364 6.74644 22.5763 6.74813 22.231C6.75052 21.738 6.6899 21.2121 7.07235 20.8335C7.45107 20.4587 7.83546 20.4933 8.32332 20.4946L9.087 20.4985C9.19473 20.013 9.3609 19.4759 9.44539 18.9956C10.0035 18.9787 10.6336 18.9927 11.1964 18.9927ZM23.9932 14.4995C23.9952 15.7626 24.1255 16.6121 23.1378 17.5669C22.2172 18.352 21.5351 18.2472 20.4063 18.2456L18.3145 18.2446L11.4249 18.2456H3.4161C3.0452 18.2456 2.6604 18.2658 2.29207 18.2241C1.79222 18.1674 1.33169 17.956 0.947347 17.6343C0.404179 17.1797 0.0831864 16.5458 0.0235193 15.8423C0.00867512 15.6675 -0.0302817 14.5929 0.0440271 14.5044L0.155355 14.4985L23.9932 14.4995ZM19.7628 1.00635C20.2424 1.00591 21.37 0.977526 21.8009 1.04444C22.3443 1.12927 22.8461 1.3871 23.2315 1.77979C24.0499 2.60002 23.9927 3.36395 23.9923 4.42432L23.9913 6.35596L23.9932 13.7456C23.1882 13.7592 22.3507 13.7476 21.5431 13.7476L0.00887087 13.7456L0.0118006 6.37745L0.010824 4.43213C0.0106923 4.04187 -0.0151571 3.53662 0.0528162 3.15967C0.274749 1.92935 1.28492 1.08989 2.50692 1.01417C2.6159 1.01052 2.72502 1.00821 2.83407 1.00733H15.9854L19.7628 1.00635Z" fill="white"/>
</g>
<defs>
<clipPath id="clip0_49_750">
<rect width="24" height="24" fill="white"/>
</clipPath>
</defs>
</svg>
