<svg width="24" height="24" viewBox="0 0 24 24" fill="none" xmlns="http://www.w3.org/2000/svg">
<path d="M19.9961 12.6861C20.1307 12.6852 20.2644 12.7083 20.391 12.754C20.7897 12.8996 21.0684 13.2622 21.0849 13.6861C21.0954 13.9573 21.0276 14.1331 21.1618 14.3979C21.3251 14.7204 21.6046 14.7805 21.7612 15.1277C21.8757 15.3867 21.8824 15.6806 21.7799 15.9445C21.5971 16.4141 21.1187 16.6901 20.6277 16.5971C20.1294 16.5029 19.762 16.364 19.2418 16.3568C18.8602 16.3508 18.4797 16.3989 18.1116 16.4997C17.6496 16.6296 16.9977 16.9506 16.5451 17.1519L13.8661 18.3458L16.3973 19.4753C16.9994 19.7437 17.8008 20.1513 18.4289 20.2682C18.8743 20.351 19.3303 20.3592 19.7784 20.2923C20.2926 20.2189 20.6808 19.938 21.1856 20.1465C21.4527 20.2582 21.6638 20.4725 21.7714 20.7412C21.9201 21.1037 21.8611 21.5389 21.5876 21.8205C21.412 22.0012 21.1926 22.1403 21.1176 22.4031C21.0079 22.7871 21.1766 22.9529 21.0024 23.3647C20.8931 23.6182 20.6886 23.8186 20.4329 23.9228C19.9937 24.0992 19.5002 23.9672 19.2143 23.5896C19.0737 23.4039 19.0181 23.248 18.9044 23.0594C18.0236 21.5991 16.1892 21.0508 14.7133 20.3895C13.8093 19.9845 12.8915 19.5602 11.9999 19.1817C11.3147 19.476 10.6368 19.7941 9.95342 20.0933C9.7295 20.1962 9.5021 20.2909 9.27831 20.3941C7.79554 21.0777 5.97153 21.5803 5.08466 23.0796C4.7785 23.5971 4.702 23.9068 4.0328 23.9972C3.8705 24.0004 3.74214 23.9885 3.58785 23.9319C3.20846 23.7903 2.94688 23.4401 2.91893 23.0362C2.90155 22.7653 2.9767 22.5588 2.83596 22.2892C2.66703 21.9659 2.39768 21.9156 2.23945 21.564C2.12452 21.3084 2.11815 21.0174 2.2218 20.7571C2.39406 20.3121 2.85468 20.0065 3.33542 20.0782C3.53635 20.1082 3.73932 20.184 3.93728 20.2346C4.20751 20.3036 4.49601 20.3332 4.77506 20.3367C5.17843 20.3419 5.58027 20.2861 5.96698 20.1713C6.37368 20.0497 7.07211 19.7121 7.48458 19.5284L10.1384 18.3454C9.81679 18.2187 9.42981 18.032 9.1086 17.8885L7.33098 17.0971C6.74955 16.8366 6.19035 16.543 5.56334 16.4248C5.16493 16.3504 4.75755 16.3365 4.355 16.3837C3.84196 16.4488 3.28761 16.7475 2.77882 16.5333C2.14925 16.2683 1.9287 15.3866 2.40437 14.8795C2.59331 14.6781 2.79484 14.5771 2.87935 14.2933C2.98554 13.9368 2.84402 13.6726 3.00317 13.3145C3.11994 13.0563 3.33506 12.8556 3.60061 12.7569C4.00632 12.6051 4.5205 12.7041 4.77319 13.068C4.8995 13.25 4.98008 13.4931 5.11702 13.7062C5.40246 14.1583 5.77496 14.5492 6.21287 14.8561C6.58936 15.1154 6.88412 15.2343 7.29561 15.417L8.18904 15.8153L11.9989 17.5158C13.2484 16.9418 14.5265 16.3903 15.7827 15.8277L16.8326 15.3607C17.0459 15.2648 17.297 15.1568 17.4964 15.0421C17.78 14.8786 18.0422 14.6804 18.2769 14.4523C18.5365 14.2005 18.7857 13.8817 18.9671 13.5674C19.0723 13.3853 19.1376 13.1645 19.2807 13.0041C19.4814 12.7793 19.7061 12.7048 19.9961 12.6861ZM11.9261 0.00181174C13.5527 -0.0289362 15.1516 0.32631 16.3623 1.48014C17.5029 2.56711 18.0689 4.25381 18.0635 5.8051C18.0606 6.6078 17.9564 7.416 17.9229 8.2179C17.9138 8.43523 17.9135 8.79361 17.9307 9.00878C17.9573 9.34334 17.9966 9.64082 18.0058 9.97642C18.0349 11.0309 17.5769 11.6324 16.5613 11.9173C16.0113 12.0716 15.4251 12.0779 15.0322 12.547C14.813 12.8086 14.892 13.0673 14.8705 13.3788C14.8497 13.6948 14.7321 14.0549 14.5017 14.2828C13.9779 14.801 12.9117 14.7703 12.2224 14.7815C11.5328 14.784 10.7611 14.7869 10.1021 14.6264C9.39277 14.4535 9.20015 13.9158 9.19449 13.2665V13.174C9.19185 12.8737 9.10374 12.661 8.87734 12.4464C8.45663 12.0476 7.88116 12.0566 7.35648 11.8935C5.44414 11.3652 6.05479 9.62059 6.07955 8.16468C6.0615 7.47951 6.00965 6.78488 5.95234 6.10103C5.8232 4.5599 6.27616 3.13138 7.31033 1.96215C8.4602 0.662104 10.045 0.108172 11.7587 0.0084275C11.8144 0.00516387 11.8703 0.00293819 11.9261 0.00181174ZM12.009 9.29763C11.8028 9.34489 11.6733 9.48495 11.5645 9.66438C11.1805 10.2974 10.7344 11.2519 10.8866 12.0037C10.9323 12.2298 11.0745 12.5122 11.2759 12.6326C11.5288 12.7837 11.7583 12.6682 12.0317 12.6595C12.3331 12.6761 12.5844 12.7782 12.8397 12.5479C13.067 12.343 13.158 12.0164 13.1707 11.7204C13.1791 11.5269 13.1545 11.3353 13.1116 11.1469C13.0289 10.7845 12.6487 9.74179 12.4107 9.48529C12.2953 9.3609 12.1746 9.3139 12.009 9.29763ZM16.9113 8.27104C16.8588 7.07227 15.5765 6.79356 14.6107 6.84178C14.5845 6.84311 14.5583 6.84467 14.532 6.84641C14.0223 6.89157 13.4891 6.96457 13.147 7.38716C12.029 8.76859 13.7746 10.4104 15.2021 10.383C15.6521 10.3681 16.0427 10.2149 16.3465 9.88147C16.7135 9.47902 16.9349 8.8103 16.9113 8.27104ZM11.1716 7.99292C10.9067 6.94376 9.92606 6.79687 8.99806 6.82054C7.54415 6.90732 6.7391 7.64778 7.23398 9.13291C7.5449 10.066 8.31088 10.5231 9.27691 10.3165C9.96448 10.1499 10.5739 9.75929 10.9545 9.15586C11.1712 8.81241 11.2721 8.39087 11.1716 7.99292Z" fill="white"/>
</svg>
