<svg width="24" height="24" viewBox="0 0 24 24" fill="none" xmlns="http://www.w3.org/2000/svg">
<g clip-path="url(#clip0_53_818)">
<path d="M22.796 0.000137251C23.0837 0.00156263 23.4806 0.210415 23.6505 0.432754C24.7205 1.83307 23.0472 3.61847 22.4484 4.88002C22.3735 5.03774 22.4481 5.38905 22.4454 5.56752C22.4361 6.50753 21.4202 7.08932 21.3341 7.99525C21.3024 8.32969 21.491 8.88028 21.5792 9.21498C21.647 9.47563 21.7101 9.73816 21.7677 10.0011C22.0377 11.2126 22.1977 12.4611 22.1271 13.7003C22.0633 14.8225 21.534 15.5095 20.7179 16.2394C20.4396 16.4883 20.1752 16.7463 19.881 16.9933C19.0154 17.7921 18.1497 18.5654 17.3204 19.4044C17.0854 19.6421 16.728 19.9446 16.5441 20.2169C16.4709 20.3258 16.4066 20.6294 16.3634 20.7619C16.2042 21.2476 16.1071 21.8379 15.8185 22.2638C15.5188 22.7062 14.9136 22.9331 14.4406 23.172C13.9697 23.4099 13.3498 23.8821 12.8156 23.9435C12.1167 24.0237 11.2236 24.0616 10.5802 23.7482C10.2662 23.5863 9.97317 23.3894 9.66224 23.2218C9.29594 23.0245 8.92499 22.8941 8.57826 22.6613C7.926 22.2388 7.84122 21.447 7.62513 20.7716C7.49179 20.3547 7.50201 20.2528 7.16713 19.9201C6.3578 19.107 5.53047 18.3102 4.68666 17.5314C4.46088 17.3261 4.22659 17.1287 4.00697 16.9171C3.25908 16.1966 2.38251 15.6115 2.03724 14.59C1.8088 13.9134 1.85622 13.2471 1.86342 12.546C1.90022 11.4153 2.14631 10.2814 2.41908 9.18568C2.53139 8.73449 2.7466 8.28349 2.63392 7.81557C2.43273 6.98122 1.5391 6.45776 1.54408 5.55385C1.53989 5.3458 1.61892 5.02693 1.51576 4.83412C1.15927 4.16796 0.727223 3.54107 0.398572 2.85756C0.228925 2.50472 0.105181 2.23056 0.0352911 1.84486C-0.115626 1.01144 0.210622 0.138317 1.14662 0.00697319C1.36173 -0.0132436 1.6136 0.0316279 1.8224 0.0753326C2.8433 0.289137 3.52401 0.996269 4.34877 1.54897C4.76347 1.82687 5.2274 2.07432 5.66615 2.31557C5.89614 2.43205 6.21898 2.64264 6.48256 2.6349C6.85863 2.61919 7.2074 2.42991 7.55678 2.30287C9.00606 1.77594 10.534 1.21824 12.1037 1.23256C13.5289 1.24558 14.8929 1.75918 16.215 2.22279C16.5389 2.33643 16.8442 2.48993 17.1701 2.59584C17.6457 2.74697 18.0972 2.43581 18.4962 2.22475C18.8267 2.04466 19.1616 1.85832 19.4787 1.65736C20.5312 0.989864 21.4363 -0.0134845 22.796 0.000137251ZM8.88783 16.0001C8.91012 16.2881 8.96011 16.4149 9.22181 16.6212C9.82757 17.0977 10.9966 17.404 11.0792 18.2218C11.1071 18.498 11.0396 18.8833 10.8146 19.091C10.2524 19.6099 9.31746 19.8141 8.61244 20.1535C8.50741 20.204 8.40237 20.2371 8.29799 20.2872C7.97447 20.4055 7.87478 20.6312 8.20131 20.838C8.52195 21.0407 9.0148 21.0174 9.38783 20.9581C10.2846 20.7725 10.9046 20.3984 11.8761 20.3712C12.2962 20.3588 12.7159 20.4065 13.1193 20.5119C13.8914 20.7062 14.5868 21.101 15.423 20.9699C15.6724 20.9308 15.8501 20.8545 15.9933 20.6662C16.0548 20.3613 15.684 20.2665 15.422 20.1574L14.3058 19.6964C13.4982 19.3624 12.837 19.0965 12.962 18.1613C13.0137 17.7754 13.221 17.631 13.5236 17.3996C13.9734 17.0554 15.0274 16.7009 15.1193 16.1427C15.1264 16.0969 15.1314 16.0508 15.1359 16.005C14.7593 16.0712 14.387 16.1784 14.0177 16.2706C13.7041 16.3491 13.3452 16.4106 13.0529 16.5392C12.9498 16.5845 12.8698 16.643 12.8078 16.7296C12.5833 17.0441 12.6519 17.6467 12.1574 17.7531C11.9989 17.787 11.8352 17.7722 11.6954 17.6964C11.3041 17.4842 11.4492 16.8713 11.1027 16.6173C10.8477 16.431 9.30224 16.08 8.88783 16.0001ZM6.38783 8.95229C6.00543 8.95219 5.62273 8.95507 5.24037 8.96107L5.17299 8.96596L5.16127 8.99037C5.42032 9.29459 6.6767 10.287 7.03431 10.465C7.22528 10.5607 7.43364 10.6189 7.6476 10.6359C7.89576 10.6576 8.23273 10.6303 8.46205 10.5304C8.91725 10.2207 8.58842 9.83317 8.25795 9.59291C7.94515 9.36559 7.5799 9.00687 7.17494 8.96791C6.91865 8.9433 6.64438 8.95152 6.38783 8.95229ZM16.9093 8.96107C16.5282 8.98228 16.2949 9.1563 16.0011 9.38881C15.7466 9.59012 15.303 9.86142 15.3078 10.2208C15.3305 10.6674 16.1788 10.6623 16.4884 10.6183C16.686 10.5908 16.8772 10.5289 17.0519 10.4347C17.5079 10.1629 18.4836 9.34745 18.8771 8.96205C18.2214 8.94792 17.5652 8.94767 16.9093 8.96107Z" fill="white"/>
</g>
<defs>
<clipPath id="clip0_53_818">
<rect width="24" height="24" fill="white"/>
</clipPath>
</defs>
</svg>
