<svg width="24" height="24" viewBox="0 0 24 24" fill="none" xmlns="http://www.w3.org/2000/svg">
<g clip-path="url(#clip0_28_481)">
<path d="M9.06641 7.82422C10.58 7.06526 12.5345 7.02104 14.1426 7.49805C15.6203 7.95584 16.6716 9.04989 17.3555 10.4043C18.0349 11.7503 18.5417 13.0739 18.0439 14.5781C17.7363 15.5076 17.2481 16.4366 16.8135 17.3164C16.4343 18.0783 16.084 18.8555 15.7656 19.6445C15.5126 20.2732 15.2912 20.9148 15.1016 21.5654C15.0394 21.7801 14.9806 21.9961 14.9258 22.2129C14.8743 22.4129 14.8335 22.6451 14.7334 22.8242C14.3529 23.5038 13.5658 23.8398 12.8262 23.9492C12.7086 23.9666 12.5616 23.9666 12.4531 24H11.5488C11.4469 23.9656 11.287 23.9622 11.1768 23.9463C10.4286 23.8382 9.63764 23.5013 9.25488 22.8125C9.15455 22.6296 9.10349 22.3123 9.05176 22.0996C8.99921 21.883 8.94148 21.6674 8.87988 21.4531C8.68623 20.7741 8.4559 20.1056 8.19043 19.4512C7.82928 18.5585 7.43683 17.7517 7.00879 16.8926C6.60093 16.0452 6.09083 15.1596 5.85938 14.2451C5.68682 13.5629 5.74236 12.6454 5.97363 11.9814C6.54521 10.3408 7.44739 8.63607 9.06641 7.82422ZM12 21C11.1718 21.0001 10.5003 21.4479 10.5 22C10.5003 22.5521 11.1718 22.9999 12 23C12.8282 22.9999 13.4997 22.5521 13.5 22C13.4997 21.4479 12.8282 21.0001 12 21ZM19.5527 8.17285C19.8401 8.14902 20.285 8.17825 20.5693 8.22461C21.1238 8.31113 21.6546 8.51245 22.127 8.81543C22.2584 8.90088 22.3976 8.99513 22.4883 9.12598C22.5939 9.2787 22.6116 9.46214 22.5791 9.64062C22.4395 10.4059 21.3135 11.5601 20.7275 12.0537C20.5418 12.21 20.3406 12.3491 20.1406 12.4863C19.8085 12.6941 19.5651 12.8117 19.1865 12.9092C19.146 11.6487 18.2155 9.78566 17.4873 8.77832C18.2937 8.36159 18.6425 8.22184 19.5527 8.17285ZM4.47461 8.1748C5.2889 8.19532 5.79293 8.40897 6.49902 8.77734C6.44108 8.87841 6.34216 9.01473 6.27539 9.11523C6.17954 9.26046 6.08804 9.4089 6.00098 9.55957C5.64961 10.1633 5.37184 10.8034 5.12305 11.4551C4.9409 11.9323 4.86162 12.3998 4.80566 12.9043C4.57047 12.85 4.42875 12.794 4.21094 12.6855C3.84807 12.5201 3.49873 12.2471 3.19629 11.9902C2.63793 11.516 1.46083 10.2899 1.40625 9.54102C1.3932 9.36135 1.43604 9.19656 1.55762 9.05957C1.6568 8.94791 1.78937 8.85379 1.91309 8.77051C2.5098 8.36882 3.19948 8.21681 3.90625 8.17285C4.05961 8.15607 4.31461 8.17076 4.47461 8.1748ZM23.5986 0C23.8522 0.100785 23.9132 0.167916 24 0.426758V0.558594C23.9807 0.614364 23.9497 0.848288 23.9385 0.922852C23.9072 1.13421 23.8719 1.34558 23.833 1.55566C23.238 4.78338 21.1865 6.49992 18.2021 7.56543C17.7456 7.72989 17.2819 7.87582 16.8135 8.00293C16.5333 7.69082 16.2506 7.49014 15.9033 7.26367C16.4024 7.10054 16.7577 6.95855 17.1348 6.56836C18.1541 5.51327 18.5247 3.96048 18.6777 2.54492C18.7115 2.23358 18.7187 1.90872 18.7256 1.5957C18.7238 1.33695 18.7566 1.0931 19.043 0.995117C19.1637 0.954222 19.2962 0.963465 19.4102 1.02051C19.5226 1.07575 19.6073 1.17532 19.6445 1.29492C19.6982 1.46903 19.6606 1.97005 19.6484 2.17188C19.5692 3.4925 19.2961 4.83807 18.6768 6.0166C18.5978 6.16679 18.5049 6.31044 18.4248 6.46094C18.4326 6.45834 18.4406 6.4551 18.4482 6.45215C18.9205 6.27087 19.4169 6.01989 19.8506 5.76172C21.3673 4.85874 22.2974 3.64775 22.7646 1.94727C22.8464 1.64253 22.9138 1.33352 22.9668 1.02246C22.9929 0.87016 23.0163 0.692041 23.0322 0.538086C23.065 0.222144 23.1507 0.104932 23.4512 0H23.5986ZM0.546875 0C0.686146 0.0518606 0.855414 0.130586 0.908203 0.27832C0.977186 0.471391 0.985744 0.757272 1.02246 0.970703C1.08067 1.30891 1.1397 1.59645 1.22461 1.92285C1.81749 4.20173 3.36528 5.57961 5.50391 6.43359C5.53163 6.44466 5.55924 6.4563 5.58789 6.4668C4.65932 5.01266 4.35955 3.26419 4.3252 1.56348C4.32088 1.35014 4.35481 1.16312 4.55078 1.04004C4.65677 0.973568 4.78569 0.952718 4.90723 0.982422C5.02916 1.01125 5.13449 1.08803 5.19922 1.19531C5.29608 1.35668 5.27344 1.63213 5.27832 1.82031C5.28602 2.04409 5.29775 2.26792 5.31445 2.49121C5.43106 3.94421 5.96252 5.98349 7.22461 6.87598C7.47681 7.05426 7.78349 7.16316 8.07715 7.26074C7.6948 7.53576 7.52194 7.67105 7.18066 8.00098C3.54959 6.98486 0.893023 5.40978 0.149414 1.47168C0.116273 1.30427 0.087078 1.13582 0.0634766 0.966797C0.0494061 0.863985 0.0279981 0.65201 0 0.560547V0.415039C0.102869 0.160645 0.132058 0.100351 0.400391 0H0.546875Z" fill="white"/>
</g>
<defs>
<clipPath id="clip0_28_481">
<rect width="24" height="24" fill="white"/>
</clipPath>
</defs>
</svg>
