<svg width="24" height="24" viewBox="0 0 24 24" fill="none" xmlns="http://www.w3.org/2000/svg">
<path d="M7.9424 0C8.1538 0.0253694 8.48406 0.0691924 8.50706 0.334195C8.58654 1.24994 8.53438 2.17783 8.59368 3.09732C8.62749 3.62155 8.6252 4.12558 8.72041 4.64527C9.0506 4.985 9.3995 5.30602 9.76552 5.60675C9.6974 4.93503 9.62534 2.14635 9.97551 1.68576C10.0763 1.55322 10.2416 1.4736 10.4051 1.45729C10.5802 1.43983 10.7675 1.49194 10.9011 1.60801C11.0182 1.70976 11.0696 1.84088 11.0843 1.99237C11.1174 2.33169 11.0338 2.71177 11.0181 3.05521C10.9809 3.86497 10.9627 4.68455 11.0192 5.494C11.0512 5.95347 11.0675 6.77064 11.345 7.15424C11.4661 7.3217 11.6579 7.46314 11.8136 7.59862C12.2744 7.02231 12.6921 6.31304 12.9691 5.62505C13.1375 5.23453 13.2071 4.69333 13.4495 4.34275C13.6885 3.99709 14.5221 4.18488 14.4821 4.67977C14.3711 6.05308 13.387 7.6928 12.503 8.73478C12.7932 9.23147 13.0277 9.80759 13.3766 10.397L13.4091 10.3998C15.6189 10.6063 17.4143 13.56 19.1242 14.8175C20.3866 15.746 20.5087 15.5781 20.3561 17.1506C20.0303 17.3494 18.747 18.2675 18.5676 18.2832C17.7262 18.357 16.9861 17.8809 15.939 18.1673C14.9554 18.4363 13.5673 18.1444 12.6767 17.6468C12.6281 18.186 12.4199 18.9995 12.2817 19.5244C11.8362 21.2062 10.7884 23.2727 9.10798 24C8.47512 23.5087 7.21239 22.1111 6.5759 21.4449C5.42033 20.2353 4.09589 18.9478 3 17.7051C5.08579 17.5756 7.33098 15.0787 8.46202 13.4341C8.71208 13.0705 9.24969 12.1464 9.49124 11.9009L9.50465 11.8875C8.14322 12.2829 6.95361 11.3879 6.40408 10.1735C6.29779 9.91763 6.15566 9.45727 6.27269 9.19762C6.47083 8.82965 7.35211 8.89621 7.68245 8.91321C9.00494 8.98129 9.90953 9.76117 10.8935 10.5457C11.0729 10.6887 11.2629 10.845 11.5053 10.7513C11.5912 10.5454 11.4299 10.29 11.3505 10.0967C11.1941 9.71601 11.057 9.31709 10.8197 8.97743C9.94341 7.72352 7.84723 6.3381 7.53394 4.83355C7.39196 4.1519 7.16134 0.605311 7.47345 0.18366C7.58998 0.0262478 7.76402 0.0247963 7.9424 0Z" fill="#F8F8F7"/>
</svg>
