<svg width="24" height="24" viewBox="0 0 24 24" fill="none" xmlns="http://www.w3.org/2000/svg">
<path d="M11.9899 1C12.7067 1.36936 12.7272 1.67627 13.3102 2.09934C13.0264 2.74999 12.8292 3.42374 12.5636 4.08491C12.0577 5.3495 11.5098 6.58221 11.0612 7.87179C10.9916 8.07214 10.5858 9.04136 10.6673 9.22245C10.935 9.81696 13.8696 12.916 13.7251 13.2773C13.3197 14.291 12.4538 15.7771 11.8999 16.7693C11.6348 17.2477 11.4336 17.6832 11.1767 18.161C11.0481 18.4019 10.7121 18.9589 10.6695 19.1536L10.7194 19.1642C11.0293 18.8838 11.3102 18.4684 11.5932 18.1476C12.4518 17.174 13.2559 16.1506 14.0862 15.1484L15.413 13.5526C15.6193 13.3048 15.8863 13.039 16.0493 12.7608C16.3179 12.3026 13.4873 9.50977 13.3251 8.79544C13.288 8.63179 13.3487 8.45294 13.4038 8.30045C13.6433 7.63772 14.0129 7.03397 14.3268 6.4078C14.7078 5.64781 15.0542 4.84321 15.5091 4.1253C15.7473 4.31408 16.0156 4.52244 16.2368 4.72823C17.8584 6.23719 19.5376 7.68581 21.1568 9.19784C21.4478 9.46958 24 11.961 24 11.961C24 11.961 21.8519 11.9618 21.4882 11.9551C21.5199 14.5522 21.4759 17.1577 21.4925 19.7556C21.4972 20.4865 21.5042 21.2433 21.4563 21.9705C17.0386 22.0379 12.4462 21.9684 8.01407 21.9706L4.36312 21.9716C3.82798 21.9711 3.0917 21.9318 2.58272 21.9712C2.55935 20.3297 2.55257 18.6879 2.56244 17.0463C2.56253 15.3611 2.54701 13.6441 2.57182 11.961H0C0 11.961 1.31359 10.557 1.60076 10.3043C2.49534 9.51714 3.37008 8.71053 4.26672 7.92866C4.58053 7.65502 5.06045 7.12818 5.38678 6.93849C5.48098 5.7885 5.39199 4.42091 5.44442 3.22567C6.22188 3.26269 6.98161 3.21511 7.78849 3.26434C7.74166 3.68471 7.74565 4.30635 7.73619 4.74287C8.77798 3.93049 9.584 3.09377 10.5845 2.23285C11.093 1.79527 11.3815 1.37549 11.9899 1Z" fill="white"/>
</svg>
