<svg width="24" height="24" viewBox="0 0 24 24" fill="none" xmlns="http://www.w3.org/2000/svg">
<g clip-path="url(#clip0_94_1278)">
<path d="M13.6201 3.87995C13.9646 3.88284 14.4184 4.45483 14.668 4.71002L15.9443 6.01569L19.8691 10.0294C20.0523 10.2188 20.2083 10.3641 20.2031 10.6475C20.1984 10.825 20.1243 10.9935 19.998 11.1153C19.7944 11.3107 19.4371 11.3551 19.2266 11.171C18.8123 10.8087 18.3731 10.3566 18.0039 9.94831C17.8769 10.115 17.3999 10.5797 17.2383 10.7442L15.7129 12.3018L10.2383 17.9063L8.53125 19.6514C8.30125 19.8865 7.84879 20.322 7.65137 20.5645C7.38616 20.2377 6.79697 19.674 6.48535 19.3604C6.10503 19.7689 5.70353 20.1594 5.31738 20.5606C5.18408 20.6991 4.85263 21.0157 4.75781 21.1592C4.63389 21.0093 4.4416 20.8347 4.29883 20.6719C4.17703 20.832 3.86514 21.1363 3.71289 21.2921L2.66211 22.3673L1.77051 23.2813C1.60994 23.4468 1.32558 23.7581 1.14941 23.878C0.773257 23.9282 0.366231 23.934 0 24.0001C0.329141 23.6131 0.952597 23.0159 1.32715 22.6329L3.76953 20.1397C3.6191 19.9871 3.46839 19.8347 3.31641 19.6837L4.40625 18.5635C4.58691 18.3786 4.87552 18.0677 5.06738 17.9102C4.78567 17.6165 4.18504 16.9698 3.88867 16.7178C4.27625 16.3303 4.66178 15.9391 5.04395 15.546C5.233 15.3528 5.619 14.9786 5.75488 14.7764C5.76403 14.7884 5.77358 14.8 5.7832 14.8116C5.98533 15.0555 6.39525 15.5118 6.70996 15.5342C6.87899 15.5458 7.04579 15.486 7.1709 15.3692C7.7604 14.8177 7.0049 14.2527 6.65527 13.8751C6.80928 13.7541 7.16192 13.3801 7.2959 13.2296C7.50648 13.4932 7.91304 13.9781 8.26074 13.9874C8.42201 13.9906 8.5782 13.928 8.69434 13.8135C9.27139 13.245 8.53613 12.7078 8.17773 12.3292C8.3936 12.1146 8.60738 11.8974 8.81836 11.6778C8.98365 11.9152 9.47628 12.4415 9.78027 12.4268C9.95935 12.4179 10.114 12.3604 10.2412 12.2286C10.3586 12.1088 10.424 11.946 10.4229 11.7764C10.4173 11.408 9.95896 11.0389 9.70117 10.7794C9.8731 10.6055 10.1905 10.2989 10.3223 10.1153C10.5553 10.3881 10.9454 10.8689 11.3115 10.8741C11.4752 10.8755 11.6325 10.809 11.748 10.6905C11.8694 10.569 11.9378 10.4023 11.9375 10.2286C11.9352 9.84767 11.484 9.49296 11.2168 9.2276C11.5837 8.87422 11.9786 8.45126 12.3389 8.08307C12.9799 7.43186 13.6175 6.77703 14.252 6.1192C13.9835 5.86826 13.1003 5.01325 12.9971 4.72272C12.9412 4.56529 12.9404 4.37956 13.0137 4.2276C13.1021 4.04427 13.2758 3.94621 13.458 3.88483C13.512 3.88188 13.566 3.88004 13.6201 3.87995ZM19.1299 0.00299279C19.5723 -0.0266911 19.6856 0.167126 19.9814 0.464907C20.0806 0.564624 20.18 0.668844 20.2783 0.769594L21.4971 2.01862L22.9951 3.54987C23.2658 3.82581 23.5479 4.10359 23.8076 4.39069C23.9623 4.55968 24.0155 4.66829 23.9961 4.90143C23.9682 5.23931 23.6346 5.53007 23.3057 5.48639C23.2053 5.47248 23.1091 5.43574 23.0244 5.37897C22.8596 5.26984 22.2317 4.62241 22.1133 4.46295C21.9199 4.69623 21.5754 5.03016 21.3584 5.25202L20.0195 6.62018C19.6126 7.03394 19.208 7.45074 18.8057 7.8692C18.649 7.66707 18.1473 7.1801 17.9434 6.97174L16.3008 5.29498C16.6827 4.93938 17.1207 4.46879 17.4922 4.08893L19.6143 1.91315C19.4386 1.76368 19.2629 1.53525 19.0947 1.40045C18.6066 1.00955 18.3268 0.262918 19.1299 0.00299279Z" fill="white"/>
</g>
<defs>
<clipPath id="clip0_94_1278">
<rect width="24" height="24" fill="white"/>
</clipPath>
</defs>
</svg>
