<svg width="24" height="24" viewBox="0 0 24 24" fill="none" xmlns="http://www.w3.org/2000/svg">
<g clip-path="url(#clip0_95_1297)">
<path d="M8.78418 2.92217C9.40135 3.1119 10.0294 3.33957 10.5342 3.75713C10.8309 4.00257 11.0437 4.29773 11.0498 4.69366C11.0558 5.08491 11.0538 5.47915 11.0537 5.87139L11.0527 8.0501V18.1028L11.0537 19.3011C11.0537 19.5747 11.0762 20.1184 11.001 20.3567C10.8603 20.8016 10.3217 21.1783 9.91895 21.3812C9.10299 21.7922 8.21173 21.9895 7.31348 22.1204C7.145 22.145 6.5396 22.1898 6.43262 22.2298H4.62109C4.55288 22.2041 4.46694 22.198 4.39453 22.1917C3.31282 22.095 2.20828 21.8938 1.2207 21.4271C0.85564 21.2546 0.480038 21.0093 0.227539 20.6888C0.125821 20.5596 0.0739066 20.4127 0 20.2689V4.46905L0.00488281 4.46124C0.062723 4.35595 0.115787 4.20438 0.182617 4.11065C0.59312 3.53574 1.42208 3.17399 2.07617 2.98077C2.14243 2.96141 2.20875 2.94213 2.27539 2.92413C2.23718 3.20144 2.2768 3.93919 2.26172 4.25616C1.89037 4.39272 1.40853 4.51184 1.2793 4.92999C1.30943 5.11188 1.37276 5.20932 1.5293 5.3167C1.79599 5.49959 2.22842 5.64406 2.54395 5.7171C4.28779 6.11389 6.20293 6.11768 7.96289 5.83233C8.49509 5.74603 9.34789 5.54645 9.69531 5.13799C10.0656 4.70217 9.06653 4.34019 8.78516 4.26104C8.78187 3.8153 8.78934 3.36584 8.78418 2.92217ZM12.2109 5.62335C12.2376 5.64037 12.4076 5.96322 12.4453 6.02471C13.1434 7.16315 14.4124 7.67052 15.7158 7.53741C16.1312 7.49494 16.5519 7.41079 16.9736 7.33526C17.5475 7.22909 18.1244 7.13828 18.7031 7.0628C20.2912 6.86522 22.0509 6.86783 23.3955 7.88799C24.0001 8.34672 23.9982 9.04901 23.998 9.73077L23.9971 10.7298V18.6946L23.998 20.1312C23.9985 20.3352 24.001 20.5395 24 20.7435C23.9988 20.9435 24.0074 21.0953 23.8779 21.2571C23.6314 21.4026 23.2402 21.1226 23 21.0149C22.6526 20.8573 22.2924 20.7288 21.9238 20.6302C21.0861 20.4005 20.208 20.3565 19.3516 20.5023C18.9594 20.5684 18.5669 20.7043 18.1816 20.8001C16.2477 21.2811 13.9507 21.1942 12.6143 19.5062C12.1406 18.9078 12.1888 18.9127 12.1924 18.1644L12.1934 17.1409L12.1924 13.2278V6.5667C12.1926 6.30281 12.1837 5.87147 12.2109 5.62335ZM15.2471 18.3607C15.2454 18.8087 15.2577 19.323 15.2441 19.764C15.3954 19.7731 15.538 19.802 15.6885 19.8187C15.9352 19.8461 16.1679 19.8478 16.415 19.8401C16.3931 19.4487 16.4211 19.0397 16.4102 18.6468C16.4083 18.5773 16.4081 18.4991 16.4111 18.43C16.0301 18.4276 15.6227 18.4268 15.2471 18.3607ZM18.5215 18.0911C18.1935 18.1746 17.7331 18.2895 17.3945 18.3304C17.3945 18.4767 17.3832 19.6791 17.4102 19.722H17.4443C17.833 19.638 18.1678 19.5529 18.5508 19.4485C18.5524 19.0436 18.5665 18.5013 18.5459 18.1028C18.535 18.0962 18.5319 18.0917 18.5215 18.0911ZM21.6836 17.9583C21.6986 18.1773 21.6896 18.4186 21.6895 18.6399C21.6893 18.8648 21.701 19.1196 21.6816 19.3411C21.9541 19.3758 22.4932 19.5317 22.7725 19.6243C22.8007 19.5797 22.7922 18.4505 22.7891 18.3079C22.4347 18.1643 22.0619 18.0244 21.6836 17.9583ZM13.4014 18.1761C13.3988 18.6095 13.4137 18.5919 13.7256 18.9388C13.815 19.0383 14.1575 19.3307 14.2676 19.3616C14.2431 19.0694 14.2653 18.4123 14.2686 18.098C13.9211 17.9436 13.7313 17.8323 13.4072 17.6419L13.4014 18.1761ZM19.9375 17.8138C19.8032 17.8241 19.6687 17.8368 19.5352 17.8528C19.5359 18.3067 19.5468 18.8089 19.5352 19.2591C19.7776 19.2259 20.0297 19.219 20.2744 19.2112L20.6982 19.2161C20.6962 18.7559 20.6926 18.2741 20.7012 17.8148C20.4284 17.7996 20.2106 17.8008 19.9375 17.8138ZM21.6934 8.36163C21.6829 8.89961 21.6967 9.41445 21.6973 9.94756C22.1419 10.0955 22.3768 10.1942 22.79 10.4163V8.95049C22.5551 8.76992 22.3429 8.62747 22.0684 8.50713C21.9447 8.45285 21.813 8.41316 21.6934 8.36163ZM16.3779 8.67315C16.0837 8.71204 15.53 8.78278 15.2432 8.76006C15.2438 8.92073 15.234 10.2553 15.2627 10.2972C15.6434 10.3097 16.0244 10.2799 16.3984 10.2083C16.4007 10.0495 16.4308 8.72546 16.3916 8.67608L16.3779 8.67315ZM13.4043 8.3919C13.4054 8.70134 13.3843 9.33044 13.4131 9.60381C13.6336 9.77074 13.9961 10.018 14.2646 10.094C14.2519 9.6602 14.2599 9.09746 14.2695 8.66045C14.0406 8.6088 13.6186 8.4918 13.4043 8.3919ZM18.4648 8.31866C18.1175 8.36308 17.7286 8.44691 17.3945 8.48272C17.3942 8.65896 17.3781 9.97885 17.415 10.0296C17.4402 10.028 17.4622 10.0274 17.4873 10.0228C17.7697 9.9664 18.2734 9.888 18.5596 9.8626C18.5283 9.51546 18.5668 9.05736 18.5527 8.70147C18.5498 8.63038 18.5596 8.37445 18.542 8.31963C18.5044 8.30827 18.5024 8.31137 18.4648 8.31866ZM19.9121 8.17217C19.7958 8.17978 19.6504 8.1934 19.5361 8.19561C19.5361 8.71782 19.5413 9.24936 19.5352 9.77081C19.7979 9.74895 20.1014 9.7548 20.3672 9.75811C20.4719 9.76264 20.5981 9.77102 20.7012 9.76983C20.6894 9.24492 20.7086 8.71122 20.6982 8.18878C20.405 8.16858 20.208 8.15941 19.9121 8.17217ZM5.29102 1.00811C5.9272 0.977173 6.93364 1.02381 7.50293 1.34112C7.64474 1.42101 7.60197 1.84818 7.60156 2.01495L7.60059 2.95342V4.06963C7.60139 4.20255 7.63482 4.84674 7.5498 4.91241C7.12509 5.2374 6.27507 5.25856 5.76758 5.28448C5.14592 5.31526 4.39115 5.25365 3.79492 5.07647C3.71745 5.05342 3.53636 4.97387 3.49023 4.90557C3.46929 4.87336 3.45735 4.72026 3.45508 4.67803C3.4506 3.65848 3.44773 2.63799 3.4541 1.61846C3.45465 1.53925 3.47421 1.44142 3.50293 1.36749C3.79671 1.08141 4.88318 1.02382 5.29102 1.00811Z" fill="white"/>
</g>
<defs>
<clipPath id="clip0_95_1297">
<rect width="24" height="24" fill="white"/>
</clipPath>
</defs>
</svg>
