<svg width="24" height="24" viewBox="0 0 24 24" fill="none" xmlns="http://www.w3.org/2000/svg">
<g clip-path="url(#clip0_75_967)">
<path d="M10.8982 0.0127112C13.0661 -0.0684887 16.808 0.207975 18.5672 1.64357C18.8615 1.88371 19.102 2.28265 19.1179 2.67189C19.1341 3.07907 18.9505 3.39581 18.6834 3.68947L18.6853 7.79787L18.6834 17.6817L18.6863 20.334C19.2649 20.8677 19.2297 21.552 18.7703 22.1436C17.6805 23.3679 14.8715 23.8268 13.2605 23.9385C11.0207 24.0939 8.50886 23.9808 6.3572 23.2881C5.74139 23.0718 5.0828 22.8118 4.58571 22.377C3.87488 21.7553 3.82443 21.0322 4.4363 20.334C4.45931 19.9418 4.43919 19.3635 4.4402 18.96V3.6758C3.21015 2.34366 4.8278 1.25909 5.99391 0.844742C7.61952 0.267415 9.18803 0.0760437 10.8982 0.0127112ZM12.7107 7.43166C11.5723 7.77977 10.6973 8.57118 10.1414 9.63088C9.53337 10.788 9.40805 12.1452 9.79372 13.3975C9.88128 13.6874 10.0503 13.9976 9.66286 14.1387C9.38254 14.2407 9.17383 13.8501 9.05837 13.6543C8.61889 12.9091 8.56867 12.0574 8.77907 11.2266L8.75759 11.2119L8.73415 11.2334C8.71205 11.196 8.71355 11.1831 8.70388 11.1397C8.67111 11.1508 8.63839 11.1562 8.60427 11.1611C7.89243 11.8967 7.47949 13.1468 7.49001 14.168C7.47852 14.4244 7.55259 14.657 7.58766 14.9053C7.71298 15.7937 8.12377 16.5262 8.73415 17.1641C10.223 18.7202 13.1491 18.7709 14.658 17.1856C15.3278 16.4919 15.6961 15.5536 15.6795 14.5811C15.6677 13.8504 15.4823 13.3537 15.1033 12.7559C14.8502 12.3563 14.8806 12.3341 14.5242 11.9834C13.7867 11.2577 13.0666 10.9954 12.6492 9.9883C12.5028 9.6303 12.424 9.24718 12.4168 8.85939C12.4047 8.35152 12.5115 7.89331 12.7107 7.43166ZM11.8845 12.2666C11.9426 12.2969 12.2148 12.8566 12.3123 12.9736C12.7192 13.4662 13.4504 13.8517 13.5545 14.5391C13.6446 15.1344 13.4865 15.8495 13.0008 16.2305C12.9024 16.3077 12.7603 16.3775 12.6521 16.4444C12.4771 16.5527 12.374 16.6047 12.1687 16.6387C11.5014 16.7254 11.1769 16.446 10.6843 16.1035C10.7931 16.0736 10.8991 16.033 11.0008 15.9834C11.6178 15.6877 12.0729 15.0128 11.95 14.3174C11.8069 13.5086 11.5986 13.0899 11.8845 12.2666ZM11.2302 0.696305C9.62931 0.73783 8.01244 0.898483 6.49489 1.4756C6.15731 1.60406 5.79581 1.78238 5.50563 1.99904C5.27316 2.17273 4.98631 2.42423 4.9988 2.74904C5.00735 2.96002 5.17292 3.16618 5.31911 3.29787C6.80983 4.53469 9.92842 4.77437 11.7605 4.75099C13.4808 4.73146 15.3914 4.49998 16.9754 3.75295C17.4099 3.548 17.8761 3.22928 17.9988 2.71681C17.59 1.01949 12.6754 0.628521 11.2302 0.696305ZM7.46755 2.02248C7.89321 1.99186 8.50385 2.08977 8.83473 2.37502C9.1865 2.67833 8.98166 3.05259 8.63552 3.21291C8.32674 3.35579 8.07353 3.40179 7.74391 3.41994C5.78887 3.4496 5.5467 2.13662 7.46755 2.02248Z" fill="white"/>
</g>
<defs>
<clipPath id="clip0_75_967">
<rect width="24" height="24" fill="white"/>
</clipPath>
</defs>
</svg>
