<svg width="24" height="24" viewBox="0 0 24 24" fill="none" xmlns="http://www.w3.org/2000/svg">
<g clip-path="url(#clip0_2_82)">
<path d="M21.7723 5.23413V24.0007H2.22836V5.61499L11.7782 0.000732422L21.7723 5.23413ZM16.0926 6.02319C16.007 5.9921 15.8533 5.99268 15.7694 6.02319C15.6856 6.05374 15.6051 6.07256 15.5223 6.1062C15.2802 6.20463 15.0733 6.3883 14.9618 6.62378C14.9023 6.75182 14.8666 6.88959 14.8553 7.03003C14.8517 9.11856 14.855 6.35932 14.8514 8.82593C14.8536 8.96154 14.8777 9.09029 14.9207 9.21851C14.9867 9.41486 15.0951 9.5057 15.1932 9.66479L15.1942 14.5652L15.1952 16.0271C15.1953 16.5258 15.2139 17.071 15.1043 17.5574C14.9443 18.2842 14.5783 18.9514 14.0487 19.4802C13.3198 20.2098 12.3264 20.6226 11.2889 20.6267C10.2548 20.6267 9.26374 20.2178 8.53598 19.4919C7.96968 18.9414 7.43051 17.4646 7.43051 17.4646H8.76938L5.99985 13.407V17.2791C6.26335 19.701 8.29445 21.7319 10.7557 21.9685C10.8045 21.9732 10.905 21.9841 10.9491 21.9998H11.6502C11.7405 21.9724 11.9188 21.9601 12.0204 21.947C12.8276 21.8431 13.6074 21.5541 14.2918 21.0974C15.5742 20.2454 16.421 18.8859 16.6131 17.3708C16.6598 17.0044 16.656 16.6101 16.6561 16.241V15.0339C16.6559 13.2495 16.6414 11.4639 16.659 9.67944C16.66 9.65938 16.7834 9.49573 16.8036 9.46655C16.8526 9.39509 16.8925 9.31807 16.9227 9.23706C16.9655 9.12329 16.9969 8.97074 16.9998 8.84937C16.9998 6.77751 16.9999 9.1185 16.9998 7.07007C16.9859 6.66256 16.7395 6.26417 16.3495 6.11206C16.2653 6.07925 16.1783 6.05431 16.0926 6.02319Z" fill="white"/>
</g>
<defs>
<clipPath id="clip0_2_82">
<rect width="24" height="24" fill="white"/>
</clipPath>
</defs>
</svg>
