<svg width="24" height="24" viewBox="0 0 24 24" fill="none" xmlns="http://www.w3.org/2000/svg">
<g clip-path="url(#clip0_80_1112)">
<path d="M16.5 17.0001C18 17.0001 24 18.3229 24 19.7696C23.9994 21.5538 18.6271 23.0001 12 23.0001C5.37295 23.0001 0.000591499 21.5538 0 19.7696C0 18.3487 2.26526 17.4326 7 17.0001L7.5 17.462C7.9999 17.9233 8.49993 17.9229 8.5 17.9229C4.5 18.3845 2 18.9016 2 19.7696C2.00082 20.8401 6.47766 21.7071 12 21.7071C17.5223 21.7071 21.9992 20.8401 22 19.7696C22 18.8664 18.8131 18.1078 14.5 17.8927C14.5 17.8927 15.6566 17.7025 16 17.462C16.5 17.1115 16.5 17.0001 16.5 17.0001ZM16.6572 0.0245013C16.7486 -0.00792225 16.9162 -0.00841106 17.0098 0.0245013C17.1031 0.0575344 17.1983 0.0844116 17.29 0.119228C17.7155 0.280826 17.9838 0.703876 17.999 1.13681C17.999 3.31362 18 0.826201 18 3.02841C17.9968 3.1573 17.9626 3.31879 17.916 3.43954C17.8831 3.52565 17.8396 3.60773 17.7861 3.68368C17.7642 3.71457 17.6299 3.88694 17.6279 3.90927C17.6087 5.80521 17.6248 7.70272 17.625 9.59872V10.8809C17.6249 11.2733 17.6291 11.6926 17.5781 12.0821C17.3685 13.6918 16.4448 15.1359 15.0459 16.0411C14.2992 16.5263 13.4489 16.833 12.5684 16.9434C12.4577 16.9574 12.2627 16.971 12.1641 17.0001H11.3984C11.3503 16.9835 11.2417 16.9718 11.1885 16.9669C8.50336 16.7157 6.28754 14.5578 6 11.9845V7.86923L9.02051 12.1808H7.56055C7.56055 12.1808 8.14882 13.7501 8.7666 14.335C9.5606 15.1064 10.6423 15.5402 11.7705 15.5401C12.9022 15.5357 13.9852 15.0975 14.7803 14.3224C15.3581 13.7604 15.758 13.0518 15.9326 12.2794C16.0522 11.7625 16.0304 11.1834 16.0303 10.6534V9.10067L16.0283 3.89364C15.9214 3.72493 15.8043 3.62839 15.7324 3.42001C15.6853 3.28353 15.6586 3.14641 15.6562 3.00204C15.6602 0.381518 15.6562 3.31323 15.6602 1.09384C15.6725 0.944828 15.7116 0.799039 15.7764 0.663173C15.898 0.412884 16.1235 0.216997 16.3877 0.112392C16.478 0.0766422 16.5658 0.0569489 16.6572 0.0245013Z" fill="white"/>
</g>
<defs>
<clipPath id="clip0_80_1112">
<rect width="24" height="24" fill="white"/>
</clipPath>
</defs>
</svg>
