<svg width="24" height="24" viewBox="0 0 24 24" fill="none" xmlns="http://www.w3.org/2000/svg">
<g clip-path="url(#clip0_2_1113)">
<path d="M12.302 8.85915C12.0772 9.04635 11.8214 9.31199 11.6106 9.51443L10.1916 10.8982C9.90902 11.177 9.60326 11.4521 9.31469 11.7283L7.51098 13.4822L0.578363 20.1609C0.25372 20.4779 0.0104773 20.8085 0.000237845 21.2801C-0.0146486 21.965 0.663059 22.3545 1.0686 22.8142C1.17644 22.9244 1.28951 23.0359 1.39672 23.1463C1.84081 23.603 2.09982 24.0073 2.7893 23.9998C3.20797 23.9501 3.49647 23.7903 3.78344 23.4881C4.4936 22.7398 5.20975 21.9971 5.92602 21.2547L12.7366 14.2088C13.4108 13.521 14.0585 12.7967 14.7405 12.115C14.8722 11.9833 15.0077 11.8225 15.1516 11.7068C14.9499 11.4962 14.7436 11.2984 14.5325 11.0974C13.7784 10.3798 13.072 9.55498 12.302 8.85915ZM13.8166 0.00173121C13.5499 -0.0127775 13.3053 0.0639247 13.0979 0.231223C12.7775 0.489777 12.4818 0.818783 12.1868 1.11111C11.5982 1.68839 11.0142 2.27063 10.4348 2.8572C10.0753 3.2216 9.63229 3.64482 9.29907 4.01931C9.0396 4.36998 9.03362 5.02345 9.33032 5.33572C10.5364 6.60466 11.8 7.81736 13.0315 9.05837L16.8332 12.8689L17.9543 13.9929C18.376 14.4167 18.6487 14.8218 19.2747 14.8943C19.5447 14.9009 19.8428 14.8231 20.0461 14.6443C20.3223 14.4013 20.5975 14.111 20.8586 13.8484L22.3157 12.3816C22.5677 12.1267 22.8221 11.8706 23.0754 11.617C23.3129 11.3793 23.5713 11.1682 23.7766 10.8992C23.8967 10.7443 23.9713 10.559 23.9914 10.364C24.059 9.69886 23.5352 9.31116 23.1038 8.88845L22.3918 8.17751L19.2034 4.99001L15.8186 1.60232C15.5814 1.36918 15.3506 1.12636 15.1096 0.896262C14.6971 0.502301 14.428 0.0592773 13.8166 0.00173121ZM18.7707 2.86794C18.4522 2.89201 18.2613 3.07585 18.0666 3.30642C18.2318 3.52575 18.5432 3.79346 18.7454 3.99782L20.3997 5.66286C20.496 5.76173 20.5878 5.84044 20.6916 5.93044C21.6438 5.15899 20.9208 4.41798 20.2463 3.81521C19.859 3.46906 19.5487 2.94787 19.01 2.86794C18.9304 2.86255 18.8503 2.86233 18.7707 2.86794Z" fill="white"/>
</g>
<defs>
<clipPath id="clip0_2_1113">
<rect width="24" height="24" fill="white"/>
</clipPath>
</defs>
</svg>
