<svg width="24" height="24" viewBox="0 0 24 24" fill="none" xmlns="http://www.w3.org/2000/svg">
<path d="M13.2864 2.00209C13.4192 1.99918 13.5521 1.99931 13.6849 2.00248C15.2367 2.05479 17.4361 2.68027 18.5464 3.85231C19.1114 4.44875 19.2283 5.34701 18.5811 5.95314C17.1733 6.32089 15.3952 4.53082 13.5569 4.84015C12.8602 4.95738 12.1038 5.5083 11.7021 6.08501C11.499 6.37658 11.4045 6.73077 11.4685 7.08496C11.5281 7.41446 11.7165 7.66009 11.9659 7.86805C13.9061 9.48626 19.246 6.98068 21.0684 8.2907C21.3085 8.46327 21.4765 8.72111 21.5265 9.01562C21.5622 9.22594 21.5626 9.46528 21.4314 9.64388C21.0809 10.1209 19.7791 9.92672 19.2282 9.91451C18.9286 9.90788 18.6254 9.92027 18.329 9.96709C17.9765 10.0228 17.7 10.1599 17.4872 10.4605C17.3289 10.6843 17.2914 10.9507 17.3377 11.2184C17.3745 11.431 17.4734 11.6258 17.6 11.7975C18.3782 12.8528 20.1278 12.556 21.2642 12.821C21.5813 12.897 21.8817 13.032 22.1499 13.2192C22.5304 13.4865 23.0735 14.0761 23.1365 14.5504C23.3781 16.3691 19.9178 14.1635 20.2521 16.1942C20.3236 16.6284 20.6761 17.1883 20.9801 17.4939C21.1965 17.6812 21.4306 18.097 21.6613 18.2464C22.403 18.7268 23.1543 18.7244 23.9244 19.2355C24.0298 19.626 24.0706 19.9478 23.7353 20.2465C23.2547 20.6745 22.3658 20.7719 21.7531 20.7692C21.1292 20.766 20.7286 20.5315 20.2285 20.2187C18.9663 19.4289 18.8262 17.8762 18.3524 16.5762C18.1323 15.9723 18.0903 15.786 17.6448 15.3028C17.3476 15.1819 17.0989 15.1985 16.7912 15.2269C16.6066 15.3767 16.5108 15.4904 16.4805 15.74C16.4175 16.258 16.6283 16.7767 16.6679 17.3006C16.697 17.6606 16.6481 17.9927 16.6154 18.357C16.5601 18.9714 16.6792 20.5172 15.6978 20.358C15.1338 20.2665 14.7226 19.6557 14.5238 19.1541C14.1916 18.3159 13.7963 17.4331 13.714 16.5239C13.5898 14.9047 14.6371 12.9215 13.7661 11.4232C13.2643 10.5599 11.483 10.5099 10.7348 11.0456C10.493 11.2167 10.3309 11.4805 10.2862 11.7757C10.1523 12.6167 10.9437 13.5039 11.4101 14.1631C11.7512 14.6863 11.9691 15.1042 12.106 15.7253C12.3441 16.8051 12.615 17.8927 12.6873 19.0022C12.7304 19.7253 12.3864 20.7968 11.5344 20.8093C10.6629 20.8222 9.5374 18.8989 9.41446 18.1699C9.30342 17.5113 9.43701 16.4209 9.42597 15.7179C9.41093 14.7609 9.15017 14.199 8.10835 14.5739C7.7974 14.6929 7.62112 15.3011 7.5659 15.6043C7.51301 15.8946 7.4015 16.2772 7.3798 16.5801C7.24349 17.652 7.31145 19.1855 6.51808 20.0136C5.91232 20.6341 5.08971 20.9882 4.22809 20.9995C3.40869 21.0125 2.56201 20.7846 1.9416 20.204C1.43882 19.7334 1.28979 18.9622 1.25734 18.3007C1.24264 18.0012 1.38088 17.4147 1.601 17.2236C2.52559 16.499 3.52788 18.1316 4.45526 18.1024C5.15143 18.0804 5.46671 17.0668 5.44384 16.4856C5.35299 14.175 3.12359 15.035 1.6646 14.6889C1.37924 14.6212 1.06067 14.4078 0.849985 14.2011C0.417612 13.7468 -0.00909225 13.0203 0.000147388 12.3673C0.00434556 12.0705 0.0435625 11.7366 0.270577 11.523C1.42654 10.4351 4.01027 12.6003 5.43679 12.4741C5.68981 12.4649 5.96042 12.4061 6.13988 12.2079C6.41799 11.9008 6.43495 11.2515 6.15479 10.9401C5.29876 9.98842 4.00965 9.56204 3.07292 8.68953C2.64381 8.28985 2.41199 7.89401 2.40113 7.29081C2.38447 6.53417 2.41742 5.25791 3.43049 5.21617C3.73713 5.20351 4.16792 5.36591 4.37547 5.59618C5.04666 6.34071 5.47094 7.35213 5.95611 8.22676C6.17218 8.61732 6.42498 8.93899 6.74742 9.23461C6.95866 9.43036 7.35231 9.60206 7.64083 9.58411C8.31549 9.54211 8.60237 8.62094 8.56733 8.04525C8.52235 7.30598 7.81033 6.92618 7.33344 6.46976C7.16695 6.3104 6.9855 6.14467 6.87075 5.93631C6.64985 5.46704 6.48145 4.70717 6.42811 4.19442C6.39908 3.91543 6.51639 3.41738 6.71016 3.23854C7.72394 2.30285 8.82951 4.65878 9.93771 4.52519C10.9492 4.40326 11.3839 3.29978 11.9882 2.64827C12.4149 2.18814 12.6941 2.02979 13.2864 2.00209Z" fill="white"/>
</svg>
