<svg width="24" height="24" viewBox="0 0 24 24" fill="none" xmlns="http://www.w3.org/2000/svg">
<path d="M11.9872 0C12.0976 0.21421 12.2507 0.704713 12.372 0.984126C12.8775 2.12455 13.4146 3.58831 14.4762 4.32564C15.0789 4.74436 15.6081 4.11577 15.8769 3.63694C15.9691 4.59542 16.0019 5.18949 15.8263 6.16169C15.6439 7.17186 15.2068 8.08663 15.1067 9.09767C15.0745 9.42374 15.1075 9.77619 15.1466 10.0993C16.1738 9.70962 16.3624 8.95339 17.0376 8.20377C17.4687 7.72528 17.9868 7.33318 18.5317 6.98586C18.5708 6.9609 18.6382 6.91678 18.6796 6.9271C18.6969 6.99115 18.6582 7.20207 18.6463 7.28085C18.4413 8.64598 18.8597 8.35295 19.8454 7.91323C20.1078 7.79428 20.3753 7.68689 20.6474 7.59138C21.1269 7.41927 21.6212 7.29035 22.1243 7.20618C22.418 7.1572 22.7043 7.13367 23 7.07861C22.2469 7.53229 21.4426 8.69296 21.0408 9.46439C20.8905 9.75292 20.7366 10.2102 20.7453 10.5306C20.7711 11.4636 21.788 11.4849 22.4908 11.4694C22.4836 11.4814 22.4761 11.4932 22.4684 11.5049C21.6506 12.7651 19.9 13.6641 18.527 14.2335C18.2632 14.3429 17.756 14.5472 17.4966 14.6038C17.6867 14.6214 17.8756 14.6504 18.0623 14.6906C18.9196 14.8735 19.948 15.2937 20.4429 16.0539L20.4225 16.0759C20.1647 16.1065 19.3868 15.8275 19.13 16.0235C18.9585 16.1544 19.3794 16.6259 19.4869 16.7535C20.0108 17.3752 20.4243 17.8162 20.4939 18.6561C19.6694 18.5463 18.5216 18.0918 17.6959 18.2899C17.1895 18.4113 17.8485 19.5873 17.9866 19.8367C17.8032 19.7292 17.5297 19.6061 17.333 19.504C16.9804 19.3195 16.6396 19.1135 16.3125 18.8876C14.7842 17.8162 14.2381 16.7828 12.205 16.7787C12.2268 19.4004 11.8795 22.4257 9.46404 24C9.40701 23.7796 9.37049 23.7026 9.21482 23.5366C8.98856 23.3528 8.73412 23.2517 8.45412 23.1808C9.0101 22.8762 9.5131 22.4855 9.94407 22.0237C11.2504 20.6326 11.7842 18.6408 11.7113 16.7768C9.84849 16.8001 9.42678 17.5893 7.99371 18.6476C7.31537 19.1486 6.73964 19.4666 5.99013 19.8277C6.16864 19.542 6.48217 18.9208 6.46437 18.5838C6.45925 18.487 6.42201 18.3939 6.34584 18.3304C5.93417 17.9879 4.07676 18.5957 3.5028 18.6467L3.47847 18.6488C3.57349 17.6957 4.09234 17.2413 4.66642 16.5311C4.75451 16.4221 4.89246 16.2488 4.89576 16.1076C4.8762 16.0631 4.86551 16.0282 4.81237 16.0071C4.53122 15.8955 3.76069 16.0369 3.49041 16.1065C4.13686 15.201 5.3435 14.6877 6.43884 14.6125C4.63975 13.9518 2.59161 13.0799 1.48123 11.4709C1.7952 11.4751 2.11089 11.4809 2.42052 11.4115C2.70359 11.3479 2.94118 11.2308 3.10309 10.9811C3.28074 10.7071 3.23254 10.3686 3.16579 10.0705C2.97167 9.2035 1.73357 7.53019 1 7.09407C1.9078 7.17176 2.79929 7.37981 3.64631 7.71168C4.99784 8.23704 5.65881 8.97248 5.27134 6.89056C5.84531 7.23363 6.44176 7.65807 6.89236 8.15546C7.71046 9.05851 7.6547 9.55773 8.82522 10.1071C9.01266 8.75155 8.64848 8.10973 8.298 6.81244C8.08614 6.02828 7.97396 5.17045 8.03472 4.35987C8.04204 4.26216 8.07079 3.76435 8.12969 3.71311C8.60822 4.41232 9.09037 4.79642 9.84224 4.06104C10.6488 3.27212 11.1053 2.11024 11.5568 1.09763C11.7119 0.749718 11.8265 0.339111 11.9872 0Z" fill="white"/>
</svg>
