<svg width="24" height="24" viewBox="0 0 24 24" fill="none" xmlns="http://www.w3.org/2000/svg">
<g clip-path="url(#clip0_51_792)">
<path d="M-0.0483409 0.100098C0.0104656 0.035063 -0.0259775 0.0620026 0.0864247 0.0483398L9.97705 5.91748C11.4227 6.77152 13.5309 7.91583 14.8433 8.85303C15.3457 9.21213 17.0552 12.3056 17.4849 13.0327L21.4263 19.7017C22.2416 21.0811 23.082 22.5672 23.9526 23.8999C23.8921 23.9671 23.9281 23.9382 23.8071 23.9526L12.4097 17.1919C11.7618 16.8024 9.25085 15.4473 8.91748 15.0405C8.2576 14.2353 7.07744 12.1072 6.48389 11.103L2.49267 4.34521C1.67119 2.95154 0.823857 1.45537 -0.0483409 0.100098ZM11.4907 9.81396C10.2773 10.0685 9.50166 11.2609 9.76123 12.4731C10.0193 13.6782 11.2035 14.4479 12.4097 14.1948C13.6157 13.9417 14.3899 12.7613 14.1421 11.5542C13.8927 10.3399 12.7039 9.55963 11.4907 9.81396Z" fill="white"/>
</g>
<defs>
<clipPath id="clip0_51_792">
<rect width="24" height="24" fill="white"/>
</clipPath>
</defs>
</svg>
