<svg width="24" height="24" viewBox="0 0 24 24" fill="none" xmlns="http://www.w3.org/2000/svg">
<path d="M23.5001 22.5017H0.500061V13.0017H23.5001V22.5017ZM14.7872 14.3552H9.85553C9.29156 14.3554 8.66218 14.3421 8.10358 14.363C8.04502 14.3944 7.93231 14.4599 7.92682 14.5437C7.88524 15.2032 7.91304 15.8922 7.91022 16.5554C7.90938 16.7503 7.96005 16.8724 8.14166 16.8757C8.51721 16.9174 8.91238 16.9016 9.2901 16.9011L11.4874 16.9001H14.3995C14.7687 16.9001 15.5737 16.9237 15.9083 16.8855C15.9832 16.8548 16.0386 16.8266 16.0704 16.7429C16.1216 16.6062 16.1095 14.9565 16.0928 14.7126C16.0878 14.6377 16.0814 14.5277 16.0421 14.4636C15.9981 14.3929 15.845 14.3795 15.7686 14.3699C15.4499 14.3302 15.1093 14.3552 14.7872 14.3552ZM23.377 11.9998L0.667053 11.9871L4.16901 0.999756H20.2266L23.377 11.9998Z" fill="white"/>
</svg>
