<svg width="24" height="24" viewBox="0 0 24 24" fill="none" xmlns="http://www.w3.org/2000/svg">
<g clip-path="url(#clip0_2_140)">
<path d="M2.43232 8.51787C-0.260058 7.12894 -0.538217 4.96284 0.724677 2.32182C1.15054 1.43126 1.85755 0.437498 2.7775 0.0661313C3.22946 -0.109151 3.86852 0.0791031 4.04477 0.591625C4.1872 1.00571 3.68349 1.46847 3.43858 1.73664C2.75494 2.46568 1.86308 3.02268 1.69477 4.10897C1.59947 4.72398 1.65287 5.58906 2.21905 5.96136C2.31536 6.0257 2.52198 6.05898 2.62991 6.00864C3.5896 5.56104 3.89159 2.78861 5.25291 3.33761C5.89349 3.59595 5.42888 4.71039 5.20154 5.16843C5.11141 5.34887 5.01609 5.52646 4.91568 5.70097C4.66745 6.13685 4.40213 6.57267 4.55874 7.10794C4.60882 7.27915 4.73147 7.45853 4.89033 7.53926C5.04031 7.61547 5.17958 7.6069 5.34109 7.55538C6.10353 7.31219 6.72754 5.42801 7.60462 5.84633C7.74224 5.91197 7.90961 6.05545 7.95955 6.20942C8.01727 6.38732 7.99102 6.56825 7.94094 6.74173C7.86117 7.018 7.71586 7.32647 7.60775 7.59138C7.21109 8.56321 7.40526 9.05942 8.31869 9.5248C8.80965 9.77494 9.46838 9.97683 10.0046 10.0988C10.2606 10.0198 10.5119 9.94598 10.7759 9.89981C11.7452 9.73031 13.046 9.75249 13.9761 10.1079L14.2751 10.0304L14.4574 9.97979C15.0439 9.81105 15.7466 9.57231 16.2094 9.18124C17.1834 8.35804 15.9854 7.258 16.0129 6.34076C16.0215 6.19477 16.1101 6.04811 16.2218 5.96156C17.4328 5.0226 18.0337 8.26693 19.2322 7.45239C19.5304 7.24977 19.5337 6.61054 19.3831 6.27788C19.0451 5.53042 18.4216 4.74187 18.4226 3.86699C18.4197 3.4767 18.8566 3.1765 19.1712 3.25629C20.1139 3.49547 20.4189 5.01561 21.0035 5.70502C21.1437 5.87028 21.2671 6.01305 21.4876 6.03384C22.0856 6.04621 22.3301 5.19409 22.3465 4.71913C22.3717 3.99242 22.1536 3.37998 21.6908 2.85649C21.5468 2.69956 21.3687 2.52912 21.2167 2.37698C20.9506 2.11875 20.669 1.86027 20.4181 1.58691C20.0893 1.22863 19.6955 0.778737 20.1229 0.318977C20.3063 0.11861 20.5602 0.00359586 20.8267 0.000116981C21.9741 -0.0166013 23.0687 1.7627 23.4663 2.74019C24.1158 4.33651 24.3695 6.07123 23.07 7.42731C22.9986 7.50232 22.924 7.57421 22.8467 7.64274C22.8013 7.68462 22.755 7.72897 22.7076 7.76794C21.9957 8.36063 21.0197 8.80952 20.1879 9.22811C19.2202 9.71269 18.2493 10.1902 17.2752 10.6605C16.7859 10.8969 16.2568 11.1375 15.7757 11.3829C15.945 11.5958 16.0512 11.7627 16.1965 11.9941C17.1718 11.3789 18.3088 10.9981 19.4601 11.1293C19.648 11.1554 19.8157 11.1822 20.001 11.2292C20.3128 11.3157 21.6076 11.7286 21.4001 12.1888C20.6491 13.8545 18.4015 13.8865 16.8992 13.7282C16.959 13.9482 17.0099 14.1498 17.0364 14.3795C17.1614 15.4623 16.864 16.5909 16.5122 17.6006C16.3371 18.1036 16.1667 18.4272 16.0908 18.9754C16.0136 19.5336 16.0784 19.8546 16.1311 20.3941C16.1758 20.852 16.0987 21.3579 15.9396 21.7882C15.9128 21.8519 15.8848 21.9241 15.853 21.9844C15.8227 22.0479 15.7948 22.1109 15.7573 22.1701C15.7328 22.2116 15.6685 22.3158 15.6509 22.3548L15.6147 22.3903C15.4319 22.7065 15.0079 23.063 14.7123 23.2582C13.0214 24.3548 10.1075 24.2761 8.67318 22.7501C8.61038 22.7009 8.48182 22.533 8.42741 22.4629C8.34243 22.3441 8.26512 22.2198 8.19602 22.0905C7.96029 21.644 7.78323 20.8662 7.86794 20.3799C8.06978 19.221 7.86764 18.6209 7.47378 17.563C7.03278 16.3785 6.7459 14.9885 7.10239 13.7284C5.97307 13.8537 4.6227 13.8465 3.5936 13.2746C3.17982 13.0381 2.75307 12.6522 2.58636 12.182C2.48778 11.8644 2.85375 11.7051 3.05982 11.5931C4.6204 10.7457 6.33021 11.0785 7.78922 11.9927C7.92849 11.7478 8.03679 11.5905 8.20657 11.3698L7.30057 10.9355C7.25198 10.916 7.15217 10.8629 7.10158 10.8378L7.06095 10.821C6.9871 10.7843 6.91307 10.7478 6.83886 10.7117C6.44747 10.5398 5.98623 10.301 5.59754 10.111C4.7171 9.6809 3.84028 9.2429 2.96721 8.79703L2.81297 8.71559L2.58834 8.60015C2.53753 8.57559 2.48266 8.5447 2.43232 8.51787Z" fill="white"/>
</g>
<defs>
<clipPath id="clip0_2_140">
<rect width="24" height="24" fill="white"/>
</clipPath>
</defs>
</svg>
