<svg width="24" height="24" viewBox="0 0 24 24" fill="none" xmlns="http://www.w3.org/2000/svg">
<g clip-path="url(#clip0_2_140)">
<path d="M2.41417 8.66296C-0.258117 7.3319 -0.534202 5.25605 0.71927 2.72508C1.14195 1.87162 1.84369 0.919269 2.75678 0.563376C3.20536 0.395397 3.83966 0.575807 4.0146 1.06697C4.15596 1.4638 3.65601 1.90728 3.41292 2.16428C2.73439 2.86295 1.84918 3.39674 1.68212 4.43776C1.58754 5.02715 1.64054 5.85619 2.20249 6.21297C2.29809 6.27463 2.50317 6.30652 2.61029 6.25828C3.56282 5.82933 3.86256 3.17242 5.21372 3.69855C5.84952 3.94612 5.38838 5.01412 5.16273 5.45308C5.07327 5.626 4.97866 5.79619 4.87901 5.96343C4.63263 6.38115 4.36928 6.79881 4.52472 7.31178C4.57443 7.47585 4.69617 7.64776 4.85385 7.72513C5.0027 7.79816 5.14093 7.78994 5.30124 7.74057C6.05799 7.50752 6.67734 5.70184 7.54788 6.10274C7.68448 6.16564 7.85059 6.30314 7.90017 6.45069C7.95746 6.62118 7.9314 6.79457 7.88169 6.96082C7.80252 7.22558 7.6583 7.52121 7.55098 7.77507C7.15729 8.70641 7.35001 9.18195 8.25662 9.62793C8.74393 9.86765 9.39773 10.0611 9.92993 10.178C10.184 10.1023 10.4335 10.0316 10.6955 9.98732C11.6576 9.82488 12.9486 9.84614 13.8718 10.1867L14.1686 10.1124L14.3496 10.064C14.9317 9.90226 15.6292 9.67346 16.0884 9.29869C17.0552 8.50979 15.8662 7.45558 15.8934 6.57656C15.9019 6.43665 15.9899 6.2961 16.1007 6.21316C17.3027 5.31333 17.8991 8.42247 19.0887 7.64188C19.3847 7.4477 19.3879 6.83511 19.2385 6.5163C18.903 5.79998 18.2842 5.04429 18.2851 4.20587C18.2823 3.83184 18.7159 3.54415 19.0281 3.62061C19.9638 3.84983 20.2666 5.30663 20.8468 5.96731C20.9859 6.12568 21.1085 6.26251 21.3272 6.28243C21.9208 6.29428 22.1635 5.47767 22.1798 5.0225C22.2048 4.32607 21.9883 3.73915 21.529 3.23747C21.3861 3.08707 21.2093 2.92374 21.0584 2.77794C20.7943 2.53047 20.5148 2.28276 20.2657 2.02079C19.9394 1.67743 19.5485 1.24629 19.9727 0.805686C20.1548 0.613668 20.4068 0.503446 20.6713 0.500112C21.8101 0.48409 22.8966 2.18925 23.2913 3.12602C23.9358 4.65583 24.1877 6.31827 22.8978 7.61784C22.827 7.68972 22.753 7.75862 22.6762 7.8243C22.6311 7.86442 22.5852 7.90693 22.5381 7.94428C21.8316 8.51227 20.8628 8.94246 20.0373 9.34361C19.0768 9.80799 18.1132 10.2656 17.1463 10.7163C16.6607 10.9429 16.1356 11.1734 15.658 11.4086C15.8261 11.6127 15.9315 11.7726 16.0756 11.9944C17.0437 11.4048 18.1722 11.0398 19.3149 11.1656C19.5014 11.1906 19.6679 11.2162 19.8518 11.2613C20.1613 11.3442 21.4464 11.7399 21.2405 12.1809C20.4951 13.7773 18.2642 13.8079 16.7731 13.6562C16.8325 13.867 16.883 14.0602 16.9093 14.2803C17.0333 15.318 16.7382 16.3996 16.389 17.3673C16.2152 17.8493 16.0461 18.1594 15.9708 18.6848C15.8941 19.2197 15.9585 19.5273 16.0107 20.0444C16.0551 20.4832 15.9786 20.968 15.8207 21.3804C15.7941 21.4414 15.7663 21.5106 15.7347 21.5684C15.7046 21.6293 15.6769 21.6896 15.6397 21.7463C15.6154 21.7861 15.5516 21.886 15.5342 21.9234L15.4982 21.9574C15.3167 22.2604 14.8959 22.6021 14.6025 22.7891C12.9242 23.8401 10.0321 23.7646 8.60847 22.3021C8.54613 22.255 8.41854 22.0941 8.36454 22.0269C8.28019 21.9131 8.20346 21.7939 8.13487 21.67C7.90089 21.2422 7.72516 20.4968 7.80924 20.0307C8.00957 18.9202 7.80894 18.345 7.41802 17.3312C6.98031 16.1961 6.69556 14.864 7.0494 13.6563C5.92851 13.7765 4.58821 13.7696 3.56678 13.2214C3.1561 12.9948 2.73253 12.625 2.56706 12.1744C2.46922 11.8701 2.83245 11.7174 3.03699 11.6101C4.58593 10.7979 6.28298 11.1169 7.73111 11.993C7.86934 11.7583 7.97683 11.6075 8.14534 11.396L7.2461 10.9799C7.19788 10.9611 7.09881 10.9102 7.04859 10.8862L7.00826 10.8702C6.93497 10.8349 6.86149 10.8 6.78784 10.7654C6.39937 10.6006 5.94157 10.3718 5.55577 10.1897C4.6819 9.77753 3.81162 9.35778 2.94507 8.93048L2.79198 8.85244L2.56903 8.74181C2.51859 8.71827 2.46414 8.68867 2.41417 8.66296Z" fill="white"/>
</g>
<defs>
<clipPath id="clip0_2_140">
<rect width="24" height="24" fill="white"/>
</clipPath>
</defs>
</svg>
