<svg width="24" height="24" viewBox="0 0 24 24" fill="none" xmlns="http://www.w3.org/2000/svg">
<g clip-path="url(#clip0_2_464)">
<path d="M18.1116 11.9942C18.3798 11.9942 18.6628 11.977 18.929 12.0069C19.1213 12.0286 19.325 12.0998 19.4466 12.2588C19.7991 12.7214 19.6475 14.5474 19.5686 15.1377C19.2396 17.6017 18.1183 19.7092 16.135 21.2266C15.493 21.7017 14.7946 22.0956 14.0559 22.3995C13.4341 22.659 12.7925 22.7998 12.3147 23.3174C12.2011 23.4382 12.087 23.5641 11.9798 23.6905C11.8833 23.8041 11.641 24.1064 11.469 23.962C11.196 23.7325 11.0006 23.4232 10.7259 23.1856C10.1823 22.7157 9.49755 22.5693 8.84987 22.2793C8.13327 21.9627 7.45925 21.5573 6.84401 21.0723C4.90947 19.5339 3.85573 17.3352 3.58132 14.9004C3.50685 14.1297 3.46506 13.3063 3.59987 12.5411C3.6663 12.1646 3.98774 12.0341 4.32155 12.001C4.49723 11.9833 4.92303 11.994 5.11062 11.9942L6.678 11.9952H16.637L18.1116 11.9942ZM4.90847 13.3379C4.83474 15.6062 5.26702 17.6275 6.85378 19.3243C7.42319 19.9329 8.08152 20.4522 8.80593 20.8643C8.86653 20.8994 9.0799 21.029 9.13894 21.0323L9.13405 21.0069C7.79876 19.0991 7.23342 17.2606 7.21511 14.9151C7.21073 14.3541 7.26424 13.8823 7.2903 13.3379C6.5084 13.3352 5.68944 13.3266 4.90847 13.3379ZM11.511 0.00492118C11.8693 -0.034096 12.3476 0.164456 12.6106 0.403359C12.8695 0.638682 12.8074 0.889902 12.8108 1.20219C12.8148 1.5613 12.8106 1.91477 12.7425 2.26859C12.6766 2.64016 12.516 3.03526 12.5198 3.40336C12.5234 3.74908 12.8523 4.31422 13.1389 4.49125C13.5046 4.71681 14.1321 4.85448 14.5628 4.9766C16.0355 5.39428 17.6309 5.87516 18.7903 6.92289C19.7163 7.75019 20.1402 8.91476 20.1829 10.1377C20.1997 10.6219 20.0206 10.9708 19.4885 11.0303C19.2151 11.0609 18.9092 11.0431 18.6321 11.043H4.61452C4.1991 11.0431 3.59206 11.1182 3.24929 10.8584C3.11086 10.7535 3.00806 10.5285 3.00222 10.3516C2.984 9.79878 3.07918 9.22364 3.24538 8.69633C3.96569 6.42682 6.37026 5.61715 8.43874 5.02543C8.93047 4.88481 9.58291 4.74957 10.0286 4.50004C10.113 4.45259 10.2166 4.34834 10.2766 4.2725C11.0069 3.34875 10.4791 2.95277 10.3919 1.96684C10.3749 1.5798 10.336 1.09946 10.3801 0.718788C10.4294 0.29591 11.1678 0.0387888 11.511 0.00492118Z" fill="white"/>
</g>
<defs>
<clipPath id="clip0_2_464">
<rect width="24" height="24" fill="white"/>
</clipPath>
</defs>
</svg>
