<svg width="24" height="24" viewBox="0 0 24 24" fill="none" xmlns="http://www.w3.org/2000/svg">
<g clip-path="url(#clip0_33_541)">
<path d="M21.2881 14.0049C21.6874 14.0049 22.7666 13.9746 23.0801 14.0645C23.3796 14.1508 23.6341 14.3514 23.7871 14.623C24.0511 15.0983 23.9963 15.5419 23.9941 16.0664V17.3535L23.9951 19.3633C23.9971 20.9437 24.1454 22.2125 22.5332 23.0967C22.2606 23.2351 21.9649 23.3234 21.6611 23.3574C21.3109 23.3934 20.7831 23.3797 20.4189 23.3799L18.3887 23.3789H5.42773L3.55859 23.3799C3.1541 23.3803 2.69751 23.3993 2.2998 23.3525C1.09977 23.2107 0.11003 22.1674 0.0253906 20.9619C-0.0043569 20.5374 0.00481741 20.1105 0.00488281 19.6836L0.00585938 17.5459V16.0947C0.0032481 15.3916 -0.086169 14.6678 0.589844 14.2197C0.81574 14.0703 0.991357 14.0371 1.25098 14.0127C1.43848 13.9951 1.80552 14.0049 2.00488 14.0049L3.34766 14.0059L7.65234 14.0068L18.75 14.0059L21.2881 14.0049ZM8.72559 15.3477C8.17338 15.3477 7.72571 15.7955 7.72559 16.3477V16.8477C7.72559 17.3999 8.1733 17.8477 8.72559 17.8477H15.7256C16.2777 17.8474 16.7256 17.3998 16.7256 16.8477V16.3477C16.7255 15.7956 16.2776 15.3479 15.7256 15.3477H8.72559ZM19.4463 1C20.3386 1.00001 21.1233 1.59147 21.3691 2.44922L24.0234 11.7148C24.2064 12.3539 23.7262 12.9904 23.0615 12.9902L1 12.9785C0.323321 12.9781 -0.157433 12.3195 0.0478516 11.6748L3.00586 2.39258C3.27036 1.56336 4.04072 1.00003 4.91113 1H19.4463ZM19.2764 9.70898H7.64258L4.93848 9.70801C4.49445 9.70799 3.93958 9.68606 3.50195 9.71582C3.09191 10.0322 3.28205 10.5706 3.56055 10.6064C3.86856 10.6456 4.41687 10.6115 4.72949 10.6113H8.22363L16.2852 10.6123H18.916C19.4191 10.6124 19.9865 10.6315 20.4824 10.5967C20.8824 10.3341 20.6747 9.7576 20.4219 9.72168C20.1144 9.67805 19.5917 9.70885 19.2764 9.70898ZM18.5732 6.35449H8.13867L5.71777 6.35352C5.25801 6.35335 4.74438 6.33688 4.28809 6.36523C3.91917 6.66563 4.15497 7.2241 4.39746 7.23633C4.77448 7.2544 5.27927 7.23653 5.6543 7.23633L9.40137 7.23535H16.4199L18.5107 7.2373C18.7967 7.23827 19.3811 7.26588 19.6504 7.22168C20.0093 6.96258 19.8945 6.42112 19.6211 6.36816C19.3646 6.31885 18.8436 6.35439 18.5732 6.35449ZM17.3174 2.96094H14.79L8.80469 2.96191C7.74785 2.96185 6.64185 2.93606 5.58789 2.96777C5.29864 3.23737 5.30175 3.74005 5.66113 3.85059C5.77342 3.88497 6.02716 3.86047 6.15625 3.86035L7.16406 3.8584L10.4736 3.85742H15.6836L17.3438 3.85938C17.6757 3.85968 18.0641 3.87328 18.3896 3.8418C18.689 3.58897 18.6132 3.01523 18.3516 2.97754C18.0416 2.93333 17.6389 2.96098 17.3174 2.96094Z" fill="white"/>
</g>
<defs>
<clipPath id="clip0_33_541">
<rect width="24" height="24" fill="white"/>
</clipPath>
</defs>
</svg>
