<svg width="24" height="24" viewBox="0 0 24 24" fill="none" xmlns="http://www.w3.org/2000/svg">
<g clip-path="url(#clip0_68_879)">
<path d="M14.6225 5.14453C14.6358 5.32668 14.6281 5.59299 14.6283 5.78027V10.4561L14.6264 21.3057C14.4981 21.308 14.3662 21.3069 14.2377 21.3076L0.00233733 21.3066L0.00429045 10.0762L0.00331389 6.93262C0.00329105 6.34892 -0.00715927 5.72466 0.00917327 5.14453C0.816707 5.1728 1.76476 5.15042 2.58144 5.15039H7.34999L12.0824 5.15137C12.8976 5.15158 13.8158 5.17301 14.6225 5.14453ZM9.80214 2C9.9756 2.0561 10.2656 2.11926 10.4476 2.16406L11.6215 2.45117L15.1498 3.31348L20.9115 4.72461C21.9283 4.9737 22.982 5.2471 24.0004 5.47461C23.8966 5.97094 23.7501 6.52002 23.6283 7.01758L22.933 9.85449L21.1225 17.252C20.8039 18.5537 20.4702 19.8729 20.1674 21.1768C18.4537 20.7777 16.7232 20.3284 15.0092 19.917C15.0256 18.4742 15.0122 16.9993 15.0111 15.5537C15.6375 15.7201 16.2925 15.8718 16.9242 16.0264L19.89 16.749C20.1367 15.6355 20.4462 14.4555 20.7191 13.3428L22.3871 6.52246C20.9931 6.20668 19.5408 5.82941 18.1478 5.4873L10.7504 3.67676C10.6777 4.00626 10.5866 4.36119 10.5043 4.68945C10.0522 4.68029 9.5962 4.69509 9.14296 4.68457C9.37324 3.79404 9.57589 2.89163 9.80214 2ZM1.3246 17.0732L8.93788 17.0752C10.3755 17.075 11.8741 17.095 13.307 17.0703V10.1709C13.307 8.97192 13.2951 7.74553 13.31 6.54883L1.32265 6.54688L1.3246 17.0732Z" fill="white"/>
</g>
<defs>
<clipPath id="clip0_68_879">
<rect width="24" height="24" fill="white"/>
</clipPath>
</defs>
</svg>
