<svg width="24" height="24" viewBox="0 0 24 24" fill="none" xmlns="http://www.w3.org/2000/svg">
<path d="M18.0214 17.9639C18.1105 17.964 18.2086 17.9555 18.289 18C18.4269 18.0763 18.4967 18.2958 18.5585 18.4346C19.2381 19.96 18.0517 21.4782 18.3114 22.3516C18.3948 22.6316 18.6355 22.8338 18.9149 22.9033C19.042 22.9348 19.1885 22.9507 19.3036 23.0146C19.4066 23.0718 19.4466 23.1897 19.4765 23.2969C19.5199 23.4519 19.5865 23.7415 19.5018 23.8857C19.4704 23.9386 19.4214 23.9726 19.3622 23.9873C19.0842 24.057 18.4644 23.8194 18.2206 23.6729C17.2731 23.1034 17.2591 22.0887 17.0194 21.1367C16.8751 20.5635 16.5457 19.986 16.0263 19.6768C15.6802 19.4709 15.2653 19.381 14.87 19.3311C13.9396 19.2134 12.9944 19.2855 12.0595 19.2861C11.1856 19.2867 10.3185 19.2536 9.44422 19.2891C8.99887 19.3072 8.54268 19.3254 8.10926 19.4375C7.4926 19.597 7.0759 19.9309 6.75379 20.4756C6.25729 21.3631 6.47395 22.6218 5.64051 23.4248C5.1719 23.8762 4.6931 23.9609 4.06825 23.959C3.98315 23.7659 3.99239 23.5885 4.01747 23.3828C4.09382 22.7293 4.79317 23.1029 5.10829 22.5605C5.50661 21.8745 4.88747 21.1403 4.7909 20.4229C4.68724 19.651 4.77923 18.6255 5.21376 17.9893H16.1503C16.7884 17.9893 17.3836 17.9933 18.0214 17.9639ZM18.2421 4.49707C18.1488 4.50685 17.9751 4.50327 17.8759 4.50391L17.8768 16.3623C17.9881 16.3687 18.1302 16.3651 18.244 16.3652C18.2451 16.5769 18.2444 16.7885 18.2411 17L5.2909 16.998L5.29188 16.3662H5.65711L5.65614 4.50684C5.54867 4.49949 5.40252 4.50364 5.29188 4.50391C5.28947 4.2881 5.29124 4.07222 5.29579 3.85645H18.2431L18.2421 4.49707ZM12.4628 6C11.4899 6.28686 10.7416 6.93829 10.2665 7.81152C9.74684 8.76514 9.64002 9.88399 9.96961 10.916C10.0444 11.1548 10.1889 11.41 9.85829 11.5264C9.6189 11.6104 9.44041 11.2894 9.34169 11.1279C8.96612 10.5138 8.92264 9.81163 9.10243 9.12695L9.08485 9.11523L9.06434 9.13281C9.04531 9.10179 9.04633 9.09078 9.03797 9.05469C9.00995 9.06382 8.98221 9.06913 8.95301 9.07324C8.34472 9.6794 7.99192 10.7093 8.00086 11.5508C7.99104 11.7622 8.05489 11.9544 8.08485 12.1592C8.19201 12.8912 8.5428 13.4949 9.06434 14.0205C10.3368 15.3026 12.8374 15.3443 14.1268 14.0381C14.6994 13.4663 15.0142 12.6923 14.9999 11.8906C14.9898 11.2886 14.8316 10.8793 14.5077 10.3867C14.2915 10.0576 14.3171 10.0389 14.0126 9.75C13.3824 9.15221 12.7667 8.9362 12.41 8.10645C12.285 7.8116 12.2181 7.49613 12.2118 7.17676C12.2015 6.75819 12.2925 6.38047 12.4628 6ZM11.7567 9.98438C11.8068 10.0105 12.0389 10.4714 12.122 10.5674C12.4697 10.9732 13.0943 11.2903 13.1835 11.8564C13.2605 12.347 13.126 12.937 12.7108 13.251C12.6268 13.3146 12.5044 13.3716 12.412 13.4268C12.2628 13.5158 12.1749 13.5589 11.9999 13.5869C11.4296 13.6584 11.1523 13.4277 10.7313 13.1455C10.8243 13.1208 10.915 13.0878 11.0018 13.0469C11.5291 12.8031 11.9174 12.2469 11.8124 11.6738C11.6902 11.0076 11.5125 10.6626 11.7567 9.98438ZM13.6571 3.20898H9.84266L9.84364 0H13.6581L13.6571 3.20898Z" fill="white"/>
</svg>
