<svg width="24" height="24" viewBox="0 0 24 24" fill="none" xmlns="http://www.w3.org/2000/svg">
<path d="M3.14526 0H3.67491C3.67818 0.00121979 3.68144 0.00248974 3.68472 0.00365937C3.79134 0.0415505 3.91258 0.0536924 4.02352 0.0765659C4.15787 0.104266 4.28969 0.145773 4.41857 0.192346C5.42556 0.556221 6.21449 1.33083 6.68102 2.28511C6.90152 2.73615 7.05567 3.26418 7.11519 3.76254C7.15273 4.07689 7.16521 4.39752 7.21701 4.70953C7.29991 5.20898 7.45581 5.67912 7.66076 6.14094C7.79612 6.44596 7.96031 6.72811 8.13633 7.01073C8.80576 8.08552 9.60396 8.90259 10.4601 9.81657C10.8747 10.2592 11.2859 10.6938 11.6488 11.1816C12.1204 11.8154 12.5119 12.4968 12.922 13.1705C13.1433 13.5341 13.3611 13.8957 13.6162 14.2373C13.8096 14.4966 14.0222 14.7371 14.2464 14.9699C14.6261 15.3639 15.0626 15.7193 15.5168 16.0253C16.4175 16.632 18.43 17.677 18.9989 18.5188C19.0922 18.6568 19.1671 18.8303 19.1063 18.9967C19.0206 19.2312 18.7282 19.3082 18.5337 19.4259C18.726 19.5353 18.9284 19.6227 19.1356 19.6997C19.6214 19.8803 20.1207 20.0346 20.6124 20.1988C21.2654 20.4169 23.105 20.9632 23.3097 21.6778C23.3404 21.785 23.3361 21.9025 23.2804 22.0009C23.1903 22.1605 22.9977 22.2366 22.8283 22.278C22.154 22.4428 21.0634 22.2742 20.3741 22.1822C19.2191 22.0282 18.0742 21.8149 16.9284 21.6053C15.9023 21.4084 14.873 21.229 13.8407 21.0675C12.8654 20.9141 11.8874 20.7768 10.9075 20.6555L9.92848 20.5277C9.77671 20.5079 9.60506 20.4928 9.45656 20.4675C9.28908 21.0219 9.11592 21.5761 8.9861 22.1408C8.9554 22.2864 8.90341 22.4365 8.89232 22.585C8.89209 22.6636 8.92708 22.7479 8.96392 22.8145C9.14855 23.1489 9.40027 23.4386 9.62376 23.7465C9.68251 23.8275 9.74867 23.8963 9.72865 24H9.66403C8.86747 23.5232 8.38428 23.3013 7.44803 23.5777C7.29114 23.6239 7.06169 23.6639 6.89896 23.6632C6.63415 23.6623 6.37468 23.5568 6.11883 23.5005C5.66084 23.3993 5.22501 23.5097 4.82106 23.7319C4.73164 23.7811 4.54044 23.9251 4.44378 23.8833C4.38039 23.8057 4.44419 23.7173 4.4887 23.6415C4.65753 23.3537 4.92147 23.0728 5.26635 23.0126C5.79683 22.9201 6.36115 22.9193 6.90047 22.9365C6.89288 22.9284 6.83138 22.8638 6.82265 22.8577C6.40122 22.5654 5.60912 22.897 5.15164 22.9417C4.84694 22.9741 4.54496 22.8504 4.25404 22.7825C3.8264 22.6827 3.43744 22.7704 3.0522 22.9673C2.92246 23.0337 2.73585 23.1621 2.59178 23.1705C2.48781 23.0787 2.66063 22.8777 2.71543 22.7893C3.11488 22.1445 3.88103 22.2518 4.5323 22.2087C4.68037 22.1989 4.85464 22.2145 5.00794 22.2116C4.63208 21.7249 3.47606 21.7475 2.98525 22.0253C2.91856 22.063 2.80126 22.1418 2.73308 22.099C2.72692 22.0845 2.71776 22.0603 2.72415 22.0451C2.85917 21.6934 3.19635 21.2497 3.6305 21.3143C4.04633 21.3763 4.46215 21.4898 4.89182 21.5527C4.71201 21.3793 4.51958 21.2406 4.27278 21.1793C4.17717 21.1556 3.92104 21.1465 3.87663 21.072C3.89143 20.8678 4.35585 20.8588 4.50837 20.9059C4.94378 21.0404 5.3035 21.3327 5.67249 21.5904C5.7589 21.3219 5.90958 21.0459 6.00868 20.7845C6.12195 20.4857 6.24544 20.1476 6.34136 19.8436C6.18963 19.806 5.98924 19.7324 5.84451 19.6729C3.90557 18.8746 2.28207 17.6197 1.64429 15.5502C1.34818 14.5894 1.11294 13.8236 1.0983 12.7966C1.0728 11.0072 1.44824 9.27182 1.91385 7.55425C2.12681 6.77617 2.41619 6.02495 2.53874 5.22831C2.74331 3.89859 2.24821 3.00838 0.823104 3.05537C0.532352 3.06496 0.14477 3.18311 0.00596952 2.83638L0 2.82109C0.0557344 2.25585 0.708514 1.86368 1.07248 1.49401C1.43492 1.12591 1.70737 0.667243 2.15302 0.385528C2.36797 0.249646 2.58197 0.13794 2.83099 0.0776909C2.92895 0.0532337 3.04011 0.0323953 3.13554 0.00307042L3.14526 0ZM7.53396 22.3078C7.55981 22.2395 7.58678 22.1638 7.61531 22.0972C7.81037 21.6865 7.96078 21.29 8.10185 20.8574C8.1634 20.6686 8.23784 20.4768 8.2904 20.2856C8.12897 20.2627 7.9578 20.2257 7.79607 20.1963C7.71111 20.1809 7.55228 20.1574 7.47403 20.1349C7.40466 20.3759 6.96877 21.8017 7.04497 21.9397C7.09215 22.0252 7.43566 22.2389 7.53396 22.3078Z" fill="white"/>
</svg>
