<svg width="24" height="24" viewBox="0 0 24 24" fill="none" xmlns="http://www.w3.org/2000/svg">
<g clip-path="url(#clip0_43_717)">
<path d="M20.1045 0C20.2046 0.033732 20.3175 0.0308753 20.4199 0.0527344C20.8214 0.138831 21.0695 0.550191 20.9434 0.944336C20.874 1.16136 20.7029 1.30945 20.5479 1.46387L20.0312 1.97754C19.6561 2.3516 19.3794 2.64084 19.374 3.21387C19.3721 3.43627 19.4232 3.656 19.5234 3.85449C19.6871 4.1817 19.9765 4.42907 20.3252 4.54004C20.6901 4.65911 21.0877 4.62839 21.4297 4.4541C21.7812 4.27077 22.2164 3.73596 22.5225 3.45508C22.662 3.32707 22.7623 3.18978 22.9463 3.09668C23.1067 3.01366 23.2938 2.99756 23.4658 3.05273C23.6665 3.11505 23.8044 3.2448 23.9004 3.43066C23.9754 3.57608 23.955 3.78685 24 3.92773V4.55664C23.9522 4.72178 23.9412 4.90022 23.9072 5.06836C23.6702 6.23928 22.9213 7.26953 21.8896 7.86426C20.9195 8.42106 19.77 8.5773 18.6865 8.29883L12.0674 14.9141L8.40137 18.5801C8.36744 18.6142 8.30489 18.6771 8.30762 18.7256C8.31658 18.8834 8.37127 19.0418 8.39258 19.1973C8.57026 20.4936 8.12907 21.8108 7.21387 22.7451C6.66376 23.3062 5.93167 23.7106 5.16699 23.8955C5.04866 23.9243 4.70117 23.9549 4.62793 24H3.89551C3.77732 23.9564 3.58491 23.9678 3.44434 23.9033C3.26851 23.8226 3.13297 23.6921 3.06543 23.5098C2.99932 23.328 3.0106 23.1276 3.0957 22.9541C3.2158 22.7108 3.52077 22.4728 3.70703 22.2705C3.97549 21.9789 4.32147 21.7302 4.49414 21.3633C4.64936 21.0266 4.6663 20.6424 4.54004 20.2939C4.41574 19.9514 4.15895 19.6723 3.82812 19.5195C3.48123 19.3597 3.05178 19.3591 2.69434 19.4873C2.39078 19.5964 2.18259 19.8251 1.96094 20.0479L1.43066 20.582C1.14496 20.8689 0.869545 21.1132 0.436523 20.9111C0.244141 20.8167 0.0910734 20.6414 0.0546875 20.4268C0.038997 20.3339 0.0314278 20.2016 0 20.1182V19.3965C0.0311828 19.3407 0.0442905 19.2457 0.0527344 19.1816C0.349977 16.9267 2.45556 15.3329 4.70605 15.5957C4.90518 15.619 5.11173 15.6641 5.30957 15.7002L11.9355 9.07031L14.3291 6.67676C14.7841 6.21844 15.2419 5.76273 15.7021 5.30957C15.6616 5.09855 15.619 4.89421 15.5947 4.68164C15.3465 2.50751 16.8552 0.456395 19.0137 0.0722656C19.1346 0.0507632 19.2856 0.0437785 19.3984 0H20.1045ZM15.9756 13.0049C16.0601 13.0676 16.1917 13.2053 16.2695 13.2832L16.7246 13.7393L17.9717 14.9863C18.2028 15.2174 18.4643 15.4907 18.7021 15.71C18.9113 15.6891 19.1458 15.6134 19.3721 15.5908C20.2993 15.494 21.232 15.713 22.0195 16.2119C22.8912 16.758 23.5334 17.6036 23.8252 18.5898C23.9183 18.9125 23.9277 19.1328 23.9971 19.4297L24 19.4434V20.1377C23.9582 20.2812 23.9434 20.4479 23.915 20.5957C23.8886 20.733 23.8574 20.8651 23.8174 20.999C23.4977 22.0447 22.7873 22.9276 21.834 23.4629C21.4998 23.6531 21.1193 23.7973 20.7461 23.8916C20.625 23.9221 20.2699 23.9569 20.1875 24H19.3984C19.3062 23.9661 19.0617 23.9349 18.9531 23.9141C17.87 23.7063 16.9144 23.0584 16.2949 22.1523C15.7306 21.3306 15.4822 20.3323 15.5957 19.3418C15.6168 19.1487 15.6768 18.903 15.7139 18.7051C15.548 18.517 15.2704 18.2559 15.0889 18.0742L13.7461 16.7314C13.5171 16.5024 13.2108 16.2118 12.998 15.9736C13.6004 15.3442 14.257 14.7082 14.875 14.0898L15.5518 13.4131C15.6754 13.2895 15.8439 13.1121 15.9756 13.0049ZM20.1807 17.6299C19.8779 17.6845 19.4916 17.8041 19.1855 17.8818C18.9967 17.9299 18.5339 18.0458 18.3809 18.1211C18.2817 18.1707 18.1966 18.2445 18.1338 18.3359C18.1032 18.3805 18.065 18.4489 18.0498 18.501C17.8902 19.0454 17.7402 19.5976 17.6084 20.1494C17.5595 20.354 17.6133 20.5751 17.749 20.7363C17.9054 20.9222 18.0934 21.0864 18.2607 21.2627C18.5181 21.5105 18.7805 21.8127 19.0605 22.0283C19.1742 22.1158 19.3756 22.1426 19.5186 22.1279C19.6035 22.1175 19.6807 22.0962 19.7637 22.0752C20.1239 21.9843 20.4796 21.8749 20.8398 21.7852C21.2096 21.6931 21.527 21.6179 21.6611 21.2148C21.8113 20.6828 21.9579 20.1444 22.0889 19.6074C22.1247 19.4155 22.095 19.1904 21.9648 19.042C21.6196 18.6482 21.2269 18.2965 20.8623 17.9209C20.6483 17.7003 20.4944 17.6072 20.1807 17.6299ZM4.60254 0C4.72717 0.0428357 4.87399 0.0462414 5.00391 0.0683594C7.18365 0.439839 8.66907 2.50635 8.39844 4.69238C8.37467 4.88428 8.32977 5.0843 8.29297 5.27637C8.91014 5.87101 9.55254 6.54979 10.1582 7.16406L10.6865 7.69824C10.7548 7.7673 10.9422 7.95034 10.9873 8.02344C10.9572 8.06564 10.9102 8.11672 10.8613 8.16699L10.2959 8.73242L8.78125 10.2461L8.31055 10.7158C8.22636 10.8 8.10216 10.9187 8.02832 11.0068C7.38928 10.3803 6.74671 9.71338 6.11523 9.07422L5.61914 8.56934C5.5341 8.48257 5.40537 8.34528 5.31543 8.26855C5.065 8.29754 4.83155 8.35817 4.57812 8.37988C2.542 8.55407 0.618685 7.20265 0.12793 5.21484C0.101743 5.10856 0.029885 4.62799 0 4.58105V3.77539C0.0427708 3.69502 0.0950887 3.27269 0.132812 3.13379C0.218499 2.81956 0.306614 2.5695 0.453125 2.27637C0.962745 1.25418 1.87061 0.490425 2.9707 0.176758C3.17975 0.117155 3.3888 0.0759408 3.60352 0.0449219C3.67254 0.0349504 3.74982 0.0242618 3.81445 0H4.60254ZM4.55664 1.96191C4.27127 1.97588 3.83177 2.14945 3.53418 2.21387C3.3064 2.26312 3.022 2.34365 2.80273 2.4209C2.51971 2.52064 2.41316 2.78282 2.34668 3.05176C2.23319 3.51083 2.09109 3.97483 1.97949 4.43555C1.91263 4.70701 1.98969 4.94361 2.18359 5.1416C2.55662 5.52009 2.92953 5.90048 3.31348 6.26758C3.4612 6.40861 3.66765 6.4771 3.87012 6.45312C4.11453 6.42594 4.59658 6.2687 4.8584 6.20508C5.01735 6.16644 5.49507 6.04079 5.62402 5.9834C5.73269 5.9361 5.82894 5.86394 5.9043 5.77246C5.94662 5.72029 5.99496 5.6373 6.01562 5.57129C6.14879 5.14371 6.2485 4.68782 6.37402 4.25977C6.5252 3.74421 6.52663 3.52049 6.12207 3.1377C5.76375 2.79882 5.42094 2.40199 5.04199 2.08105C4.90196 1.96103 4.7309 1.95141 4.55664 1.96191Z" fill="white"/>
</g>
<defs>
<clipPath id="clip0_43_717">
<rect width="24" height="24" fill="white"/>
</clipPath>
</defs>
</svg>
