<svg width="24" height="24" viewBox="0 0 24 24" fill="none" xmlns="http://www.w3.org/2000/svg">
<g clip-path="url(#clip0_1_22)">
<path d="M11.4219 2.56731C11.5695 2.48433 11.8632 2.42197 12.0166 2.50188C14.9958 4.0586 17.6613 6.20749 19.2969 9.18938C20.3186 9.38343 21.1458 9.77667 21.8868 10.5224C22.1794 10.8155 22.4345 11.1445 22.6456 11.5009C22.7806 11.7288 22.8963 11.9706 23.0518 12.1855C23.2997 12.5284 23.6459 12.8285 23.8487 13.1982C23.9442 13.3726 24.0055 13.5741 24 13.7743C23.9739 14.74 22.5419 15.4143 21.7598 15.6298C21.4328 15.7199 21.0853 15.7326 20.75 15.7792C19.9698 15.8874 19.1562 16.1507 18.5791 16.7089C17.9937 17.2752 17.306 18.7651 17.3067 19.5868C17.3075 20.3284 17.8114 20.8247 18.4541 21.1034C18.7845 21.2468 19.1695 21.3266 19.4229 21.6005C19.5415 21.7288 19.612 21.8894 19.5957 22.0663C19.5859 22.1707 19.5317 22.2593 19.4512 22.3251C19.1429 22.5765 17.3345 22.6113 16.8887 22.5722C16.3844 22.5278 15.8612 22.3663 15.5791 21.9101C15.4104 21.6367 15.2995 21.3672 15.0889 21.1171C14.4423 20.3575 13.519 19.8864 12.5245 19.8085C14.8886 17.4937 13.0417 15.6271 10.6856 14.4618L10.6446 14.5156C12.1593 15.3274 13.7646 16.9132 12.8047 18.8271C12.3238 19.7858 11.1517 19.9537 10.2198 20.207C11.1945 20.207 11.9289 20.1858 12.9336 20.3779C13.9276 20.5679 15.2363 21.7842 13.8067 22.4765C13.3033 22.7202 12.4656 22.6208 11.8926 22.5839C11.464 22.5567 11.0341 22.5414 10.6045 22.538C8.62828 22.5152 6.08729 22.778 4.25102 21.9062C3.1286 21.3731 2.57604 20.3729 2.21489 19.2197C1.35528 18.6314 0.88386 18.0919 0.462935 17.1113C0.172422 16.4342 -0.318972 15.0291 0.293013 14.3593C0.678081 13.9385 1.03248 14.4622 1.22661 14.7704C1.40881 15.0594 1.87159 15.0949 2.20708 15.1366C2.32404 14.4436 2.63654 13.5789 2.95024 12.9618C3.75337 11.3503 5.17653 10.1336 6.8936 9.59173C9.71717 8.68916 12.51 9.56397 15.0332 10.8661C15.3166 10.5403 15.5074 10.3685 15.8331 10.0966C14.3215 9.26544 13.2964 8.61724 12.2979 7.0888C11.6666 6.11114 11.2816 4.98662 11.1104 3.83977C11.04 3.36813 10.9251 2.8475 11.4219 2.56731ZM20.1758 11.1738C19.9025 11.2555 19.7468 11.5435 19.8272 11.8173C19.9078 12.0905 20.1939 12.2479 20.4678 12.1689C20.7438 12.0894 20.9022 11.8 20.8213 11.5243C20.7403 11.2491 20.4509 11.0917 20.1758 11.1738ZM15.1866 1.7011C15.7849 1.67177 16.0463 2.24149 16.3575 2.66497C17.4565 4.16013 18.2664 5.72654 18.9522 7.44133L18.5332 6.89348C17.2369 5.28352 15.9571 4.27169 14.2832 3.10442C14.4351 2.4971 14.4801 1.84602 15.1866 1.7011Z" fill="white"/>
</g>
<defs>
<clipPath id="clip0_1_22">
<rect width="24" height="24" fill="white"/>
</clipPath>
</defs>
</svg>
