<svg width="24" height="24" viewBox="0 0 24 24" fill="none" xmlns="http://www.w3.org/2000/svg">
<path d="M11.6602 2.01187C14.2579 1.87336 17.0146 2.9577 18.9375 4.69547C20.0213 5.6463 21.2146 7.25056 21.3008 8.74625C21.4911 12.0553 16.126 12.1836 13.875 12.2775C13.9849 12.7471 14.1289 13.4381 14.2061 13.9093C15.0709 13.1133 16.2128 12.6871 17.3877 12.7228C18.7218 12.7627 20.0573 13.5186 20.8086 14.6222C21.0584 14.9896 21.2951 15.5075 21.2773 15.963C21.2677 16.249 21.1411 16.5186 20.9268 16.7082C20.2746 17.289 18.8199 17.2311 17.9971 17.1828C18.0254 18.0748 18.2353 18.8747 18.0928 19.8234C19.8071 20.1536 21.7432 20.6159 23.2021 21.6291C23.488 21.8279 23.7513 22.0936 24 22.3371C23.5621 22.2991 22.983 22.3158 22.5312 22.3166L20.2188 22.3175H12.5791L4.33203 22.3166C2.9336 22.3166 1.38855 22.2853 0 22.3224C0.215336 22.0894 0.438714 21.8411 0.697266 21.6545C2.05076 20.6767 4.02393 20.1332 5.64258 19.8322C5.57792 19.1504 5.63106 18.1903 5.73926 17.5031C5.11446 17.513 3.4566 17.4796 3.125 16.8293C2.65318 15.9039 3.7388 14.7703 4.50391 14.3146C5.33209 13.8182 6.32567 13.6766 7.25977 13.9211C8.16315 14.1534 9.019 14.7375 9.49902 15.5451C9.51546 15.3938 9.54378 15.2276 9.56934 15.0763C9.72717 14.1422 9.86072 13.1702 10.1064 12.2541C9.56195 12.189 8.91739 12.1914 8.34277 12.1359C6.77111 11.9808 4.79502 11.7943 3.53906 10.7423C1.81884 9.30109 3.12111 6.77621 4.31934 5.46402C6.24957 3.35026 8.76398 2.18002 11.6094 2.01578C11.6262 2.01428 11.6433 2.01285 11.6602 2.01187ZM9.3291 16.9787C8.65641 17.3282 7.84548 17.4592 7.0918 17.4836C7.28367 18.2066 7.44866 18.8434 7.56152 19.5871C7.79829 19.582 8.20427 19.522 8.45215 19.4953C8.8427 19.4557 9.23499 19.4258 9.62695 19.4045C9.40448 18.8799 9.28952 18.4546 9.30469 17.8664C9.30795 17.74 9.38044 17.0399 9.3457 16.9836L9.3291 16.9787ZM14.6562 16.6916C14.724 17.6487 14.8346 18.5122 14.3818 19.4054C14.5853 19.4217 15.7126 19.5397 15.8174 19.4562C15.826 19.4047 15.8342 19.3537 15.8408 19.3019C15.9332 18.7362 16.1805 17.5865 16.3955 17.0382C15.8403 16.9592 15.1917 16.8596 14.6562 16.6916Z" fill="white"/>
</svg>
