<svg width="24" height="24" viewBox="0 0 24 24" fill="none" xmlns="http://www.w3.org/2000/svg">
<g clip-path="url(#clip0_1_18)">
<path d="M10.9824 21.3688C10.9454 21.4728 10.7889 21.5463 10.681 21.5627C10.5696 21.5798 10.4564 21.5477 10.3701 21.4754C10.1196 21.2693 10.2217 20.9305 10.2589 20.6539C10.2913 20.4073 10.3221 20.1605 10.3508 19.9134C10.6587 17.1886 10.6061 17.3238 9.74382 14.6877C8.70774 15.207 8.06079 15.3537 6.88864 15.1433C3.68209 14.568 1.72463 11.1931 1.59307 8.13553C1.58126 7.85689 1.63066 7.5991 1.63103 7.33672C1.27174 7.00484 0.864545 6.70094 0.495789 6.37761C0.41012 6.30256 0.308125 6.22164 0.216002 6.15434L1.32874 6.03662C1.18616 5.69316 0.987537 5.17201 0.829613 4.85094C1.21612 4.97771 1.68447 5.17083 2.07471 5.31665C2.06819 4.98011 2.09894 4.54829 2.11383 4.20574C2.28963 4.42427 2.59412 4.71566 2.79245 4.9281C2.92575 5.071 3.25241 5.42693 3.39173 5.53884C3.4637 5.5276 3.5364 5.51733 3.60873 5.50978C5.40449 5.33018 7.78929 6.10398 9.16833 7.2464C10.8072 8.6043 12.097 11.018 11.1184 13.1196C10.9338 13.5162 10.7216 13.7862 10.447 14.118C10.6648 14.74 10.8042 15.3178 10.9275 15.9681C11.3504 14.5305 11.6913 13.5284 12.7658 12.4504C12.0512 11.3982 11.8249 10.3852 12.0631 9.13227C12.3999 7.4874 13.5495 5.91835 14.9296 4.98955C16.2457 4.1039 17.8222 3.55734 19.4004 3.43951C19.6231 3.42289 20.194 3.40699 20.3776 3.47147C20.7712 2.9469 21.2616 2.39802 21.6318 1.87876C21.6233 2.20798 21.6914 2.92088 21.7162 3.27075C22.1567 3.22829 22.6047 3.16381 23.0457 3.1126C22.9085 3.44928 22.7556 3.98221 22.6335 4.3437C23.0692 4.41805 23.5489 4.53171 23.9849 4.62616C23.5088 4.78546 22.8043 5.12127 22.3081 5.31841C22.3113 5.33251 22.3147 5.34662 22.3175 5.36093C22.6408 7.03034 21.8279 9.72994 20.8561 11.1144C20.1043 12.1853 19.0224 13.115 17.8022 13.6369C17.5665 13.7376 16.9889 13.8653 16.7176 13.9169C15.8253 14.0864 14.856 13.978 14.053 13.5413C13.7788 13.3922 13.5965 13.2473 13.3468 13.0761C11.9102 14.428 11.5048 17.0481 11.309 18.9218C11.1244 20.6904 11.579 19.6884 10.9824 21.3688Z" fill="white"/>
</g>
<defs>
<clipPath id="clip0_1_18">
<rect width="24" height="24" fill="white"/>
</clipPath>
</defs>
</svg>
