<svg width="27" height="24" viewBox="0 0 27 24" fill="none" xmlns="http://www.w3.org/2000/svg">
<g clip-path="url(#clip0_1_18)">
<path d="M12.8313 23.0983C12.7906 23.2119 12.6196 23.292 12.5017 23.3099C12.38 23.3286 12.256 23.2936 12.1616 23.2145C11.8875 22.9891 11.9995 22.6189 12.0402 22.3163C12.0757 22.0465 12.1097 21.776 12.1411 21.5056C12.4778 18.525 12.4195 18.6728 11.4762 15.7892C10.3429 16.3572 9.63559 16.5173 8.35351 16.2872C4.84593 15.6579 2.70468 11.9666 2.56073 8.62187C2.54776 8.31686 2.60147 8.03448 2.60183 7.74728C2.20868 7.38413 1.76303 7.05237 1.35956 6.69856C1.26584 6.61645 1.15484 6.52816 1.05406 6.45453L2.27194 6.32613C2.11602 5.95053 1.89877 5.38052 1.72598 5.02917C2.1487 5.16784 2.66046 5.37893 3.08722 5.53841C3.08005 5.1703 3.11396 4.69833 3.13025 4.32355C3.32256 4.56259 3.65514 4.88111 3.87205 5.11347C4.01787 5.26979 4.37621 5.65808 4.5286 5.7805C4.60723 5.76822 4.68614 5.75779 4.76517 5.74954C6.7296 5.55299 9.3385 6.39953 10.847 7.64936C12.6399 9.13482 14.0505 11.7753 12.9799 14.0743C12.7781 14.5078 12.5457 14.8025 12.2456 15.1653C12.4839 15.8457 12.6358 16.4778 12.7707 17.1892C13.2333 15.6168 13.6062 14.5209 14.7813 13.3419C13.9997 12.1908 13.7526 11.0825 14.0132 9.71194C14.3816 7.91255 15.6395 6.19556 17.1492 5.1796C18.5888 4.21092 20.3137 3.61348 22.0398 3.48462C22.2837 3.46646 22.9079 3.44857 23.1086 3.51907C23.5391 2.94534 24.0755 2.34545 24.4803 1.77755C24.471 2.1377 24.546 2.91766 24.5731 3.30037C25.055 3.25393 25.5447 3.18346 26.0271 3.12744C25.877 3.49583 25.7093 4.07885 25.5757 4.47426C26.0523 4.55558 26.5774 4.67961 27.0543 4.78294C26.5335 4.9572 25.7629 5.32492 25.2202 5.54055C25.2236 5.55582 25.2265 5.57108 25.2295 5.58659C25.5832 7.41258 24.695 10.3653 23.632 11.8799C22.8097 13.0514 21.6263 14.0692 20.2916 14.6401C20.0336 14.7503 19.4012 14.8899 19.1046 14.9463C18.1286 15.1317 17.0679 15.0131 16.1895 14.5354C15.8898 14.3724 15.6907 14.2134 15.4176 14.0262C13.8462 15.5051 13.4027 18.3715 13.1885 20.421C12.9866 22.3556 13.4841 21.2596 12.8313 23.0983Z" fill="white"/>
</g>
<defs>
<clipPath id="clip0_1_18">
<rect width="27" height="24" fill="white"/>
</clipPath>
</defs>
</svg>
