<svg width="24" height="24" viewBox="0 0 24 24" fill="none" xmlns="http://www.w3.org/2000/svg">
<g clip-path="url(#clip0_75_992)">
<path d="M0.00328021 5.4245C2.68942 5.3973 5.44489 5.42248 8.13609 5.42255H23.9886C24.0181 6.67297 23.9906 7.99746 23.9906 9.25653L23.9896 16.7927V20.7643L23.9906 21.9499C23.9912 22.6153 24.0631 23.041 23.5189 23.5934C23.1478 23.91 22.83 23.9931 22.3246 23.9968L8.09703 23.9958L3.56285 23.9968H2.16539C1.51997 23.9965 1.01463 24.0572 0.514999 23.6296C-0.047786 23.1475 -0.000408007 22.6188 0.00132709 22.0065L0.00230365 20.9684V17.361L0.00328021 5.4245ZM18.9613 9.01239L16.7601 9.01337H5.70348L4.44762 9.01142C4.30769 9.01135 3.93108 9.00567 3.80894 9.01923C3.17946 9.08259 2.80577 9.48709 2.77281 10.0085C2.75643 10.2707 2.75818 10.5285 2.75816 10.7907V12.0427L2.75914 16.0007L2.75816 18.9216C2.75786 19.4155 2.74071 19.9274 2.7816 20.4167C2.81722 20.8421 3.28189 21.2797 3.79625 21.2936C4.14396 21.3027 4.4877 21.3023 4.83531 21.3015L6.50816 21.3005H17.5531L19.2132 21.3015C19.5244 21.3018 19.9142 21.3121 20.2171 21.2917C20.7489 21.2399 21.1517 20.8574 21.2074 20.4099C21.224 20.276 21.2307 20.1384 21.2328 20.0007V18.3972L21.2318 14.572V11.4704L21.2328 10.5602C21.2336 10.0526 21.2782 9.54682 20.7425 9.19892C20.5776 9.09281 20.3787 9.03006 20.1722 9.01923C19.8299 9.00048 19.3157 9.01222 18.9613 9.01239ZM13.0775 10.3122C12.8829 10.7349 12.7786 11.1547 12.7904 11.6198C12.7975 11.975 12.8748 12.3261 13.0179 12.654C13.4256 13.5759 14.1288 13.8157 14.849 14.4802C15.1971 14.8013 15.1672 14.8214 15.4144 15.1872C15.7846 15.7346 15.9655 16.189 15.9769 16.8581C15.9933 17.7488 15.6342 18.6085 14.9798 19.2438C13.5062 20.6954 10.6479 20.6489 9.19371 19.2243C8.59757 18.6402 8.19599 17.9694 8.07359 17.1559C8.03936 16.9284 7.96763 16.7151 7.97887 16.4802C7.96865 15.5452 8.37156 14.4007 9.06676 13.7272C9.10018 13.7227 9.13233 13.7169 9.16441 13.7067C9.17397 13.7469 9.17194 13.7591 9.19371 13.7936L9.21715 13.7741L9.23766 13.7868C9.03212 14.5476 9.08086 15.328 9.51012 16.0104C9.6229 16.1897 9.82725 16.5471 10.1009 16.4538C10.4793 16.3246 10.3144 16.0405 10.2289 15.7751C9.85215 14.6284 9.97395 13.3854 10.5677 12.3259C11.1107 11.3556 11.9656 10.6309 13.0775 10.3122ZM12.2709 14.739C11.9915 15.4928 12.1956 15.8764 12.3353 16.6169C12.4553 17.2535 12.011 17.8714 11.4086 18.1423C11.3092 18.1877 11.2053 18.2252 11.099 18.2526C11.5799 18.5661 11.8966 18.8223 12.5482 18.7429C12.7488 18.7117 12.849 18.6633 13.0199 18.5642C13.1255 18.5029 13.2646 18.4395 13.3607 18.3688C13.8352 18.02 13.9897 17.3651 13.9017 16.82C13.8 16.1909 13.0863 15.8382 12.6888 15.3874C12.5937 15.2805 12.3273 14.766 12.2709 14.739ZM3.7982 6.66767C3.64023 6.73021 3.55012 6.80522 3.48668 6.94794C3.43037 7.07619 3.43775 7.21956 3.50621 7.34345C3.62585 7.55355 3.88792 7.5716 4.13512 7.57099C5.28057 7.568 6.42712 7.56752 7.57262 7.56806H15.3216L18.6283 7.56903C18.913 7.5693 19.9679 7.58469 20.2035 7.55048C20.3519 7.49419 20.4393 7.42658 20.5013 7.29364C20.5595 7.16865 20.5555 7.02814 20.4896 6.90595C20.4494 6.83272 20.3095 6.69367 20.2386 6.6872C19.7885 6.64616 19.1855 6.6618 18.7367 6.66181L15.2513 6.66278L7.66344 6.66181H5.17613C4.74148 6.66183 4.2265 6.65222 3.7982 6.66767ZM6.13219 0.00165037H15.931L20.4867 0.000673806H21.8666C22.158 0.000718592 22.4695 -0.00232738 22.7591 0.0162988C23.2634 0.0487639 23.8524 0.441523 23.9418 0.82001C24.0267 1.18165 23.9926 1.62523 23.9925 1.99677L23.9916 3.99579C23.5853 4.00334 23.1427 3.99684 22.7337 3.99677L7.90758 3.99579C5.29031 3.99564 2.61909 3.97476 0.00523334 3.9997V2.02216C0.00440723 1.75533 -0.0184948 1.15005 0.0335536 0.918643C0.072469 0.743976 0.166278 0.578386 0.306015 0.436221C0.559863 0.178284 0.891319 0.054071 1.30308 0.0104394C1.36808 0.00256411 1.56341 -0.000402358 1.63512 -0.000302757C3.13368 0.00213154 4.6337 0.00185946 6.13219 0.00165037ZM10.3724 1.78778C10.2698 1.26092 9.75981 0.916328 9.23277 1.01825C8.7053 1.12047 8.36006 1.63143 8.46226 2.15888C8.5649 2.68636 9.07643 3.03115 9.60387 2.92841C10.1308 2.8255 10.4748 2.3148 10.3724 1.78778ZM4.28941 1.01825C3.76597 1.11846 3.42052 1.62163 3.515 2.14618C3.60977 2.67062 4.10965 3.02127 4.63512 2.93231C4.97975 2.87365 5.26658 2.63393 5.38609 2.30536C5.50542 1.9767 5.43893 1.60872 5.21226 1.34247C4.98544 1.07649 4.63281 0.95268 4.28941 1.01825ZM20.267 1.80146C20.1718 1.27251 19.665 0.920705 19.1361 1.0163C18.6084 1.11201 18.2573 1.61731 18.3519 2.14521C18.4468 2.67309 18.9518 3.02512 19.4798 2.93134C20.009 2.83695 20.3618 2.33047 20.267 1.80146ZM14.3304 1.00067C13.7919 1.01944 13.3701 1.47292 13.391 2.01142C13.4122 2.54964 13.8674 2.96805 14.4056 2.94501C14.9408 2.92182 15.357 2.4705 15.3363 1.93524C15.3154 1.40013 14.8656 0.982397 14.3304 1.00067Z" fill="white"/>
</g>
<defs>
<clipPath id="clip0_75_992">
<rect width="24" height="24" fill="white"/>
</clipPath>
</defs>
</svg>
