<svg width="24" height="24" viewBox="0 0 24 24" fill="none" xmlns="http://www.w3.org/2000/svg">
<g clip-path="url(#clip0_53_809)">
<path d="M19.5048 19.5146L19.5058 20.7997C19.5058 21.1999 19.5584 21.5299 19.3749 21.8945C19.3 22.0253 19.2122 22.1407 19.1064 22.248C17.7504 23.6215 14.2103 23.9913 12.3485 23.9999C10.4418 24.0089 6.80771 23.6542 5.41006 22.2558C5.22697 22.0724 5.04937 21.821 5.01553 21.5576C4.98985 21.3576 5.00375 21.1423 5.00381 20.9404L5.00479 19.8408V5.23236C5.05369 5.2598 5.24221 5.46952 5.30557 5.52338C5.56278 5.7418 5.92107 5.9673 6.22647 6.11224C8.17832 7.03861 10.7372 7.28758 12.8866 7.22259C14.7873 7.16514 17.3449 6.81356 18.955 5.71576C19.1594 5.57627 19.3376 5.39849 19.5048 5.21869V19.5146ZM11.7333 0.0126334C13.7722 -0.0758968 17.4049 0.281953 19.0331 1.68841C19.2709 1.8938 19.4929 2.2238 19.5038 2.54779C19.5132 2.83158 19.3471 3.14969 19.1493 3.34369C17.7511 4.71415 14.6601 5.07695 12.8534 5.1308C10.8258 5.19824 7.05456 4.88562 5.49893 3.48138C5.24984 3.2565 5.02415 2.96061 5.00772 2.61224C4.99359 2.31022 5.15016 2.03034 5.34952 1.81439C6.60157 0.458261 9.92257 0.0804561 11.6659 0.0165397C11.6882 0.0151362 11.711 0.0135803 11.7333 0.0126334Z" fill="white"/>
</g>
<defs>
<clipPath id="clip0_53_809">
<rect width="24" height="24" fill="white"/>
</clipPath>
</defs>
</svg>
