<svg width="24" height="24" viewBox="0 0 24 24" fill="none" xmlns="http://www.w3.org/2000/svg">
<g clip-path="url(#clip0_43_712)">
<path d="M20.1045 0C20.2046 0.033732 20.3175 0.0308753 20.4199 0.0527344C20.8214 0.138831 21.0695 0.550191 20.9434 0.944336C20.874 1.16136 20.7029 1.30945 20.5479 1.46387L20.0312 1.97754C19.6561 2.3516 19.3794 2.64084 19.374 3.21387C19.3721 3.43627 19.4232 3.656 19.5234 3.85449C19.6871 4.1817 19.9765 4.42907 20.3252 4.54004C20.6901 4.65911 21.0877 4.62839 21.4297 4.4541C21.7812 4.27077 22.2164 3.73596 22.5225 3.45508C22.662 3.32707 22.7623 3.18978 22.9463 3.09668C23.1067 3.01366 23.2938 2.99756 23.4658 3.05273C23.6665 3.11505 23.8044 3.2448 23.9004 3.43066C23.9754 3.57608 23.955 3.78685 24 3.92773V4.55664C23.9522 4.72178 23.9412 4.90022 23.9072 5.06836C23.6702 6.23928 22.9213 7.26953 21.8896 7.86426C20.9195 8.42106 19.77 8.5773 18.6865 8.29883L12.0674 14.9141L8.40137 18.5801C8.36744 18.6142 8.30489 18.6771 8.30762 18.7256C8.31658 18.8834 8.37127 19.0418 8.39258 19.1973C8.57026 20.4936 8.12907 21.8108 7.21387 22.7451C6.66376 23.3062 5.93167 23.7106 5.16699 23.8955C5.04866 23.9243 4.70117 23.9549 4.62793 24H3.89551C3.77732 23.9564 3.58491 23.9678 3.44434 23.9033C3.26851 23.8226 3.13297 23.6921 3.06543 23.5098C2.99932 23.328 3.0106 23.1276 3.0957 22.9541C3.2158 22.7108 3.52077 22.4728 3.70703 22.2705C3.97549 21.9789 4.32147 21.7302 4.49414 21.3633C4.64936 21.0266 4.6663 20.6424 4.54004 20.2939C4.41574 19.9514 4.15895 19.6723 3.82812 19.5195C3.48123 19.3597 3.05178 19.3591 2.69434 19.4873C2.39078 19.5964 2.18259 19.8251 1.96094 20.0479L1.43066 20.582C1.14496 20.8689 0.869545 21.1132 0.436523 20.9111C0.244141 20.8167 0.0910734 20.6414 0.0546875 20.4268C0.038997 20.3339 0.0314278 20.2016 0 20.1182V19.3965C0.0311828 19.3407 0.0442905 19.2457 0.0527344 19.1816C0.349977 16.9267 2.45556 15.3329 4.70605 15.5957C4.90518 15.619 5.11173 15.6641 5.30957 15.7002L11.9355 9.07031L14.3291 6.67676C14.7841 6.21844 15.2419 5.76273 15.7021 5.30957C15.6616 5.09855 15.619 4.89421 15.5947 4.68164C15.3465 2.50751 16.8552 0.456395 19.0137 0.0722656C19.1346 0.0507632 19.2856 0.0437785 19.3984 0H20.1045Z" fill="white"/>
</g>
<defs>
<clipPath id="clip0_43_712">
<rect width="24" height="24" fill="white"/>
</clipPath>
</defs>
</svg>
