<svg width="24" height="24" viewBox="0 0 24 24" fill="none" xmlns="http://www.w3.org/2000/svg">
<g clip-path="url(#clip0_77_1045)">
<path d="M17.4016 7.65991C17.627 7.59682 20.532 7.60793 20.9035 7.6394C20.9783 7.64575 21.0525 7.65592 21.1183 7.69409C21.2366 7.76263 21.296 7.86193 21.3264 7.99194C21.3731 8.30265 21.337 9.12555 21.342 9.47827C21.3919 13.1097 21.3395 16.5669 21.3391 20.2166V22.1433C21.3393 22.4437 21.388 23.3084 21.2414 23.616C21.1995 23.7038 20.8762 23.7734 20.7551 23.7722C19.7036 23.7585 18.6464 23.7748 17.5949 23.7673C17.3374 23.7499 17.1158 23.6615 17.1037 23.3699C17.0868 22.9575 17.0937 22.5408 17.0939 22.1277L17.0949 19.8376L17.093 12.3992L17.0939 12.2703V11.9041C17.1039 11.3698 17.0282 8.05584 17.1516 7.84058C17.2033 7.75007 17.3034 7.68768 17.4016 7.65991ZM2.9035 7.67749C3.06833 7.60026 6.31225 7.59394 6.66522 7.66382C6.80033 7.76463 6.80435 7.77347 6.89374 7.91089C6.952 9.19133 6.88842 10.7005 6.90546 12.0056V12.1941L6.90448 12.4529C6.90421 12.6095 6.90976 12.8093 6.90057 12.9617L6.90546 13.2087L6.90643 13.3357L6.90546 13.5798L6.90643 13.7009L6.90448 20.2986L6.90643 22.2859C6.90688 22.6485 6.91443 23.0186 6.89471 23.3796C6.88198 23.6118 6.71738 23.743 6.49335 23.7537C6.33093 23.7673 6.18652 23.7695 6.02167 23.7693C5.06902 23.7688 4.11591 23.7681 3.16327 23.7664C2.90898 23.7659 2.73721 23.6754 2.67303 23.4197C2.63989 23.2737 2.65036 22.6943 2.65057 22.5095L2.65253 20.6892L2.65448 13.1189L2.65155 9.60522C2.65123 9.28833 2.63124 8.24097 2.6701 7.96948C2.71873 7.83908 2.77296 7.73952 2.9035 7.67749ZM22.6974 18.6677C23.0288 18.6821 23.4507 18.6053 23.7463 18.7673C23.8754 18.9125 23.8869 19.2375 23.8849 19.4167C23.8733 20.4598 23.9079 21.5051 23.8683 22.5466C23.8648 22.6389 23.8206 22.7105 23.7707 22.7849C23.563 22.9466 23.376 22.9236 23.1252 22.9236C22.8138 22.9238 22.5008 22.9188 22.1896 22.9158C22.1715 21.5136 22.1884 20.0746 22.1887 18.6697C22.3524 18.6707 22.5414 18.6608 22.6974 18.6677ZM16.2502 22.9177L7.74725 22.9148C7.76662 21.5149 7.74969 20.0723 7.74725 18.6687H16.2512L16.2502 22.9177ZM1.81268 18.6687L1.81171 22.9158H1.50409L0.425964 22.9167C0.223874 22.8017 0.121367 22.7172 0.122253 22.4714C0.12652 21.2976 0.0684343 20.0995 0.148621 18.9314C0.156196 18.8255 0.353041 18.7149 0.434753 18.6755C0.854079 18.6544 1.38525 18.6685 1.81268 18.6687ZM16.2482 17.821C13.4175 17.8831 10.5793 17.8225 7.74823 17.821C7.769 16.4224 7.75029 14.9774 7.75018 13.575L16.2453 13.5701L16.2482 17.821ZM22.1887 13.5769C22.5609 13.5813 23.3822 13.5115 23.7082 13.6619C23.7586 13.6861 23.8641 13.8326 23.8664 13.9021C23.9004 15.0775 23.8987 16.2963 23.8693 17.4724C23.8675 17.5459 23.8103 17.6378 23.7775 17.6892C23.5496 17.8637 23.3563 17.8282 23.0812 17.8279C22.7842 17.8276 22.4867 17.8242 22.1896 17.823C22.1705 16.4232 22.1887 14.9804 22.1887 13.5769ZM1.81268 13.5759L1.81171 17.824L1.42694 17.823C1.08197 17.8262 0.736703 17.8243 0.391785 17.8171C0.295877 17.7478 0.203777 17.6867 0.15448 17.575C0.0782332 17.4019 0.0877878 13.9895 0.158386 13.8123C0.206204 13.6927 0.341977 13.6258 0.453308 13.5808C0.877295 13.5637 1.38264 13.5762 1.81268 13.5759ZM22.1896 8.48315C22.5733 8.48881 23.3517 8.42558 23.6926 8.5603C23.753 8.58452 23.8637 8.73874 23.8664 8.81714C23.9047 9.99172 23.8889 11.2002 23.8742 12.3767C23.8731 12.4533 23.7948 12.5618 23.758 12.615C23.4889 12.8151 22.5656 12.7335 22.1896 12.7302C22.1707 11.3373 22.1852 9.87757 22.1896 8.48315ZM1.81268 8.48413L1.81073 12.7302H1.42108C1.15524 12.73 0.167104 12.8413 0.143738 12.4519C0.074917 11.2929 0.123673 10.1011 0.121277 8.93628C0.12073 8.67648 0.251166 8.54194 0.496277 8.48706C0.919181 8.47529 1.38634 8.4848 1.81268 8.48413ZM7.74725 8.48413C10.573 8.48446 13.3991 8.47542 16.2248 8.49878L16.2424 12.7136L7.75702 12.7126L7.74725 8.48413ZM13.8137 1.69312C14.2644 1.6636 14.6855 2.0102 14.9611 2.33569C15.2957 2.73074 15.4702 3.199 15.6086 3.69019C16.2454 3.34368 16.7367 3.15227 17.4846 3.26733C18.1589 3.36983 18.7643 3.7394 19.1633 4.29272C19.735 5.08281 19.6907 5.8696 19.548 6.78491C19.0161 6.79289 18.4528 6.78601 17.9211 6.78198C17.1156 6.77588 16.6943 6.88429 16.3068 7.64429L16.133 7.64038C14.5929 7.62106 13.0169 7.63823 11.4738 7.63843C11.2272 6.76355 10.9881 5.89156 11.3312 5.0105C11.5759 4.38077 12.064 3.87484 12.6848 3.60815C13.3829 3.31134 14.0197 3.34938 14.7092 3.62671C14.5514 3.18238 14.3702 2.79823 13.9269 2.57593C13.476 2.34999 13.3127 1.98787 13.8137 1.69312ZM8.84491 -0.000244141C8.96969 -0.0039747 9.25869 0.035757 9.32538 0.150146C9.56204 0.558011 9.00535 0.90207 8.8869 1.24097C8.79003 1.51893 8.77919 1.82333 8.77069 2.11304C8.93022 1.97386 9.06394 1.86175 9.24335 1.7478C9.80614 1.39388 10.4887 1.28205 11.1349 1.43823C11.8886 1.61478 12.3864 2.03808 12.7863 2.68042C11.5225 3.07512 10.7872 3.86877 10.4064 5.12476C10.2031 6.03953 10.3566 6.75349 10.593 7.6394L9.40741 7.63647C9.55841 6.04108 9.21647 2.94573 7.93378 1.86206C7.97022 1.14741 8.18777 0.382986 8.84491 -0.000244141ZM22.2941 1.71753C22.476 1.70541 22.7967 1.66697 22.9299 1.78198C23.1469 1.9709 23.2605 2.26432 22.966 2.44116C22.6761 2.61465 22.4106 2.52213 22.1223 2.65796C21.8285 2.79652 21.6266 3.00166 21.4074 3.22925C21.934 3.23795 22.4243 3.35004 22.8664 3.64331C23.4282 4.01701 23.8171 4.60032 23.9465 5.26245C24.1355 6.20697 23.7987 6.87812 23.2922 7.6394L22.1057 7.63647C21.7382 6.80553 21.1992 6.78244 20.4133 6.78589L20.4738 6.23315C20.4857 5.96741 20.4937 5.73123 20.4689 5.46558C20.3866 4.55858 19.9412 3.72239 19.2336 3.14917C18.5082 2.55668 17.6012 2.32562 16.6769 2.41479C18.0742 1.38208 19.4599 1.61635 20.5402 2.94312C21.0302 2.30952 21.4958 1.89073 22.2941 1.71753ZM1.18475 1.71753C2.16956 1.61046 2.89897 2.19977 3.45917 2.948C3.61237 2.75897 3.75703 2.57866 3.93964 2.41675C4.45366 1.9676 5.126 1.74177 5.80682 1.79077C6.48386 1.83859 7.1146 2.15581 7.55682 2.67065C8.47226 3.72949 8.66745 6.27091 8.56171 7.63745L7.68964 7.63843C7.48076 7.21863 7.2801 7.0026 6.82733 6.83862C6.41007 6.74581 5.36545 6.79524 4.89471 6.78589C4.29482 6.79478 3.6914 6.77128 3.09198 6.79468C2.48035 6.81869 2.14385 7.1114 1.89081 7.6355L0.710144 7.63745C0.340548 7.07151 0.0461377 6.61538 0.00506592 5.91577C-0.0357662 5.24221 0.192836 4.57958 0.640808 4.07495C1.20446 3.45088 1.78675 3.27598 2.591 3.23218C2.11645 2.7149 1.94384 2.61659 1.24237 2.54077C0.86539 2.5 0.713466 1.96072 1.18475 1.71753Z" fill="white"/>
</g>
<defs>
<clipPath id="clip0_77_1045">
<rect width="24" height="24" fill="white"/>
</clipPath>
</defs>
</svg>
