<svg width="24" height="24" viewBox="0 0 24 24" fill="none" xmlns="http://www.w3.org/2000/svg">
<g clip-path="url(#clip0_14_466)">
<path d="M8.16089 0.0330895C9.4477 -0.0210806 10.7884 0.0258579 12.1079 0.023321C15.111 0.0175488 18.7262 -0.382336 20.7597 2.37496C21.5256 3.41336 21.4378 4.74036 21.4349 5.94665L21.4308 8.99958L21.4292 13.421C21.4311 14.0907 21.4425 14.7717 21.4302 15.4355C21.4033 16.8978 20.6193 18.222 19.3619 18.9608C19.1612 19.0787 18.5361 19.3014 18.5044 19.5133C18.7264 19.7355 19.2777 20.0378 19.5489 20.2361C20.7334 21.1025 21.9809 21.8796 23.1695 22.7389C23.4678 22.9547 23.7151 23.0629 23.9729 23.3402C24.0128 23.5673 23.9998 23.7474 23.9892 23.9758C23.786 23.9636 23.4926 23.9997 23.272 23.999C22.7256 23.9971 22.1787 23.9973 21.6324 23.9958L15.8969 23.9784L4.7661 23.9696C3.21055 23.9692 1.64766 24.0229 0.0876241 23.9885C-0.11551 23.8345 0.0783331 23.2633 0.227512 23.1392C0.383483 23.0095 0.62218 22.9229 0.798038 22.7853C1.95805 21.8772 3.25757 21.1562 4.41457 20.244C4.60622 20.093 5.4864 19.6574 5.5152 19.4353C5.4506 19.3279 4.35763 18.7948 4.08927 18.567C2.29121 17.04 2.60465 15.3206 2.60647 13.177L2.60601 8.39773L2.60449 5.75044C2.60272 5.18304 2.56667 4.53454 2.65374 3.98078C2.91053 2.44248 3.85983 1.41833 5.2254 0.766722C6.17323 0.314437 7.11479 0.080841 8.16089 0.0330895ZM16.4851 11.3219C17.386 11.3166 18.139 11.3398 18.8738 10.6599C19.7562 9.84348 19.588 8.57837 19.6084 7.46734C19.6225 6.71812 19.4769 5.7096 18.9112 5.15912C18.6202 4.87594 18.2442 4.70484 17.838 4.64385C16.6616 4.46727 15.3332 4.54971 14.1356 4.54114C11.987 4.52581 9.82767 4.5598 7.68089 4.53604C6.85431 4.54543 5.7138 4.55156 5.08747 5.19684C4.24113 6.06884 4.44832 7.50026 4.43017 8.61555C4.41794 9.36665 4.57978 10.1181 5.11589 10.6698C5.3401 10.9006 5.94193 11.2015 6.24534 11.2522C6.70268 11.3285 7.36963 11.3274 7.84357 11.327L9.77716 11.3223L16.4851 11.3219ZM16.6183 13.8987C15.8899 14.0197 15.3927 14.7049 15.5012 15.4382C15.6097 16.1715 16.2838 16.682 17.0158 16.5852C17.5002 16.5212 17.9126 16.1998 18.0946 15.7445C18.2765 15.2892 18.1998 14.7708 17.8939 14.3882C17.588 14.0057 17.1004 13.8186 16.6183 13.8987ZM7.12107 13.8769C6.3674 13.9124 5.78721 14.5582 5.82951 15.3146C5.87178 16.0709 6.52033 16.6475 7.27321 16.5981C8.0163 16.5493 8.58142 15.9084 8.53969 15.1618C8.49796 14.4153 7.86492 13.8419 7.12107 13.8769ZM9.39393 1.39675C8.74196 1.46039 8.54695 2.02672 8.73609 2.59802C8.89812 2.71701 9.00657 2.8252 9.1513 2.96487C9.67474 3.03757 10.9055 3.01896 11.5037 3.01165C12.5034 2.99948 13.6266 3.04289 14.611 3.00704C15.397 2.94326 15.6176 1.97203 15.059 1.52395C14.8138 1.32735 13.8795 1.37945 13.5515 1.38063L11.8153 1.38616C11.2041 1.38734 9.95118 1.3429 9.39393 1.39675ZM8.61076 20.0021C7.77465 20.0264 7.74367 20.0786 7.0541 20.6104C6.90389 20.7263 6.70662 20.8309 6.56633 20.9793L6.56608 21.0205C6.75346 21.1267 14.7101 21.0861 15.5275 21.0858C15.8379 21.0874 17.2861 21.1322 17.4643 21.0083C17.4661 20.8337 16.1925 20.0186 15.8783 20.0165C13.4799 20.0003 11.0707 19.9728 8.67219 20.0003C8.65171 20.0004 8.63122 20.001 8.61076 20.0021ZM5.49542 21.9099C5.41547 21.9187 5.19685 21.9455 5.14145 21.9737C4.94753 22.0726 3.65871 22.9036 3.62874 22.9826C3.71016 23.0442 4.73613 23.0091 4.92511 23.0094L8.43018 23.0096L18.5957 23.0131L19.9346 23.0145C20.0485 23.0147 20.3245 23.0399 20.4 22.9845C20.356 22.8736 18.9581 21.967 18.8292 21.9262L18.8142 21.9214C18.6333 21.8643 17.1392 21.8961 16.8554 21.8953L10.784 21.8894L7.3329 21.8917C6.86243 21.8919 5.94146 21.8652 5.49542 21.9099Z" fill="white"/>
</g>
<defs>
<clipPath id="clip0_14_466">
<rect width="24" height="24" fill="white"/>
</clipPath>
</defs>
</svg>
