<svg width="24" height="24" viewBox="0 0 24 24" fill="none" xmlns="http://www.w3.org/2000/svg">
<path d="M17.998 8.99897L17.9999 6.88882C17.9999 6.69338 18 6.49567 18 6.30092C18.0001 5.9786 17.9856 5.70756 18.2314 5.46524C18.5309 5.17009 19.0222 5.19569 19.3034 5.50295C19.3965 5.60624 19.4771 5.71803 19.5609 5.82966L19.9632 6.36612L21.274 8.11479L23.0085 10.4271L23.5668 11.1709C23.6636 11.3 23.7628 11.4292 23.8557 11.5613C23.9371 11.6769 23.9539 11.7983 24 11.9117V12.0896C23.8857 12.4173 23.8424 12.4596 23.6347 12.7359L23.2248 13.2823L21.9188 15.0238L20.2364 17.2678C19.9999 17.5834 19.7637 17.8992 19.5271 18.2148C19.4007 18.3833 19.2661 18.5817 19.0714 18.6763C18.8936 18.7608 18.6893 18.7712 18.5037 18.7056C18.2096 18.6026 18.0176 18.3329 18.0061 18.0212C17.992 17.6364 18.0035 17.2516 18.0008 16.8667C18.0079 16.2517 17.9887 15.6203 18.0027 15.0076C16.9748 14.9954 15.9334 15.0036 14.9048 15.0036L9.41984 15.0035L7.06118 15.0037L6.38398 15.0051C6.27364 15.0056 6.10543 15.0135 6.00101 14.9986L6.00048 17.073C6.00046 17.3979 6.02797 17.85 5.97337 18.1603C5.87184 18.7375 5.08131 18.9573 4.69875 18.4999C4.49314 18.2669 4.32261 18.0187 4.1392 17.7732L3.14078 16.4415L1.07908 13.6924L0.442526 12.8437C0.340246 12.7073 0.235298 12.5705 0.136087 12.4311C0.0770368 12.3482 0.0328155 12.1717 0 12.1167V11.8735L0.0102568 11.8533C0.0531432 11.7666 0.0892978 11.6406 0.145498 11.5577C0.240798 11.417 0.353445 11.2728 0.455491 11.1368L1.08099 10.3037L2.59686 8.28229L3.9707 6.4504L4.39702 5.88201C4.55726 5.66836 4.72571 5.39534 4.98653 5.30151C5.17778 5.23446 5.38772 5.24527 5.57108 5.33158C5.75275 5.41745 5.8917 5.5735 5.95601 5.76387C6.02596 5.97453 6.00071 7.00098 6.00067 7.28053L6.00037 8.99764L17.998 8.99897Z" fill="white"/>
</svg>
