<svg width="24" height="24" viewBox="0 0 24 24" fill="none" xmlns="http://www.w3.org/2000/svg">
<g clip-path="url(#clip0_50_765)">
<path d="M8.69443 9.03245C8.81514 9.06471 9.37961 9.05275 9.53401 9.05252L11.0652 9.05091L13.8361 9.05179C14.2508 9.05186 14.8917 9.07125 15.2917 9.04402C15.7638 10.1997 16.3147 11.4139 16.8134 12.5697L19.947 19.8264C20.3985 20.8721 20.8985 21.9784 21.3232 23.0287L15.3281 23.0261L6.67214 23.026L4.00752 23.0257C3.70028 23.0257 2.95832 23.0074 2.67678 23.0383C2.82356 22.6362 3.06166 22.1226 3.23416 21.7236L4.24658 19.38L7.3801 12.1175L8.37481 9.80926C8.45484 9.62158 8.66436 9.2005 8.69443 9.03245ZM12.605 19.9273C12.2824 19.9082 11.7209 19.9077 11.3955 19.9221C11.39 20.7066 11.386 21.5496 11.3991 22.3329C11.8004 22.338 12.2016 22.3382 12.6029 22.3335L12.605 19.9273ZM12.6053 15.0939C12.2013 15.0907 11.7972 15.0905 11.3932 15.0933C11.3972 15.8799 11.3787 16.7267 11.3985 17.5039C11.7995 17.5083 12.2005 17.5093 12.6015 17.5069C12.6158 16.7082 12.6004 15.8945 12.6053 15.0939ZM24 13.1272L19.122 13.1257C19.1349 12.4044 19.1661 12.0825 19.0419 11.3202C18.7207 9.43723 17.6678 7.75771 16.1129 6.6482C14.5453 5.53125 12.5962 5.08759 10.6996 5.41605C8.82016 5.73896 7.1455 6.79405 6.04285 8.34991C5.26126 9.4525 4.80446 10.7522 4.72434 12.1013C4.70424 12.4095 4.69569 12.8184 4.74719 13.1246L0 13.1268V0.975006H24V13.1272ZM12.6059 10.2568C12.2027 10.2534 11.7996 10.2531 11.3965 10.2557C11.3926 11.0618 11.393 11.8679 11.3974 12.674L12.6029 12.675L12.6059 10.2568Z" fill="white"/>
</g>
<defs>
<clipPath id="clip0_50_765">
<rect width="24" height="24" fill="white"/>
</clipPath>
</defs>
</svg>
