<svg width="24" height="24" viewBox="0 0 24 24" fill="none" xmlns="http://www.w3.org/2000/svg">
<g clip-path="url(#clip0_2_126)">
<path d="M22.3871 3.07586C22.4804 3.12298 22.6022 3.40187 22.7311 3.55314C22.2619 3.976 21.3497 4.55352 20.8111 4.94131C19.9808 5.53961 19.1459 6.13145 18.3064 6.71674C17.8158 7.06336 17.2952 7.45211 16.7955 7.77707C16.9882 7.82829 17.0773 7.85895 17.2606 7.93711L17.2706 8.39839C16.8317 8.66387 16.5817 8.97357 16.1964 9.30192C15.9264 9.53195 15.5772 9.78441 15.2879 9.99285L13.2736 11.4344C12.511 11.984 11.8233 12.5179 10.9809 12.9407C10.6777 13.0929 10.3261 13.4031 10.0313 13.588C9.83185 13.7671 9.2339 14.0924 9.07656 14.2889C8.72659 14.7268 9.02638 15.3126 8.27861 15.6018C7.92965 15.7367 7.67819 15.3275 7.45429 15.4512C7.15244 15.618 6.74945 15.9632 6.62999 16.3C6.44217 16.7562 6.65259 17.0147 6.81256 17.4146C6.78852 17.4488 6.76378 17.4825 6.73715 17.5147C6.53652 17.7548 6.05121 17.9996 5.74311 18.0267C5.21363 18.6561 4.83766 19.3743 4.3624 20.0431C4.32383 20.0974 4.27525 20.1621 4.25819 20.2255C4.33758 20.3468 4.36616 20.3631 4.30513 20.498C4.04092 20.4902 4.03222 20.4919 3.89817 20.7252C3.68984 21.0877 3.4182 21.4228 3.18155 21.7685C3.02968 21.9904 2.91301 22.1952 2.78866 22.4329C2.71585 22.322 2.58275 22.1593 2.49798 22.0499C2.26514 21.7163 2.04111 21.3962 1.79729 21.0704C1.5282 20.711 1.01951 20.3004 0.861882 19.9095C0.935625 19.7757 1.02827 19.649 1.14398 19.5483C1.73483 19.034 2.34607 18.5365 2.95101 18.0379C3.49945 17.5859 4.04429 17.1307 4.59692 16.6835C4.81118 16.5353 5.08325 16.4571 5.29071 16.3009C5.39289 16.2235 5.45336 16.1355 5.5361 16.0394C6.05668 15.4345 6.37932 14.4601 6.92992 13.9222C7.16093 13.6965 7.64441 13.3992 7.90218 13.2173L9.57395 12.0317L15.6941 7.73603L19.9052 4.77494C20.7173 4.19888 21.5269 3.52832 22.3871 3.07586ZM8.41526 14.7662C8.13123 14.8467 7.8635 15.0946 7.86253 15.4035C7.92683 15.514 7.98963 15.4917 8.11658 15.5001C8.50348 15.3963 9.06443 14.8967 8.41526 14.7662Z" fill="white"/>
</g>
<defs>
<clipPath id="clip0_2_126">
<rect width="24" height="24" fill="white"/>
</clipPath>
</defs>
</svg>
