<svg width="24" height="24" viewBox="0 0 24 24" fill="none" xmlns="http://www.w3.org/2000/svg">
<g clip-path="url(#clip0_38_637)">
<path d="M16.4258 12.8848C18.3153 13.2426 20.2851 13.8382 21.8848 14.9326C22.7224 15.5058 23.5197 16.3055 23.8438 17.2881C23.9412 17.5838 23.948 17.7331 24 18.0176V18.4502C23.9583 18.709 23.9317 18.9226 23.8477 19.1768C23.5317 20.1324 22.8017 20.8839 22.0029 21.4639C19.942 22.9279 17.1285 23.6051 14.6436 23.8652C14.2165 23.909 13.7882 23.9425 13.3594 23.9648C13.2197 23.9718 12.7463 23.9811 12.6387 24H11.3496C11.2359 23.9804 10.7769 23.9719 10.6348 23.9648C10.2102 23.9428 9.78608 23.9094 9.36328 23.8652C6.86493 23.6058 4.02293 22.9182 1.96191 21.4375C1.18262 20.8776 0.42387 20.0689 0.138672 19.1367C0.0528952 18.8562 0.0425228 18.7029 0 18.4287V18.0283C0.0260165 17.9099 0.0337767 17.7769 0.0585938 17.6553C0.303513 16.4565 1.19861 15.5468 2.18359 14.8779C3.31953 14.1067 4.63416 13.6183 5.95605 13.2441C5.89574 13.6875 5.84707 14.1324 5.80859 14.5781C5.55639 14.6875 5.30896 14.8083 5.06738 14.9395C4.17838 15.4271 3.26171 16.1507 2.9707 17.165C2.7929 17.7851 2.88914 18.426 3.2041 18.9844C3.97924 20.3589 5.85634 21.1564 7.30078 21.5635C10.7377 22.5321 15.8169 22.419 18.9521 20.6602C19.841 20.1615 20.7581 19.4209 21.04 18.3984C21.2081 17.7884 21.0974 17.1455 20.7861 16.6006C19.9368 15.1142 17.9242 14.3695 16.3662 13.9492C16.381 13.5943 16.4011 13.2392 16.4258 12.8848ZM24 0.557617C23.8437 1.04822 23.4845 0.957299 23.0664 0.962891C22.8334 0.96579 22.6001 0.970941 22.3672 0.978516C21.2654 1.01949 20.257 1.16704 19.2256 1.56348C19.1131 1.60672 18.579 1.80199 18.5244 1.86035C18.2414 2.16447 17.9373 2.70587 17.7529 3.07324C17.2962 3.98368 16.9345 4.98367 16.6494 5.95996C15.9822 8.24495 15.6237 10.6292 15.4551 13C15.3683 14.251 15.3333 15.505 15.3516 16.7588C15.355 17.0106 15.3614 17.263 15.3701 17.5146C15.3728 17.6073 15.3757 17.8312 15.3916 17.9131C15.4071 17.9943 15.4448 18.07 15.501 18.1309C15.5882 18.225 15.7106 18.2798 15.8389 18.2832C15.9735 18.2868 16.1035 18.2343 16.1982 18.1387C16.3867 17.948 16.3314 17.6501 16.3271 17.4014L16.3223 16.7412C16.4774 16.798 16.6302 16.8615 16.7803 16.9307C17.12 17.0883 17.9456 17.5136 17.7109 17.9805C17.586 18.2289 17.0955 18.5219 16.8398 18.6387C15.724 19.1485 14.4206 19.4315 13.2061 19.5635C12.9689 19.5907 12.7306 19.61 12.4922 19.6211C12.3131 19.6302 11.9797 19.6171 11.8271 19.6699C11.7096 19.7116 11.6144 19.8006 11.5645 19.915C11.5097 20.0388 11.5077 20.1797 11.5596 20.3047C11.6107 20.4267 11.7112 20.5218 11.8359 20.5654C11.9785 20.6166 12.4527 20.5873 12.624 20.5752C14.1859 20.4605 15.7507 20.1787 17.1875 19.5312C18.0676 19.1346 19.1103 18.3158 18.5811 17.2295C18.1838 16.4144 17.1186 15.9997 16.3037 15.7168C16.3142 15.4589 16.3062 15.1998 16.3223 14.9414C16.3593 14.9511 16.3967 14.9614 16.4336 14.9717C17.5944 15.2954 19.3378 15.9731 19.959 17.0859C20.1454 17.4202 20.2127 17.798 20.1064 18.1699C19.8918 18.9208 19.1294 19.4756 18.4756 19.8398C15.549 21.4704 10.6414 21.5325 7.4707 20.624C6.31211 20.292 4.63963 19.6134 4.0293 18.5C3.84551 18.1645 3.78668 17.7866 3.89844 17.417C4.14334 16.6072 4.98746 16.0543 5.69727 15.6768C5.692 15.9417 5.66984 16.2443 5.65625 16.5117C5.20247 16.8841 4.83148 17.3324 4.89844 17.9561C4.94603 18.3962 5.1923 18.7649 5.54199 19.042C6.09207 19.4777 6.9022 19.7172 7.60742 19.6875C7.87432 19.6763 8.07408 19.4101 8.0332 19.1416C8.00734 18.9734 7.89385 18.8314 7.73535 18.7695C7.59831 18.7157 7.42684 18.7373 7.28223 18.7207C6.90156 18.6768 6.47052 18.5506 6.16406 18.3135C5.9631 18.1579 5.87485 18.0232 5.8418 17.7754C6.15639 17.9274 6.50143 17.8191 6.56738 17.4775C6.61127 17.2497 6.6024 16.8701 6.61328 16.6328C6.63151 16.2641 6.65347 15.8956 6.68066 15.5273C6.74567 14.6323 6.84554 13.7401 6.97852 12.8525C7.45303 9.72058 8.38441 6.72417 10.1787 4.08496C10.7985 3.17329 11.4078 2.44285 12.1318 1.62305C11.9671 1.54539 11.7822 1.48955 11.6094 1.43262C10.681 1.12683 9.73417 1.01146 8.76074 0.975586C8.50268 0.966108 7.66545 0.990169 7.48926 0.916992C7.37327 0.868691 7.27957 0.778096 7.23438 0.660156C7.18729 0.537181 7.19145 0.393109 7.24902 0.274414C7.32347 0.121175 7.44522 0.0521231 7.59961 0H24V0.557617ZM16.2852 0.962891C16.017 1.0399 15.8687 1.31343 15.7129 1.53223C15.3108 2.09517 14.9397 2.68105 14.6025 3.28516C12.4979 7.07638 11.9487 11.76 11.7402 16.0518C11.724 16.3841 11.6143 18.1581 11.6748 18.374C11.7105 18.4964 11.7937 18.6004 11.9053 18.6621C12.015 18.7218 12.1086 18.7194 12.2266 18.7119C12.6905 18.5952 12.6186 18.1517 12.6299 17.7744L12.6611 16.9248C12.696 16.0599 12.7459 15.1953 12.8105 14.332C13.0442 11.2732 13.5014 8.04725 14.7227 5.21191C15.0906 4.35625 15.5303 3.53236 16.0371 2.75098C16.1865 2.52175 16.3417 2.29572 16.501 2.07324C16.5911 1.94734 16.7458 1.76799 16.8047 1.63574C16.9735 1.25479 16.6766 0.917109 16.2852 0.962891ZM14.0361 1.11523C13.7662 1.18874 13.5882 1.46414 13.415 1.6748C12.7924 2.43148 12.2337 3.23988 11.7461 4.08984C9.70371 7.65425 8.94729 11.8262 8.66504 15.8789C8.63329 16.3332 8.60647 16.7882 8.58594 17.2432C8.57947 17.3846 8.55072 17.8163 8.58301 17.9355C8.61658 18.0564 8.69731 18.1601 8.80664 18.2217C8.90517 18.2777 9.00897 18.2913 9.12012 18.2793C9.58702 18.1613 9.52727 17.773 9.54297 17.3887C9.55336 17.1176 9.56618 16.846 9.58105 16.5752C9.62737 15.7714 9.69379 14.9686 9.7793 14.168C10.0059 12.0784 10.3939 9.9808 11.0605 7.98438C11.6887 6.04444 12.6456 4.22606 13.8896 2.61035C13.9996 2.46957 14.1127 2.33035 14.2285 2.19434C14.3237 2.08217 14.4872 1.91712 14.5449 1.78809C14.7079 1.42057 14.4179 1.07683 14.0361 1.11523Z" fill="white"/>
</g>
<defs>
<clipPath id="clip0_38_637">
<rect width="24" height="24" fill="white"/>
</clipPath>
</defs>
</svg>
