<svg width="24" height="24" viewBox="0 0 24 24" fill="none" xmlns="http://www.w3.org/2000/svg">
<path d="M7.85957 5.2666C9.23467 4.22834 11.3005 6.56278 12.009 7.50879C12.764 6.56173 14.7361 4.25633 16.1486 5.25488C16.6295 5.59488 17.4329 6.58343 17.8342 7.06445C18.8707 8.29182 19.8819 9.54122 20.8654 10.8115L22.0031 12.2988C22.1918 12.547 22.4731 12.942 22.6779 13.1562C21.9397 13.448 20.8438 13.8914 20.2033 14.3662C21.1352 14.2756 21.842 14.3673 22.6955 14.7783C21.3159 15.0048 20.7282 15.2008 19.5881 16.0713C19.6216 16.232 19.6434 16.2215 19.798 16.2744C20.4126 16.1521 21.1874 15.9975 21.8117 15.9707C21.1689 16.2298 20.6454 16.3993 20.0246 16.748C18.1709 17.7942 16.7364 19.4496 15.9631 21.4326C15.755 21.9608 15.6282 22.4641 15.4758 23.0078C14.4752 23.4042 13.1277 23.6165 12.0139 24C10.9123 23.5948 9.66438 23.4344 8.53828 23.0098C8.48194 22.7748 8.42224 22.5399 8.35762 22.3076C7.62578 19.6763 5.658 17.3532 3.10762 16.333C2.80465 16.2118 2.49702 16.0763 2.19356 15.9492C3.01058 16.0493 4.07013 16.1941 4.86055 16.4287C3.78078 15.3964 2.73318 14.9921 1.3 14.7793C2.09317 14.4057 2.97519 14.2614 3.8459 14.3643C3.12387 13.8736 2.15031 13.4763 1.34102 13.1611C1.53498 12.9622 1.84503 12.532 2.02364 12.2969L3.1584 10.8145C4.14571 9.53788 5.16099 8.28296 6.2043 7.05176C6.62187 6.5517 7.36313 5.64164 7.85957 5.2666ZM11.6467 20.0654C10.883 20.108 9.76143 20.175 9.18282 20.7148C8.6393 21.2226 9.98058 21.9178 10.3166 22.1357L12.0022 23.2334L12.26 23.085C12.7376 22.7678 13.2179 22.4538 13.6994 22.1426C14.0512 21.9151 15.303 21.264 14.8791 20.7754C14.2991 20.1081 12.4775 20.0055 11.6467 20.0654ZM15.4504 11.8105C15.2316 11.8884 14.5606 12.1401 14.3723 12.1807C14.3126 13.1655 14.2384 14.1881 14.1984 15.1729C14.1842 15.5237 13.9736 17.2237 14.0285 17.4229L14.0461 17.417L14.5773 14.9141C14.6291 14.6791 14.8348 13.5629 14.9992 13.4922C15.4876 13.2841 16.0688 13.3072 16.5773 13.0791C16.899 12.6254 17.161 12.0437 17.4406 11.5537C17.5058 11.4395 17.6992 11.1199 17.7336 11.0283L17.6828 11.0137L15.4504 11.8105ZM6.21895 10.9473C6.5079 11.366 6.77957 11.9554 7.04024 12.4023C7.17096 12.6264 7.28661 12.8843 7.45332 13.0879C7.9645 13.2844 8.55091 13.3302 9.07735 13.498C9.21111 13.7986 9.30404 14.2902 9.38301 14.6191C9.54739 15.3036 9.67661 16.0099 9.83516 16.6943C9.91402 16.5814 9.91624 16.5433 9.93867 16.4053C9.80801 14.9987 9.71279 13.5881 9.6545 12.1768C9.30979 12.1033 8.30664 11.7166 7.91914 11.5791C7.5591 11.4513 6.51561 11.101 6.21895 10.9473ZM2.57442 0C2.67668 0.0172299 2.96681 0.113436 3.07832 0.149414C4.84748 0.720113 6.11449 1.60756 6.97676 3.26855C6.53834 3.76236 5.9941 4.24579 5.57539 4.74805C5.34331 3.74236 5.17329 3.15206 4.55977 2.29688C4.51968 2.22654 4.50153 2.176 4.43184 2.1377C4.41145 2.17598 4.42581 3.56662 4.40938 3.80957C4.33517 4.90094 4.05015 5.87747 3.58614 6.86328C3.77529 4.15216 4.10376 2.49148 2.57442 0ZM21.4074 0.00878906C21.4124 0.0790393 21.0206 0.730502 20.9514 0.87207C20.1498 2.50531 20.1338 5.05526 20.4445 6.81738C19.722 5.49765 19.525 3.97857 19.5969 2.48828C19.6025 2.37251 19.6425 2.23754 19.6311 2.12695C19.5577 2.13849 19.5366 2.19202 19.4758 2.2627C18.8746 3.11851 18.6591 3.75265 18.466 4.75684C18.081 4.28414 17.4868 3.75456 17.0529 3.2666C17.078 3.21455 17.1037 3.16277 17.1301 3.11133C18.054 1.30918 19.5989 0.590099 21.4074 0.00878906Z" fill="#FAFAFA"/>
</svg>
