<svg width="24" height="24" viewBox="0 0 24 24" fill="none" xmlns="http://www.w3.org/2000/svg">
<g clip-path="url(#clip0_73_908)">
<path d="M21.4754 18.0021C21.8829 18.0027 22.3879 17.9814 22.786 18.0705C22.9123 18.0988 22.9716 18.3223 22.9725 18.4191C22.9749 20.0896 22.9813 21.7604 22.9793 23.4308C22.979 23.7137 22.9235 23.8266 22.6737 24.0002H21.1297C20.8315 23.783 20.5803 22.7374 20.4676 22.3761C20.0913 21.1701 19.366 20.3256 17.9129 20.09C17.4617 20.0169 16.9792 20.0387 16.5038 20.0392H14.7596L8.34653 20.0314C7.97963 20.0331 7.16444 20.0407 6.82407 20.1115C5.2242 20.4446 4.69567 21.6253 4.30649 22.8986C4.17674 23.3232 4.13353 23.6863 3.78305 24.0002H2.32798C2.21025 23.9406 2.04036 23.8669 2.02524 23.7424C1.95115 23.1299 1.99024 22.2862 1.99008 21.672L1.98813 19.6086C1.98814 19.3203 1.95661 18.3391 2.05649 18.1388C2.2063 18.0317 2.42229 18.0105 2.6102 18.008C3.08835 18.0016 3.57038 18.005 4.04868 18.0051H6.74301L14.9012 18.006L19.8582 18.0031L21.4754 18.0021ZM22.2391 0.00407729C22.5722 0.0054351 22.9303 -0.00369918 22.9491 0.431812C22.978 1.10414 22.9677 1.78185 22.9676 2.45525L22.952 6.63787L22.9657 12.6174C22.9665 13.6788 22.9847 14.7416 22.9491 15.8029C22.9434 15.971 22.9302 16.4258 22.8153 16.5617C22.7518 16.6359 22.5609 16.6395 22.4608 16.6467C21.9591 16.6709 21.3243 16.6547 20.8143 16.6564L17.7772 16.6652L8.83188 16.6603H3.3602C3.01066 16.6603 2.47192 16.6812 2.14829 16.5881C2.01506 16.4533 2.01524 16.2844 2.01352 16.1037C2.00421 15.1239 2.00745 14.1432 2.00766 13.1633L2.00864 7.72673L2.00766 3.04119C2.00765 2.24585 2.00434 1.44501 2.01059 0.649585C2.01232 0.429961 2.04225 0.2691 2.11411 0.062671C2.25043 0.0387219 2.3809 0.0285086 2.51841 0.015796C2.71331 -0.00421897 3.09478 0.00584741 3.30356 0.00603041L4.75278 0.00798354H9.43247L18.0223 0.0011476C19.4279 0.000731775 20.8336 -0.00164692 22.2391 0.00407729ZM12.4686 3.34978C12.1339 3.35477 11.7859 3.34128 11.453 3.36052C10.5638 3.38951 9.6884 3.49071 8.80454 3.58318C8.17069 3.64945 5.8928 3.81654 5.4813 4.24138C5.40782 4.3173 5.39635 4.55942 5.3895 4.66521C5.36244 5.0818 5.37182 5.50533 5.36411 5.92302C5.34886 7.08252 5.34486 8.24293 5.35141 9.40251L5.36313 12.423C5.36245 13.1041 5.36086 13.7846 5.36508 14.466C5.36687 14.7529 5.46131 15.0416 5.79087 15.09C6.20949 15.1513 6.66598 15.1237 7.09165 15.1222H15.9823L17.8192 15.1301C18.284 15.1307 18.9085 15.1393 19.3534 15.0656C19.4281 14.9476 19.542 14.7646 19.5584 14.6281C19.6049 14.2418 19.5894 13.7866 19.5897 13.3957L19.5809 10.8547C19.579 10.4513 19.5599 10.0167 19.6522 9.62322C19.6705 9.54529 19.7201 9.49653 19.8016 9.48259C20.3546 9.38836 21.4648 9.60494 21.9383 9.33611C22.0064 9.22235 22.0874 9.09924 22.0545 8.96013C22.0358 8.88173 21.9821 8.82188 21.9139 8.78142C21.494 8.5328 19.7315 8.87493 19.6307 8.49822C19.5478 8.18735 19.581 7.82853 19.5829 7.50896L19.5907 5.69451C19.5914 5.31709 19.6789 4.41661 19.3543 4.13884C19.2566 4.05527 18.9154 3.99733 18.787 3.96697C17.8358 3.74305 16.8748 3.65656 15.9071 3.54802C14.7616 3.41954 13.6227 3.33259 12.4686 3.34978ZM13.5282 4.04119C13.3398 4.47332 13.2385 4.90174 13.2499 5.37712C13.2567 5.74034 13.332 6.09945 13.4706 6.43474C13.8653 7.37738 14.5466 7.62252 15.244 8.30193C15.5806 8.6299 15.5517 8.65087 15.7909 9.02459C16.1493 9.58435 16.3247 10.0494 16.3358 10.7336C16.3517 11.6443 16.0036 12.5234 15.37 13.173C13.943 14.6573 11.1754 14.6094 9.76743 13.1525C9.19027 12.5554 8.802 11.8699 8.68344 11.0383C8.65029 10.8056 8.5798 10.587 8.59067 10.3469C8.58085 9.39089 8.9713 8.22098 9.64438 7.5324C9.67661 7.52774 9.7072 7.5222 9.73813 7.51189C9.74735 7.5528 9.74652 7.56472 9.76743 7.59978L9.78989 7.58025L9.80942 7.59294C9.61041 8.37086 9.65844 9.16863 10.0741 9.86638C10.1832 10.0496 10.3804 10.4147 10.6454 10.3195C11.0118 10.1874 10.8522 9.89757 10.7694 9.62615C10.4046 8.45362 10.5234 7.18226 11.0985 6.0988C11.6242 5.10691 12.4517 4.36705 13.5282 4.04119ZM12.7469 8.56658C12.4764 9.33754 12.6732 9.7301 12.8084 10.4875C12.9247 11.1386 12.4946 11.7702 11.911 12.047C11.8149 12.0934 11.715 12.1313 11.6122 12.1594C12.0779 12.4799 12.3845 12.7415 13.0155 12.6603C13.2096 12.6285 13.3071 12.58 13.4725 12.4787C13.5748 12.416 13.7096 12.3508 13.8026 12.2785C14.262 11.9218 14.4113 11.2519 14.326 10.6945C14.2274 10.0512 13.536 9.69074 13.1512 9.22966C13.0591 9.12037 12.8015 8.59395 12.7469 8.56658Z" fill="white"/>
</g>
<defs>
<clipPath id="clip0_73_908">
<rect width="24" height="24" fill="white"/>
</clipPath>
</defs>
</svg>
